<svg width="1307" height="229" viewBox="0 0 1307 229" fill="none" xmlns="http://www.w3.org/2000/svg">
<path d="M1306.54 116L1176.54 40.9445V191.056L1306.54 116ZM0 116L0 129H1189.54V116V103H0L0 116Z" fill="#D80000"/>
<mask id="mask0_164_1197" style="mask-type:alpha" maskUnits="userSpaceOnUse" x="33" y="0" width="935" height="179">
<path d="M115 175H33.25V0H107.5C124.667 0 138 4.25 147.5 12.75C157.167 21.25 162 33.5 162 49.5C162 65.3333 156.083 76.9167 144.25 84.25C152.583 88.5833 158.833 93.9167 163 100.25C167.167 106.583 169.25 114.833 169.25 125C169.25 141.5 164.5 154 155 162.5C145.667 170.833 132.333 175 115 175ZM76.25 37.5V69.25H105C108.667 69.25 111.75 67.9167 114.25 65.25C116.917 62.5833 118.25 58.75 118.25 53.75C118.25 48.5833 116.917 44.5833 114.25 41.75C111.75 38.9167 108.667 37.5 105 37.5H76.25ZM76.25 105.25V137.5H112.25C115.917 137.5 119.083 136.167 121.75 133.5C124.417 130.667 125.75 126.75 125.75 121.75C125.75 116.417 124.417 112.333 121.75 109.5C119.083 106.667 115.917 105.25 112.25 105.25H76.25Z" fill="black"/>
<path d="M244.707 175H201.707V0H278.457C296.79 0 310.79 4.83333 320.457 14.5C330.124 24 334.957 37.6667 334.957 55.5C334.957 78.5 326.04 95.4167 308.207 106.25L340.457 161V175H298.707L262.707 111H244.707V175ZM244.707 37.5V75.5H271.207C278.207 75.5 283.29 74.0833 286.457 71.25C289.79 68.25 291.457 63.25 291.457 56.25C291.457 49.4167 289.79 44.5833 286.457 41.75C283.29 38.9167 278.207 37.5 271.207 37.5H244.707Z" fill="black"/>
<path d="M370.838 117.75V0H413.838V119.25C413.838 124.75 416.088 129.5 420.588 133.5C425.088 137.333 431.588 139.25 440.088 139.25C448.588 139.25 455.088 137.333 459.588 133.5C464.088 129.5 466.338 124.75 466.338 119.25V0H509.338V117.75C509.338 136.75 503.171 151.667 490.838 162.5C478.505 173.333 461.588 178.75 440.088 178.75C418.588 178.75 401.671 173.333 389.338 162.5C377.005 151.667 370.838 136.75 370.838 117.75Z" fill="black"/>
<path d="M622.107 175H579.107V37.5H532.107V0H668.857V37.5H622.107V175Z" fill="black"/>
<path d="M824.152 175H783.902L771.652 137.25H716.152L703.652 175H665.652V161L723.652 0H765.902L824.152 161V175ZM759.652 101.25L744.152 53.5L728.152 101.25H759.652Z" fill="black"/>
<path d="M967.168 175H849.168V0H892.168V137.5H967.168V175Z" fill="black"/>
</mask>
<g mask="url(#mask0_164_1197)">
<rect x="-18" y="-14" width="1087" height="108" fill="black"/>
</g>
<mask id="mask1_164_1197" style="mask-type:alpha" maskUnits="userSpaceOnUse" x="87" y="50" width="934" height="179">
<path d="M168.75 225H87V50H161.25C178.417 50 191.75 54.25 201.25 62.75C210.917 71.25 215.75 83.5 215.75 99.5C215.75 115.333 209.833 126.917 198 134.25C206.333 138.583 212.583 143.917 216.75 150.25C220.917 156.583 223 164.833 223 175C223 191.5 218.25 204 208.75 212.5C199.417 220.833 186.083 225 168.75 225ZM130 87.5V119.25H158.75C162.417 119.25 165.5 117.917 168 115.25C170.667 112.583 172 108.75 172 103.75C172 98.5833 170.667 94.5833 168 91.75C165.5 88.9167 162.417 87.5 158.75 87.5H130ZM130 155.25V187.5H166C169.667 187.5 172.833 186.167 175.5 183.5C178.167 180.667 179.5 176.75 179.5 171.75C179.5 166.417 178.167 162.333 175.5 159.5C172.833 156.667 169.667 155.25 166 155.25H130Z" fill="black"/>
<path d="M298.457 225H255.457V50H332.207C350.54 50 364.54 54.8333 374.207 64.5C383.874 74 388.707 87.6667 388.707 105.5C388.707 128.5 379.79 145.417 361.957 156.25L394.207 211V225H352.457L316.457 161H298.457V225ZM298.457 87.5V125.5H324.957C331.957 125.5 337.04 124.083 340.207 121.25C343.54 118.25 345.207 113.25 345.207 106.25C345.207 99.4167 343.54 94.5833 340.207 91.75C337.04 88.9167 331.957 87.5 324.957 87.5H298.457Z" fill="black"/>
<path d="M424.588 167.75V50H467.588V169.25C467.588 174.75 469.838 179.5 474.338 183.5C478.838 187.333 485.338 189.25 493.838 189.25C502.338 189.25 508.838 187.333 513.338 183.5C517.838 179.5 520.088 174.75 520.088 169.25V50H563.088V167.75C563.088 186.75 556.921 201.667 544.588 212.5C532.255 223.333 515.338 228.75 493.838 228.75C472.338 228.75 455.421 223.333 443.088 212.5C430.755 201.667 424.588 186.75 424.588 167.75Z" fill="black"/>
<path d="M675.857 225H632.857V87.5H585.857V50H722.607V87.5H675.857V225Z" fill="black"/>
<path d="M877.902 225H837.652L825.402 187.25H769.902L757.402 225H719.402V211L777.402 50H819.652L877.902 211V225ZM813.402 151.25L797.902 103.5L781.902 151.25H813.402Z" fill="black"/>
<path d="M1020.92 225H902.918V50H945.918V187.5H1020.92V225Z" fill="black"/>
</mask>
<g mask="url(#mask1_164_1197)">
<rect x="35.75" y="140" width="1087" height="108" fill="black"/>
</g>
</svg>
