<svg width="607" height="474" viewBox="0 0 607 474" fill="none" xmlns="http://www.w3.org/2000/svg">
<path d="M495.381 203.129C502.709 204.422 510.137 204.81 517.458 204.279C540.238 202.626 556.224 192.711 564.813 187.384C572.691 182.498 583.481 175.806 591.08 162.435C594.899 155.715 597.391 148.301 598.486 140.4C599.004 136.658 597.378 132.943 594.277 130.785C593.062 129.939 591.699 129.388 590.291 129.14C588.111 128.755 585.822 129.095 583.798 130.18C571.582 136.736 558.801 140.409 545.809 141.096C539.682 141.42 534.085 141.06 527.664 139.926C521.739 138.88 515.657 137.3 507.055 135.007C493.535 131.404 485.627 128.101 478.651 125.188C470.932 121.964 463.641 118.919 451.841 116.835C450.33 116.569 448.74 116.317 447.117 116.087C429.917 113.651 416.139 114.597 403.752 119.061C399.272 120.676 388.777 124.459 379.096 134.452C375.079 138.599 371.674 143.33 368.979 148.513C367.277 151.79 367.51 155.735 369.587 158.788C371.131 161.058 373.512 162.562 376.141 163.026C377.046 163.186 377.981 163.223 378.921 163.125C381.316 162.877 383.756 162.706 386.176 162.615C386.286 162.611 398.101 162.226 411.297 164.555C415.328 165.267 419.095 166.163 422.494 167.218C430.93 169.838 434.056 172.436 438.792 176.37C443.478 180.263 449.309 185.108 460.754 190.751C468.634 194.637 480.544 200.509 495.381 203.129Z" fill="white"/>
<path d="M386.305 141.434C394.207 133.277 402.819 130.065 407.157 128.501C415.644 125.441 427.093 123.385 445.71 126.022C470.388 129.517 473.26 136.386 504.471 144.703C520.915 149.085 531.786 151.887 546.341 151.117C564.938 150.133 579.559 143.845 588.546 139.021C587.91 143.613 586.391 150.376 582.357 157.475C576.147 168.401 567.515 173.898 559.524 178.854C551.414 183.884 537.048 192.793 516.733 194.267C493.933 195.92 476.412 187.28 465.191 181.747C442.839 170.725 444.772 163.627 425.47 157.632C406.702 151.803 385.802 152.584 385.802 152.584C382.535 152.706 379.81 152.942 377.885 153.141C379.499 150.038 382.137 145.737 386.305 141.434Z" fill="#0F1412"/>
<path d="M437.573 137.637C446.389 140.372 454.824 143.959 463.082 147.885C471.322 151.805 479.375 156.312 487.148 160.754C491.049 162.961 494.774 164.945 498.714 166.256C502.697 167.613 506.913 168.473 511.197 168.958C519.806 169.906 528.732 169.042 537.828 167.565C529.782 172.052 520.546 174.783 510.948 174.976C506.152 175.057 501.319 174.49 496.598 173.207C494.226 172.564 491.898 171.669 489.695 170.682C487.498 169.665 485.423 168.552 483.395 167.429C475.386 162.84 467.829 158.016 460.159 153.127C452.534 148.198 444.941 143.193 437.573 137.637Z" fill="white"/>
<path d="M465.909 234.515C487.212 238.276 504.68 231.78 510.421 229.645C518.831 226.518 526.742 222.138 533.937 216.625C537.342 214.017 538.712 209.536 537.35 205.47C536.168 201.943 533.157 199.406 529.582 198.774C529.035 198.678 528.474 198.626 527.905 198.622C520.883 198.572 514.1 197.978 507.744 196.856C498.25 195.18 489.4 192.263 481.443 188.187C470.768 182.72 457.478 173.106 450.338 167.94C445.16 164.193 441.114 161.077 437.864 158.574C429.339 152.008 424.194 148.044 415.885 146.578C415.52 146.513 415.149 146.454 414.771 146.399C401.282 144.447 386.994 149.887 372.308 162.569C369.41 165.072 368.188 169.005 369.159 172.709C370.13 176.414 373.124 179.242 376.877 180.002C384.781 181.6 391.992 184.503 398.314 188.631C403.386 191.942 405.959 194.785 409.521 198.72C411.379 200.774 413.487 203.102 416.174 205.744C423.601 213.041 439.05 228.224 461.593 233.618C463.014 233.959 464.465 234.26 465.909 234.515Z" fill="white"/>
<path d="M527.834 208.658C523.276 212.15 516.277 216.76 506.923 220.238C500.837 222.502 483.761 228.604 463.93 223.857C444.096 219.112 430.389 205.639 423.213 198.586C415.537 191.042 412.897 186.164 403.803 180.227C394.39 174.082 385.164 171.438 378.869 170.165C394.672 156.521 406.158 155.293 413.338 156.332C422.225 157.618 425.781 162.559 444.456 176.071C452.089 181.593 465.51 191.303 476.869 197.121C487.459 202.545 503.877 208.488 527.834 208.658Z" fill="#0F1412"/>
<path d="M426.099 252.679C439.393 255.026 450.399 253.512 454.543 252.942C463.431 251.719 472.107 249.165 480.329 245.35C484.218 243.545 486.532 239.469 486.086 235.204C485.641 230.939 482.536 227.428 478.358 226.466C461.249 222.525 446.756 215.698 435.277 206.174C426.049 198.518 415.17 186.242 409.326 179.648C405.083 174.861 401.812 170.94 399.184 167.788C392.064 159.253 387.767 154.101 379.295 150.883C377.091 150.046 374.784 149.412 372.436 148.997C361.242 147.021 348.421 149.858 334.33 157.429C330.956 159.241 328.908 162.815 329.05 166.641C329.192 170.468 331.499 173.88 334.997 175.437C342.363 178.717 348.771 183.12 354.044 188.524C358.274 192.858 360.167 196.192 362.787 200.807C364.155 203.217 365.706 205.948 367.755 209.113C373.414 217.849 385.189 236.029 406.02 246.2C412.27 249.251 419.025 251.431 426.098 252.68L426.099 252.68L426.099 252.679Z" fill="white"/>
<path d="M420.489 167.687C425.349 171.031 429.763 174.543 434.207 177.961C438.63 181.394 443.005 184.787 447.433 188.117C451.856 191.45 456.302 194.751 460.815 198.064C465.318 201.404 469.899 204.691 474.438 208.464C468.593 207.606 463.047 205.69 457.755 203.252C452.474 200.79 447.462 197.745 442.814 194.226C438.159 190.714 433.876 186.71 430.063 182.305C426.277 177.88 422.917 173.07 420.489 167.687Z" fill="white"/>
<path d="M476.105 236.246C470.897 238.663 463.063 241.639 453.176 242.999C446.742 243.884 428.748 246.126 410.424 237.18C392.097 228.232 381.65 212.102 376.179 203.655C370.329 194.623 368.813 189.287 361.228 181.513C353.377 173.468 344.947 168.88 339.081 166.268C357.473 156.388 368.952 157.689 375.733 160.264C384.129 163.452 386.523 169.049 401.812 186.299C408.06 193.35 419.048 205.747 428.87 213.896C438.026 221.495 452.758 230.868 476.105 236.246Z" fill="#0F1412"/>
<path d="M392.22 194.403C396.218 196.533 399.695 198.977 403.103 201.452C406.49 203.943 409.751 206.501 412.948 209.137C416.151 211.768 419.284 214.481 422.376 217.329C425.453 220.203 428.517 223.149 431.364 226.678C426.893 225.899 422.801 224.261 418.924 222.265C415.058 220.245 411.427 217.814 408.076 215.046C404.729 212.274 401.649 209.176 398.93 205.767C396.236 202.337 393.843 198.638 392.22 194.403Z" fill="white"/>
<path d="M132.916 139.14C125.588 137.846 118.476 135.666 111.78 132.661C90.9435 123.308 79.3187 108.518 73.0718 100.573C67.3425 93.2845 59.4965 83.3018 56.9363 68.1375C55.6486 60.5163 55.8467 52.6969 57.5232 44.899C58.317 41.2059 61.1172 38.2721 64.7694 37.3064C66.2013 36.9273 67.6704 36.8766 69.0781 37.1251C71.2585 37.51 73.2925 38.6132 74.8223 40.3255C84.0546 50.6684 94.8055 58.496 106.777 63.5899C112.423 65.9925 117.805 67.5703 124.226 68.7038C130.151 69.7498 136.407 70.3471 145.273 71.1386C159.21 72.3827 167.771 71.9871 175.323 71.6386C183.679 71.2528 191.573 70.8881 203.372 72.9712C204.883 73.2379 206.463 73.5457 208.067 73.8857C225.061 77.4864 237.683 83.0927 247.792 91.5281C251.448 94.5798 260.013 101.728 265.688 114.431C268.042 119.703 269.62 125.314 270.378 131.107C270.855 134.768 269.286 138.395 266.29 140.552C264.061 142.156 261.31 142.754 258.681 142.29C257.775 142.131 256.885 141.845 256.035 141.432C253.869 140.378 251.635 139.382 249.392 138.468C249.292 138.427 238.323 134.019 225.126 131.689C221.095 130.977 217.249 130.529 213.695 130.357C204.872 129.93 201.044 131.301 195.248 133.375C189.512 135.428 182.373 137.984 169.69 139.367C160.954 140.319 147.753 141.759 132.916 139.14Z" fill="white"/>
<path d="M256.526 118.523C251.894 108.153 244.903 102.186 241.363 99.2316C234.436 93.4509 224.383 87.5991 205.989 83.702C181.605 78.536 176.555 84.0055 144.383 81.1332C127.433 79.6195 116.26 78.5305 102.849 72.823C85.7127 65.5305 74.129 54.617 67.3369 47.0076C66.3619 51.5394 65.4735 58.4138 66.8331 66.4648C68.9264 78.8566 75.1543 86.9772 80.9638 94.369C86.8624 101.872 97.3089 115.162 115.891 123.503C136.747 132.863 156.168 130.745 168.604 129.388C193.38 126.686 193.994 119.355 214.181 120.332C233.811 121.281 253.179 129.171 253.179 129.171C256.208 130.405 258.688 131.559 260.427 132.406C259.974 128.937 258.968 123.993 256.526 118.523Z" fill="#0F1412"/>
<path d="M209.657 97.4005C200.832 100.097 191.982 102.199 183.132 104.222C174.252 106.189 165.5 108.134 156.404 109.703C154.114 110.064 151.783 110.399 149.372 110.602C146.963 110.775 144.469 110.819 142.02 110.61C137.146 110.2 132.411 109.078 127.932 107.36C118.98 103.892 111.237 98.1633 105.215 91.1927C113.254 95.6936 121.345 99.5631 129.759 101.62C133.95 102.631 138.206 103.267 142.413 103.355C146.563 103.472 150.743 102.884 155.163 102.146C163.988 100.633 173.097 99.1573 182.181 98.296C191.284 97.4347 200.437 96.9518 209.657 97.4005Z" fill="white"/>
<path d="M149.86 178.72C128.557 174.959 114.369 162.875 109.705 158.903C102.875 153.086 96.9416 146.262 92.0683 138.618C89.7635 135.002 90.0096 130.322 92.6827 126.968C95.0003 124.06 98.6979 122.706 102.274 123.338C102.821 123.434 103.365 123.578 103.901 123.769C110.515 126.126 117.092 127.89 123.449 129.013C132.943 130.689 142.256 130.979 151.128 129.874C163.028 128.392 178.808 123.909 187.286 121.501C193.434 119.753 198.301 118.211 202.212 116.972C212.47 113.722 218.662 111.76 226.971 113.227C227.335 113.291 227.704 113.362 228.078 113.44C241.42 116.225 252.982 126.229 262.438 143.173C264.304 146.517 264.105 150.631 261.924 153.778C259.744 156.927 255.962 158.559 252.174 157.987C244.202 156.782 236.432 157.041 229.08 158.755C223.18 160.129 219.79 161.919 215.096 164.397C212.646 165.69 209.869 167.155 206.44 168.717C196.963 173.031 177.249 182.006 154.222 179.355C152.771 179.189 151.302 178.975 149.86 178.72Z" fill="white"/>
<path d="M100.531 133.222C103.618 138.063 108.616 144.791 116.214 151.262C121.157 155.473 135.112 167.053 155.369 169.384C175.628 171.716 193.12 163.751 202.278 159.582C212.072 155.122 216.223 151.443 226.801 148.979C237.748 146.428 247.323 147.103 253.672 148.062C243.497 129.832 233.125 124.746 226.024 123.263C217.232 121.428 212.2 124.854 190.028 131.154C180.965 133.728 165.031 138.256 152.367 139.833C140.56 141.303 123.098 141.265 100.531 133.222Z" fill="#0F1412"/>
<path d="M181.042 209.417C167.748 207.07 157.926 201.879 154.228 199.924C146.296 195.732 139.019 190.362 132.6 183.963C129.564 180.935 128.786 176.313 130.665 172.458C132.543 168.604 136.664 166.368 140.919 166.895C158.342 169.05 174.297 167.599 188.343 162.581C199.635 158.547 214.059 150.738 221.808 146.545C227.434 143.5 231.85 140.935 235.397 138.874C245.01 133.293 250.811 129.923 259.873 129.801C262.23 129.77 264.615 129.963 266.963 130.377C278.157 132.354 289.231 139.409 299.879 151.347C302.428 154.206 303.128 158.264 301.685 161.811C300.241 165.358 296.905 167.774 293.085 168.039C285.042 168.598 277.513 170.541 270.709 173.812C265.25 176.437 262.331 178.921 258.289 182.359C256.179 184.155 253.786 186.19 250.777 188.462C242.469 194.732 225.181 207.781 202.126 210.205C195.209 210.931 188.116 210.667 181.044 209.418L181.042 209.418L181.042 209.417Z" fill="white"/>
<path d="M215.414 131.484C211.29 135.71 206.486 139.078 201.413 141.939C196.321 144.773 190.927 147.069 185.351 148.774C179.778 150.489 174.028 151.634 168.222 152.139C162.417 152.617 156.549 152.518 150.763 151.323C156.32 149.332 161.75 147.812 167.124 146.216C172.498 144.648 177.806 143.069 183.103 141.453C188.402 139.84 193.676 138.15 199.007 136.44C204.354 134.75 209.703 132.961 215.414 131.484Z" fill="white"/>
<path d="M139.686 176.854C143.751 180.909 150.092 186.388 158.916 191.051C164.658 194.086 180.797 202.353 201.077 200.222C221.359 198.09 236.698 186.512 244.73 180.45C253.32 173.967 256.571 169.472 266.359 164.765C276.49 159.895 285.982 158.471 292.388 158.025C278.49 142.444 267.26 139.737 260.007 139.834C251.027 139.955 246.861 144.394 226.59 155.366C218.305 159.851 203.737 167.737 191.718 172.03C180.513 176.035 163.462 179.796 139.686 176.854Z" fill="#0F1412"/>
<path d="M232.829 166.263C229.855 169.686 226.34 172.342 222.633 174.643C218.912 176.916 214.957 178.771 210.862 180.23C206.767 181.684 202.523 182.724 198.199 183.298C193.873 183.846 189.466 183.983 185 183.185C188.883 180.843 192.77 179.125 196.645 177.479C200.525 175.861 204.398 174.385 208.308 173.01C212.216 171.627 216.156 170.341 220.19 169.16C224.24 168.002 228.344 166.896 232.829 166.263Z" fill="white"/>
<path d="M518.105 250.284L421.963 233.311C421.152 231.273 420.313 229.284 419.444 227.379L414.764 217.123L404.834 222.451C403.253 223.299 401.562 223.572 399.808 223.262C396.06 222.601 393.431 219.317 393.453 215.633L421.815 191.556C424.915 188.926 428.795 187.274 433.04 186.783C440.229 185.947 447.229 184.16 453.841 181.47C462.334 178.016 484.896 168.84 492.785 145.486C498.502 128.56 493.408 113.106 491.491 107.29C489.258 100.512 485.959 94.1066 481.688 88.2511L475.047 79.1462L447.366 118.16L439.913 119.81L437.628 118.509L436.312 113.724L458.768 74.1141L455.662 73.9828L455.975 73.4111L453.159 73.8764L445.516 73.5531C440.328 73.3338 435.255 74.0232 430.439 75.603C420.799 78.7665 414.964 84.574 410.277 89.2405C407.819 91.6851 405.525 94.3184 403.413 97.1145L392.405 90.4232L388.193 97.3503C385.789 101.305 383.82 105.466 382.34 109.721C377.227 124.436 377.584 140.733 377.737 147.694L377.758 148.592C377.84 151.846 377.894 153.997 376.88 156.698C375.934 159.217 374.284 161.555 371.976 163.652C370.552 164.763 369.099 165.888 367.666 167.003L359.347 162.389C355.882 160.466 352.136 158.625 348.217 156.917L337.816 152.379L334.029 163.077C332.77 166.632 329.153 168.737 325.43 168.079C321.247 167.341 318.444 163.337 319.182 159.155L321.183 147.824L310.239 146.381C305.824 145.797 301.267 145.422 296.693 145.265L285.371 144.881L285.771 156.208C285.793 156.785 285.756 157.346 285.662 157.876C284.924 162.059 280.92 164.86 276.737 164.122C275.845 163.964 275.013 163.639 274.254 163.202C272.944 161.127 271.644 159.065 270.342 156.991L268.506 146.742L264.548 147.757C263.83 146.609 263.097 145.448 262.383 144.305C260.931 141.544 260.183 138.783 260.157 136.093C260.129 133.209 260.914 131.21 262.104 128.184L262.436 127.337C264.961 120.851 270.876 105.662 271.111 90.0875C271.179 85.5926 270.755 81.0067 269.848 76.4586L268.262 68.5078L255.629 71.0256C254.603 67.6771 253.348 64.4182 251.878 61.2783C249.07 55.2889 245.577 47.8337 237.602 41.5605C233.619 38.4281 229.09 36.0428 224.14 34.4723L216.847 32.1588L214.361 30.7566L214.459 31.4009L211.495 30.4604L219.032 75.3656L216.156 79.4098L213.566 79.8512L207.126 75.7483L194.479 29.6147L185.121 35.8951C179.106 39.933 173.812 44.8211 169.391 50.4263C165.598 55.2353 155.52 68.0095 155.097 85.8705C154.513 110.514 172.569 126.861 179.365 133.014C184.656 137.805 190.621 141.881 197.092 145.129C200.91 147.043 203.99 149.924 206.001 153.457L214.675 168.696L211.494 170.938C208.522 173.035 205.599 175.285 202.81 177.625L194.173 184.867L201.951 193.017C202.443 193.533 202.844 194.094 203.171 194.685L95.4242 175.663L72.7277 304.227L156.89 319.085L159.445 329.37L170.239 325.861C171.412 325.48 172.693 325.394 173.942 325.615C178.125 326.353 180.926 330.358 180.188 334.54C179.75 337.02 178.254 339.006 175.979 340.135L165.886 345.135L171.514 354.886C173.328 358.031 175.305 361.146 177.388 364.148L183.817 373.397L192.64 366.394C194.393 365.002 196.645 364.424 198.819 364.808C203.002 365.546 205.805 369.55 205.067 373.732C204.804 375.221 204.127 376.576 203.108 377.652L195.279 385.931L204.122 393.117C207.135 395.566 210.215 397.872 213.278 399.969L222.67 406.401L228.388 396.566C229.991 393.809 233.193 392.332 236.354 392.89C240.537 393.628 243.339 397.633 242.6 401.816C242.507 402.345 242.35 402.884 242.129 403.425L237.877 413.926L248.647 417.441C252.997 418.859 257.406 420.068 261.756 421.031L272.533 423.42L274.533 412.091C275.271 407.909 279.275 405.107 283.458 405.846C287.181 406.503 289.859 409.719 289.825 413.489L289.718 424.844L301.047 424.136C305.324 423.871 309.473 423.422 313.376 422.805L324.529 421.042L322.033 410.031C321.81 409.046 321.789 408.022 321.971 406.989C322.71 402.806 326.714 400.004 330.897 400.743C333.617 401.223 335.754 402.991 336.758 405.6L340.823 416.123L351.058 411.384C354.354 409.859 357.653 408.166 360.866 406.354L370.774 400.762L364.468 391.292C363.377 389.652 362.966 387.67 363.312 385.711C364.05 381.529 368.053 378.727 372.236 379.466C373.992 379.775 375.487 380.609 376.68 381.946L384.186 390.353L392.093 382.321C394.607 379.768 397.127 376.98 399.584 374.032L406.832 365.329L402.95 362.526L495.413 378.849L518.11 250.285L518.105 250.284Z" fill="#0F1412"/>
<path d="M274.698 426.667L261.166 423.667C256.736 422.686 252.24 421.454 247.805 420.009L234.28 415.595L239.62 402.409C239.769 402.046 239.873 401.689 239.933 401.344C240.413 398.629 238.594 396.029 235.879 395.55C233.829 395.188 231.755 396.143 230.717 397.924L223.539 410.274L211.746 402.198C208.625 400.06 205.484 397.71 202.413 395.213L191.309 386.189L201.141 375.793C201.794 375.102 202.23 374.227 202.401 373.26C202.88 370.545 201.061 367.946 198.345 367.467C196.931 367.217 195.464 367.597 194.317 368.507L183.237 377.302L175.165 365.688C173.034 362.62 171.018 359.44 169.17 356.235L162.101 343.991L174.775 337.712C176.283 336.965 177.234 335.705 177.522 334.07C178.002 331.355 176.182 328.755 173.468 328.276C172.653 328.132 171.825 328.186 171.071 328.431L157.518 332.837L154.687 321.442L69.5922 306.419L93.2286 172.532L195.973 190.67L190.223 184.646L201.069 175.554C203.913 173.17 206.895 170.873 209.932 168.729L211.109 167.901L203.648 154.795C201.903 151.727 199.215 149.22 195.877 147.545C189.187 144.188 183.02 139.973 177.548 135.018C170.499 128.637 151.779 111.688 152.391 85.8062C152.836 67.047 163.317 53.7577 167.264 48.7559C171.86 42.9301 177.36 37.8484 183.61 33.6515L196.087 25.2776L209.453 74.0293L214.135 77.0116L214.597 76.9334L216.177 74.711L208.092 26.5468L211.129 27.5101L210.851 25.6774L217.926 29.6666L224.952 31.8956C230.212 33.5648 235.029 36.1012 239.268 39.4352C247.746 46.1055 251.39 53.8803 254.319 60.1282C255.498 62.6424 256.548 65.2485 257.454 67.9041L270.38 65.3284L272.493 75.9289C273.438 80.6637 273.88 85.4407 273.809 90.1277C273.568 106.184 267.53 121.69 264.952 128.311L264.617 129.169C263.466 132.097 262.833 133.708 262.855 136.066C262.876 138.295 263.506 140.613 264.725 142.957L265.784 144.648L270.649 143.401L272.905 155.997L276.141 161.135C279.188 162.469 282.454 160.477 282.997 157.406C283.057 157.062 283.081 156.692 283.067 156.308L282.563 142.082L296.779 142.564C301.439 142.723 306.085 143.106 310.588 143.702L324.33 145.513L321.839 159.625C321.36 162.339 323.18 164.939 325.895 165.418C328.313 165.845 330.661 164.481 331.476 162.175L336.232 148.742L349.293 154.44C353.289 156.183 357.112 158.062 360.653 160.026L367.413 163.775L370.228 161.585C372.177 159.797 373.562 157.834 374.345 155.749C375.175 153.541 375.131 151.809 375.051 148.664L375.03 147.759C374.874 140.65 374.509 124.012 379.783 108.835C381.326 104.401 383.378 100.065 385.88 95.9478L391.495 86.7116L402.757 93.5584C404.522 91.3693 406.402 89.2804 408.366 87.3263C413.256 82.4595 419.341 76.4006 429.593 73.0368C434.716 71.3566 440.11 70.6228 445.625 70.8549L452.99 71.1663L461.006 69.8405L460.115 71.4679L463.296 71.6021L439.21 114.086L439.934 116.715L440.341 116.948L445.76 115.748L475.012 74.5199L483.867 86.6589C488.305 92.7459 491.732 99.4029 494.052 106.445C496.047 112.499 501.346 128.573 495.341 146.351C487.055 170.879 463.661 180.393 454.855 183.974C448.016 186.756 440.78 188.604 433.345 189.469C429.634 189.899 426.251 191.334 423.56 193.618L396.271 216.783C396.703 218.715 398.251 220.245 400.274 220.602C401.431 220.807 402.505 220.633 403.553 220.071L416.023 213.381L421.898 226.259C422.555 227.697 423.228 229.258 423.906 230.911L521.231 248.093L497.595 381.979L409.434 366.415L401.652 375.761C399.147 378.768 396.576 381.612 394.011 384.217L384.083 394.303L374.656 383.745C373.867 382.86 372.918 382.331 371.758 382.126C369.043 381.647 366.444 383.465 365.965 386.18C365.74 387.451 366.006 388.735 366.71 389.794L374.628 401.685L362.185 408.708C358.913 410.553 355.549 412.279 352.187 413.836L339.333 419.788L334.229 406.573C333.562 404.845 332.209 403.72 330.418 403.404C327.702 402.924 325.103 404.744 324.624 407.459C324.504 408.136 324.516 408.801 324.659 409.434L327.793 423.26L313.789 425.474C309.801 426.105 305.566 426.562 301.204 426.833L286.978 427.721L287.111 413.462C287.134 411.018 285.395 408.932 282.978 408.505C280.262 408.026 277.663 409.844 277.183 412.56L274.693 426.666L274.698 426.667ZM241.465 412.253L249.481 414.87C253.751 416.262 258.075 417.447 262.336 418.391L270.357 420.169L271.867 411.62C272.864 405.97 278.273 402.185 283.922 403.182C288.951 404.07 292.568 408.414 292.522 413.512L292.443 421.964L300.874 421.437C305.066 421.177 309.129 420.738 312.949 420.133L321.25 418.821L319.393 410.627C319.089 409.289 319.06 407.907 319.306 406.516C320.303 400.866 325.712 397.081 331.362 398.078C335.037 398.727 337.922 401.113 339.276 404.624L342.3 412.456L349.918 408.929C353.15 407.432 356.384 405.773 359.532 403.998L366.906 399.835L362.213 392.787C360.735 390.565 360.178 387.884 360.645 385.238C361.642 379.588 367.05 375.804 372.7 376.801C375.069 377.219 377.083 378.343 378.69 380.143L384.276 386.4L390.161 380.423C392.622 377.924 395.091 375.19 397.502 372.299L402.896 365.822L391.804 357.812L493.214 375.715L514.971 252.475L420.007 235.71L419.45 234.31C418.617 232.215 417.787 230.261 416.983 228.502L413.499 220.868L406.109 224.833C403.98 225.975 401.702 226.342 399.336 225.924C394.329 225.04 390.718 220.705 390.748 215.617L390.755 214.377L420.063 189.497C423.571 186.519 427.948 184.653 432.725 184.098C439.673 183.291 446.433 181.564 452.819 178.967C460.998 175.64 482.727 166.804 490.221 144.621C495.65 128.551 490.763 113.722 488.923 108.138C486.778 101.628 483.608 95.4741 479.501 89.8429L475.073 83.7736L448.964 120.573L439.476 122.674L435.316 120.303L433.408 113.362L454.233 76.6266L445.399 76.2536C440.534 76.0479 435.783 76.6931 431.278 78.1707C422.245 81.1339 416.665 86.6908 412.18 91.1551C409.826 93.4974 407.6 96.0509 405.566 98.7429L404.094 100.693L393.307 94.1359L390.498 98.7534C388.194 102.545 386.307 106.534 384.889 110.608C379.935 124.864 380.284 140.82 380.434 147.633L380.455 148.526C380.542 151.966 380.604 154.453 379.405 157.646C378.307 160.57 376.417 163.263 373.787 165.651L373.634 165.781L367.913 170.231L358.031 164.75C354.64 162.869 350.973 161.066 347.133 159.392L339.391 156.015L336.572 163.977C334.87 168.783 329.985 171.627 324.956 170.739C319.306 169.741 315.52 164.333 316.517 158.683L318.027 150.133L309.881 149.059C305.549 148.487 301.08 148.118 296.596 147.965L288.171 147.68L288.468 156.112C288.496 156.872 288.447 157.625 288.32 158.345C287.322 163.995 281.914 167.779 276.265 166.782C275.107 166.578 273.976 166.161 272.903 165.543L272.321 165.209L267.771 157.985L266.356 150.082L263.301 150.865L259.987 145.562C258.334 142.421 257.48 139.243 257.451 136.119C257.417 132.709 258.326 130.397 259.585 127.196L259.915 126.352C262.386 120.002 268.176 105.132 268.403 90.0466C268.47 85.7408 268.062 81.348 267.192 76.9866L266.134 71.6864L253.755 74.154L253.039 71.8174C252.053 68.5983 250.837 65.438 249.424 62.4256C246.738 56.6928 243.395 49.5615 235.925 43.6849C232.198 40.753 227.956 38.5211 223.315 37.0486L217.777 35.292L217.776 35.2928L214.885 34.3755L221.874 76.0225L217.705 81.8879L212.986 82.6915L204.789 77.4682L192.859 33.9534L186.62 38.1393C180.836 42.0218 175.751 46.7191 171.506 52.1005C167.864 56.7186 158.194 68.9797 157.792 85.9348C157.237 109.342 174.626 125.085 181.173 131.012C186.283 135.639 192.045 139.576 198.297 142.713C202.595 144.869 206.068 148.122 208.344 152.121L218.232 169.492L213.044 173.147C210.129 175.202 207.269 177.406 204.54 179.695L198.11 185.086L203.899 191.151C204.528 191.811 205.076 192.559 205.528 193.376L208.27 198.331L97.6084 178.795L75.8515 302.035L159.082 316.729L161.362 325.903L169.396 323.291C170.988 322.773 172.72 322.655 174.404 322.953C180.054 323.95 183.838 329.358 182.84 335.009C182.25 338.355 180.237 341.035 177.171 342.555L169.66 346.277L173.848 353.533C175.622 356.609 177.557 359.66 179.601 362.603L184.385 369.487L190.952 364.273C193.31 362.401 196.345 361.625 199.281 362.143C204.931 363.141 208.717 368.548 207.719 374.199C207.364 376.212 206.445 378.048 205.062 379.508L199.237 385.668L205.819 391.018C208.776 393.422 211.798 395.683 214.797 397.738L221.788 402.525L226.043 395.205C228.215 391.472 232.544 389.472 236.815 390.226C242.465 391.223 246.25 396.632 245.252 402.283C245.125 403.002 244.914 403.728 244.623 404.44L241.465 412.253Z" fill="white"/>
<path d="M151.195 240.263C150.639 243.971 150.228 248.082 150.097 252.542C149.857 260.704 150.618 267.905 151.682 273.848C149.554 269.85 146.568 262.96 145.929 253.945C145.503 247.922 146.258 242.838 147.11 239.186C148.472 239.545 149.834 239.905 151.195 240.263Z" fill="#0F1412"/>
<path d="M475.137 93.0292C477.834 96.7263 481.329 102.361 483.791 109.828C485.493 114.993 489.955 128.531 485.103 142.892C478.401 162.73 458.412 170.86 450.786 173.962C443.897 176.764 437.448 178.109 432.104 178.729C426.381 179.394 420.96 181.648 416.568 185.377C374.732 220.892 332.896 256.409 291.06 291.924C285.354 277.41 279.647 262.897 273.942 248.384C298.561 230.153 323.312 211.48 348.176 192.354C357.918 184.859 367.588 177.365 377.185 169.87C379.5 167.812 382.633 164.441 384.47 159.55C386.166 155.03 385.927 151.42 385.842 147.515C385.705 141.259 385.366 125.718 390 112.383C390.932 109.698 392.483 105.903 395.121 101.563C398.681 103.727 402.24 105.891 405.8 108.055C409.381 102.084 413.173 97.7987 415.996 94.9878C420.347 90.6579 425.156 85.8712 432.967 83.3081C437.932 81.6798 442.324 81.5345 445.173 81.6552C439.318 91.9846 433.462 102.315 427.606 112.644C428.808 117.014 429.499 119.525 430.701 123.895C433.338 125.398 435.975 126.901 438.612 128.403C443.642 127.29 447.139 126.515 452.17 125.402C459.825 114.611 467.481 103.82 475.137 93.0292Z" fill="white"/>
<path d="M449.394 170.54C456.147 167.581 462.712 164.071 468.26 159.294C473.856 154.611 478.256 148.554 480.581 141.742C482.894 134.914 482.975 127.483 481.601 120.407C480.923 116.861 479.878 113.367 478.647 109.946C477.437 106.543 475.848 103.277 473.986 100.183L476.033 100.261L465.669 114.817L455.244 129.329L454.993 129.677L454.591 129.762L438.217 133.203L437.847 133.281L437.547 133.093L428.752 127.568L419.979 122.006C414.156 118.256 408.301 114.561 402.516 110.75C408.564 114.129 414.543 117.622 420.555 121.061L429.535 126.281L438.492 131.54L437.823 131.429L454.121 127.637L453.469 128.07L463.722 113.435L474.037 98.8438L475.123 97.3071L476.083 98.9223C478.009 102.16 479.65 105.577 480.895 109.135C482.145 112.662 483.217 116.267 483.856 119.988C485.176 127.374 485.006 135.227 482.355 142.361C479.746 149.498 474.898 155.642 468.997 160.197C463.082 164.768 456.347 168.076 449.394 170.54Z" fill="#0F1412"/>
<path d="M389.534 147.434C389.722 149.806 389.926 152.193 389.739 154.601C389.58 157.007 389.067 159.406 388.238 161.693C386.538 166.284 383.649 170.336 379.918 173.636C372.512 179.623 365.018 185.498 357.507 191.35C349.991 197.196 342.34 202.867 334.658 208.497C326.986 214.138 319.217 219.651 311.355 225.036C318.64 218.886 326.018 212.864 333.493 206.969C337.21 203.995 340.983 201.095 344.727 198.157C348.5 195.257 352.259 192.339 356.004 189.402C363.542 183.591 371.097 177.802 378.742 172.126C382.228 169.246 385.269 165.501 387.125 161.244C388.085 159.12 388.758 156.863 389.094 154.532C389.436 152.203 389.459 149.816 389.534 147.434Z" fill="#0F1412"/>
<path d="M418.6 97.6051C419.842 96.0491 421.126 94.5295 422.533 93.1012C423.938 91.675 425.452 90.3218 427.129 89.162C430.462 86.814 434.373 85.2017 438.429 84.5316L440.863 84.1289L439.669 86.31C438.452 88.5313 437.192 90.7269 435.917 92.915C434.666 95.1166 433.326 97.2678 432.028 99.4423C429.357 103.749 426.639 108.029 423.638 112.149C425.633 107.459 427.909 102.928 430.233 98.4248C431.432 96.1935 432.59 93.9398 433.838 91.7359C435.061 89.5183 436.297 87.3089 437.577 85.1245L438.817 86.9036C436.942 87.2054 435.088 87.6561 433.287 88.275C431.493 88.9114 429.75 89.7011 428.08 90.6583C426.406 91.6071 424.809 92.7199 423.247 93.9085C421.684 95.0961 420.166 96.3749 418.6 97.6051Z" fill="#0F1412"/>
<path d="M434.638 163.231C435.888 160.455 437.236 157.738 438.625 155.044C440.004 152.344 441.438 149.677 442.901 147.026L443.286 148.504C440.405 146.928 437.563 145.286 434.721 143.641C431.898 141.965 429.062 140.311 426.281 138.564C423.486 136.843 420.717 135.075 417.974 133.261C415.229 131.455 412.518 129.587 409.864 127.623C412.872 128.984 415.824 130.441 418.738 131.96C421.658 133.471 424.551 135.028 427.416 136.632C430.297 138.21 433.123 139.881 435.961 141.529C438.781 143.21 441.601 144.893 444.381 146.641L445.319 147.23L444.766 148.119C443.164 150.687 441.533 153.24 439.848 155.76C438.17 158.286 436.453 160.788 434.638 163.231Z" fill="#0F1412"/>
<path d="M278.424 259.83C310.701 234.977 342.978 210.125 375.255 185.273C380.322 180.091 387.257 180.62 389.504 183.559C391.416 186.062 390.687 191.301 386.765 195.206C353.49 223.969 320.215 252.732 286.941 281.495C284.101 274.273 281.263 267.052 278.424 259.83Z" fill="#0F1412"/>
<path d="M189.637 42.6268C185.836 45.1768 180.623 49.2739 175.754 55.4471C172.386 59.7171 163.558 70.9087 163.199 86.0631C162.704 106.996 178.701 121.48 184.803 127.005C190.317 131.997 195.915 135.468 200.724 137.881C205.874 140.465 210.195 144.44 213.044 149.447C240.191 197.141 267.337 244.835 294.483 292.528C304.814 280.846 315.145 269.163 325.475 257.482C308.587 231.923 291.726 205.904 274.913 179.42C268.326 169.042 261.808 158.69 255.357 148.363C253.886 145.636 252.097 141.396 252.046 136.171C251.998 131.344 253.46 128.034 254.877 124.394C257.147 118.564 262.789 104.078 263.001 89.9627C263.044 87.1206 262.885 83.0232 261.893 78.0431C257.808 78.8575 253.723 79.6712 249.636 80.4854C248.318 73.6495 246.222 68.325 244.531 64.7174C241.927 59.1595 239.047 53.0154 232.586 47.9328C228.479 44.7028 224.402 43.0623 221.684 42.2003C223.649 53.9103 225.613 65.6211 227.578 77.3311C224.953 81.0254 223.444 83.1475 220.818 86.8417C217.826 87.3514 214.833 87.8602 211.841 88.3691C207.497 85.601 204.476 83.6755 200.131 80.9072C196.633 68.1469 193.135 55.3865 189.637 42.6268Z" fill="white"/>
<path d="M187.282 124.267C181.951 119.174 176.984 113.629 173.407 107.241C169.754 100.925 167.693 93.7276 167.841 86.5313C168.006 79.3236 170.474 72.3136 174.187 66.1366C176.039 63.0371 178.217 60.1115 180.545 57.3194C182.847 54.5356 185.459 52.0118 188.266 49.7419L186.317 49.114L191.07 66.3397L195.897 83.5442L196.013 83.957L196.362 84.1741L210.568 93.0143L210.888 93.2135L211.235 93.1397L221.39 90.9607L231.536 88.7385C238.291 87.2088 245.059 85.7424 251.799 84.1429C244.96 85.2458 238.146 86.4807 231.32 87.6531L221.095 89.4834L210.879 91.3569L211.545 91.482L197.53 82.3384L197.995 82.9683L193.373 65.7073L188.678 48.4665L188.183 46.6507L186.728 47.8395C183.809 50.2223 181.098 52.8703 178.709 55.7866C176.328 58.673 174.086 61.6934 172.212 64.9708C168.443 71.4581 165.913 78.8947 165.961 86.5053C165.969 94.1035 168.42 101.537 172.404 107.836C176.398 114.157 181.595 119.571 187.282 124.267Z" fill="#0F1412"/>
<path d="M251.438 123.054C250.449 125.218 249.441 127.391 248.791 129.718C248.117 132.032 247.778 134.462 247.774 136.895C247.799 141.79 249.126 146.586 251.502 150.965C256.409 159.126 261.439 167.212 266.492 175.282C271.552 183.348 276.799 191.296 282.089 199.216C287.365 207.143 292.777 214.982 298.32 222.735C293.58 214.462 288.711 206.277 283.706 198.18C281.232 194.112 278.68 190.095 276.168 186.053C273.615 182.037 271.084 178.008 268.57 173.966C263.478 165.925 258.362 157.899 253.122 149.949C250.833 146.049 249.258 141.489 248.972 136.854C248.797 134.53 248.938 132.178 249.42 129.874C249.898 127.568 250.693 125.317 251.438 123.054Z" fill="#0F1412"/>
<path d="M241.19 66.2852C240.556 64.398 239.87 62.5305 239.037 60.7067C238.206 58.8858 237.246 57.0958 236.067 55.4319C233.741 52.0848 230.618 49.2308 227.035 47.2122L224.887 46.0005L225.262 48.4585C225.645 50.9621 226.077 53.4568 226.526 55.949C226.946 58.4457 227.468 60.9255 227.945 63.4134C228.978 68.3746 230.068 73.3269 231.476 78.225C231.209 73.135 230.621 68.0989 229.979 63.0718C229.617 60.5651 229.301 58.0511 228.883 55.5532C228.493 53.0509 228.088 50.5518 227.633 48.0609L225.859 49.308C227.518 50.2336 229.105 51.292 230.586 52.4902C232.053 53.7022 233.42 55.041 234.661 56.5121C235.909 57.9768 237.029 59.5692 238.09 61.2207C239.152 62.8718 240.139 64.5928 241.19 66.2852Z" fill="#0F1412"/>
<path d="M203.652 122.453C203.428 119.416 203.092 116.402 202.71 113.395C202.338 110.386 201.904 107.389 201.437 104.398L200.569 105.654C203.816 105.16 207.049 104.591 210.282 104.018C213.508 103.41 216.739 102.827 219.95 102.138C223.166 101.478 226.372 100.765 229.57 99.9997C232.768 99.2435 235.955 98.4165 239.121 97.4796C235.829 97.7283 232.556 98.0866 229.297 98.5152C226.037 98.9351 222.786 99.4077 219.545 99.9337C216.298 100.43 213.07 101.032 209.839 101.609C206.614 102.222 203.389 102.839 200.178 103.529L199.095 103.762L199.311 104.786C199.936 107.748 200.594 110.704 201.315 113.649C202.027 116.597 202.783 119.535 203.652 122.453Z" fill="#0F1412"/>
<path d="M317.346 266.701C295.53 232.299 273.714 197.896 251.896 163.495C248.911 156.891 242.214 155.013 239.097 157.006C236.443 158.703 235.334 163.875 237.682 168.886C259.096 207.304 280.511 245.722 301.926 284.14C307.065 278.327 312.206 272.514 317.346 266.701Z" fill="#0F1412"/>
<path d="M403.691 304.482C405.13 296.329 412.692 290.632 420.906 291.51L423.538 291.793L423.629 289.148C423.77 285.052 423.718 280.928 423.472 276.893L423.313 274.276L420.711 274.6C419.094 274.801 417.47 274.761 415.883 274.481C407.299 272.966 401.547 264.747 403.063 256.162C404.112 250.222 408.548 245.322 414.365 243.675L416.904 242.956L416.012 240.473C414.792 237.078 413.465 233.806 412.069 230.745L410.98 228.356L408.665 229.597C405.486 231.302 401.937 231.872 398.399 231.247C389.815 229.732 384.064 221.513 385.579 212.928C386.289 208.907 388.484 205.368 391.758 202.96L393.893 201.391L392.173 199.376C389.925 196.748 387.553 194.188 385.124 191.769L383.26 189.913L381.531 191.894C377.84 196.126 372.35 198.073 366.846 197.102C358.261 195.586 352.509 187.368 354.024 178.782C354.395 176.681 355.159 174.723 356.291 172.965L357.716 170.754L355.415 169.479C352.175 167.681 348.663 165.955 344.977 164.347L342.554 163.291L341.671 165.783C339.086 173.089 331.663 177.412 324.021 176.063C315.434 174.547 309.683 166.329 311.199 157.745L311.727 154.754L309.177 154.418C305.026 153.869 300.732 153.516 296.42 153.369L293.782 153.278L293.875 155.916C293.916 157.063 293.84 158.197 293.647 159.285C292.132 167.869 283.914 173.621 275.33 172.106C268.836 170.959 263.692 165.842 262.533 159.372L262.065 156.763L259.497 157.422C256.119 158.288 252.649 159.335 249.183 160.534L246.675 161.402L247.728 163.838C248.947 166.657 249.307 169.762 248.768 172.818C247.252 181.402 239.035 187.154 230.449 185.638C225.99 184.851 222.067 182.172 219.685 178.288L218.313 176.051L216.168 177.563C213.379 179.53 210.637 181.641 208.019 183.838L206.008 185.524L207.819 187.422C211.344 191.12 212.857 196.112 211.972 201.121C210.457 209.705 202.239 215.457 193.655 213.942C191.102 213.491 188.688 212.419 186.673 210.842L184.592 209.215L183.115 211.405C180.933 214.64 179.028 217.743 177.293 220.893L176.019 223.202L178.411 224.314C184.881 227.322 188.531 234.34 187.289 241.38C185.773 249.965 177.556 255.717 168.971 254.202C168.393 254.1 167.773 253.95 167.128 253.758L164.602 253.002L164.021 255.574C163.552 257.654 163.122 259.798 162.743 261.944C162.364 264.09 162.034 266.251 161.763 268.367L161.428 270.981L164.06 271.137C164.724 271.176 165.358 271.249 165.943 271.352C174.528 272.868 180.279 281.086 178.764 289.67C177.521 296.71 171.688 302.054 164.579 302.664L161.951 302.891L162.357 305.496C162.909 309.05 163.635 312.618 164.578 316.404L165.216 318.968L167.729 318.15C170.162 317.359 172.798 317.178 175.35 317.629C183.935 319.145 189.686 327.362 188.17 335.948C187.286 340.957 184.155 345.129 179.577 347.397L177.227 348.562L178.537 350.834C180.243 353.788 182.095 356.71 184.046 359.518L185.543 361.673L187.599 360.041C191.168 357.208 195.771 356.034 200.229 356.821C208.814 358.337 214.565 366.555 213.05 375.139C212.511 378.194 211.11 380.988 208.998 383.221L207.175 385.148L209.234 386.823C212.072 389.129 214.973 391.302 217.859 393.278L220.046 394.776L221.379 392.486C224.685 386.804 231.268 383.757 237.763 384.903C246.346 386.419 252.098 394.637 250.583 403.222C250.391 404.312 250.074 405.402 249.643 406.465L248.653 408.91L251.161 409.729C255.253 411.065 259.407 412.203 263.508 413.111L266.018 413.668L266.546 410.678C268.061 402.094 276.279 396.342 284.865 397.857C292.507 399.206 298 405.81 297.929 413.56L297.905 416.205L300.543 416.041C304.562 415.791 308.452 415.372 312.108 414.793L314.705 414.382L314.124 411.817C313.662 409.778 313.615 407.677 313.986 405.575C315.502 396.991 323.72 391.239 332.306 392.755C337.809 393.727 342.299 397.435 344.32 402.674L345.266 405.126L347.652 404.023C350.75 402.588 353.854 400.996 356.879 399.29L359.188 397.987L357.718 395.78C355.466 392.397 354.617 388.317 355.326 384.298C356.842 375.714 365.059 369.961 373.644 371.477C377.183 372.102 380.323 373.853 382.724 376.541L384.474 378.5L386.315 376.629C388.675 374.232 391.042 371.611 393.351 368.84L395.039 366.812L392.9 365.267C387.998 361.73 385.508 355.606 386.557 349.665C388.072 341.081 396.29 335.329 404.875 336.845C406.464 337.125 408.004 337.645 409.451 338.384L411.785 339.58L412.83 337.176C414.445 333.469 415.905 329.612 417.175 325.715L417.994 323.198L415.425 322.563C407.405 320.577 402.251 312.635 403.691 304.482Z" fill="#0F1412"/>
<path d="M414.833 324.955C413.58 328.799 412.16 332.546 410.57 336.195C408.962 335.372 407.182 334.754 405.3 334.422C395.37 332.669 385.882 339.31 384.128 349.24C382.866 356.389 385.949 363.292 391.455 367.267C389.25 369.914 386.962 372.462 384.557 374.905C381.91 371.941 378.29 369.8 374.069 369.055C364.123 367.299 354.651 373.944 352.898 383.873C352.049 388.682 353.158 393.383 355.665 397.148C352.705 398.818 349.701 400.362 346.614 401.791C344.382 395.999 339.274 391.489 332.73 390.333C322.784 388.577 313.312 395.222 311.559 405.151C311.123 407.621 311.198 410.063 311.719 412.365C307.988 412.955 304.207 413.35 300.387 413.587C300.468 404.813 294.221 397.013 285.289 395.436C275.359 393.683 265.871 400.325 264.118 410.254L264.037 410.712C259.913 409.798 255.861 408.678 251.921 407.392C252.399 406.212 252.772 404.961 253.003 403.653C254.756 393.723 248.131 384.238 238.185 382.482C230.447 381.116 222.975 384.841 219.245 391.25C216.326 389.25 213.512 387.134 210.783 384.914C213.147 382.413 214.825 379.218 215.469 375.57C217.222 365.64 210.581 356.152 200.651 354.399C195.269 353.449 190.024 354.969 186.061 358.116C184.138 355.347 182.344 352.517 180.665 349.605C185.712 347.106 189.537 342.35 190.591 336.379C192.344 326.449 185.703 316.96 175.773 315.207C172.731 314.67 169.719 314.915 166.963 315.811C166.084 312.282 165.345 308.728 164.785 305.12C172.818 304.43 179.714 298.427 181.184 290.1C182.94 280.154 176.296 270.683 166.366 268.93C165.646 268.802 164.918 268.724 164.2 268.682C164.468 266.587 164.789 264.485 165.161 262.374C165.534 260.264 165.953 258.179 166.418 256.119C167.107 256.325 167.818 256.501 168.538 256.628C178.468 258.381 187.954 251.756 189.709 241.811C191.179 233.484 186.756 225.484 179.444 222.084C181.206 218.886 183.118 215.8 185.151 212.785C187.434 214.571 190.18 215.832 193.222 216.369C203.152 218.122 212.64 211.481 214.393 201.552C215.447 195.581 213.482 189.802 209.596 185.726C212.171 183.566 214.825 181.521 217.58 179.578C220.226 183.892 224.633 187.115 230.015 188.065C239.945 189.818 249.434 183.178 251.187 173.248C251.831 169.6 251.348 166.022 249.984 162.864C253.307 161.714 256.677 160.689 260.104 159.809C261.414 167.108 267.158 173.166 274.896 174.532C284.842 176.288 294.315 169.644 296.068 159.714C296.299 158.406 296.377 157.103 296.332 155.83C300.474 155.971 304.665 156.306 308.852 156.859L308.771 157.318C307.018 167.248 313.659 176.736 323.589 178.489C332.521 180.066 341.061 174.877 343.989 166.605C347.497 168.135 350.914 169.801 354.218 171.632C352.94 173.617 352.033 175.885 351.597 178.356C349.844 188.286 356.469 197.771 366.415 199.527C372.958 200.682 379.302 198.193 383.383 193.515C385.794 195.915 388.089 198.394 390.297 200.977C386.653 203.657 384.001 207.692 383.152 212.502C381.399 222.431 388.024 231.917 397.969 233.672C402.19 234.417 406.324 233.646 409.827 231.768C411.249 234.886 412.527 238.064 413.692 241.306C407.158 243.155 401.898 248.586 400.636 255.735C398.883 265.664 405.524 275.153 415.454 276.906C417.336 277.238 419.22 277.267 421.013 277.043C421.256 281.016 421.308 285.024 421.169 289.064C411.699 288.051 402.947 294.535 401.266 304.056C399.585 313.576 405.587 322.664 414.833 324.955Z" fill="white"/>
<path d="M342.135 356.95C382.04 329.021 391.747 274.032 363.819 234.128C335.89 194.223 280.9 184.516 240.996 212.444C201.092 240.373 191.384 295.363 219.313 335.267C247.242 375.171 302.231 384.879 342.135 356.95Z" fill="#0F1412"/>
<path d="M286.558 363.913C330.279 366.711 367.99 333.537 370.788 289.816C373.586 246.095 340.412 208.384 296.692 205.586C252.972 202.787 215.261 235.962 212.463 279.683C209.664 323.403 242.838 361.115 286.558 363.913Z" fill="white"/>
<path d="M332 342.468C363.905 320.137 371.667 276.17 349.337 244.264C327.006 212.359 283.039 204.597 251.133 226.927C219.227 249.258 211.465 293.225 233.796 325.131C256.127 357.037 300.094 364.799 332 342.468Z" fill="#0F1412"/>
<path d="M111.294 291.61C110.048 289.855 108.078 286.498 107.754 281.861C107.034 271.571 115.098 264.335 115.965 263.581C116.679 265.856 117.324 268.856 117.342 272.434C117.386 281.606 113.285 288.627 111.294 291.61Z" fill="#0F1412"/>
<path d="M463.487 353.785C465.259 352.563 468.259 350.083 470.152 345.837C474.351 336.416 469.252 326.856 468.697 325.852C467.246 327.744 465.613 330.342 464.371 333.697C461.188 342.3 462.637 350.301 463.487 353.785Z" fill="#0F1412"/>
<path d="M490.714 269.582L114.543 203.173L100.11 284.926L476.282 351.335L490.714 269.582Z" fill="white"/>
<path d="M484.899 273.654L472.211 345.52L105.926 280.856L118.614 208.99L484.899 273.654ZM496.53 265.513L486.644 263.768L120.359 199.104L110.473 197.358L108.727 207.246L96.04 279.112L94.2946 288.998L104.181 290.743L470.466 355.407L480.352 357.152L482.098 347.266L494.785 275.4L496.53 265.513Z" fill="#0F1412"/>
<path d="M497.079 264.999L480.692 357.822L93.7495 289.511L110.136 196.689L497.079 264.999ZM508.71 256.858L498.824 255.112L111.882 186.802L101.995 185.056L100.249 194.943L83.8623 287.766L82.1169 297.653L92.004 299.398L478.946 367.709L488.833 369.454L490.578 359.567L506.965 266.745L508.71 256.858Z" fill="white"/>
<path d="M145.296 241.269L147.216 247.851L153.726 250.002L148.059 253.861L148.026 260.718L142.604 256.521L136.072 258.608L138.389 252.154L134.386 246.588L141.239 246.796L145.296 241.269Z" fill="#0F1412"/>
<path d="M448.778 294.845L450.697 301.428L457.208 303.579L451.54 307.438L451.508 314.295L446.086 310.097L439.554 312.185L441.871 305.731L437.867 300.164L444.72 300.373L448.778 294.845Z" fill="#0F1412"/>
</svg>
