<svg width="367" height="367" viewBox="0 0 367 367" fill="none" xmlns="http://www.w3.org/2000/svg">
<path d="M146.421 56.4847C146.772 50.2879 154.943 48.3036 158.097 53.6491L180.274 91.2327C182.637 95.238 188.383 95.3734 190.933 91.4838L214.855 54.9864C218.257 49.7954 226.325 52.1623 226.384 58.3688L226.798 102.005C226.842 106.656 231.75 109.646 235.903 107.552L274.869 87.9055C280.411 85.1111 286.215 91.1951 283.162 96.5995L261.702 134.597C259.415 138.646 262.171 143.69 266.814 143.953L310.383 146.421C316.58 146.772 318.564 154.943 313.219 158.097L275.635 180.274C271.63 182.637 271.494 188.383 275.384 190.933L311.881 214.855C317.072 218.257 314.705 226.325 308.499 226.384L264.862 226.798C260.212 226.842 257.222 231.75 259.315 235.903L278.962 274.869C281.756 280.411 275.672 286.215 270.268 283.162L232.271 261.702C228.221 259.415 223.178 262.171 222.915 266.814L220.446 310.383C220.095 316.58 211.924 318.564 208.77 313.218L186.594 275.635C184.23 271.63 178.484 271.494 175.935 275.384L152.013 311.881C148.611 317.072 140.542 314.705 140.483 308.499L140.07 264.862C140.026 260.212 135.117 257.222 130.965 259.315L91.9989 278.962C86.4568 281.756 80.6529 275.672 83.7052 270.268L105.165 232.271C107.452 228.221 104.697 223.178 100.053 222.915L56.4847 220.446C50.2879 220.095 48.3036 211.924 53.6491 208.77L91.2327 186.594C95.2381 184.23 95.3734 178.484 91.4838 175.935L54.9864 152.013C49.7954 148.611 52.1623 140.542 58.3688 140.483L102.005 140.07C106.656 140.026 109.646 135.117 107.552 130.965L87.9055 91.9989C85.1112 86.4568 91.1952 80.6529 96.5995 83.7052L134.597 105.165C138.646 107.452 143.69 104.697 143.953 100.053L146.421 56.4847Z" fill="#D80000"/>
<circle cx="183.127" cy="183.311" r="61.4818" transform="rotate(-23.1231 183.127 183.311)" fill="white"/>
</svg>
