<svg width="540" height="694" viewBox="0 0 540 694" fill="none" xmlns="http://www.w3.org/2000/svg">
<path fill-rule="evenodd" clip-rule="evenodd" d="M-17.4458 181.306L200.588 706.433C203.663 713.833 214.312 709.219 211.272 701.979L-8.66698 178.185C-10.8449 173.013 -19.1712 177.152 -17.4458 181.306Z" fill="#878787"/>
<path fill-rule="evenodd" clip-rule="evenodd" d="M-9.27395 181.499C69.2882 168.717 142.904 141.635 206.186 91.2146C271.505 39.1672 342.069 6.77229 423.489 5.97507C433.637 49.0049 438.843 93.93 451.883 136.324C464.718 178.046 485.158 216.648 500.579 257.203C427.8 269.651 360.595 302.53 301.954 355.728C242.959 409.246 178.625 444.929 106.644 462.978C88.2226 415.666 69.0537 368.695 49.2591 322.047C29.4575 275.38 9.75696 228.586 -9.27395 181.499Z" fill="black"/>
<path fill-rule="evenodd" clip-rule="evenodd" d="M207.579 119.04C207.421 119.167 207.314 119.28 207.241 119.379C207.097 119.54 206.976 119.613 206.863 119.726C198.168 127.695 190.049 139.693 184.27 151.06C178.612 162.186 175.518 172.957 179.449 182.747C182.555 190.482 189.455 191.874 193.107 204.082C192.985 206.536 192.829 208.569 192.936 210.331C193.471 217.3 196.301 219.549 198.064 220.057C203.706 221.796 209.401 210.067 216.004 210.964C217.968 211.49 214.589 216.504 218.433 221.246C223.239 219.148 226.705 211.575 233.513 204.415C240.625 197.945 246.137 196.72 249.674 190.646C249.311 182.652 245.026 185.02 245.782 181.938C246.884 173.958 258.081 167.951 260.147 161.198C260.892 158.553 261.459 153.542 258.338 148.969C257.567 147.836 256.436 146.901 255.245 145.71C249.859 129.748 253.825 123.655 252.079 115.113C249.837 104.809 243.503 102.673 235.311 103.772C226.342 104.989 216.547 110.365 207.579 119.04Z" fill="white"/>
<path fill-rule="evenodd" clip-rule="evenodd" d="M229.596 192.493C230.322 193.594 231.119 194.284 231.987 194.255C234.129 191.88 235.816 189.456 236.139 187.956C237.256 181.296 231.206 183.468 227.688 175.975C227.524 175.596 226.647 175.907 225.852 176.345C225.822 177.52 225.761 178.75 225.634 179.92C225.001 179.45 224.361 178.946 223.809 178.413C223.129 179.362 222.554 180.516 222.64 180.954C224.387 190.28 220.052 198.041 223.927 199.891C224.859 200.23 227.017 199.022 229.211 196.98C229.593 195.962 229.596 192.493 229.596 192.493Z" fill="black"/>
<path fill-rule="evenodd" clip-rule="evenodd" d="M204.627 200.079C206.932 199.021 209.66 196.505 210.578 194.899C208.524 197.399 202.077 201.758 197.873 195.835C197.595 198.258 198.705 200.297 202.077 201.753C198.241 203.203 195.612 200.034 194.956 198.364C192.88 193.351 195.575 184.921 200.32 181.441C205.065 177.955 205.788 177.853 208.312 176.728C210.273 175.502 212.321 173.936 215.467 170.556C215.542 171.589 215.558 172.597 215.672 173.611C217.753 170.402 216.994 166.502 220.397 164.754C218.688 167.268 218.302 171.242 218.925 176.277C219.258 178.94 222.546 178.714 220.736 185.192C220.53 183.735 220.15 182.331 218.221 181.91C218.903 190.473 212.06 199.085 204.627 200.079Z" fill="black"/>
<path fill-rule="evenodd" clip-rule="evenodd" d="M247.026 159.387C245.195 162.133 242.474 164.684 241.206 165.154C243.576 163.527 249.275 156.557 248.838 147.377C250.187 148.287 250.497 151.035 249.27 156.557C252.146 151.974 252.146 146.595 251.732 144.769C250.58 139.117 244.995 138.203 240.64 143.031C236.281 147.859 235.906 148.852 233.915 152.032C232.297 154.205 230.486 156.395 227.098 159.31C227.536 159.956 227.98 160.596 228.463 161.228C225.782 162.479 224.352 159.256 221.769 163.515C223.82 162.261 225.812 163.803 227.844 167.457C228.961 169.46 227.057 174.246 231.095 175.036C230.564 173.953 230.086 172.542 230.877 169.57C234.55 175.183 242.382 169.625 247.026 159.387Z" fill="black"/>
<path fill-rule="evenodd" clip-rule="evenodd" d="M213.178 206.691C215.591 206.135 217.25 209.184 216.462 216.909C214.962 202.208 209.689 214.348 203.933 208.753C207.176 210.759 210.088 207.401 213.178 206.691Z" fill="black"/>
<path fill-rule="evenodd" clip-rule="evenodd" d="M245.286 175.278C243.858 178.125 243.327 185.699 247.725 188.284C248.314 188.609 248.691 186.039 249.342 186.266C242.85 176.527 250.695 174.666 251.115 163.507C250.344 169.09 247.328 171.212 245.286 175.278Z" fill="black"/>
<path fill-rule="evenodd" clip-rule="evenodd" d="M250.74 193.052C250.416 193.425 250.087 193.793 249.812 194.151C249.708 194.294 249.646 194.397 249.623 194.481C249.533 194.51 249.434 194.658 249.358 194.721C249.047 195.129 248.821 195.508 248.51 195.916C247.92 196.682 247.725 197.791 247.877 198.602C248.05 199.641 248.427 201.512 248.934 202.838C249.404 204.214 249.044 205.256 249.703 204.237C250.362 203.219 251.154 202.47 251.524 201.769C251.964 200.817 252.181 200.054 252.408 198.461C252.596 197.122 252.493 194.888 252.01 193.206C251.822 192.562 251.245 192.467 250.74 193.052Z" fill="black"/>
<path fill-rule="evenodd" clip-rule="evenodd" d="M250.185 193.616C249.937 193.925 249.644 194.245 249.401 194.559C249.328 194.653 249.266 194.756 249.198 194.854C249.153 194.869 249.085 194.967 249.009 195.03C248.788 195.409 248.554 195.759 248.261 196.078C247.823 196.718 247.585 197.687 247.751 198.379C247.88 199.274 248.228 200.886 248.632 202.047C249.037 203.209 249.536 203.905 250.072 202.934C250.531 202.082 250.82 201.886 251.101 201.215C251.648 200.309 251.88 199.217 251.917 197.846C251.949 196.583 251.751 195.208 251.325 193.7C251.177 193.15 250.644 193.041 250.185 193.616Z" fill="white"/>
<path fill-rule="evenodd" clip-rule="evenodd" d="M249.237 194.958C248.899 195.343 248.658 195.734 248.286 196.147C248.221 196.22 248.151 196.344 248.097 196.477C248.015 196.541 247.908 196.653 247.795 196.766C247.44 197.188 247.124 197.597 246.814 198.004C246.277 198.792 246.073 199.866 246.158 200.78C246.317 201.784 246.713 203.684 247.215 205.016C247.729 206.377 248.346 207.119 248.967 205.961C249.491 204.98 249.507 204.548 249.941 203.75C250.434 202.818 250.607 201.926 250.855 200.392C251.077 199.02 251.091 196.734 250.583 195.059C250.38 194.412 249.798 194.322 249.237 194.958Z" fill="black"/>
<path fill-rule="evenodd" clip-rule="evenodd" d="M248.734 195.542C248.463 195.88 248.148 196.185 247.874 196.549C247.801 196.643 247.739 196.746 247.663 196.809C247.587 196.872 247.474 196.985 247.451 197.069C247.172 197.428 246.856 197.836 246.568 198.16C246.13 198.8 245.914 199.839 246.013 200.475C246.187 201.361 246.512 203.052 246.917 204.213C247.321 205.375 247.9 206.043 248.432 205.031C248.881 204.18 249.158 203.909 249.551 203.284C250.12 202.289 250.37 201.113 250.39 199.831C250.409 198.533 250.238 197.073 249.82 195.601C249.659 195.021 249.171 195 248.734 195.542Z" fill="white"/>
<path fill-rule="evenodd" clip-rule="evenodd" d="M246.759 197.512C246.414 198 246.047 198.51 245.708 199.003C245.117 199.923 244.809 201.309 244.973 202.308C245.158 203.535 245.22 206.209 245.727 207.924C246.22 209.605 247.172 210.152 247.818 208.879C248.507 207.524 249.075 205.459 249.097 203.536C249.116 201.628 248.863 199.439 248.317 197.189C248.12 196.393 247.334 196.701 246.759 197.512Z" fill="black"/>
<path fill-rule="evenodd" clip-rule="evenodd" d="M246.502 197.782C246.236 198.175 245.92 198.583 245.663 199.012C245.171 199.784 244.998 200.968 245.127 201.863C245.277 202.986 245.72 205.071 246.172 206.53C246.655 208.1 247.226 209.015 247.706 207.89C248.2 206.804 248.428 205.329 248.447 203.647C248.368 201.958 248.165 200.031 247.64 198.01C247.463 197.258 246.94 197.142 246.502 197.782Z" fill="white"/>
<path fill-rule="evenodd" clip-rule="evenodd" d="M243.783 203.18C243.249 203.783 242.672 204.466 242.077 205.069C241.111 206.039 239.889 207.612 240.027 208.388C240.463 210.279 240.975 212.112 242.012 213.742C242.383 214.328 243.071 214.843 243.933 213.97C244.894 213 245.279 212.345 245.52 211.846C246.198 210.426 246.283 209.742 246.28 208.923C246.221 206.679 246.183 204.27 245.422 202.793C245.1 202.188 244.761 202.071 243.783 203.18Z" fill="black"/>
<path fill-rule="evenodd" clip-rule="evenodd" d="M243.503 203.381C243.031 203.937 242.614 204.462 242.143 204.967C241.331 205.83 240.377 207.148 240.485 207.814C240.877 209.566 241.411 211.299 242.328 212.858C242.632 213.378 243.327 213.412 244.104 212.623C244.888 211.839 244.529 212.287 245.23 211.382C245.958 210.444 245.818 209.489 245.741 208.768C245.664 206.762 245.561 204.538 244.89 203.146C244.611 202.572 244.316 202.42 243.503 203.381Z" fill="white"/>
<path fill-rule="evenodd" clip-rule="evenodd" d="M240.155 207.219C239.618 207.95 239.085 208.614 238.547 209.273C237.562 210.481 236.423 212.184 236.553 212.925C236.997 214.851 237.513 216.724 238.538 218.279C238.883 218.8 239.539 219.36 240.439 218.283C241.282 217.268 241.741 216.519 241.936 216.029C242.54 214.519 242.648 213.745 242.639 212.932C242.474 210.642 242.421 208.127 241.679 206.638C241.396 206.06 241.056 205.988 240.155 207.219Z" fill="black"/>
<path fill-rule="evenodd" clip-rule="evenodd" d="M239.884 207.454C239.457 208.046 238.986 208.664 238.532 209.233C237.792 210.157 236.8 211.673 236.94 212.295C237.398 214.102 237.92 215.816 238.77 217.305C239.075 217.835 239.844 217.795 240.547 216.915C241.25 216.036 240.95 216.509 241.628 215.53C242.329 214.523 242.181 213.527 242.163 212.832C241.939 210.681 241.854 208.486 241.169 207.059C240.914 206.514 240.621 206.443 239.884 207.454Z" fill="white"/>
<path fill-rule="evenodd" clip-rule="evenodd" d="M219.378 223.884C219.708 223.633 220.025 223.404 220.402 223.103C220.492 223.028 220.559 222.976 220.644 222.953C220.725 222.889 220.801 222.826 220.923 222.753C221.246 222.539 221.556 222.285 221.969 222.042C222.57 221.623 223.288 221.91 223.575 222.518C224.049 223.269 224.841 224.743 225.324 226.153C225.794 227.528 226.511 227.472 225.68 227.954C224.815 228.459 224.023 229.203 223.507 229.44C222.773 229.59 222.277 229.492 221.332 229.016C220.552 228.622 219.412 227.426 218.74 225.797C218.506 225.209 218.76 224.356 219.378 223.884Z" fill="black"/>
<path fill-rule="evenodd" clip-rule="evenodd" d="M219.861 223.388C220.162 223.145 220.492 222.899 220.786 222.754C220.875 222.71 220.944 222.627 221.034 222.603C221.11 222.54 221.191 222.476 221.267 222.413C221.545 222.208 221.766 221.988 222.102 221.803C222.667 221.433 223.279 221.674 223.567 222.134C223.974 222.829 224.635 224.105 225.028 225.308C225.421 226.512 225.582 227.593 224.794 227.876C224.134 228.111 223.878 228.391 223.448 228.564C222.668 228.881 221.932 228.673 221.288 228.02C220.666 227.391 219.939 226.449 219.4 225.054C219.198 224.525 219.385 223.775 219.861 223.388Z" fill="white"/>
<path fill-rule="evenodd" clip-rule="evenodd" d="M221.064 222.709C221.459 222.38 221.724 222.146 222.124 221.878C222.255 221.789 222.313 221.702 222.448 221.664C222.524 221.601 222.636 221.488 222.713 221.424C223.067 221.161 223.472 220.883 223.795 220.664C224.486 220.216 225.182 220.433 225.559 221.018C226.033 221.769 226.846 223.312 227.317 224.688C227.787 226.063 227.875 227.3 226.968 227.681C226.144 228.028 225.903 227.851 225.289 228.082C224.563 228.261 224.009 228.2 223.112 227.811C222.27 227.449 221.151 226.266 220.439 224.657C220.197 224.09 220.412 223.245 221.064 222.709Z" fill="black"/>
<path fill-rule="evenodd" clip-rule="evenodd" d="M221.622 222.146C221.926 221.887 222.246 221.642 222.556 221.388C222.632 221.325 222.766 221.282 222.848 221.223C222.893 221.209 222.961 221.11 223.037 221.047C223.391 220.784 223.67 220.579 223.993 220.364C224.563 219.994 225.259 220.207 225.503 220.681C225.902 221.341 226.591 222.65 227.022 223.881C227.426 225.042 227.487 226.194 226.698 226.472C225.994 226.726 225.737 227.001 225.271 227.223C224.447 227.555 223.695 227.41 223.007 226.828C222.312 226.236 221.717 225.231 221.133 223.896C220.897 223.339 221.076 222.611 221.622 222.146Z" fill="white"/>
<path fill-rule="evenodd" clip-rule="evenodd" d="M223.627 220.28C224.032 220.012 224.484 219.745 224.928 219.453C225.628 219.045 226.463 219.372 226.96 220.039C227.523 220.919 228.891 222.37 229.561 223.917C230.218 225.429 230.05 227.099 229.035 227.428C228.021 227.763 226.614 227.616 225.543 226.67C224.551 225.793 223.645 224.248 222.72 222.392C222.368 221.682 222.947 220.737 223.627 220.28Z" fill="black"/>
<path fill-rule="evenodd" clip-rule="evenodd" d="M223.837 220.02C224.195 219.792 224.55 219.642 224.927 219.448C225.55 219.099 226.192 219.449 226.622 220.06C227.132 220.915 228.057 222.504 228.625 223.886C229.207 225.308 229.453 226.591 228.554 226.833C227.774 226.992 226.842 226.658 225.993 225.789C225.095 224.934 224.249 223.598 223.423 221.861C223.124 221.177 223.338 220.332 223.837 220.02Z" fill="white"/>
<path fill-rule="evenodd" clip-rule="evenodd" d="M228.022 218.737C228.607 218.258 229.187 217.763 229.792 217.221C230.823 216.291 232.291 215.208 232.573 215.822C233.333 217.34 234.051 219.072 234.458 221.324C234.597 222.1 234.572 223.388 233.614 224.276C232.68 225.14 232.079 225.457 231.68 225.571C230.606 225.875 230.271 225.578 229.862 225.195C228.635 224.054 227.374 222.761 226.95 220.946C226.766 220.169 226.936 219.626 228.022 218.737Z" fill="black"/>
<path fill-rule="evenodd" clip-rule="evenodd" d="M228.234 218.477C228.707 218.105 229.25 217.661 229.748 217.236C230.598 216.507 231.841 215.654 232.115 216.233C232.795 217.661 233.443 219.251 233.824 221.321C233.949 222.016 233.623 223.138 232.843 223.845C232.058 224.558 232.39 224.266 231.562 224.9C230.701 225.564 230.32 224.815 229.955 224.419C228.929 223.289 227.774 222.043 227.4 220.372C227.243 219.675 227.332 219.19 228.234 218.477Z" fill="white"/>
<path fill-rule="evenodd" clip-rule="evenodd" d="M231.955 215.382C232.563 214.973 233.184 214.49 233.77 214.006C234.774 213.181 236.311 212.291 236.585 212.87C237.443 214.4 238.151 216.137 238.502 218.323C238.63 219.105 238.551 220.352 237.577 221.179C236.617 221.995 236.051 222.242 235.683 222.307C234.574 222.502 234.195 222.219 233.719 221.781C232.559 220.541 231.248 219.264 230.829 217.448C230.67 216.715 230.789 216.176 231.955 215.382Z" fill="black"/>
<path fill-rule="evenodd" clip-rule="evenodd" d="M232.21 215.113C232.691 214.777 233.218 214.441 233.728 214.025C234.581 213.327 235.797 212.687 236.107 213.217C236.809 214.714 237.409 216.283 237.816 218.304C237.952 218.999 237.59 220.072 236.804 220.718C235.995 221.382 236.428 221.076 235.533 221.655C234.721 222.181 234.269 221.495 233.891 221.069C232.83 219.835 231.675 218.589 231.292 216.878C231.144 216.216 231.29 215.751 232.21 215.113Z" fill="white"/>
<path fill-rule="evenodd" clip-rule="evenodd" d="M247.701 186.464C246.404 187.951 247.198 189.891 247.654 191.391C248.354 193.201 247.938 194.694 248.463 196.715C248.705 197.502 249.495 197.347 250.128 196.439C250.744 195.562 251.189 195.449 251.624 194.497C253.09 191.514 250.159 187.389 249.583 186.587C249.223 186.077 248.345 185.723 247.701 186.464Z" fill="black"/>
<path fill-rule="evenodd" clip-rule="evenodd" d="M217.364 216.202C218.8 215.06 219.491 217.107 219.952 218.606C220.553 220.564 221.554 220.645 222.313 222.481C222.653 223.115 222.167 224.236 221.392 224.712C220.655 225.164 220.388 225.722 219.654 225.871C217.339 226.428 216.533 220.356 216.444 219.063C216.383 218.29 216.648 216.77 217.364 216.202Z" fill="black"/>
<path fill-rule="evenodd" clip-rule="evenodd" d="M248.312 187.99C246.907 189.59 247.614 190.308 248.076 191.649C248.612 193.238 248.03 194.04 248.548 195.713C248.709 196.405 248.985 196.508 249.534 196.073C250.198 195.551 250.032 195.802 250.582 195.049C251.181 192.72 250.165 189.366 249.425 188.118C249.151 187.651 248.924 187.293 248.312 187.99Z" fill="white"/>
<path fill-rule="evenodd" clip-rule="evenodd" d="M217.931 217.741C219.521 216.427 219.495 217.925 219.956 219.26C220.469 220.934 221.102 220.466 221.733 222.027C222.007 222.606 222.04 223.074 221.481 223.74C220.9 224.439 220.379 224.897 219.801 225.232C218.136 225.509 217.317 221.517 217.097 219.75C217.013 219.117 217.346 218.226 217.931 217.741Z" fill="white"/>
<path fill-rule="evenodd" clip-rule="evenodd" d="M246.7 188.446C245.323 189.674 244.999 191.773 245.266 193.444C245.633 195.593 245.835 197.167 246.04 199.443C246.112 200.282 246.86 200.284 247.528 199.531C248.196 198.778 249.1 198.464 249.601 197.568C251.371 194.766 248.834 190.088 248.409 189.087C248.147 188.471 247.386 187.834 246.7 188.446Z" fill="black"/>
<path fill-rule="evenodd" clip-rule="evenodd" d="M219.128 215.623C220.43 214.248 221.52 214.849 222.246 216.109C223.139 217.742 223.816 218.797 224.913 220.202C225.338 220.746 224.99 221.864 224.26 222.505C223.573 223.112 222.963 224.152 222.254 224.524C219.931 225.666 218.826 219.575 218.544 218.453C218.354 217.728 218.446 216.337 219.128 215.623Z" fill="black"/>
<path fill-rule="evenodd" clip-rule="evenodd" d="M246.763 190.064C246.395 190.405 246.395 190.743 246.082 191.013C245.475 191.535 245.121 192.479 245.206 193.23C245.575 195.065 245.982 196.421 246.195 198.343C246.283 199.129 246.501 199.329 247.089 199.039C247.815 198.69 248.346 198.226 248.963 197.529C250.093 195.504 248.609 192.024 248.062 190.482C247.861 189.921 247.344 189.529 246.763 190.064Z" fill="white"/>
<path fill-rule="evenodd" clip-rule="evenodd" d="M219.621 217.069C219.934 216.738 220.275 216.327 220.639 215.94C221.188 215.347 221.827 215.38 222.15 215.944C222.911 217.308 223.362 218.701 224.295 219.921C224.661 220.4 224.667 220.794 224.173 221.597C223.692 222.379 222.731 223.405 222.106 223.909C220.461 224.568 219.545 220.682 219.032 219.121C218.851 218.549 219.051 217.67 219.621 217.069Z" fill="white"/>
<path fill-rule="evenodd" clip-rule="evenodd" d="M243.308 194.983C243.557 195.958 244.203 197.738 244.898 199.057C245.6 200.39 246.635 202.339 247.362 201.222C248.12 200.055 248.167 197.505 248.064 196.055C247.983 194.52 247.638 192.826 246.764 191.349C244.809 188.046 242.213 192.046 243.308 194.983Z" fill="black"/>
<path fill-rule="evenodd" clip-rule="evenodd" d="M223.723 213.94C224.054 214.852 224.709 216.682 225.07 218.318C225.432 219.965 225.899 222.468 224.904 223.011C223.938 223.54 222.618 222.386 221.873 221.528C221.167 220.651 220.497 219.217 220.15 217.184C219.338 212.434 222.816 210.827 223.723 213.94Z" fill="black"/>
<path fill-rule="evenodd" clip-rule="evenodd" d="M243.853 195.014C244.058 195.846 244.624 197.422 245.236 198.565C245.866 199.731 246.802 201.381 247.416 200.428C248.057 199.436 247.739 197.212 247.648 195.95C247.634 194.629 247.24 193.191 246.479 191.827C245.24 189.559 242.974 192.478 243.853 195.014Z" fill="white"/>
<path fill-rule="evenodd" clip-rule="evenodd" d="M223.743 214.788C224.038 215.596 224.54 217.153 224.87 218.613C225.193 220.069 225.568 222.18 224.743 222.63C223.899 223.082 222.779 222.105 222.117 221.372C221.501 220.63 220.926 219.402 220.66 217.572C220.122 214.574 222.931 212.153 223.743 214.788Z" fill="white"/>
<path fill-rule="evenodd" clip-rule="evenodd" d="M241.902 193.899C241.462 194.354 240.624 194.985 240.185 195.44C239.441 196.205 239.582 198.236 239.778 199.191C240.323 201.441 241.27 202.983 241.726 205.374C241.903 206.29 242.782 206.157 243.502 205.297C244.277 204.375 245.057 203.719 245.756 202.809C246.516 201.827 247.073 200.926 246.769 200.237C246.024 198.441 244.779 196.046 243.934 194.326C243.612 193.669 242.645 193.128 241.902 193.899Z" fill="black"/>
<path fill-rule="evenodd" clip-rule="evenodd" d="M224.179 211.301C224.593 210.904 225.374 209.987 225.754 209.609C226.571 208.801 227.548 210.068 227.888 210.861C228.757 212.892 229.106 215.011 230.102 216.809C230.526 217.574 230.018 218.789 229.156 219.437C228.356 220.039 227.62 220.947 226.738 221.545C225.927 222.091 225.212 222.444 224.971 221.662C224.46 219.676 223.806 216.642 223.372 214.551C223.202 213.706 223.357 212.104 224.179 211.301Z" fill="black"/>
<path fill-rule="evenodd" clip-rule="evenodd" d="M242.208 195.048C241.805 195.454 241.439 195.82 241.061 196.219C240.337 196.977 240.054 198.013 240.281 198.76C240.784 200.711 241.486 202.096 241.845 204.163C241.996 205.015 242.27 205.21 242.955 204.757C243.684 204.27 244.852 203.163 245.465 202.313C246.06 201.546 246.539 200.733 246.297 200.11C245.626 198.564 244.532 196.477 243.823 195.062C243.528 194.48 242.809 194.449 242.208 195.048Z" fill="white"/>
<path fill-rule="evenodd" clip-rule="evenodd" d="M224.609 212.378C225.029 211.986 225.42 211.56 225.801 211.192C226.431 210.586 227.158 210.698 227.454 211.347C228.154 213.157 228.58 214.829 229.449 216.424C229.8 217.067 229.764 217.511 229.16 218.346C228.57 219.168 227.463 220.27 226.696 220.781C226.018 221.263 225.38 221.573 225.175 220.896C224.724 219.124 224.162 216.532 223.816 214.725C223.682 213.995 223.936 213.024 224.609 212.378Z" fill="white"/>
<path fill-rule="evenodd" clip-rule="evenodd" d="M234.444 200.354C233.335 201.435 233.606 204.432 233.797 205.388C234.606 207.71 235.338 209.984 236.242 212.236C236.576 213.076 237.069 213.036 238.086 211.902C239.144 210.76 240.254 209.525 241.233 208.364C242.285 207.11 243.301 206.13 242.704 204.602C241.932 202.619 240.405 200.281 239.414 198.482C238.777 197.347 235.549 199.279 234.444 200.354Z" fill="black"/>
<path fill-rule="evenodd" clip-rule="evenodd" d="M231.331 203.53C232.411 202.457 233.746 204.27 234.135 205.049C234.823 207.449 235.492 209.816 236.324 212.172C236.623 213.02 236.36 213.721 235.289 214.67C234.152 215.722 233.063 216.745 231.923 217.654C230.835 218.518 229.781 219.481 229.257 217.849C228.573 215.72 228.239 212.313 227.859 209.977C227.636 208.45 230.216 204.652 231.331 203.53Z" fill="black"/>
<path fill-rule="evenodd" clip-rule="evenodd" d="M235.261 201.432C234.306 202.406 234.263 203.88 234.476 204.752C235.135 206.889 235.779 208.991 236.424 211.093C236.688 211.95 237.066 211.884 238.013 210.88C238.974 209.859 239.95 208.775 240.872 207.665C241.729 206.634 242.632 205.761 242.085 204.331C241.417 202.585 240.392 201.189 239.506 199.585C238.958 198.581 236.267 200.402 235.261 201.432Z" fill="white"/>
<path fill-rule="evenodd" clip-rule="evenodd" d="M231.304 205.336C232.227 204.411 233.08 205.101 233.442 205.81C234.155 207.814 234.942 209.79 235.767 211.799C236.078 212.559 235.719 213.161 234.757 214.059C233.79 214.963 232.8 215.894 231.817 216.676C230.806 217.482 229.889 218.319 229.442 216.859C228.85 214.937 228.585 212.795 228.28 210.707C228.02 209.384 230.329 206.318 231.304 205.336Z" fill="white"/>
<path fill-rule="evenodd" clip-rule="evenodd" d="M257.794 171.322C258.808 179.701 257.351 185.557 263.179 190.598C266.229 193.236 254.206 205.436 250.28 227.845C249.337 230.001 245.634 231.726 243.223 234.023C241.114 236.036 238.832 240.012 237.597 240.116C228.781 238.496 216.764 244.061 215.559 240.766C212.742 233.332 210.581 225.341 205.895 220.697C208.236 218.811 208.687 219.645 211.104 217.696C213.593 223.905 217.21 229.344 222.383 229.395C223.939 229.384 225.918 228.075 227.12 227.549C229.207 227.689 230.387 227.094 230.636 225.688C232.49 225.235 233.93 224.518 234.502 223.062C236.316 222.623 237.829 221.53 238.728 219.229C240.164 219.138 241.343 217.923 242.167 215.526C243.291 215.223 244.629 213.563 246.087 210.544C246.762 210.533 247.557 210.096 248.893 206.366C250.22 204.984 251.55 203.135 252.754 199.919C254.668 193.796 255.146 184.255 253.326 177.528C255.626 175.026 255.544 173.804 257.794 171.322Z" fill="white"/>
<path fill-rule="evenodd" clip-rule="evenodd" d="M252.327 229.593C252.773 238.808 253.047 246.83 252.694 250.449C250.366 248.087 247.974 244.261 247.151 236.679C248.963 234.329 250.708 231.925 252.327 229.593Z" fill="white"/>
<path fill-rule="evenodd" clip-rule="evenodd" d="M256.244 223.638C259.429 235.443 262.35 247.176 262.774 251.88C259.395 250.23 255.323 246.682 253.257 235.623C252.904 233.74 252.565 231.784 252.264 229.691C253.671 227.62 255.003 225.617 256.244 223.638Z" fill="white"/>
<path fill-rule="evenodd" clip-rule="evenodd" d="M260.373 216.485C266.174 229.668 271.997 242.925 273.225 248.513C268.821 247.644 263.339 244.805 258.989 232.579C258.014 229.836 257.096 226.883 256.136 223.75C257.674 221.323 259.083 218.945 260.373 216.485Z" fill="white"/>
<path fill-rule="evenodd" clip-rule="evenodd" d="M264.419 208.417C275.21 219.951 286.036 231.907 289.186 237.569C283.361 238.89 275.597 238.797 266.819 227.328C264.466 224.252 262.279 220.929 259.985 217.268C261.639 214.262 263.127 211.349 264.419 208.417Z" fill="white"/>
<path fill-rule="evenodd" clip-rule="evenodd" d="M271.676 187.207C292.529 191.091 314.237 195.85 338.36 201.031C335.603 206.787 308.353 212.191 299.584 209.312C290.216 206.38 280.244 202.117 268.585 198.06C269.732 194.511 270.813 190.903 271.676 187.207Z" fill="white"/>
<path fill-rule="evenodd" clip-rule="evenodd" d="M273.816 176.574C298.261 175.031 323.893 175.463 354.217 177.065C349.335 183.667 322.383 193.351 312.078 192.304C300.07 191.082 286.968 188.986 271.463 188.097C272.446 184.323 273.175 180.511 273.816 176.574Z" fill="white"/>
<path fill-rule="evenodd" clip-rule="evenodd" d="M275.427 163.292C303.888 154.867 333.717 150.265 363.442 147.374C361.959 153.95 337.189 170.911 317.307 171.946C304.42 173.566 290.183 174.27 273.707 177.189C274.44 172.757 275.005 168.105 275.427 163.292Z" fill="white"/>
<path fill-rule="evenodd" clip-rule="evenodd" d="M276.227 150.033C304.833 134.623 335.181 123.939 369.737 116.991C367.589 127.747 337.907 145.822 325.628 148.308C310.919 152.395 294.368 156.499 275.303 164.615C275.778 159.992 276.089 155.143 276.227 150.033Z" fill="white"/>
<path fill-rule="evenodd" clip-rule="evenodd" d="M276.575 132.467C304.212 109.949 333.87 92.8899 365.551 81.489C366.137 93.3908 342.38 118.219 323.347 125.513C309.078 130.979 293.831 139.06 276.211 150.782C276.482 145.005 276.554 138.902 276.575 132.467Z" fill="white"/>
<path fill-rule="evenodd" clip-rule="evenodd" d="M268.655 197.648C283.878 204.747 299.73 211.997 316.675 219.152C309.118 225.915 288.361 225.294 280.849 220.716C275.552 217.491 270.057 213.624 264.06 209.306C265.854 205.483 267.379 201.587 268.655 197.648Z" fill="white"/>
<path fill-rule="evenodd" clip-rule="evenodd" d="M236.244 244.897C241.308 249.813 245.872 253.751 248.146 254.807C247.773 250.595 246.654 245.519 242.68 240.973C240.535 242.375 238.317 243.717 236.244 244.897Z" fill="white"/>
<path fill-rule="evenodd" clip-rule="evenodd" d="M231.075 247.535C236.427 257.353 241.965 266.682 244.597 269.226C245.098 263.888 244.754 256.831 239.249 248.963C238.334 247.655 237.396 246.261 236.336 244.868C234.546 245.848 232.743 246.793 231.075 247.535Z" fill="white"/>
<path fill-rule="evenodd" clip-rule="evenodd" d="M225.122 249.873C230.01 264.041 235.329 277.883 238.108 282.017C239.5 275.623 240.127 266.98 234.921 255.479C233.776 252.952 232.547 250.284 231.164 247.512C229.069 248.464 227.111 249.223 225.122 249.873Z" fill="white"/>
<path fill-rule="evenodd" clip-rule="evenodd" d="M218.576 251.373C220.213 271.451 222.443 291.228 224.5 297.922C227.926 291.024 231.148 280.866 228.312 263.737C227.552 259.166 226.757 254.547 225.745 249.677C223.268 250.479 220.944 251.001 218.576 251.373Z" fill="white"/>
<path fill-rule="evenodd" clip-rule="evenodd" d="M203.163 249.834C194.526 277.975 185.729 305.27 175.266 332.222C180.978 333.39 199.416 308.32 202.081 296.395C204.938 283.668 207.36 268.892 210.795 251.548C208.162 251.222 205.657 250.665 203.163 249.834Z" fill="white"/>
<path fill-rule="evenodd" clip-rule="evenodd" d="M196.203 246.512C181.738 275.16 166.85 301.793 148.009 327.766C156.005 329.092 179.772 312.203 184.728 300.743C190.672 286.994 196.219 270.167 203.717 250.05C201.214 249.185 198.699 247.973 196.203 246.512Z" fill="white"/>
<path fill-rule="evenodd" clip-rule="evenodd" d="M188.185 240.674C166.585 268.121 143.961 291.902 119.864 309.318C125.604 314.065 155.263 310.181 168.654 293.091C177.392 280.98 185.935 265.372 196.604 246.705C193.77 245.076 190.947 243.021 188.185 240.674Z" fill="white"/>
<path fill-rule="evenodd" clip-rule="evenodd" d="M180.742 233.411C154.395 254.754 126.649 272.159 94.2018 285.357C103.088 294.168 138.118 291.75 148.399 283.876C160.673 273.441 173.306 258.962 188.967 241.329C186.235 239.092 183.475 236.432 180.742 233.411Z" fill="white"/>
<path fill-rule="evenodd" clip-rule="evenodd" d="M171.491 222.299C141.377 235.793 109.632 245.11 76.3584 250.849C82.7563 262.174 118.11 273.644 136.322 264.51C150.051 257.629 164.072 246.48 181.166 233.828C177.94 230.453 174.793 226.543 171.491 222.299Z" fill="white"/>
<path fill-rule="evenodd" clip-rule="evenodd" d="M210.437 251.494C207.064 274.903 203.626 298.097 199.641 321.418C207.88 316.55 217.207 290.948 217.989 279.109C218.553 270.621 218.94 261.436 219.363 251.25C216.311 251.762 213.386 251.76 210.437 251.494Z" fill="white"/>
<path fill-rule="evenodd" clip-rule="evenodd" d="M133.606 371.679C137.096 375.911 140.571 380.103 144.007 384.309C148.988 382.938 153.91 381.382 158.817 379.762C156.01 383.934 153.228 388.028 150.378 392.061C153.809 396.267 157.208 400.523 160.654 404.61C155.446 403.016 150.233 401.264 145.057 399.462C142.117 403.519 139.245 407.482 136.298 411.35C136.011 406.295 135.737 401.27 135.339 396.174C130.104 394.352 124.741 392.413 119.49 390.516C124.613 389.295 129.703 388.119 134.781 386.912C134.377 381.812 133.978 376.711 133.606 371.679Z" fill="white"/>
<path fill-rule="evenodd" clip-rule="evenodd" d="M412.704 194.971C416.137 198.865 419.606 202.714 422.994 206.622C428.084 205.605 433.262 204.871 438.426 204.102C435.448 207.241 432.335 210.417 429.31 213.723C432.721 217.548 436.159 221.441 439.561 225.389C434.318 223.532 429.074 221.829 423.822 220.09C420.818 223.62 417.984 227.38 415.055 231.159C414.774 226.452 414.498 221.739 414.244 217.106C409.067 215.617 403.889 214.128 398.679 212.687C403.66 211.316 408.64 209.94 413.665 208.554C413.285 203.989 413.031 199.51 412.704 194.971Z" fill="white"/>
<path d="M226.62 388.364C222.097 391.468 217.648 392.398 213.273 391.153C208.847 389.851 204.927 386.579 201.666 381.52C198.829 376.926 196.142 372.456 193.7 368.162C191.351 363.554 190.748 359.334 191.699 355.414C192.821 351.524 195.67 348.146 200.189 345.332C203.904 342.897 207.662 341.925 211.308 342.55C215.043 343.152 218.261 345.756 221.007 350.358C221.133 350.576 221.24 350.734 221.35 350.938C218.796 352.715 216.235 354.417 213.649 356.168C213.537 355.949 213.418 355.822 213.308 355.619C212.148 353.634 210.735 352.558 209.106 352.281C207.443 351.961 205.738 352.348 203.996 353.485C200.183 355.853 199.317 358.88 201.449 362.622C204.239 367.373 207.19 372.216 210.34 377.238C212.946 381.319 216.232 382.176 220.048 379.687C221.861 378.481 222.964 377.036 223.339 375.306C223.755 373.527 223.222 371.561 221.817 369.4C221.66 369.186 221.578 368.964 221.455 368.792C224.071 367.024 226.67 365.242 229.237 363.433C229.335 363.668 229.472 363.838 229.628 364.038C232.822 369.026 234.165 373.651 233.433 377.963C232.757 382.224 230.512 385.699 226.62 388.364ZM260.886 360.924C256.001 365.07 251.015 369.118 245.897 373.057C236.403 358.695 227.874 345.358 220.095 332.532C224.598 329.048 229.049 325.492 233.36 321.903C236.292 319.433 239.118 318.455 241.835 318.937C244.656 319.395 247.178 321.406 249.505 324.948C251.952 328.631 252.62 332.234 251.46 335.715C253.643 335.376 255.59 335.624 257.376 336.452C259.098 337.24 260.774 338.856 262.399 341.241C264.931 345.023 266.099 348.58 265.787 351.983C265.552 355.394 263.904 358.386 260.886 360.924ZM241.992 350.59C243.81 353.415 245.709 356.294 247.653 359.153C250.157 357.166 252.691 355.176 255.156 353.101C255.937 352.464 256.342 351.556 256.312 350.399C256.371 349.218 255.961 347.927 255.013 346.579C254.138 345.21 253.18 344.428 252.128 344.112C251.138 343.807 250.27 343.994 249.469 344.587C247.014 346.6 244.466 348.606 241.992 350.59ZM231.723 334.452C233.521 337.386 235.372 340.238 237.204 343.214C239.198 341.656 241.203 340.051 243.18 338.479C244.016 337.776 244.435 336.852 244.476 335.642C244.592 334.425 244.167 333.121 243.277 331.752C242.402 330.382 241.451 329.508 240.39 329.255C239.368 328.937 238.449 329.068 237.611 329.756C235.65 331.341 233.703 332.91 231.723 334.452ZM283.736 319.972C280.611 315.558 277.526 311.079 274.42 306.708C273.252 304.969 271.806 304.033 270.114 303.731C268.407 303.431 266.704 304 265.003 305.424C263.324 306.923 262.397 308.627 262.195 310.569C262.062 312.444 262.49 314.268 263.624 315.965C266.672 320.371 269.68 324.842 272.797 329.334C273.948 331.044 275.385 332.057 277.153 332.352C278.828 332.64 280.589 332.035 282.297 330.518C284.006 329.017 285.022 327.29 285.211 325.363C285.386 323.454 284.898 321.636 283.736 319.972ZM281.487 301.552C284.402 305.68 287.365 309.82 290.28 313.948C293.357 318.336 294.658 322.675 294.13 327.045C293.676 331.392 291.589 335.249 287.858 338.495C284.177 341.796 280.321 343.191 276.347 342.488C272.441 341.856 268.86 339.286 265.766 334.716C262.871 330.479 260.088 326.292 257.277 322.139C254.317 317.694 253.104 313.317 253.556 308.954C253.956 304.52 255.957 300.716 259.523 297.502C263.076 294.303 266.809 293.058 270.713 293.843C274.684 294.515 278.253 297.117 281.487 301.552ZM311.039 317.514C308.861 319.227 306.675 321.016 304.545 322.755C303.892 321.807 303.246 320.92 302.613 320.017C301.717 314.618 300.817 309.327 299.944 304.002C294.95 304.157 290.627 301.655 286.906 296.578C283.901 292.473 282.37 288.614 282.297 285.017C282.237 281.389 283.746 278.379 286.917 276.01C291.365 272.912 295.906 269.837 300.561 266.842C310.755 279.353 320.369 291.704 329.339 303.87C326.77 305.649 324.279 307.437 321.787 309.224C318.722 304.972 315.622 300.662 312.465 296.403C310.889 297.526 309.315 298.664 307.738 299.771C308.8 305.658 309.926 311.57 311.039 317.514ZM302.573 292.781C304.148 291.643 305.717 290.613 307.28 289.522C304.625 286.057 301.956 282.623 299.225 279.165C297.585 280.263 295.979 281.388 294.406 282.541C292.873 283.629 292.037 284.836 291.919 286.206C291.779 287.502 292.401 289.109 293.806 290.933C296.459 294.536 299.369 295.123 302.573 292.781ZM346.247 292.843C343.486 294.518 340.808 296.277 338.105 297.931C329.19 286.035 319.521 273.918 309.23 261.675C311.888 260.193 314.606 258.706 317.336 257.186C321.651 262.086 325.905 266.977 330.006 271.881C331.076 271.233 332.198 270.641 333.299 270.005C332.233 263.416 331.1 256.924 329.909 250.468C332.557 249.048 335.159 247.633 337.766 246.262C338.578 247.119 339.376 247.992 340.16 248.881C341.182 255.49 342.115 262.29 342.964 269.006C350.713 272.231 358.45 275.334 366.159 278.455C366.8 279.282 367.424 280.094 368.03 280.863C365.059 282.42 362.173 283.907 359.263 285.474C352.6 282.592 345.881 279.776 339.094 276.876C337.918 277.534 336.787 278.188 335.625 278.829C339.265 283.532 342.798 288.23 346.247 292.843ZM383.823 273.634C380.799 274.951 377.804 276.251 374.857 277.576C365.393 266.021 355.414 254.177 345.09 242.41C348.059 240.823 351.077 239.278 354.078 237.718C360.5 244.928 366.85 252.19 373.042 259.391C371.919 249.707 370.555 239.893 369.054 230.076C371.856 228.672 374.693 227.311 377.517 225.982C388.441 238.136 399.789 250.586 411.592 262.995C407.942 264.309 404.382 265.614 400.835 266.888C394.198 259.652 387.704 252.327 381.277 245.057C382.427 254.707 383.279 264.263 383.823 273.634Z" fill="white"/>
</svg>
