<svg width="1201" height="513" viewBox="0 0 1201 513" fill="none" xmlns="http://www.w3.org/2000/svg">
<path d="M344.069 508.939L338.541 523.398L292.305 505.723L286.263 521.528L273.653 516.707L291.232 470.723L303.842 475.543L297.832 491.264L344.069 508.939ZM370.292 460.53L354.64 485.452L301.289 451.945L315.506 429.309C318.793 424.075 322.642 420.824 327.052 419.556C331.494 418.236 336.154 419.108 341.032 422.172C345.859 425.204 348.257 429.225 348.227 434.237C351.144 432.526 353.966 431.642 356.695 431.584C359.423 431.527 362.337 432.471 365.437 434.418C370.467 437.577 373.368 441.419 374.141 445.942C374.894 450.383 373.611 455.246 370.292 460.53ZM320.955 446.016L330.634 452.095L336.139 443.33C336.841 442.213 337.025 441.017 336.691 439.745C336.388 438.421 335.475 437.281 333.951 436.323C332.375 435.334 330.901 434.975 329.526 435.245C328.184 435.465 327.162 436.133 326.46 437.251L320.955 446.016ZM341.609 458.988L351.441 465.163L358.334 454.188C359.036 453.07 359.236 451.85 358.933 450.526C358.58 449.171 357.641 448.014 356.117 447.057C354.491 446.036 352.991 445.66 351.617 445.931C350.242 446.201 349.204 446.895 348.502 448.013L341.609 458.988ZM417.396 404.678L388.068 435.16L342.669 391.481L371.872 361.128L381.6 370.488L363.13 389.685L371.431 397.672L387.031 381.458L396.241 390.319L380.641 406.533L389.072 414.645L407.667 395.318L417.396 404.678ZM439.942 387.727L427.246 396.584L391.2 344.915L415.189 328.179C419.913 324.884 424.634 323.785 429.351 324.884C434.068 325.983 438.229 329.115 441.833 334.282C445.438 339.449 446.959 344.461 446.395 349.316C445.832 354.172 443.189 358.247 438.465 361.543L427.171 369.421L439.942 387.727ZM411.62 347.13L419.447 358.349L428.305 352.17C429.584 351.277 430.341 350.055 430.574 348.502C430.857 346.915 430.363 345.211 429.093 343.39C427.823 341.569 426.377 340.493 424.755 340.161C423.183 339.795 421.757 340.058 420.478 340.95L411.62 347.13ZM486.024 374.314L472.898 379.785L462.995 356.026L468.229 353.845C468.833 350.928 468.918 347.935 468.484 344.866C468.082 341.718 466.912 337.818 464.973 333.166L453.754 306.251L493.795 289.561L512.839 335.251L519.485 332.481L529.388 356.24L516.262 361.711L511.553 350.413L481.315 363.016L486.024 374.314ZM482.767 347.785L498.55 341.207L484.7 307.978L472.073 313.241L478.098 327.695C481.445 335.726 483.001 342.422 482.767 347.785ZM565.116 316.124L561.534 295.097C561.172 292.967 559.972 291.285 557.936 290.049C555.958 288.804 553.402 288.448 550.268 288.982C547.133 289.516 544.809 290.703 543.297 292.543C541.843 294.373 541.298 296.352 541.661 298.482L545.242 319.509C545.625 321.756 546.805 323.503 548.782 324.749C550.749 325.935 553.33 326.257 556.524 325.713C559.718 325.169 562.047 324.011 563.51 322.24C564.963 320.41 565.499 318.371 565.116 316.124ZM576.264 330.658C572.444 335.387 566.66 338.411 558.911 339.731C551.163 341.05 544.704 340.112 539.533 336.914C534.294 333.668 531.08 328.555 529.891 321.576L526.536 301.879C525.327 294.782 526.633 288.868 530.453 284.14C534.323 279.342 540.132 276.283 547.88 274.963C555.569 273.654 562.034 274.622 567.273 277.868C572.513 281.115 575.732 286.257 576.931 293.296L580.285 312.992C581.474 319.972 580.134 325.86 576.264 330.658ZM631.52 335.531L617.421 333.682L625.612 271.217L640.961 273.229L636.397 308.031L661.485 275.921L675.584 277.77L667.393 340.235L652.044 338.222L656.608 303.42L631.52 335.531ZM742.379 368.464L728.263 362.109L737.02 342.66C734.197 341.915 731.445 340.939 728.764 339.732C714.485 333.303 709.907 324.398 715.03 313.019L724.748 291.435L738.863 297.791L729.996 317.486C728.197 321.48 729.952 324.672 735.259 327.061C737.502 328.071 740.035 328.948 742.858 329.693L754.128 304.663L768.243 311.018L742.379 368.464ZM789.83 400.822L755.529 376.069L792.396 324.982L826.551 349.63L818.651 360.577L797.049 344.988L790.307 354.33L808.553 367.496L801.074 377.86L782.829 364.693L775.982 374.18L797.73 389.875L789.83 400.822ZM817.155 428.404L806.539 417.137L842.568 383.193L830.966 370.878L840.791 361.621L874.55 397.453L864.724 406.71L853.183 394.46L817.155 428.404ZM841.935 461.247L833.706 448.135L887.067 414.644L895.296 427.756L874.333 440.913L877.299 445.639L905.678 444.297L912.95 455.884L908.605 458.611L879.09 459.497L864.576 487.84L860.308 490.519L852.509 478.093L866.008 453.044L862.898 448.09L841.935 461.247ZM894.553 523.195L914.609 515.933C916.64 515.197 918.082 513.718 918.936 511.494C919.81 509.327 919.706 506.748 918.623 503.758C917.541 500.768 915.959 498.693 913.88 497.531C911.82 496.427 909.775 496.242 907.744 496.977L887.689 504.24C885.545 505.016 884.036 506.488 883.162 508.655C882.344 510.802 882.486 513.398 883.59 516.445C884.693 519.491 886.246 521.577 888.249 522.702C890.308 523.807 892.409 523.972 894.553 523.195ZM882.232 536.75C876.9 533.832 872.895 528.677 870.219 521.287C867.543 513.896 867.319 507.373 869.546 501.717C871.809 495.983 876.269 491.912 882.926 489.501L901.712 482.698C908.482 480.246 914.533 480.48 919.865 483.399C925.275 486.354 929.317 491.526 931.994 498.917C934.649 506.251 934.846 512.784 932.583 518.517C930.319 524.25 925.831 528.332 919.118 530.764L900.332 537.566C893.675 539.977 887.641 539.705 882.232 536.75Z" fill="white"/>
<path d="M231.611 503.081C229.353 511.724 225.52 517.82 220.114 521.368C214.644 524.9 208.006 525.646 200.202 523.607L178.336 517.894C170.531 515.854 165.139 511.965 162.16 506.225C159.116 500.469 158.724 493.269 160.982 484.626C162.92 477.208 166.513 471.635 171.759 467.907C176.957 464.098 183.62 463.255 191.747 465.378L192.715 465.631L188.367 482.273L187.399 482.02C184.432 481.244 182.003 481.574 180.112 483.01C178.157 484.428 176.783 486.653 175.991 489.685C174.39 495.812 176.234 499.567 181.523 500.949L205.614 507.244C210.968 508.643 214.445 506.278 216.046 500.151C217.782 493.507 215.683 489.41 209.749 487.86L208.878 487.632L213.226 470.991L214.194 471.244C222.321 473.367 227.752 477.37 230.487 483.253C233.191 488.989 233.566 495.599 231.611 503.081ZM248.797 448.594L241.693 464.258L177.943 435.346L185.047 419.681L210.092 431.04L212.652 425.393L194.01 399.919L200.288 386.076L205.479 388.43L224.396 415.237L259.558 411.309L264.658 413.622L257.925 428.467L226.437 431.316L223.752 437.235L248.797 448.594ZM301.767 357.956L292.769 371.307L277.509 366.931L265.102 385.34L274.829 397.926L266.334 410.53L261.69 407.4L221.253 352.17L230.698 338.155L297.124 354.826L301.767 357.956ZM262.886 362.863L243.582 357.33L255.844 373.312L262.886 362.863ZM340.313 318.305L328.446 330.756L311.29 314.404C309.468 317.088 307.43 319.613 305.177 321.977C293.172 334.573 282.15 336.087 272.113 326.52L253.075 308.374L264.942 295.924L282.315 312.482C285.838 315.84 289.83 315.178 294.292 310.497C296.177 308.519 298.031 306.187 299.853 303.503L277.775 282.46L289.642 270.009L340.313 318.305ZM365.857 297.897L353.061 307.166L311.999 250.475L325.928 240.385L348.806 271.97L344.555 226.893L357.351 217.625L398.414 274.315L384.484 284.405L361.607 252.82L365.857 297.897ZM442.508 251.57L412.995 265.651L382.853 202.473L409.659 189.684C415.856 186.727 421.402 185.965 426.295 187.397C431.249 188.801 435.104 192.391 437.86 198.167C440.587 203.883 440.446 209.084 437.437 213.77C441.192 213.899 444.367 214.748 446.962 216.317C449.557 217.885 451.73 220.505 453.481 224.175C456.323 230.132 456.761 235.463 454.796 240.168C452.862 244.784 448.766 248.585 442.508 251.57ZM404.836 208.605L410.304 220.067L420.684 215.115C422.007 214.483 422.891 213.471 423.334 212.078C423.838 210.656 423.659 209.042 422.797 207.237C421.908 205.372 420.737 204.157 419.286 203.594C417.896 203.002 416.539 203.021 415.215 203.653L404.836 208.605ZM416.505 233.064L422.06 244.706L435.056 238.506C436.38 237.874 437.294 236.847 437.797 235.425C438.272 233.943 438.079 232.3 437.217 230.494C436.299 228.569 435.114 227.325 433.663 226.761C432.213 226.197 430.825 226.231 429.502 226.863L416.505 233.064ZM528.577 222.904L513.068 227.228L504.293 213.998L482.909 219.96L482.147 235.848L467.506 239.93L466.002 234.536L471.054 166.271L487.334 161.733L527.073 217.51L528.577 222.904ZM495.802 201.416L484.7 184.683L483.665 204.8L495.802 201.416ZM554.151 220.35L538.414 221.762L532.16 152.042L549.291 150.505L552.776 189.349L572.199 148.45L587.936 147.038L594.19 216.759L577.059 218.295L573.574 179.451L554.151 220.35ZM541.616 133.222L541.536 132.325L554.384 131.173L554.438 131.77C554.634 133.962 556.061 134.938 558.717 134.7C561.505 134.45 562.801 133.229 562.605 131.038L562.551 130.44L575.101 129.314L575.181 130.211C575.557 134.394 574.327 137.851 571.493 140.582C568.659 143.313 564.719 144.904 559.673 145.357C554.626 145.81 550.432 144.948 547.091 142.771C543.816 140.588 541.991 137.405 541.616 133.222ZM640.064 219.059L622.921 217.654L627.414 162.838L608.677 161.302L609.902 146.353L664.419 150.821L663.194 165.77L644.556 164.243L640.064 219.059ZM714.203 233.737L668.515 222.708L684.941 154.663L730.434 165.645L726.914 180.226L698.141 173.28L695.137 185.723L719.439 191.589L716.107 205.393L691.805 199.526L688.755 212.163L717.723 219.156L714.203 233.737ZM822.726 287.998L748.373 246.807L782.296 185.576L797.341 193.911L770.688 242.021L785.383 250.163L812.037 202.052L827.082 210.387L800.429 258.498L814.949 266.542L841.603 218.432L856.648 226.767L822.726 287.998ZM849.25 309.097L836.383 297.683L882.835 245.317L907.148 266.884C911.936 271.131 914.349 275.945 914.388 281.326C914.426 286.708 912.123 292.017 907.478 297.253C902.833 302.49 897.814 305.435 892.423 306.088C887.031 306.741 881.941 304.944 877.153 300.697L865.708 290.544L849.25 309.097ZM885.748 267.952L875.662 279.323L884.639 287.286C885.935 288.436 887.453 288.936 889.191 288.784C890.979 288.677 892.692 287.701 894.329 285.856C895.965 284.011 896.753 282.169 896.69 280.331C896.677 278.537 896.022 277.065 894.725 275.915L885.748 267.952ZM893.969 354.604L884.226 342.165L939.336 299.003L949.941 312.544L919.237 336.592L964.123 330.652L973.865 343.091L918.756 386.253L908.15 372.712L938.854 348.664L893.969 354.604ZM958.357 412.657L960.19 416.436L985.651 404.082L983.818 400.303C982.45 397.484 980.311 395.595 977.4 394.636C974.579 393.708 971.938 393.841 969.479 395.034L963.091 398.133C960.632 399.327 958.85 401.303 957.743 404.063C956.755 406.913 956.96 409.778 958.357 412.657ZM993.16 419.556L967.699 431.91L969.532 435.689C970.958 438.628 973.067 440.532 975.86 441.4C978.681 442.328 981.352 442.181 983.871 440.958L990.258 437.859C992.718 436.666 994.456 434.674 995.473 431.883C996.55 429.063 996.39 426.214 994.993 423.335L993.16 419.556ZM955.862 441.877L954.203 438.459L946.556 442.169L939.048 426.695L946.695 422.984L945.036 419.565C941.631 412.548 940.671 405.529 942.156 398.51C943.73 391.522 948.055 386.311 955.133 382.877L962.42 379.341C969.498 375.907 976.238 375.749 982.642 378.866C989.134 382.014 994.083 387.097 997.488 394.115L999.146 397.534L1005.71 394.347L1013.22 409.821L1006.65 413.008L1008.31 416.427C1011.75 423.504 1012.66 430.507 1011.06 437.435C1009.58 444.454 1005.29 449.681 998.217 453.115L990.929 456.651C983.852 460.085 977.067 460.228 970.575 457.08C964.171 453.962 959.267 448.895 955.862 441.877ZM973.273 510.915L968.863 494.29L1022.03 480.189L1017.21 462.017L1031.7 458.171L1045.73 511.043L1031.23 514.889L1026.43 496.814L973.273 510.915ZM982.479 571.098L979.303 538.954L1048.96 532.071L1050.65 549.188L1025.97 551.626L1027.46 566.653C1028.09 573.022 1026.59 578.195 1022.96 582.17C1019.34 586.146 1014.04 588.478 1007.07 589.167C1000.11 589.855 994.425 588.608 990.024 585.425C985.623 582.243 983.108 577.467 982.479 571.098ZM1011.05 553.101L995.921 554.596L997.081 566.339C997.252 568.064 998.026 569.461 999.405 570.531C1000.79 571.667 1002.71 572.113 1005.16 571.871C1007.62 571.628 1009.45 570.811 1010.65 569.419C1011.86 568.094 1012.38 566.569 1012.21 564.844L1011.05 553.101Z" fill="white"/>
</svg>
