<svg width="667" height="365" viewBox="0 0 667 365" fill="none" xmlns="http://www.w3.org/2000/svg">
<g clip-path="url(#clip0_125_782)">
<rect width="631" height="262" transform="translate(0 106.444) rotate(-9.71173)" fill="#EFEFEF"/>
<path d="M65.1643 275.881L63.8396 276.107L61.0056 259.548L62.3303 259.322L69.7314 267.283L74.0401 257.317L75.3411 257.095L78.1752 273.654L76.8268 273.885L74.3976 259.691L70.4487 268.913L69.5262 269.071L62.7433 261.734L65.1643 275.881ZM83.7545 272.699L82.477 272.918L80.4163 260.877L81.6937 260.658L83.4184 270.736L89.0271 259.403L90.3045 259.185L92.3653 271.225L91.0879 271.444L89.3672 261.39L83.7545 272.699ZM97.7079 270.311L96.4304 270.53L94.3697 258.489L95.6471 258.27L96.5823 263.735L103.679 262.52L102.744 257.056L104.021 256.837L106.082 268.878L104.805 269.097L103.873 263.656L96.7767 264.87L97.7079 270.311ZM111.43 267.963L110.153 268.181L108.092 256.14L109.369 255.922L111.094 265.999L116.703 254.667L117.98 254.448L120.041 266.489L118.764 266.708L117.043 256.654L111.43 267.963ZM125.384 265.575L124.106 265.793L122.045 253.752L123.323 253.534L129.095 258.95L132.691 251.93L133.968 251.712L136.029 263.753L134.751 263.971L133.035 253.941L129.681 260.383L128.995 260.501L123.667 255.544L125.384 265.575ZM143.697 266.336L142.609 266.522L142.524 266.026L143.381 262.495L136.718 251.874L136.612 251.259L137.819 251.053L143.728 260.682L146.051 249.644L147.234 249.441L147.339 250.057L143.697 266.336ZM153.175 260.818L151.897 261.037L149.837 248.996L151.114 248.777L156.886 254.193L160.482 247.174L161.759 246.956L163.82 258.996L162.543 259.215L160.826 249.185L157.473 255.627L156.787 255.744L151.458 250.788L153.175 260.818ZM174.565 260.372L173.287 260.59L172.559 256.332L173.647 256.146C174.577 254.656 174.815 252.586 174.362 249.936L173.507 244.945L181.787 243.528L183.653 254.433L185.475 254.122L186.204 258.38L184.926 258.598L184.392 255.476L174.03 257.249L174.565 260.372ZM175.066 255.903L182.376 254.652L180.704 244.882L174.932 245.87L175.62 249.891C176.011 252.178 175.827 254.182 175.066 255.903ZM193.053 254.286C191.539 254.545 190.279 254.346 189.274 253.691C188.269 253.035 187.651 252.029 187.419 250.672L186.787 246.982C186.555 245.626 186.804 244.471 187.533 243.518C188.26 242.55 189.381 241.936 190.895 241.677C192.393 241.421 193.637 241.622 194.626 242.28C195.615 242.939 196.226 243.946 196.458 245.302L196.851 247.597L188.453 249.034L188.692 250.43C188.865 251.439 189.318 252.19 190.051 252.681C190.798 253.154 191.731 253.294 192.85 253.103C193.86 252.93 194.616 252.557 195.118 251.984C195.621 251.411 195.856 250.697 195.823 249.843L197.1 249.624C197.211 250.839 196.916 251.863 196.214 252.698C195.51 253.516 194.456 254.045 193.053 254.286ZM188.06 246.74L188.259 247.899L195.379 246.68L195.181 245.521C195.011 244.527 194.56 243.793 193.83 243.317C193.112 242.823 192.186 242.674 191.05 242.868C189.946 243.057 189.13 243.505 188.602 244.212C188.071 244.904 187.89 245.746 188.06 246.74ZM202.589 252.361L201.312 252.58L199.251 240.539L200.528 240.32L201.456 245.738L203.892 245.321L207.199 239.179L208.264 238.997L208.369 239.612L205.136 245.619L210.409 250.39L210.514 251.005L209.355 251.203L204.134 246.448L201.65 246.873L202.589 252.361ZM217.454 248.892C218.605 248.695 219.437 248.244 219.949 247.54C220.475 246.817 220.651 245.951 220.478 244.941L219.867 241.369C219.694 240.36 219.241 239.61 218.508 239.118C217.788 238.608 216.852 238.452 215.701 238.649C214.581 238.841 213.75 239.299 213.209 240.025C212.683 240.748 212.506 241.606 212.676 242.6L213.287 246.172C213.46 247.181 213.914 247.94 214.65 248.447C215.399 248.935 216.334 249.084 217.454 248.892ZM217.656 250.075C216.126 250.337 214.859 250.14 213.854 249.484C212.862 248.81 212.25 247.794 212.018 246.438L211.39 242.771C211.161 241.431 211.402 240.278 212.113 239.312C212.84 238.343 213.968 237.728 215.498 237.466C217.044 237.202 218.312 237.407 219.304 238.081C220.296 238.755 220.907 239.763 221.136 241.103L221.764 244.77C221.996 246.126 221.757 247.287 221.045 248.253C220.331 249.203 219.202 249.81 217.656 250.075ZM229.434 235.081C230.711 234.863 231.797 235.091 232.692 235.765C233.599 236.422 234.171 237.436 234.406 238.808L235.041 242.522C235.276 243.894 235.076 245.048 234.441 245.985C233.819 246.903 232.853 247.474 231.544 247.698C229.904 247.979 228.384 247.541 226.985 246.384L227.933 251.92L226.655 252.138L223.947 236.313L224.751 236.175L225.465 237.928C226.486 236.308 227.809 235.359 229.434 235.081ZM231.2 246.54C232.178 246.372 232.891 245.942 233.341 245.248C233.787 244.538 233.923 243.671 233.748 242.646L233.144 239.121C232.972 238.112 232.549 237.348 231.876 236.83C231.218 236.31 230.417 236.131 229.47 236.292C228.098 236.527 226.86 237.494 225.754 239.193L226.754 245.036C228.362 246.27 229.844 246.772 231.2 246.54ZM242.623 245.802C241.456 246.002 240.459 245.864 239.631 245.389C238.8 244.898 238.291 244.108 238.105 243.02C237.895 241.79 238.16 240.779 238.901 239.987C239.639 239.178 240.82 238.635 242.445 238.357L245.804 237.782L245.565 236.387C245.419 235.535 245.021 234.913 244.369 234.522C243.731 234.112 242.891 233.996 241.85 234.174C240.841 234.346 240.094 234.726 239.61 235.312C239.126 235.898 238.953 236.593 239.091 237.397L237.837 237.612C237.637 236.445 237.864 235.448 238.518 234.622C239.185 233.778 240.229 233.234 241.648 232.991C243.083 232.745 244.254 232.902 245.162 233.461C246.069 234.02 246.625 234.899 246.83 236.097L248.276 244.542L247.448 244.684L246.734 243.077C246.308 243.718 245.726 244.297 244.986 244.813C244.262 245.327 243.475 245.656 242.623 245.802ZM242.657 244.579C244.092 244.333 245.376 243.44 246.508 241.899L245.998 238.918L242.639 239.493C240.163 239.917 239.069 240.972 239.358 242.66C239.491 243.432 239.853 243.987 240.447 244.324C241.053 244.642 241.79 244.727 242.657 244.579ZM256.344 243.161L255.067 243.38L253.201 232.475L248.919 233.207L248.725 232.072L258.565 230.388L258.76 231.523L254.478 232.256L256.344 243.161ZM264.548 241.758L263.27 241.976L261.21 229.935L262.487 229.717L264.212 239.794L269.82 228.462L271.098 228.243L273.159 240.284L271.881 240.502L270.16 230.449L264.548 241.758ZM283.067 238.588L277.224 239.588L275.163 227.547L280.675 226.604C281.81 226.41 282.731 226.528 283.438 226.959C284.145 227.39 284.584 228.102 284.754 229.096C284.996 230.515 284.574 231.553 283.485 232.21C285.061 232.314 285.981 233.138 286.246 234.684C286.429 235.756 286.245 236.624 285.693 237.286C285.141 237.949 284.265 238.383 283.067 238.588ZM277.562 233.881L278.307 238.234L282.801 237.465C283.59 237.33 284.157 237.038 284.502 236.589C284.863 236.138 284.983 235.557 284.861 234.848C284.745 234.17 284.442 233.678 283.952 233.372C283.461 233.066 282.806 232.984 281.986 233.124L277.562 233.881ZM276.635 228.464L277.376 232.793L281.61 232.068C282.304 231.95 282.806 231.661 283.117 231.202C283.442 230.724 283.547 230.154 283.434 229.492C283.317 228.814 283.031 228.327 282.575 228.032C282.132 227.718 281.539 227.625 280.798 227.752L276.635 228.464ZM291.461 237.151L290.184 237.37L288.123 225.329L289.4 225.111L290.336 230.575L297.432 229.361L296.497 223.896L297.775 223.677L299.835 235.718L298.558 235.937L297.627 230.496L290.53 231.711L291.461 237.151ZM309.536 234.058L303.906 235.022L301.845 222.981L303.123 222.762L303.872 227.138L308.224 226.393C309.344 226.202 310.295 226.396 311.076 226.977C311.854 227.542 312.346 228.423 312.551 229.622C312.753 230.805 312.582 231.792 312.035 232.583C311.505 233.372 310.672 233.864 309.536 234.058ZM304.066 228.274L304.989 233.667L309.034 232.975C309.854 232.835 310.468 232.486 310.876 231.929C311.282 231.357 311.414 230.661 311.274 229.841C311.131 229.005 310.773 228.384 310.2 227.979C309.643 227.571 308.955 227.437 308.135 227.578L304.066 228.274ZM316.775 232.819L315.498 233.038L313.437 220.997L314.714 220.778L316.775 232.819ZM321.005 232.095L319.893 232.285L319.788 231.67L323.028 225.564L317.961 220.856L317.856 220.241L319.039 220.038L323.663 224.433L326.585 218.747L327.697 218.556L327.802 219.171L324.629 225.242L329.747 229.966L329.852 230.581L328.693 230.779L323.959 226.306L321.005 232.095ZM73.5742 309.228C72.076 309.484 70.8257 309.293 69.8234 308.652C68.8368 308.01 68.2288 307.018 67.9994 305.678L69.2768 305.459C69.4442 306.437 69.8853 307.165 70.6002 307.643C71.3282 308.103 72.2521 308.237 73.3718 308.045C74.5073 307.851 75.3471 307.399 75.8911 306.689C76.4324 305.963 76.6167 305.096 76.444 304.086L76.2375 302.88L71.4117 303.706L71.2173 302.57L76.0432 301.744L75.8326 300.514C75.6599 299.505 75.199 298.756 74.4498 298.267C73.6979 297.763 72.7543 297.608 71.6188 297.802C70.499 297.994 69.6724 298.427 69.1387 299.103C68.6208 299.776 68.4442 300.594 68.6088 301.556L67.3314 301.774C67.1047 300.45 67.351 299.328 68.0704 298.409C68.8028 297.472 69.9181 296.876 71.4163 296.619C72.9461 296.358 74.2148 296.562 75.2226 297.234C76.2461 297.903 76.8753 298.923 77.1101 300.296L77.7214 303.868C77.9562 305.24 77.7022 306.411 76.9594 307.382C76.2324 308.351 75.104 308.966 73.5742 309.228ZM80.816 307.696L80.5084 307.749L80.306 306.566L80.4479 306.542C81.3626 306.385 81.9404 305.873 82.1813 305.004C82.4221 304.134 82.39 302.809 82.085 301.027L81.0972 295.255L89.3295 293.846L91.3902 305.887L90.1128 306.105L88.2464 295.2L82.5216 296.18L83.3111 300.793C84.0291 304.988 83.1973 307.289 80.816 307.696ZM99.8441 304.732C98.3301 304.991 97.0706 304.793 96.0656 304.137C95.0605 303.481 94.4419 302.475 94.2098 301.119L93.5782 297.428C93.3461 296.072 93.5949 294.918 94.3247 293.965C95.0517 292.996 96.1722 292.382 97.6862 292.123C99.1844 291.867 100.428 292.068 101.417 292.727C102.407 293.385 103.017 294.393 103.25 295.749L103.642 298.044L95.2443 299.481L95.4832 300.876C95.6559 301.886 96.109 302.636 96.8424 303.127C97.5889 303.6 98.5219 303.741 99.6417 303.549C100.651 303.377 101.407 303.004 101.909 302.431C102.412 301.858 102.647 301.144 102.614 300.289L103.892 300.07C104.002 301.285 103.707 302.31 103.006 303.144C102.301 303.962 101.248 304.492 99.8441 304.732ZM94.8516 297.186L95.05 298.345L102.17 297.127L101.972 295.967C101.802 294.974 101.352 294.239 100.621 293.764C99.9034 293.27 98.9768 293.12 97.8413 293.314C96.7374 293.503 95.9213 293.951 95.393 294.659C94.862 295.35 94.6816 296.193 94.8516 297.186ZM109.38 302.808L108.103 303.026L106.042 290.985L107.32 290.767L113.092 296.183L116.688 289.164L117.965 288.945L120.026 300.986L118.748 301.205L117.032 291.174L113.678 297.616L112.992 297.734L107.664 292.778L109.38 302.808ZM128.467 299.833C126.953 300.093 125.693 299.894 124.688 299.238C123.683 298.582 123.065 297.576 122.833 296.22L122.201 292.53C121.969 291.173 122.218 290.019 122.948 289.066C123.675 288.098 124.795 287.484 126.309 287.225C127.807 286.968 129.051 287.169 130.04 287.828C131.03 288.487 131.64 289.494 131.872 290.85L132.265 293.145L123.867 294.582L124.106 295.978C124.279 296.987 124.732 297.737 125.465 298.229C126.212 298.702 127.145 298.842 128.265 298.651C129.274 298.478 130.03 298.105 130.532 297.532C131.035 296.959 131.27 296.245 131.237 295.39L132.515 295.172C132.625 296.387 132.33 297.411 131.628 298.245C130.924 299.064 129.871 299.593 128.467 299.833ZM123.475 292.287L123.673 293.447L130.793 292.228L130.595 291.069C130.425 290.075 129.975 289.341 129.244 288.865C128.526 288.371 127.6 288.221 126.464 288.416C125.36 288.605 124.544 289.053 124.016 289.76C123.485 290.451 123.304 291.294 123.475 292.287ZM138.003 297.909L136.726 298.128L134.665 286.087L135.943 285.868L136.878 291.333L143.975 290.118L143.039 284.654L144.317 284.435L146.378 296.476L145.1 296.695L144.169 291.254L137.072 292.468L138.003 297.909ZM154.588 295.071L153.311 295.289L151.444 284.384L147.163 285.117L146.968 283.981L156.809 282.297L157.003 283.433L152.722 284.165L154.588 295.071ZM165.458 292.285C166.609 292.088 167.441 291.637 167.954 290.933C168.479 290.21 168.656 289.344 168.483 288.334L167.872 284.762C167.699 283.753 167.246 283.003 166.513 282.511C165.792 282.001 164.856 281.845 163.705 282.042C162.585 282.234 161.755 282.692 161.214 283.418C160.688 284.141 160.51 284.999 160.68 285.993L161.292 289.565C161.464 290.574 161.919 291.333 162.655 291.84C163.404 292.328 164.338 292.477 165.458 292.285ZM165.661 293.468C164.131 293.73 162.863 293.533 161.858 292.877C160.866 292.203 160.254 291.187 160.022 289.831L159.395 286.164C159.165 284.824 159.406 283.671 160.118 282.705C160.845 281.736 161.973 281.121 163.503 280.859C165.048 280.595 166.317 280.8 167.309 281.474C168.301 282.148 168.912 283.156 169.141 284.496L169.769 288.163C170.001 289.519 169.761 290.68 169.05 291.646C168.336 292.596 167.206 293.203 165.661 293.468ZM179.855 290.747L174.012 291.747L171.951 279.706L177.463 278.762C178.599 278.568 179.52 278.686 180.227 279.117C180.933 279.548 181.372 280.26 181.542 281.254C181.785 282.673 181.362 283.711 180.273 284.369C181.849 284.472 182.769 285.297 183.034 286.842C183.217 287.915 183.033 288.782 182.481 289.445C181.929 290.108 181.054 290.541 179.855 290.747ZM174.35 286.04L175.095 290.392L179.59 289.623C180.378 289.488 180.945 289.196 181.29 288.748C181.651 288.296 181.771 287.716 181.65 287.006C181.534 286.328 181.23 285.836 180.74 285.531C180.249 285.225 179.594 285.142 178.774 285.283L174.35 286.04ZM173.423 280.622L174.164 284.952L178.398 284.227C179.092 284.108 179.595 283.819 179.906 283.36C180.23 282.883 180.335 282.313 180.222 281.65C180.106 280.972 179.82 280.485 179.363 280.19C178.92 279.876 178.328 279.783 177.586 279.91L173.423 280.622Z" fill="black"/>
<path d="M66.806 158.707L45.1686 162.411L44.8986 160.833L66.5361 157.13L66.806 158.707ZM79.187 165.939L78.8955 164.235C80.5777 163.947 81.6383 163.062 82.0772 161.581C82.5024 160.144 82.3982 157.576 81.7649 153.875L79.9187 143.088L93.0084 140.847L96.7871 162.926L94.9577 163.239L91.4597 142.801L81.9973 144.42L83.5573 153.536C84.2663 157.678 84.2741 160.696 83.5809 162.589C82.8805 164.441 81.4159 165.557 79.187 165.939ZM107.633 155.389L107.336 153.654L102.983 154.399L104.225 161.653L102.521 161.945L99.7738 145.89L101.477 145.599L102.724 152.885L107.077 152.14L106.774 150.374C106.469 148.586 106.781 147.061 107.712 145.798C108.664 144.531 110.139 143.727 112.136 143.385C114.134 143.043 115.782 143.313 117.08 144.195C118.399 145.073 119.211 146.406 119.517 148.193L120.375 153.208C120.681 154.995 120.358 156.522 119.406 157.789C118.475 159.052 117.011 159.855 115.014 160.197C113.016 160.538 111.358 160.27 110.039 159.392C108.741 158.511 107.939 157.176 107.633 155.389ZM114.744 158.62C116.216 158.368 117.293 157.772 117.977 156.833C118.656 155.872 118.885 154.74 118.661 153.436L117.825 148.547C117.602 147.244 117.012 146.263 116.055 145.604C115.094 144.924 113.878 144.71 112.406 144.962C110.955 145.21 109.878 145.806 109.173 146.749C108.49 147.688 108.262 148.821 108.488 150.145L109.325 155.034C109.552 156.359 110.144 157.351 111.1 158.009C112.078 158.664 113.293 158.868 114.744 158.62ZM132.113 157.27C130.094 157.616 128.415 157.351 127.075 156.477C125.735 155.602 124.91 154.261 124.6 152.452L123.585 146.523C123.222 144.399 123.316 142.673 123.868 141.345C124.437 139.992 125.569 138.889 127.263 138.037L130.738 136.338C131.42 136.027 131.873 135.7 132.096 135.359C132.337 134.993 132.419 134.589 132.343 134.148L132.311 133.959L134.014 133.667L134.047 133.856C134.209 134.803 134.1 135.557 133.72 136.12C133.34 136.683 132.541 137.263 131.323 137.861L128.205 139.369C126.805 140.041 125.867 140.884 125.391 141.896C124.915 142.908 124.815 144.224 125.092 145.843L125.157 146.221C126.452 144.052 128.204 142.778 130.412 142.4C132.157 142.101 133.626 142.402 134.819 143.301C136.029 144.177 136.791 145.529 137.104 147.358L137.59 150.197C137.899 152.005 137.569 153.555 136.6 154.846C135.648 156.113 134.152 156.921 132.113 157.27ZM131.843 155.693C133.378 155.43 134.487 154.829 135.17 153.89C135.871 152.926 136.106 151.771 135.876 150.425L135.422 147.776C135.192 146.43 134.618 145.414 133.699 144.727C132.802 144.036 131.691 143.804 130.366 144.031C128.579 144.337 126.978 145.607 125.564 147.84L126.287 152.066C126.518 153.412 127.124 154.423 128.105 155.099C129.104 155.751 130.35 155.949 131.843 155.693ZM143.904 154.863L142.264 155.143L142.124 154.323L145.068 147.813C143.903 147.839 142.927 147.509 142.138 146.821C141.346 146.113 140.839 145.107 140.615 143.803C140.36 142.31 140.57 141.073 141.246 140.091C141.944 139.106 142.997 138.493 144.405 138.252L151.912 136.967L154.66 153.022L152.957 153.313L151.845 146.816L146.956 147.652L143.904 154.863ZM146.16 146.23L151.586 145.302L150.468 138.773L145.043 139.701C144.034 139.874 143.285 140.305 142.797 140.995C142.305 141.663 142.142 142.481 142.308 143.448C142.488 144.5 142.923 145.269 143.612 145.757C144.302 146.245 145.151 146.403 146.16 146.23ZM160.293 155.174L158.937 155.406L159.867 147.943L161.728 147.624L161.869 148.444L160.293 155.174ZM180.773 148.942C178.775 149.284 177.106 149.018 175.766 148.143C174.444 147.244 173.627 145.891 173.318 144.082L172.481 139.193C172.172 137.385 172.493 135.847 173.445 134.581C174.414 133.289 175.898 132.473 177.895 132.131C179.851 131.796 181.485 132.047 182.797 132.883C184.126 133.694 184.936 134.951 185.228 136.655L185.255 136.812L183.551 137.104L183.519 136.915C183.31 135.695 182.724 134.8 181.761 134.229C180.794 133.637 179.595 133.463 178.165 133.708C176.672 133.963 175.574 134.563 174.869 135.506C174.182 136.424 173.952 137.546 174.179 138.87L175.027 143.822C175.253 145.147 175.845 146.139 176.802 146.797C177.776 147.432 179.01 147.621 180.503 147.365C181.933 147.121 183.005 146.558 183.72 145.678C184.432 144.777 184.683 143.717 184.475 142.498L184.442 142.308L186.145 142.017L186.172 142.174C186.464 143.878 186.121 145.354 185.145 146.603C184.165 147.832 182.707 148.611 180.773 148.942ZM201.41 145.021L193.777 146.327L191.288 131.787L186.62 132.586L186.361 131.072L192.732 129.981L193.731 135.816L199.661 134.801C201.154 134.546 202.421 134.805 203.463 135.579C204.501 136.332 205.156 137.508 205.43 139.106C205.7 140.683 205.47 141.999 204.742 143.055C204.035 144.106 202.924 144.762 201.41 145.021ZM193.99 137.33L195.221 144.522L200.772 143.572C201.866 143.384 202.674 142.922 203.197 142.183C203.737 141.419 203.914 140.491 203.726 139.397C203.532 138.262 203.055 137.435 202.295 136.915C201.553 136.371 200.635 136.193 199.542 136.38L193.99 137.33ZM215.95 142.922C213.932 143.267 212.252 143.003 210.912 142.128C209.572 141.254 208.747 139.913 208.438 138.104L207.596 133.184C207.286 131.375 207.618 129.836 208.591 128.566C209.56 127.274 211.054 126.456 213.073 126.11C215.071 125.768 216.729 126.037 218.048 126.915C219.367 127.793 220.181 129.136 220.491 130.944L221.014 134.004L209.817 135.92L210.136 137.781C210.366 139.127 210.97 140.127 211.948 140.782C212.943 141.413 214.187 141.6 215.68 141.345C217.026 141.115 218.034 140.617 218.704 139.853C219.374 139.089 219.687 138.138 219.644 136.998L221.347 136.706C221.494 138.326 221.101 139.692 220.165 140.805C219.227 141.896 217.822 142.602 215.95 142.922ZM209.294 132.861L209.558 134.406L219.052 132.781L218.788 131.236C218.561 129.911 217.96 128.932 216.986 128.298C216.029 127.639 214.794 127.439 213.28 127.698C211.808 127.95 210.72 128.548 210.015 129.491C209.307 130.413 209.067 131.536 209.294 132.861ZM245.919 137.403L226.962 140.648L224.215 124.593L225.918 124.302L228.406 138.842L235.314 137.66L232.825 123.119L234.529 122.828L237.017 137.369L243.956 136.181L241.468 121.64L243.171 121.349L245.919 137.403ZM259.18 135.134L251.357 136.473L248.61 120.418L250.313 120.127L251.312 125.962L257.431 124.914C258.924 124.659 260.191 124.918 261.232 125.692C262.27 126.445 262.926 127.621 263.2 129.219C263.469 130.796 263.24 132.112 262.512 133.168C261.804 134.219 260.694 134.875 259.18 135.134ZM251.571 127.476L252.802 134.667L258.511 133.69C259.604 133.503 260.423 133.038 260.967 132.296C261.507 131.532 261.683 130.604 261.496 129.511C261.306 128.396 260.828 127.569 260.065 127.028C259.323 126.484 258.405 126.306 257.311 126.493L251.571 127.476ZM298.097 132.759L296.394 133.05L295.681 128.887L275.999 132.255L273.252 116.201L274.955 115.909L277.443 130.45L284.351 129.268L281.862 114.727L283.566 114.436L286.054 128.976L292.993 127.789L290.505 113.248L292.208 112.956L294.696 127.497L297.125 127.081L298.097 132.759ZM303.083 127.62L301.38 127.912L298.633 111.857L300.336 111.565L302.635 125.002L310.114 109.892L311.817 109.601L314.564 125.655L312.861 125.947L310.567 112.542L303.083 127.62ZM321.688 124.436L319.985 124.727L317.237 108.673L329.948 106.497L332.696 122.552L330.993 122.844L328.504 108.303L319.199 109.895L321.688 124.436ZM353.948 123.2L352.245 123.492L351.532 119.328L338.127 121.623L335.379 105.568L337.083 105.276L339.571 119.817L348.813 118.235L346.324 103.695L348.028 103.403L350.516 117.944L352.976 117.523L353.948 123.2ZM364.762 117.064L357.255 118.349L354.508 102.294L356.211 102.003L357.21 107.838L363.013 106.845C364.506 106.589 365.773 106.848 366.815 107.623C367.853 108.376 368.508 109.551 368.782 111.149C369.052 112.726 368.823 114.043 368.094 115.098C367.387 116.15 366.276 116.805 364.762 117.064ZM357.469 109.352L358.699 116.543L364.093 115.62C365.186 115.433 366.005 114.968 366.549 114.226C367.089 113.463 367.266 112.534 367.079 111.441C366.888 110.326 366.411 109.499 365.647 108.959C364.905 108.415 363.987 108.236 362.894 108.423L357.469 109.352ZM374.414 115.412L372.711 115.704L369.963 99.6492L371.666 99.3577L374.414 115.412ZM380.036 117.567L378.68 117.799L379.61 110.335L381.471 110.016L381.611 110.837L380.036 117.567ZM414.162 99.2597L392.524 102.963L392.255 101.386L413.892 97.6826L414.162 99.2597ZM436.384 104.807L428.593 106.14L425.845 90.0853L433.195 88.8275C434.709 88.5684 435.937 88.7261 436.879 89.3007C437.822 89.8753 438.406 90.825 438.633 92.1497C438.957 94.0422 438.393 95.4265 436.941 96.3026C439.043 96.4408 440.27 97.5402 440.622 99.6009C440.867 101.031 440.621 102.187 439.885 103.071C439.149 103.954 437.982 104.533 436.384 104.807ZM429.044 98.5307L430.037 104.334L436.03 103.309C437.081 103.129 437.837 102.74 438.298 102.141C438.779 101.54 438.939 100.766 438.777 99.8194C438.622 98.9152 438.218 98.2593 437.563 97.8518C436.909 97.4443 436.036 97.3342 434.942 97.5213L429.044 98.5307ZM427.808 91.3078L428.796 97.0798L434.442 96.1136C435.367 95.9552 436.037 95.57 436.451 94.958C436.884 94.3213 437.024 93.5614 436.873 92.6782C436.718 91.774 436.336 91.1251 435.728 90.7314C435.137 90.3131 434.347 90.1885 433.359 90.3577L427.808 91.3078ZM451.71 102.573C449.691 102.919 448.009 102.698 446.662 101.911C445.312 101.103 444.464 99.8199 444.12 98.0608L445.76 97.7801C445.976 99.0418 446.578 99.9668 447.566 100.555C448.572 101.119 449.852 101.268 451.408 101.001C452.775 100.768 453.795 100.279 454.469 99.5361C455.143 98.7932 455.391 97.9065 455.215 96.8762C455.064 95.993 454.609 95.3567 453.85 94.9672C453.108 94.5531 452.159 94.445 451.002 94.6429L448.794 95.0208L448.535 93.5068L450.743 93.1289C451.752 92.9562 452.508 92.5671 453.01 91.9616C453.513 91.3562 453.69 90.6224 453.543 89.7603C453.377 88.793 452.89 88.0972 452.082 87.6729C451.273 87.2485 450.207 87.1497 448.882 87.3764C447.515 87.6103 446.504 88.1513 445.848 88.9994C445.192 89.8475 444.952 90.906 445.125 92.1748L443.454 92.4609C443.194 90.6874 443.526 89.2129 444.45 88.0375C445.374 86.8621 446.793 86.1106 448.707 85.7831C450.515 85.4736 452.006 85.6513 453.181 86.316C454.372 86.9562 455.085 87.9597 455.319 89.3264C455.477 90.2517 455.349 91.0852 454.935 91.827C454.539 92.5442 453.927 93.0817 453.101 93.4395C454.143 93.456 455.016 93.7504 455.72 94.3225C456.423 94.8946 456.86 95.6748 457.029 96.6631C457.288 98.1771 456.955 99.4569 456.031 100.503C455.106 101.548 453.665 102.238 451.71 102.573ZM463.221 104.499L461.518 104.79L460.546 99.1129L461.997 98.8646C463.237 96.8777 463.555 94.1179 462.95 90.5852L461.811 83.93L472.85 82.0406L475.339 96.5812L477.768 96.1656L478.739 101.843L477.036 102.135L476.324 97.9711L462.508 100.335L463.221 104.499ZM463.889 98.5407L473.636 96.8727L471.406 83.8461L463.71 85.1633L464.628 90.5253C465.15 93.5743 464.904 96.2461 463.889 98.5407ZM487.602 94.8072C489.137 94.5445 490.246 93.9434 490.929 93.004C491.63 92.04 491.865 90.8851 491.635 89.5393L490.82 84.7766C490.589 83.4308 489.985 82.4304 489.008 81.7753C488.047 81.0956 486.799 80.8871 485.264 81.1498C483.771 81.4053 482.664 82.0168 481.942 82.9845C481.241 83.9485 481.004 85.0929 481.231 86.4176L482.046 91.1804C482.277 92.5261 482.883 93.5371 483.864 94.2132C484.863 94.8647 486.109 95.0627 487.602 94.8072ZM487.872 96.3843C485.832 96.7333 484.142 96.4706 482.802 95.5962C481.479 94.6971 480.663 93.3433 480.354 91.5349L479.517 86.646C479.211 84.8587 479.532 83.3211 480.481 82.0334C481.45 80.742 482.955 79.9218 484.994 79.5727C487.055 79.22 488.747 79.4932 490.069 80.3923C491.392 81.2914 492.206 82.6347 492.512 84.422L493.349 89.3109C493.658 91.1193 493.339 92.6674 492.391 93.9551C491.439 95.2219 489.932 96.0316 487.872 96.3843ZM499.228 94.0512L497.745 94.3049L497.605 93.4848L501.925 85.3433L495.169 79.065L495.029 78.2449L496.606 77.975L502.771 83.835L506.668 76.253L508.15 75.9993L508.291 76.8194L504.059 84.9132L510.884 91.2122L511.024 92.0323L509.479 92.2968L503.166 86.3322L499.228 94.0512ZM516.85 91.0352L515.147 91.3267L512.399 75.2721L514.103 74.9806L515.35 82.2666L524.812 80.6472L523.565 73.3611L525.268 73.0696L528.016 89.1242L526.313 89.4157L525.071 82.1612L515.609 83.7806L516.85 91.0352ZM539.28 87.586C537.262 87.9314 535.582 87.6669 534.242 86.7925C532.902 85.918 532.078 84.5766 531.768 82.7682L530.926 77.8477C530.616 76.0394 530.948 74.5 531.921 73.2297C532.891 71.9383 534.385 71.1199 536.403 70.7744C538.401 70.4325 540.059 70.7006 541.378 71.5787C542.697 72.4568 543.512 73.8 543.821 75.6084L544.345 78.6679L533.147 80.5842L533.466 82.4452C533.696 83.7909 534.3 84.7914 535.278 85.4464C536.273 86.0769 537.518 86.2644 539.011 86.0089C540.356 85.7786 541.364 85.2814 542.034 84.5174C542.704 83.7535 543.018 82.8016 542.974 81.662L544.677 81.3705C544.825 82.9902 544.431 84.3562 543.496 85.4685C542.557 86.5599 541.152 87.2657 539.28 87.586ZM532.624 77.5247L532.888 79.0702L542.382 77.4454L542.118 75.8999C541.891 74.5751 541.291 73.5957 540.316 72.9616C539.359 72.3029 538.124 72.1031 536.61 72.3623C535.138 72.6142 534.05 73.2116 533.346 74.1546C532.638 75.0766 532.397 76.2 532.624 77.5247ZM534.017 68.7804L532.313 69.0719L531.72 65.6024L533.423 65.3109L534.017 68.7804ZM539.726 67.8034L538.022 68.0948L537.429 64.6253L539.132 64.3338L539.726 67.8034ZM555.812 84.3671L554.109 84.6586L551.62 70.118L545.911 71.0951L545.652 69.5811L558.773 67.3355L559.033 68.8494L553.324 69.8265L555.812 84.3671ZM56.6799 215.445L54.9767 215.736L52.229 199.682L53.9323 199.39L61.6287 206.611L66.4227 197.253L68.1259 196.961L70.8736 213.016L69.1703 213.307L66.8815 199.934L62.4104 208.523L61.4957 208.679L54.3911 202.071L56.6799 215.445ZM81.9394 211.511C79.9418 211.853 78.2747 211.597 76.9383 210.744C75.6228 209.887 74.8122 208.565 74.5063 206.777L76.2095 206.486C76.4326 207.79 77.0208 208.76 77.974 209.398C78.9447 210.011 80.1765 210.19 81.6695 209.934C83.1835 209.675 84.3031 209.072 85.0285 208.126C85.7503 207.158 85.996 206.001 85.7657 204.656L85.4904 203.047L79.056 204.148L78.7969 202.634L85.2313 201.533L84.9506 199.893C84.7203 198.547 84.1057 197.548 83.1068 196.897C82.1043 196.224 80.8461 196.018 79.3321 196.277C77.8391 196.532 76.7369 197.111 76.0253 198.012C75.3348 198.909 75.0993 199.999 75.3188 201.282L73.6156 201.573C73.3133 199.807 73.6417 198.311 74.6009 197.087C75.5775 195.837 77.0646 195.042 79.0622 194.7C81.1019 194.351 82.7935 194.624 84.1372 195.519C85.5019 196.411 86.3407 197.772 86.6538 199.601L87.469 204.364C87.782 206.194 87.4434 207.756 86.453 209.051C85.4836 210.342 83.9791 211.162 81.9394 211.511ZM97.7088 191.508C99.4121 191.217 100.86 191.521 102.053 192.421C103.263 193.296 104.025 194.648 104.338 196.477L105.186 201.429C105.499 203.259 105.232 204.798 104.385 206.047C103.556 207.271 102.268 208.032 100.523 208.331C98.3361 208.705 96.3099 208.121 94.4443 206.579L95.7075 213.96L94.0042 214.251L90.3929 193.15L91.4653 192.967L92.4172 195.304C93.7791 193.144 95.543 191.879 97.7088 191.508ZM100.064 206.786C101.367 206.563 102.319 205.989 102.918 205.064C103.514 204.118 103.695 202.962 103.461 201.595L102.656 196.895C102.426 195.549 101.862 194.531 100.965 193.841C100.089 193.147 99.0196 192.907 97.7579 193.123C95.9285 193.436 94.277 194.726 92.8033 196.991L94.1366 204.781C96.2797 206.427 98.2554 207.096 100.064 206.786ZM111.178 209.234L109.822 209.467L110.752 202.003L112.613 201.684L112.753 202.504L111.178 209.234ZM145.304 190.927L123.666 194.63L123.396 193.053L145.034 189.35L145.304 190.927ZM161.438 197.516L159.735 197.808L156.987 181.753L158.69 181.461L159.927 188.684L163.175 188.128L167.585 179.939L169.004 179.696L169.145 180.516L164.834 188.526L171.864 194.888L172.004 195.708L170.459 195.972L163.498 189.632L160.186 190.198L161.438 197.516ZM179.887 194.748C178.331 195.014 177.001 194.831 175.897 194.197C174.789 193.543 174.111 192.49 173.863 191.039C173.582 189.399 173.936 188.051 174.924 186.994C175.908 185.917 177.483 185.193 179.649 184.822L184.128 184.056L183.81 182.195C183.615 181.059 183.084 180.23 182.215 179.708C181.364 179.161 180.245 179.006 178.857 179.244C177.511 179.474 176.515 179.98 175.87 180.761C175.225 181.543 174.994 182.47 175.177 183.542L173.505 183.828C173.239 182.272 173.542 180.943 174.414 179.842C175.303 178.716 176.694 177.991 178.587 177.667C180.5 177.339 182.062 177.548 183.272 178.293C184.481 179.039 185.223 180.21 185.497 181.808L187.424 193.069L186.32 193.258L185.369 191.115C184.801 191.97 184.024 192.742 183.038 193.43C182.073 194.114 181.023 194.554 179.887 194.748ZM179.933 193.117C181.846 192.79 183.558 191.599 185.067 189.544L184.387 185.57L179.908 186.336C176.607 186.901 175.149 188.309 175.534 190.558C175.71 191.589 176.194 192.329 176.985 192.777C177.794 193.202 178.776 193.315 179.933 193.117ZM194.366 191.881L192.662 192.172L189.915 176.118L191.618 175.826L193.918 189.263L201.396 174.153L203.099 173.861L205.847 189.916L204.143 190.207L201.849 176.802L194.366 191.881ZM199.442 171.273C198.713 172.199 197.623 172.786 196.172 173.034C194.721 173.282 193.488 173.093 192.471 172.466C191.476 171.836 190.865 170.858 190.638 169.533L190.574 169.155L192.119 168.89L192.178 169.237C192.34 170.183 192.75 170.871 193.408 171.299C194.083 171.703 194.925 171.819 195.935 171.646C196.944 171.473 197.689 171.086 198.171 170.484C198.669 169.858 198.838 169.071 198.676 168.125L198.617 167.778L200.162 167.514L200.227 167.892C200.454 169.217 200.192 170.344 199.442 171.273ZM222.445 192.27L220.741 192.561L219.575 185.748C218.516 187.401 217.125 188.375 215.4 188.67C214.013 188.908 212.831 188.645 211.856 187.881C210.878 187.096 210.259 185.947 210 184.433L208.845 177.683C208.582 176.148 208.784 174.858 209.449 173.813C210.111 172.748 211.135 172.096 212.523 171.859C214.248 171.564 215.884 172.019 217.432 173.226L216.072 165.278L217.775 164.986L219.136 172.935C220.195 171.282 221.586 170.308 223.31 170.013C224.719 169.771 225.913 170.043 226.891 170.828C227.866 171.592 228.485 172.741 228.748 174.276L229.903 181.026C230.162 182.54 229.95 183.832 229.267 184.901C228.602 185.946 227.575 186.587 226.188 186.824C224.463 187.119 222.827 186.663 221.279 185.457L222.445 192.27ZM215.667 187.001C216.949 186.782 218.159 185.817 219.295 184.108L217.713 174.866C216.073 173.632 214.612 173.124 213.329 173.344C212.278 173.524 211.505 174.003 211.01 174.78C210.537 175.553 210.393 176.487 210.581 177.58L211.666 183.92C211.853 185.014 212.298 185.846 213.002 186.419C213.727 186.987 214.615 187.181 215.667 187.001ZM225.381 185.339C226.433 185.159 227.206 184.68 227.701 183.903C228.195 183.126 228.349 182.19 228.162 181.097L227.077 174.757C226.89 173.664 226.434 172.833 225.709 172.264C224.984 171.696 224.095 171.501 223.044 171.681C221.761 171.901 220.552 172.865 219.416 174.575L220.998 183.816C222.638 185.051 224.099 185.558 225.381 185.339ZM244.11 183.367L242.501 183.643L242.361 182.822L246.118 174.615L240.115 168.37L239.975 167.55L241.52 167.286L247.614 173.677L250.799 173.132L249.563 165.909L251.266 165.618L252.503 172.841L255.657 172.301L259.309 164.241L260.823 163.982L260.964 164.802L257.41 172.682L263.683 179.173L263.823 179.993L262.215 180.269L256.01 173.799L252.762 174.355L254.014 181.672L252.311 181.964L251.058 174.646L247.778 175.208L244.11 183.367ZM269.646 178.997L267.943 179.288L265.195 163.234L275.415 161.485L275.674 162.999L267.157 164.456L269.646 178.997ZM287.134 181.198L285.683 181.447L285.569 180.784L286.712 176.076L277.828 161.916L277.687 161.096L279.296 160.821L287.175 173.66L290.272 158.942L291.849 158.672L291.99 159.492L287.134 181.198ZM309.675 172.146L307.971 172.438L306.848 165.877C305.406 166.557 303.886 167.033 302.288 167.307C300.333 167.642 298.736 167.482 297.499 166.828C296.283 166.17 295.532 165.011 295.248 163.35L294.373 158.24L296.077 157.949L296.924 162.901C297.126 164.078 297.689 164.902 298.613 165.371C299.559 165.837 300.778 165.942 302.271 165.687C303.827 165.42 305.263 164.958 306.579 164.3L305.224 156.383L306.927 156.092L309.675 172.146ZM316.709 170.942L314.88 171.255L314.184 167.187L316.013 166.873L316.709 170.942Z" fill="black"/>
<circle cx="128.447" cy="136.71" r="10.5" transform="rotate(-9.71173 128.447 136.71)" stroke="#FF0000" stroke-width="2"/>
<circle cx="286.614" cy="177.615" r="10.5" transform="rotate(-9.71173 286.614 177.615)" stroke="#FF0000" stroke-width="2"/>
<circle cx="195.009" cy="169.958" r="10.5" transform="rotate(-9.71173 195.009 169.958)" stroke="#FF0000" stroke-width="2"/>
</g>
<defs>
<clipPath id="clip0_125_782">
<rect width="631" height="262" fill="white" transform="translate(0 106.444) rotate(-9.71173)"/>
</clipPath>
</defs>
</svg>
