<svg width="696" height="313" viewBox="0 0 696 313" fill="none" xmlns="http://www.w3.org/2000/svg">
<rect x="16.4948" y="6.72683" width="673" height="275" transform="rotate(2.03566 16.4948 6.72683)" fill="#151515"/>
<rect x="16.4948" y="6.72683" width="673" height="275" transform="rotate(2.03566 16.4948 6.72683)" stroke="black" stroke-width="13"/>
<path d="M56.8269 226.799L49.5116 226.539L50.1083 209.75L60.9974 210.137L60.9531 211.384L51.4551 211.046L51.2548 216.683L57.179 216.893C58.6021 216.944 59.6978 217.423 60.466 218.331C61.2343 219.239 61.5911 220.46 61.5365 221.995C61.482 223.53 61.039 224.731 60.2077 225.598C59.377 226.449 58.25 226.85 56.8269 226.799ZM51.2104 217.93L50.947 225.341L56.6554 225.544C57.6788 225.581 58.4979 225.282 59.1128 224.647C59.7443 223.997 60.0805 223.096 60.1214 221.945C60.1624 220.794 59.8907 219.88 59.3063 219.202C58.738 218.526 57.9422 218.169 56.9188 218.133L51.2104 217.93ZM67.6392 231.026L66.5359 230.987L66.5538 230.483L68.1114 227.2L63.7502 215.446L63.7724 214.822L64.9956 214.866L68.8204 225.496L73.3423 215.162L74.5416 215.205L74.5194 215.829L67.6392 231.026ZM78.0417 227.553L76.7465 227.507L77.1805 215.299L78.4757 215.345L78.2804 220.837L80.7509 220.925L85.2394 215.585L86.3187 215.624L86.2965 216.247L81.9082 221.471L86.0988 227.215L86.0767 227.839L84.9014 227.797L80.7579 222.078L78.2395 221.989L78.0417 227.553ZM95.1317 228.161L89.2074 227.95L89.6414 215.742L95.2298 215.94C96.3811 215.981 97.2589 216.285 97.8632 216.851C98.4674 217.416 98.7517 218.203 98.7159 219.21C98.6647 220.649 98.0393 221.58 96.8395 222.001C98.3615 222.424 99.0946 223.418 99.0389 224.985C99.0003 226.073 98.6432 226.885 97.9677 227.421C97.2923 227.957 96.3469 228.204 95.1317 228.161ZM90.7004 222.432L90.5435 226.845L95.1006 227.007C95.9001 227.035 96.5146 226.865 96.944 226.496C97.3893 226.128 97.6248 225.584 97.6504 224.864C97.6748 224.176 97.478 223.633 97.0599 223.234C96.6418 222.835 96.017 222.621 95.1856 222.591L90.7004 222.432ZM90.8956 216.939L90.7396 221.328L95.0329 221.481C95.7364 221.506 96.2872 221.325 96.6852 220.939C97.0997 220.538 97.3189 220.001 97.3428 219.33C97.3672 218.642 97.1861 218.107 96.7994 217.725C96.4293 217.328 95.8685 217.116 95.117 217.089L90.8956 216.939ZM108.056 228.62L102.348 228.417L102.781 216.209L104.077 216.255L103.919 220.692L108.332 220.849C109.467 220.889 110.358 221.273 111.005 222.001C111.652 222.712 111.954 223.675 111.911 224.891C111.868 226.09 111.499 227.021 110.803 227.685C110.123 228.349 109.207 228.661 108.056 228.62ZM103.878 221.843L103.684 227.312L107.785 227.458C108.617 227.487 109.289 227.271 109.801 226.809C110.315 226.331 110.586 225.676 110.616 224.845C110.646 223.997 110.422 223.317 109.944 222.803C109.482 222.291 108.835 222.02 108.003 221.99L103.878 221.843ZM115.395 228.881L114.1 228.835L114.534 216.627L115.829 216.673L115.395 228.881ZM126.972 229.292L125.677 229.246L126.111 217.038L135.776 217.382L135.342 229.59L134.047 229.544L134.44 218.487L127.365 218.235L126.972 229.292ZM143.894 228.981C145.061 229.023 145.968 228.751 146.613 228.165C147.275 227.564 147.624 226.752 147.66 225.729L147.789 222.107C147.825 221.084 147.534 220.257 146.916 219.627C146.315 218.981 145.431 218.637 144.263 218.596C143.128 218.555 142.222 218.835 141.544 219.436C140.882 220.037 140.533 220.841 140.497 221.848L140.369 225.47C140.332 226.493 140.623 227.328 141.24 227.974C141.874 228.605 142.759 228.941 143.894 228.981ZM143.852 230.181C142.301 230.125 141.1 229.674 140.249 228.828C139.415 227.966 139.023 226.847 139.072 225.472L139.204 221.754C139.252 220.395 139.723 219.315 140.616 218.514C141.525 217.714 142.755 217.341 144.306 217.397C145.873 217.452 147.073 217.911 147.907 218.773C148.741 219.636 149.134 220.746 149.086 222.105L148.954 225.823C148.905 227.198 148.434 228.286 147.541 229.087C146.648 229.872 145.419 230.236 143.852 230.181ZM152.546 230.201L151.419 230.161L151.441 229.538L155.857 224.219L151.855 218.577L151.877 217.954L153.076 217.996L156.708 223.241L160.727 218.268L161.855 218.309L161.833 218.932L157.49 224.229L161.539 229.897L161.517 230.52L160.341 230.478L156.617 225.135L152.546 230.201ZM168.746 229.865C169.913 229.906 170.819 229.634 171.464 229.049C172.126 228.448 172.475 227.636 172.512 226.612L172.64 222.991C172.677 221.967 172.386 221.14 171.768 220.51C171.166 219.864 170.282 219.521 169.115 219.479C167.98 219.439 167.073 219.719 166.395 220.319C165.734 220.92 165.385 221.724 165.349 222.731L165.22 226.353C165.184 227.376 165.474 228.211 166.092 228.858C166.726 229.489 167.61 229.824 168.746 229.865ZM168.703 231.064C167.152 231.009 165.951 230.558 165.101 229.711C164.267 228.849 163.874 227.73 163.923 226.355L164.055 222.637C164.104 221.278 164.574 220.198 165.467 219.398C166.376 218.597 167.606 218.225 169.157 218.28C170.724 218.336 171.925 218.795 172.759 219.657C173.593 220.519 173.986 221.63 173.937 222.989L173.805 226.706C173.756 228.081 173.285 229.169 172.392 229.97C171.5 230.755 170.27 231.12 168.703 231.064ZM177.26 231.08L176.036 231.036L176.059 230.413L180.071 224.96L176.616 219.458L176.638 218.834L177.813 218.876L181.312 224.5L183.734 224.586L183.93 219.093L185.225 219.139L185.03 224.632L187.428 224.717L191.341 219.357L192.492 219.397L192.47 220.021L188.657 225.265L192.272 230.989L192.25 231.613L191.027 231.569L187.459 225.871L184.989 225.783L184.791 231.347L183.496 231.301L183.693 225.737L181.199 225.648L177.26 231.08ZM196.678 231.77L195.383 231.724L195.816 219.516L197.112 219.562L196.749 229.779L204.547 219.826L205.842 219.872L205.408 232.08L204.113 232.034L204.475 221.841L196.678 231.77ZM215.649 235.614L214.354 235.568L214.508 231.251L215.611 231.29C216.825 230.021 217.48 228.043 217.575 225.356L217.755 220.295L226.15 220.594L225.757 231.651L227.603 231.716L227.45 236.034L226.155 235.988L226.267 232.822L215.762 232.448L215.649 235.614ZM217.05 231.341L224.461 231.605L224.814 221.699L218.961 221.491L218.816 225.568C218.734 227.887 218.145 229.811 217.05 231.341ZM236.667 220.679C237.962 220.725 238.979 221.17 239.718 222.013C240.473 222.84 240.825 223.949 240.776 225.34L240.642 229.106C240.593 230.497 240.162 231.586 239.349 232.374C238.553 233.146 237.492 233.509 236.165 233.462C234.502 233.403 233.103 232.664 231.969 231.247L231.769 236.86L230.474 236.814L231.044 220.768L231.86 220.797L232.202 222.658C233.532 221.28 235.02 220.621 236.667 220.679ZM236.063 232.257C237.055 232.293 237.841 232.016 238.422 231.429C239.004 230.825 239.313 230.003 239.35 228.964L239.477 225.39C239.514 224.367 239.255 223.533 238.702 222.889C238.164 222.246 237.416 221.907 236.456 221.873C235.065 221.823 233.656 222.518 232.228 223.956L232.017 229.88C233.339 231.416 234.688 232.208 236.063 232.257ZM247.127 237.406L246.024 237.366L246.042 236.863L247.6 233.58L243.238 221.826L243.261 221.202L244.484 221.245L248.309 231.876L252.831 221.542L254.03 221.585L254.008 222.208L247.127 237.406ZM257.53 233.933L256.235 233.887L256.669 221.679L264.44 221.955L264.399 223.106L257.923 222.876L257.53 233.933ZM273.668 234.507L272.373 234.46L272.807 222.252L274.102 222.298L273.905 227.839L281.101 228.094L281.298 222.554L282.593 222.6L282.159 234.808L280.864 234.762L281.06 229.246L273.864 228.99L273.668 234.507ZM289.418 235.354C288.235 235.312 287.286 234.975 286.572 234.341C285.859 233.691 285.522 232.814 285.561 231.711C285.605 230.464 286.071 229.528 286.957 228.903C287.845 228.262 289.112 227.971 290.759 228.03L294.165 228.151L294.215 226.735C294.246 225.872 293.982 225.182 293.424 224.666C292.883 224.134 292.084 223.85 291.029 223.812C290.006 223.776 289.197 223.995 288.604 224.471C288.011 224.946 287.7 225.591 287.671 226.407L286.399 226.362C286.441 225.178 286.867 224.249 287.675 223.573C288.5 222.882 289.632 222.562 291.072 222.613C292.527 222.665 293.641 223.057 294.416 223.789C295.19 224.521 295.556 225.494 295.513 226.71L295.208 235.272L294.369 235.242L293.998 233.524C293.45 234.065 292.762 234.513 291.933 234.868C291.12 235.223 290.281 235.385 289.418 235.354ZM289.7 234.164C291.155 234.215 292.594 233.602 294.016 232.324L294.124 229.302L290.718 229.181C288.208 229.092 286.922 229.902 286.861 231.613C286.833 232.397 287.076 233.014 287.588 233.464C288.117 233.899 288.821 234.133 289.7 234.164ZM305.312 238.801L304.016 238.755L304.17 234.438L305.273 234.477C306.487 233.207 307.142 231.229 307.237 228.543L307.417 223.482L315.812 223.781L315.419 234.838L317.266 234.903L317.112 239.221L315.817 239.175L315.93 236.009L305.424 235.635L305.312 238.801ZM306.712 234.528L314.124 234.792L314.476 224.886L308.623 224.678L308.478 228.755C308.396 231.074 307.807 232.998 306.712 234.528ZM326.329 223.866C327.624 223.912 328.641 224.357 329.38 225.2C330.135 226.027 330.488 227.136 330.438 228.527L330.304 232.293C330.255 233.684 329.824 234.773 329.011 235.561C328.215 236.333 327.154 236.696 325.827 236.649C324.164 236.59 322.765 235.851 321.631 234.434L321.431 240.047L320.136 240.001L320.706 223.955L321.522 223.984L321.864 225.845C323.194 224.467 324.682 223.808 326.329 223.866ZM325.725 235.444C326.717 235.479 327.503 235.203 328.084 234.616C328.666 234.012 328.976 233.19 329.012 232.151L329.14 228.577C329.176 227.554 328.917 226.72 328.364 226.076C327.826 225.433 327.078 225.094 326.119 225.06C324.727 225.01 323.318 225.705 321.89 227.143L321.679 233.067C323.002 234.603 324.35 235.395 325.725 235.444ZM336.79 240.593L335.686 240.553L335.704 240.05L337.262 236.767L332.901 225.013L332.923 224.389L334.146 224.432L337.971 235.063L342.493 224.729L343.692 224.772L343.67 225.395L336.79 240.593ZM347.192 237.12L345.897 237.074L346.331 224.866L354.102 225.142L354.061 226.293L347.585 226.063L347.192 237.12ZM359.499 237.845C358.315 237.803 357.367 237.465 356.653 236.832C355.939 236.182 355.602 235.305 355.642 234.202C355.686 232.955 356.151 232.019 357.038 231.394C357.926 230.753 359.193 230.462 360.84 230.52L364.246 230.642L364.296 229.226C364.327 228.363 364.063 227.673 363.505 227.157C362.963 226.625 362.165 226.341 361.11 226.303C360.086 226.267 359.278 226.486 358.685 226.962C358.091 227.437 357.78 228.082 357.751 228.898L356.48 228.853C356.522 227.669 356.948 226.74 357.756 226.064C358.581 225.373 359.713 225.053 361.152 225.104C362.607 225.156 363.722 225.548 364.497 226.28C365.271 227.012 365.637 227.985 365.594 229.2L365.289 237.763L364.45 237.733L364.079 236.015C363.531 236.556 362.843 237.004 362.014 237.358C361.2 237.714 360.362 237.876 359.499 237.845ZM359.781 236.655C361.236 236.706 362.675 236.093 364.097 234.815L364.205 231.793L360.799 231.672C358.288 231.582 357.003 232.393 356.942 234.104C356.914 234.888 357.156 235.505 357.669 235.955C358.197 236.39 358.902 236.623 359.781 236.655Z" fill="white"/>
<path d="M91.1753 77.7572L80.3484 94.0869L75.4235 93.9118L65.7194 76.8523L64.6123 108.001L57.193 107.737L58.7843 62.9652L66.2036 63.2289L78.3161 84.6007L91.9154 64.1428L99.0789 64.3975L97.4875 109.169L90.0682 108.905L91.1753 77.7572ZM135.721 95.7348L136.262 80.5124C136.355 77.9114 135.555 75.791 133.863 74.1512C132.172 72.4688 129.771 71.5722 126.658 71.4616C123.545 71.3509 121.086 72.0747 119.28 73.6329C117.476 75.1484 116.527 77.2067 116.435 79.8077L115.894 95.0301C115.801 97.6311 116.601 99.7729 118.291 101.455C119.983 103.095 122.386 103.97 125.498 104.081C128.611 104.192 131.07 103.489 132.874 101.974C134.68 100.415 135.629 98.3359 135.721 95.7348ZM108.232 94.3735L108.746 79.9187C108.923 74.9298 110.641 71.063 113.897 68.3183C117.156 65.531 121.493 64.2335 126.908 64.426C132.323 64.6185 136.557 66.2206 139.609 69.2322C142.663 72.2012 144.101 76.1802 143.924 81.169L143.41 95.6239C143.233 100.613 141.515 104.501 138.257 107.288C135 110.033 130.664 111.309 125.248 111.117C119.833 110.924 115.599 109.343 112.545 106.374C109.493 103.363 108.055 99.3624 108.232 94.3735ZM155.692 120.204L148.657 119.954L149.214 104.284L152.668 104.406C154.365 102.289 155.707 99.9674 156.693 97.4409C157.683 94.829 158.263 91.114 158.434 86.2957L159.137 66.5322L186.704 67.512L185.351 105.568L190.596 105.754L190.039 121.424L183.003 121.174L183.321 112.22L156.011 111.249L155.692 120.204ZM160.918 104.7L177.676 105.295L178.79 73.9549L165.934 73.498L165.47 86.5458C165.35 89.9143 165.035 92.7849 164.524 95.1576C163.967 97.614 163.453 99.4529 162.983 100.674C162.515 101.81 161.827 103.152 160.918 104.7ZM210.058 113.17L203.087 112.923L203.178 110.364L208.35 99.9814L194.737 70.3592L194.828 67.8008L202.44 68.0713L212.622 91.4878L223.418 68.817L230.582 69.0716L230.491 71.63L210.058 113.17ZM229.811 113.872L228.34 113.82L228.59 106.785L229.805 106.828C232.534 106.925 234.451 105.84 235.556 103.574C236.665 101.223 237.326 97.0408 237.539 91.0286L238.31 69.3463L266.26 70.3397L264.669 115.111L256.994 114.839L258.346 76.7827L245.107 76.3121L244.495 93.5172C244.001 107.418 239.106 114.203 229.811 113.872ZM295.559 116.209L276.18 115.521L277.771 70.7489L285.446 71.0217L284.832 88.2908L296.537 88.7068C300.46 88.8462 303.486 90.1919 305.615 92.7438C307.787 95.2973 308.798 98.6846 308.648 102.906C308.498 107.127 307.249 110.434 304.901 112.827C302.596 115.221 299.482 116.349 295.559 116.209ZM294.955 95.3748L284.594 95.0065L284.094 109.078L294.455 109.446C296.288 109.511 297.782 108.945 298.934 107.748C300.129 106.552 300.766 104.846 300.845 102.629C300.924 100.411 300.41 98.664 299.302 97.3865C298.238 96.1106 296.789 95.44 294.955 95.3748ZM361.893 101.725L315.458 100.074L315.685 93.6781L362.12 95.3286L361.893 101.725Z" fill="white"/>
<path d="M235.662 173.117L227.987 172.845L229.578 128.073L237.253 128.346L236.578 147.342L255.127 148.001L255.802 129.005L263.477 129.278L261.885 174.05L254.21 173.777L254.888 154.717L236.34 154.057L235.662 173.117ZM300.144 160.616L300.685 145.394C300.778 142.793 299.978 140.672 298.286 139.032C296.595 137.35 294.194 136.453 291.081 136.343C287.968 136.232 285.509 136.956 283.703 138.514C281.899 140.03 280.95 142.088 280.858 144.689L280.317 159.911C280.224 162.512 281.023 164.654 282.714 166.337C284.406 167.976 286.809 168.852 289.921 168.962C293.034 169.073 295.493 168.37 297.297 166.855C299.103 165.297 300.052 163.217 300.144 160.616ZM272.655 159.255L273.169 144.8C273.346 139.811 275.064 135.944 278.32 133.2C281.579 130.412 285.916 129.115 291.331 129.307C296.746 129.5 300.98 131.102 304.032 134.113C307.086 137.082 308.524 141.061 308.347 146.05L307.833 160.505C307.656 165.494 305.938 169.382 302.68 172.169C299.423 174.914 295.087 176.19 289.671 175.998C284.256 175.805 280.022 174.225 276.968 171.256C273.915 168.244 272.478 164.244 272.655 159.255ZM333.639 177.561C328.096 177.364 323.861 175.804 320.933 172.882C318.006 169.96 316.633 165.941 316.815 160.824L317.329 146.369C317.511 141.253 319.165 137.341 322.293 134.634C325.42 131.928 329.755 130.673 335.299 130.87C340.032 131.038 343.908 132.478 346.929 135.19C349.99 137.946 351.43 141.861 351.25 146.935L351.227 147.574L343.552 147.302L343.575 146.662C343.673 143.89 342.831 141.768 341.047 140.296C339.265 138.781 337.244 137.984 334.985 137.903C331.787 137.79 329.351 138.45 327.678 139.885C326.006 141.277 325.121 143.359 325.022 146.131L324.472 161.609C324.373 164.38 325.108 166.541 326.675 168.091C328.244 169.599 330.627 170.409 333.825 170.523C336.085 170.603 338.157 169.972 340.04 168.63C341.925 167.246 342.917 165.168 343.016 162.396L343.038 161.756L350.714 162.029L350.691 162.669C350.51 167.743 348.796 171.546 345.546 174.077C342.341 176.568 338.372 177.729 333.639 177.561ZM375.96 178.104L368.285 177.831L369.638 139.775L356.654 139.314L356.893 132.598L390.536 133.794L390.297 140.51L377.313 140.048L375.96 178.104ZM415.386 179.506L396.006 178.817L397.597 134.045L405.272 134.318L404.658 151.587L416.363 152.003C420.286 152.142 423.312 153.488 425.441 156.04C427.613 158.593 428.624 161.981 428.474 166.202C428.324 170.423 427.075 173.73 424.728 176.123C422.422 178.518 419.308 179.645 415.386 179.506ZM414.781 158.671L404.42 158.303L403.92 172.374L414.281 172.742C416.115 172.807 417.608 172.241 418.76 171.044C419.955 169.848 420.592 168.142 420.671 165.925C420.75 163.707 420.236 161.96 419.129 160.683C418.064 159.407 416.615 158.736 414.781 158.671Z" fill="white"/>
<path d="M538.002 44.6636L545.26 86.3614L571.813 53.4019L562.56 94.703L599.705 74.4138L575.352 109.03L617.433 104.5L581.687 127.162L622.299 139.081L580.601 146.338L613.561 172.891L572.259 163.639L592.549 200.783L557.932 176.43L562.462 218.512L539.8 182.765L527.882 223.377L520.624 181.679L494.072 214.639L503.324 173.338L466.179 193.627L490.532 159.01L448.451 163.541L484.197 140.879L443.585 128.96L485.283 121.703L452.324 95.1499L493.625 104.402L473.335 67.2574L507.952 91.6105L503.422 49.529L526.084 85.2755L538.002 44.6636Z" fill="#D80000"/>
<path d="M545.236 143.073L545.912 124.045C546.028 120.794 545.028 118.143 542.913 116.094C540.799 113.991 537.797 112.87 533.906 112.732C530.016 112.593 526.941 113.498 524.684 115.446C522.429 117.34 521.243 119.913 521.128 123.164L520.451 142.192C520.336 145.444 521.335 148.121 523.448 150.224C525.563 152.274 528.566 153.368 532.457 153.506C536.348 153.644 539.421 152.766 541.677 150.872C543.934 148.924 545.12 146.324 545.236 143.073ZM510.875 141.372L511.517 123.303C511.738 117.067 513.885 112.233 517.956 108.803C522.029 105.318 527.45 103.697 534.219 103.937C540.988 104.178 546.28 106.18 550.096 109.945C553.913 113.656 555.711 118.63 555.489 124.866L554.847 142.934C554.625 149.171 552.478 154.031 548.405 157.515C544.334 160.946 538.914 162.541 532.145 162.3C525.375 162.06 520.082 160.084 516.265 156.372C512.45 152.608 510.653 147.608 510.875 141.372Z" fill="white"/>
<path d="M595.324 129.04L601.122 162.351L622.334 136.021L614.943 169.015L644.617 152.807L625.162 180.461L658.78 176.842L630.223 194.946L662.667 204.468L629.355 210.266L655.686 231.478L622.691 224.087L638.9 253.761L611.246 234.306L614.865 267.924L596.76 239.367L587.239 271.811L581.441 238.499L560.229 264.83L567.62 231.835L537.946 248.044L557.401 220.389L523.783 224.009L552.34 205.904L519.896 196.383L553.208 190.585L526.877 169.372L559.872 176.764L543.663 147.089L571.317 166.545L567.698 132.927L585.803 161.484L595.324 129.04Z" fill="white"/>
<path d="M591.839 223.197C586.988 223.024 583.283 221.66 580.721 219.103C578.16 216.546 576.958 213.03 577.118 208.552L577.567 195.904C577.726 191.427 579.174 188.005 581.911 185.636C584.647 183.268 588.44 182.17 593.291 182.342C597.432 182.49 600.824 183.75 603.467 186.122C606.146 188.534 607.406 191.959 607.248 196.399L607.228 196.959L600.513 196.72L600.533 196.16C600.619 193.735 599.882 191.879 598.321 190.59C596.762 189.265 594.993 188.567 593.016 188.497C590.218 188.397 588.087 188.975 586.622 190.23C585.159 191.449 584.385 193.27 584.299 195.695L583.817 209.239C583.731 211.664 584.374 213.555 585.745 214.911C587.118 216.23 589.203 216.939 592.001 217.038C593.979 217.109 595.792 216.557 597.44 215.383C599.089 214.171 599.957 212.353 600.043 209.928L600.063 209.368L606.779 209.607L606.759 210.166C606.601 214.606 605.101 217.934 602.257 220.149C599.453 222.328 595.98 223.344 591.839 223.197Z" fill="#D80000"/>
</svg>
