<svg width="571" height="442" viewBox="0 0 571 442" fill="none" xmlns="http://www.w3.org/2000/svg">
<path d="M28.2583 344.709L27.3099 343.869L27.6096 334.721C27.6096 334.721 25.729 335.423 25.0944 335.445C24.4598 335.468 20.8298 334.603 18.8779 330.652C16.9254 326.7 20.3511 323.801 20.3511 323.801L20.2985 322.906L22.2466 320.978L28.1185 312.516L27.6486 311.91L22.1212 315.431L20.6134 316.141L19.5443 315.632L10.9132 319.603C10.9132 319.603 6.9919 321.449 5.90181 320.308C4.81173 319.167 -0.000196376 310.312 -0.000196376 310.312C-0.000196376 310.312 -0.0241963 306.739 6.71568 300.901C6.71568 300.901 14.5094 296.131 19.8577 293.795C25.2068 291.461 32.8297 296.696 34.0463 298.697C35.2644 300.697 34.9607 302.402 34.9607 302.402L36.9316 305.61L39.6804 305.97C39.6804 305.97 44.8554 288.002 59.5849 275.463C59.5849 275.463 53.8811 272.543 53.203 271.298C52.5257 270.055 51.8221 268.364 51.8221 268.364C51.8221 268.364 51.0145 263.323 62.7352 254.956C74.456 246.59 104.576 236.318 104.576 236.318C104.576 236.318 144.675 223.372 146.296 224.079C147.917 224.785 149.282 226.901 149.282 226.901L154.029 233.857C154.029 233.857 189.32 226.252 191.883 225.046C194.446 223.84 214.22 201.665 215.869 201.257C217.519 200.848 220.117 201.279 220.117 201.279L221.023 200.853C221.023 200.853 220.606 187.446 220.706 186.482C220.804 185.515 256.075 108.993 257.308 107.309C258.542 105.625 274.214 95.6758 274.214 95.6758L274.922 91.8958L274.365 90.7117C274.365 90.7117 278.171 87.0589 278.424 87.0084C278.676 86.9579 278.676 86.9579 278.676 86.9579L279.989 88.133L283.567 86.93L285.886 85.8386L283.997 81.9717L284.512 81.4533C284.512 81.4533 281.855 76.9832 281.416 76.6379C280.977 76.2927 270.602 79.9352 270.602 79.9352L269.035 89.0828C269.035 89.0828 263.372 97.7455 258.169 97.989C252.964 98.2332 250.643 89.1933 249.713 83.8417C248.783 78.4901 251.921 70.1882 256.029 67.91C260.137 65.6318 267.097 71.316 267.878 72.5337C268.659 73.7514 269.421 75.6668 269.421 75.6668C269.421 75.6668 282.413 72.4462 282.884 72.5687C283.356 72.6912 288.016 79.8025 288.016 79.8025L289.438 79.8904L291.111 83.4457L294.246 81.4636L288.529 77.0793L298.796 52.8095L296.727 49.785L294.648 49.4775C294.648 49.4775 292.344 47.7124 292.905 44.6003C293.466 41.4868 297.673 41.6201 297.673 41.6201L300.04 42.3437L301.921 41.6425L303.272 38.249L307.042 34.9122L306.015 32.73L306.189 31.7284L300.349 20.6927C300.349 20.6927 297.817 25.0101 293.678 25.9468C289.539 26.8849 284.746 9.65687 286.84 3.3402C288.933 -2.97647 294.64 1.32226 295.646 2.87078C295.646 2.87078 297.454 3.48968 298.459 5.86632C299.463 8.24297 300.016 10.0046 300.016 10.0046C300.016 10.0046 301.856 11.4364 301.886 12.2499C301.917 13.0634 302.218 15.6613 302.218 15.6613L306.62 24.818L309.538 30.4297L310.492 30.5326L311.963 33.5157C311.963 33.5157 312.793 33.8107 313.903 34.2421C317.886 34.1548 324.229 34.6209 331.015 37.5048C342.3 42.3018 341.767 60.9346 341.767 60.9346L345.653 59.0136C345.653 59.0136 349.595 57.8015 351.895 61.3148L358.379 58.2626C358.379 58.2626 365.764 54.9703 366.609 55.3986C367.456 55.8276 368.719 57.531 368.719 57.531C368.719 57.531 375.665 64.4622 380.064 76.5458C384.463 88.628 382.487 93.2356 382.487 93.2356C382.487 93.2356 382.188 95.6198 380.541 97.4539L383.487 99.4724L383.796 100.521L412.538 121.272C412.538 121.272 414.84 120.096 416.129 120.684C417.419 121.27 422.861 125.694 422.855 125.973C422.85 126.181 422.946 126.933 422.995 127.299C425.004 125.757 427.162 124.259 429.462 122.886C443.644 114.418 472.427 108.935 474.561 109.653C476.696 110.37 475.653 112.998 475.653 112.998L474.52 115.875C474.52 115.875 474.503 115.993 474.448 116.205C482.586 115.507 491.027 115.871 499.56 117.429C545.387 125.8 576.473 165.405 568.99 205.888C561.507 246.371 518.289 272.402 472.462 264.031C432.616 256.752 403.921 225.861 402.026 191.311C400.557 197.382 399.766 201.859 399.766 201.859C399.766 201.859 396.137 208.531 393.887 193.185C391.637 177.839 400.31 153.216 400.31 153.216L374.66 135.512L367.575 140.225C367.575 140.225 361.868 135.926 361.616 135.587C361.363 135.246 361.157 133.045 361.157 133.045L362.19 128.976L361.406 127.507L360.882 127.569L359.282 133.562L357.489 135.234L357.969 139.971L362.592 141.378L362.867 142.353L362.268 142.451L364.671 147.753C364.671 147.753 377.27 150.646 377.447 151.022C377.625 151.399 377.738 152.815 377.738 152.815C377.738 152.815 374.789 206.037 374.451 206.197C374.112 206.356 371.975 206.81 371.975 206.81L371.715 224.164C371.715 224.164 374.38 227.182 374.637 230.371C374.893 233.558 372.353 234.616 372.353 234.616C372.353 234.616 374.137 250.734 374.101 263.571C374.068 275.5 362.555 283.069 353.048 287.126L353.433 288.051L352.586 290.655L354.154 292.812C354.154 292.812 342.964 304.557 342.346 304.711C341.728 304.865 313.858 317.569 313.858 317.569L305.835 315.141L288.32 324.074L285.882 320.949L284.632 321.814L284.584 323.766L281.069 328.039L269.774 321.362L265.942 322.614L257.736 322.204L251.828 326.087C251.828 326.087 253.098 335.829 252.178 336.812C251.26 337.796 235.511 346.311 233.224 346.147C230.936 345.983 226.621 344.155 226.621 344.155L216.24 325.33L214.543 326.406C231.513 366.979 213.056 414.397 172.127 433.662C130.082 453.453 80.2513 436.042 60.8255 394.773C49.3175 370.325 51.0642 342.988 63.1411 320.651L55.4007 324.114L51.5733 325.18L51.1132 324.203L38.8699 331.068L38.8327 332.555L36.7782 334.258L36.6879 342.48L35.2555 343.154L33.361 368.675C33.361 368.675 28.3234 381.063 27.6888 381.086C27.0542 381.109 27.0542 381.109 27.0542 381.109L28.2583 344.709ZM334.441 42.419C331.763 38.2223 323.805 36.5392 317.699 35.8638C318.783 36.3961 319.628 36.9127 319.774 37.2841C320.23 38.4476 324.229 45.5723 324.441 46.024C324.61 46.3828 324.767 48.1939 324.727 49.0152C327.471 49.906 332.805 52.6524 337.412 61.0565C337.412 61.0565 338.999 49.5564 334.441 42.419ZM444.309 188.209C441.534 186.318 438.763 184.421 436.039 182.554C435.092 188.442 435.486 194.283 437.034 199.822C439.014 199.655 442.389 198.78 448.134 196.327C446.508 193.768 445.22 191.043 444.309 188.209ZM440.307 169.944L443.367 172.107C444.491 166.507 447.062 161.504 450.686 157.327C446.432 160.868 442.896 165.123 440.307 169.944ZM500.866 148.364C505.973 150.741 510.424 153.996 514.014 157.847C514.074 156.678 513.965 155.447 513.625 154.172C509.74 151.766 505.467 149.789 500.866 148.364ZM522.16 160.745C520.111 160.504 518.462 160.837 517.086 161.571C521.508 167.681 523.95 174.882 523.74 182.331C524.394 182.038 525.012 181.75 525.577 181.472C530.289 179.145 532.208 176.393 531.65 173.215C529.261 168.649 526.042 164.438 522.16 160.745ZM535.268 202.463C535.49 201.597 535.691 200.723 535.855 199.833C536.785 194.807 536.71 189.805 535.786 184.986C534.005 184.428 530.935 184.295 526.197 186.603C525.277 187.051 524.208 187.548 523.046 188.075C521.923 193.309 519.538 198.014 516.205 201.994C519.326 202.614 522.292 203.209 524.715 203.706C529.648 204.72 533.11 204.065 535.268 202.463ZM517.976 226.69C523.121 223.143 527.448 218.66 530.628 213.443C530.326 210.009 528.756 207.039 524.065 207.321C522.216 207.433 517.131 207.037 511.647 206.519C507.872 209.643 503.398 212.073 498.481 213.647C505.575 219.989 513.44 226.111 517.976 226.69ZM487.731 235.685C495.514 235.748 502.961 234.201 509.591 231.329C509.558 229.96 509.055 228.247 507.378 226.463C505.086 224.024 499.094 218.662 494.584 214.689C492.651 215.112 490.662 215.404 488.637 215.564C488.331 215.748 488.015 215.878 487.69 215.943C487.536 215.974 487.209 215.877 486.739 215.675C485.061 215.736 483.358 215.697 481.642 215.567C484.306 225.769 485.947 232.671 487.731 235.685ZM477.881 234.754C478.755 234.914 479.628 235.052 480.498 235.171C483.086 232.153 480.76 222.895 478.141 215.168C477.683 215.099 477.227 215.032 476.769 214.95C472.578 214.185 468.643 212.879 465.041 211.137C459.236 219.237 456.713 223.357 458.8 227.551C464.43 230.966 470.866 233.472 477.881 234.754ZM450.769 221.559C451.847 221.573 453.105 221.372 454.203 220.63C455.411 219.813 458.61 214.584 461.643 209.306C457.277 206.699 453.514 203.413 450.519 199.665C444.284 202.329 440.954 204.382 439.182 205.778C441.808 211.654 445.771 217.028 450.769 221.559ZM406.347 144.498C406.347 144.498 408.578 141.216 412.579 136.879C410.874 135.513 407.005 132.394 406.84 132.043C406.627 131.591 406.762 130.702 406.762 130.702L407.25 129.002L381.534 110.962L378.114 124.243L406.347 144.498ZM367.545 111.572C367.847 111.43 369.064 108.927 369.064 108.927L368.182 108.424C368.182 108.424 368.771 104.257 370.457 101.069C368.345 101.804 365.971 102.622 365.828 102.639C365.566 102.67 363.114 102.354 363.114 102.354L361.354 102.723L351.102 98.358L351.008 99.1379C351.008 99.1379 367.243 111.714 367.545 111.572ZM319.237 62.1666L321.1 63.8632L321.436 63.7051L330.583 69.0485C330.583 69.0485 334.138 65.4453 337.855 67.2792C337.855 67.2792 332.136 53.5771 323.592 50.6661C323.329 50.9844 323.121 51.2374 323.121 51.2374L321.556 51.2382L318.496 52.9546L315.582 54.7862L319.237 62.1666ZM306.589 84.0597L305.571 84.4994L304.292 88.8242L307.433 86.1047L308.206 85.5892L306.589 84.0597ZM320.654 103.041L322.377 103.471L323.429 101.598L318.656 97.9162L318.178 96.9004L319.577 92.2431L318.554 90.6577L318.521 89.7083L315.59 88.4693L312.104 89.2822L310.839 88.0848L310.395 88.2938L309.656 91.1236L306.12 96.2345L320.654 103.041ZM350.24 236.343L356.671 252.028C356.702 243.042 357.336 236.449 357.336 236.449L350.24 236.343ZM367.978 262.871C368.173 252.715 366.184 242.623 366.184 242.623C366.184 242.623 364.924 246.11 364.907 251.358C364.896 254.858 365.917 263.698 363.822 271.487C366.207 268.807 367.922 265.857 367.978 262.871ZM208.429 314.57L221.715 307.593L210.99 301.324L202.211 305.938C204.451 308.65 206.53 311.529 208.429 314.57ZM192.775 296.282L197.657 293.533L189.314 288.657L187.083 283.917L176.445 280.102L174.072 284.108C180.798 287.289 187.099 291.37 192.775 296.282ZM90.5323 344.881C88.223 352.01 87.5684 359.651 88.7904 367.201C91.6658 367.054 97.1051 365.514 107.321 360.628C107.369 360.147 107.424 359.669 107.496 359.193L98.6905 362.838C98.6905 362.838 99.7171 354.728 105.367 346.47C99.4497 343.365 94.0563 343.873 90.5323 344.881ZM109.191 319.729C102.487 324.401 97.2239 330.538 93.6386 337.456C96.8127 339.672 102.041 342.246 108.986 341.942C110.447 340.371 112.102 338.849 113.995 337.436C114.909 336.755 115.828 336.092 116.746 335.447C115.671 328.78 111.719 322.912 109.191 319.729ZM116.507 315.484C115.572 315.924 114.665 316.398 113.771 316.887C116.13 320.598 121.245 327.724 126.272 329.315C134.903 324.21 141.747 321.25 141.747 321.25L143.736 311.129C134.765 310.005 125.342 311.325 116.507 315.484ZM155.274 314.029L154.65 317.748L158.664 315.487C157.555 314.958 156.425 314.472 155.274 314.029ZM169.899 322.919L153.718 331.421L152.328 335.865C154.768 337.086 157.058 338.621 159.12 340.463L177.108 331.018C174.995 328.012 172.576 325.299 169.899 322.919ZM184.08 370.702C186.248 362.663 186.337 354.07 184.053 345.754L168.433 355.662C169.667 360.301 169.781 365.055 168.889 369.588C175.233 371.476 180.782 372.594 184.08 370.702ZM165.955 397.293C172.765 392.235 177.984 385.627 181.354 378.244C179.234 374.901 173.231 372.772 168.439 371.558C166.676 378.213 162.729 384.255 157.005 388.54C160.929 392.856 163.831 395.582 165.955 397.293ZM157.418 402.399C158.324 401.973 159.204 401.515 160.072 401.043C158.876 398.483 156.926 394.906 153.864 390.596C153.118 391.024 152.355 391.434 151.563 391.807C146.247 394.309 140.585 395.18 135.14 394.626C135.585 398.628 136.572 403.403 137.497 407.121C144.18 406.957 150.957 405.441 157.418 402.399ZM132.602 406.994C133.049 404.167 132.968 400.058 131.784 394.094C125.758 392.809 120.167 389.752 115.816 385.223C113.162 387.623 110.212 393.367 108.183 398.254C115.334 403.307 123.793 406.33 132.602 406.994ZM103.135 394.134C105.561 393.351 108.813 390.172 112.219 380.696C111.445 379.509 110.738 378.26 110.118 376.943C108.181 372.828 107.233 368.502 107.167 364.23C96.1538 368.927 92.1016 372.411 90.726 374.907C91.2868 376.548 91.9326 378.177 92.6881 379.782C95.3081 385.348 98.8894 390.157 103.135 394.134Z" fill="black"/>
</svg>
