<svg width="1440" height="586" viewBox="0 0 1440 586" fill="none" xmlns="http://www.w3.org/2000/svg">
<path opacity="0.2" d="M12.4911 3.73446L13.6724 108.661L12.1481 113.212L0.99684 109.478L-0.184496 4.55157L1.33977 1.70653e-05L12.4911 3.73446ZM46.041 14.97L47.2223 119.896L45.6981 124.448L34.5468 120.713L33.3654 15.7871L34.8897 11.2355L46.041 14.97ZM79.5909 26.2054L80.7722 131.132L79.248 135.683L68.0967 131.949L66.9153 27.0226L68.4396 22.471L79.5909 26.2054ZM113.141 37.4409L114.322 142.367L112.798 146.919L101.647 143.184L100.465 38.258L101.99 33.7065L113.141 37.4409ZM146.691 48.6764L147.872 153.603L146.348 158.154L135.196 154.42L134.015 49.4935L135.539 44.942L146.691 48.6764ZM180.241 59.9119L181.422 164.838L179.898 169.39L168.746 165.655L167.565 60.729L169.089 56.1775L180.241 59.9119ZM213.791 71.1474L214.972 176.074L213.448 180.625L202.296 176.891L201.115 71.9645L202.639 67.413L213.791 71.1474ZM247.34 82.3829L248.522 187.309L246.998 191.861L235.846 188.126L234.665 83.2L236.189 78.6485L247.34 82.3829ZM280.89 93.6184L282.072 198.545L280.547 203.096L269.396 199.362L268.215 94.4355L269.739 89.8839L280.89 93.6184ZM314.44 104.854L315.622 209.78L314.097 214.332L302.946 210.597L301.765 105.671L303.289 101.119L314.44 104.854ZM347.99 116.089L349.172 221.016L347.647 225.567L336.496 221.833L335.315 116.906L336.839 112.355L347.99 116.089ZM381.54 127.325L382.721 232.251L381.197 236.803L370.046 233.068L368.865 128.142L370.389 123.59L381.54 127.325ZM415.09 138.56L416.271 243.486L414.747 248.038L403.596 244.304L402.414 139.377L403.939 134.826L415.09 138.56ZM448.64 149.796L449.821 254.722L448.297 259.274L437.146 255.539L435.964 150.613L437.489 146.061L448.64 149.796ZM482.19 161.031L483.371 265.957L481.847 270.509L470.696 266.775L469.514 161.848L471.039 157.297L482.19 161.031ZM515.74 172.267L516.921 277.193L515.397 281.745L504.246 278.01L503.064 173.084L504.588 168.532L515.74 172.267ZM549.29 183.502L550.471 288.428L548.947 292.98L537.795 289.246L536.614 184.319L538.138 179.768L549.29 183.502ZM582.84 194.738L584.021 299.664L582.497 304.215L571.345 300.481L570.164 195.555L571.688 191.003L582.84 194.738ZM616.389 205.973L617.571 310.899L616.047 315.451L604.895 311.717L603.714 206.79L605.238 202.239L616.389 205.973ZM649.939 217.209L651.121 322.135L649.596 326.686L638.445 322.952L637.264 218.026L638.788 213.474L649.939 217.209ZM683.489 228.444L684.671 333.37L683.146 337.922L671.995 334.188L670.814 229.261L672.338 224.71L683.489 228.444ZM717.039 239.68L718.221 344.606L716.696 349.157L705.545 345.423L704.364 240.497L705.888 235.945L717.039 239.68ZM750.589 250.915L751.77 355.841L750.246 360.393L739.095 356.659L737.914 251.732L739.438 247.181L750.589 250.915ZM784.139 262.151L785.32 367.077L783.796 371.628L772.645 367.894L771.463 262.968L772.988 258.416L784.139 262.151ZM817.689 273.386L818.87 378.312L817.346 382.864L806.195 379.129L805.013 274.203L806.538 269.652L817.689 273.386ZM851.239 284.622L852.42 389.548L850.896 394.099L839.745 390.365L838.563 285.439L840.088 280.887L851.239 284.622ZM884.789 295.857L885.97 400.783L884.446 405.335L873.295 401.6L872.113 296.674L873.638 292.123L884.789 295.857ZM918.339 307.093L919.52 412.019L917.996 416.57L906.844 412.836L905.663 307.91L907.187 303.358L918.339 307.093ZM951.889 318.328L953.07 423.254L951.546 427.806L940.394 424.071L939.213 319.145L940.737 314.594L951.889 318.328ZM985.439 329.564L986.62 434.49L985.096 439.041L973.944 435.307L972.763 330.381L974.287 325.829L985.439 329.564ZM1018.99 340.799L1020.17 445.725L1018.65 450.277L1007.49 446.542L1006.31 341.616L1007.84 337.065L1018.99 340.799ZM1052.54 352.035L1053.72 456.961L1052.2 461.512L1041.04 457.778L1039.86 352.852L1041.39 348.3L1052.54 352.035ZM1086.09 363.27L1087.27 468.196L1085.75 472.748L1074.59 469.013L1073.41 364.087L1074.94 359.536L1086.09 363.27ZM1119.64 374.506L1120.82 479.432L1119.3 483.983L1108.14 480.249L1106.96 375.323L1108.49 370.771L1119.64 374.506ZM1153.19 385.741L1154.37 490.667L1152.85 495.219L1141.69 491.484L1140.51 386.558L1142.04 382.007L1153.19 385.741ZM1186.74 396.977L1187.92 501.903L1186.4 506.454L1175.24 502.72L1174.06 397.794L1175.59 393.242L1186.74 396.977ZM1220.29 408.212L1221.47 513.138L1219.94 517.69L1208.79 513.955L1207.61 409.029L1209.14 404.478L1220.29 408.212ZM1253.84 419.448L1255.02 524.374L1253.49 528.925L1242.34 525.191L1241.16 420.265L1242.69 415.713L1253.84 419.448ZM1287.39 430.683L1288.57 535.609L1287.04 540.161L1275.89 536.426L1274.71 431.5L1276.24 426.949L1287.39 430.683ZM1320.94 441.919L1322.12 546.845L1320.59 551.396L1309.44 547.662L1308.26 442.736L1309.79 438.184L1320.94 441.919ZM1354.49 453.154L1355.67 558.08L1354.14 562.632L1342.99 558.897L1341.81 453.971L1343.34 449.42L1354.49 453.154ZM1388.04 464.39L1389.22 569.316L1387.69 573.867L1376.54 570.133L1375.36 465.207L1376.89 460.655L1388.04 464.39ZM1421.59 475.625L1422.77 580.551L1421.24 585.103L1410.09 581.368L1408.91 476.442L1410.44 471.891L1421.59 475.625Z" fill="black"/>
</svg>
