<svg width="594" height="683" viewBox="0 0 594 683" fill="none" xmlns="http://www.w3.org/2000/svg">
<path d="M217.268 182.245C327.142 134.559 454.603 184.618 502.026 293.886C549.448 403.155 498.957 530.444 389.083 578.13C279.208 625.816 151.747 575.758 104.324 466.49C56.9012 357.221 107.393 229.931 217.268 182.245Z" fill="white" stroke="#D80000" stroke-width="28"/>
<path fill-rule="evenodd" clip-rule="evenodd" d="M152.473 61.8709C165.547 59.2902 178.625 56.7088 191.703 54.1274L199.066 91.4333C208.372 138.579 242.934 144.856 248.782 174.487L299.567 431.77C299.662 432.247 299.733 432.725 299.788 433.206C299.911 433.627 300.019 434.058 300.104 434.49C303.091 449.623 282.368 466.466 253.827 472.099C225.286 477.733 199.717 470.028 196.73 454.895C196.644 454.463 196.582 454.027 196.535 453.595C196.404 453.129 196.288 452.656 196.193 452.175L145.408 194.892C139.559 165.261 169.143 146.322 159.837 99.1768L152.473 61.8709Z" fill="#0F1412"/>
<path fill-rule="evenodd" clip-rule="evenodd" d="M156.276 61.1206C166.818 59.0398 177.36 56.9589 187.898 54.8788L195.15 91.6213C204.315 138.053 232.625 145.365 238.385 174.549L288.403 427.944C288.496 428.417 288.57 428.887 288.631 429.355C288.745 429.773 288.847 430.194 288.932 430.622C291.874 445.526 275.603 461.298 252.592 465.84C229.581 470.383 208.539 461.979 205.596 447.072C205.512 446.644 205.447 446.215 205.394 445.793C205.269 445.333 205.161 444.867 205.067 444.393L155.05 190.998C149.29 161.818 172.694 144.295 163.528 97.8631L156.276 61.1206Z" fill="#0F1412"/>
<path fill-rule="evenodd" clip-rule="evenodd" d="M219.298 135.713C230.551 148.983 242.232 158.306 245.49 174.813L295.909 430.245C296.003 430.718 296.077 431.192 296.132 431.669C296.25 432.09 296.357 432.514 296.443 432.946C299.408 447.97 280.113 464.437 253.36 469.718C226.604 474.999 202.499 467.099 199.533 452.075C199.449 451.647 199.387 451.214 199.337 450.783C199.21 450.32 199.095 449.855 199 449.374L148.581 193.942C145.322 177.434 152.584 164.373 157.951 147.822L219.298 135.713Z" fill="#0F1412"/>
<path fill-rule="evenodd" clip-rule="evenodd" d="M243.37 419.127C267.715 414.322 289.524 420.892 292.072 433.8C294.62 446.709 276.944 461.076 252.599 465.882C228.255 470.687 206.446 464.118 203.897 451.205C201.349 438.296 219.029 423.932 243.37 419.127Z" fill="#0F1412"/>
<path opacity="0.49" fill-rule="evenodd" clip-rule="evenodd" d="M171.932 199.758L223.346 460.232C217.674 459.279 212.495 457.818 207.968 455.905L156.553 195.428C154.402 184.53 167.317 176.379 171.932 199.758Z" fill="#0F1412"/>
<path fill-rule="evenodd" clip-rule="evenodd" d="M185.848 127.704C202.514 124.415 217.438 128.912 219.182 137.749C220.926 146.585 208.831 156.416 192.165 159.706C175.499 162.995 160.575 158.497 158.831 149.661C157.087 140.825 169.186 130.993 185.848 127.704Z" fill="#0F1412"/>
<path fill-rule="evenodd" clip-rule="evenodd" d="M174.359 69.5112C186.591 67.0967 197.551 70.3978 198.832 76.886C200.112 83.3704 191.229 90.5923 178.996 93.0069C166.76 95.4222 155.803 92.1165 154.523 85.6321C153.242 79.1439 162.126 71.9258 174.359 69.5112Z" fill="#0F1412"/>
<path fill-rule="evenodd" clip-rule="evenodd" d="M174.447 69.9463C183.641 68.1316 191.882 70.6112 192.844 75.4876C193.807 80.3641 187.126 85.789 177.933 87.6037C168.74 89.4183 160.502 86.9381 159.54 82.0616C158.577 77.1852 165.254 71.7609 174.447 69.9463Z" fill="#0F1412"/>
<path d="M189.094 60.9237L157.473 67.1655L160.929 84.6764L192.551 78.4346L189.094 60.9237Z" fill="#0F1412"/>
<path fill-rule="evenodd" clip-rule="evenodd" d="M168.834 41.5186C181.067 39.104 192.027 42.4052 193.307 48.8933C194.587 55.3777 185.704 62.5996 173.472 65.0142C161.236 67.4295 150.279 64.1238 148.999 57.6394C147.718 51.1513 156.602 43.9331 168.834 41.5186Z" fill="#0F1412"/>
<path fill-rule="evenodd" clip-rule="evenodd" d="M169.579 45.2856C181.812 42.8711 192.772 46.1722 194.053 52.6604C195.333 59.1448 186.449 66.3667 174.217 68.7813C161.981 71.1966 151.024 67.8909 149.744 61.4065C148.463 54.9183 157.347 47.7002 169.579 45.2856Z" fill="#0F1412"/>
<path fill-rule="evenodd" clip-rule="evenodd" d="M169.718 45.9922C177.292 44.4972 184.082 46.5412 184.874 50.5573C185.667 54.5734 180.167 59.0432 172.59 60.5389C165.016 62.0339 158.23 59.9891 157.438 55.973C156.645 51.9569 162.144 47.4872 169.718 45.9922Z" fill="#0F1412"/>
<path opacity="0.49" fill-rule="evenodd" clip-rule="evenodd" d="M182.974 150.974C181.199 165.158 161.271 165.742 167.595 146.644C170.391 132.888 171.758 117.883 166.243 96.8634C170.177 97.5507 174.214 97.4174 177.209 96.951C183.443 121.927 184.143 145.587 182.974 150.974Z" fill="#0F1412"/>
<path fill-rule="evenodd" clip-rule="evenodd" d="M215.343 304.99C246.236 298.596 260.822 287.203 268.684 275.304L288.792 377.172C281.34 389.826 267.775 402.734 235.835 408.808C229.005 374.203 222.174 339.599 215.343 304.99Z" fill="#0F1412"/>
<path fill-rule="evenodd" clip-rule="evenodd" d="M218.509 321.032C249.401 314.634 263.988 303.245 271.85 291.346L286.374 364.928C278.923 377.582 265.358 390.49 233.418 396.565C226.587 361.956 225.339 355.637 218.509 321.032Z" fill="#0F1412"/>
<path fill-rule="evenodd" clip-rule="evenodd" d="M387.273 308.328L406.569 291.155C418.518 280.517 433.954 277.548 440.798 312.217L462.216 420.724C464.983 434.741 462.612 445.611 449.977 456.86L421.581 482.137C415.639 487.428 409.677 486.232 408.348 479.5L405.24 463.754C407.231 464.329 409.781 463.545 412.331 461.278L432.234 442.708C442.201 433.406 444.328 424.883 442.099 413.59L428.41 344.237C422.895 316.301 423.051 305.974 400.827 327.261L388.255 339.306C385.794 341.666 383.651 344.871 382.446 348.279L380.194 336.869C378.866 330.14 381.323 313.621 387.273 308.328Z" fill="#0F1412"/>
<path fill-rule="evenodd" clip-rule="evenodd" d="M434.645 293.513C437.072 297.902 439.177 303.997 440.8 312.217L462.218 420.724C464.985 434.741 462.614 445.611 449.979 456.86L422.623 481.214L421.006 473.02C422.997 473.595 425.547 472.811 428.097 470.543L447.999 451.973C457.967 442.672 460.09 434.149 457.861 422.856L453.957 403.08C449.294 379.453 441.862 349.612 425.377 328.884C421.938 313.337 418.304 310.529 400.83 327.265L396.808 331.115C398.007 325.559 400.096 320.205 403.035 317.591C411.347 310.189 423.239 295.726 434.645 293.513Z" fill="#0F1412"/>
<path fill-rule="evenodd" clip-rule="evenodd" d="M432.305 455.899C439.968 450.049 446.148 444.064 450.174 437.886C451.788 432.794 449.708 429.02 446.235 429.163C437.925 439.625 432.81 444.124 425.428 449.043C427.726 451.33 430.015 453.614 432.305 455.899Z" fill="#0F1412"/>
<path opacity="0.51" fill-rule="evenodd" clip-rule="evenodd" d="M397.289 301.878C403.959 294.918 410.595 289.443 417.183 286.136C422.428 285.101 425.944 287.588 425.413 291.026C414.082 298.111 409.041 302.689 403.328 309.477C401.313 306.943 399.299 304.409 397.289 301.878Z" fill="#0F1412"/>
<path fill-rule="evenodd" clip-rule="evenodd" d="M442.289 478.417C446.366 499.069 418.083 522.052 379.139 529.74C340.192 537.427 305.298 526.914 301.221 506.263L269.25 344.292L410.318 316.446L442.289 478.417Z" fill="#0F1412"/>
<path fill-rule="evenodd" clip-rule="evenodd" d="M433.794 475.003C437.435 493.454 412.173 513.979 377.384 520.846C342.596 527.713 311.425 518.327 307.783 499.876L286.548 392.294C300.574 402.207 326.082 405.869 353.616 400.434C381.151 394.999 403.351 381.92 412.559 367.425L433.794 475.003Z" fill="#0F1412"/>
<path fill-rule="evenodd" clip-rule="evenodd" d="M431.832 465.09C435.473 483.537 410.211 504.066 375.423 510.933C340.634 517.8 309.463 508.41 305.822 489.963L277.264 345.285L403.274 320.412L431.832 465.09Z" fill="#0F1412"/>
<path fill-rule="evenodd" clip-rule="evenodd" d="M431.835 465.09C435.477 483.54 410.215 504.065 375.426 510.932C340.637 517.799 309.467 508.413 305.825 489.963L284.589 382.376C298.615 392.29 324.123 395.951 351.657 390.516C379.192 385.081 401.392 372.002 410.6 357.507L431.835 465.09Z" fill="#0F1412"/>
<path fill-rule="evenodd" clip-rule="evenodd" d="M332.403 292.968C371.351 285.28 406.241 295.794 410.317 316.446C414.394 337.097 386.112 360.081 347.168 367.768C308.22 375.456 273.326 364.943 269.25 344.291C265.169 323.64 293.451 300.657 332.403 292.968Z" fill="#0F1412"/>
<path fill-rule="evenodd" clip-rule="evenodd" d="M333.274 297.378C367.631 290.597 398.408 299.869 402.005 318.09C405.601 336.307 380.652 356.58 346.299 363.361C311.938 370.143 281.161 360.87 277.565 342.653C273.965 324.433 298.914 304.161 333.274 297.378Z" fill="#0F1412"/>
<path fill-rule="evenodd" clip-rule="evenodd" d="M363.382 449.916C393.295 444.012 420.092 452.087 423.223 467.948C426.354 483.81 404.634 501.458 374.722 507.363C344.806 513.268 318.009 505.196 314.878 489.335C311.747 473.473 333.466 455.821 363.382 449.916Z" fill="#0F1412"/>
<path fill-rule="evenodd" clip-rule="evenodd" d="M280.738 349.927C276.873 348.875 273.744 345.758 272.923 341.599C272.003 336.94 274.261 332.381 278.197 330.113C277.349 328.906 276.744 327.538 276.447 326.035C275.16 319.513 280.183 313.026 287.663 311.55C289.673 311.153 291.65 311.165 293.502 311.51C293.644 306.017 298.306 300.963 304.843 299.673C306.887 299.269 308.895 299.279 310.764 299.632C312.778 297.732 315.441 296.316 318.503 295.712C323.004 294.823 327.362 295.88 330.469 298.237C331.562 296.713 333.192 295.595 335.141 295.211C339.323 294.385 343.412 297.243 344.27 301.59C344.308 301.785 344.336 301.983 344.362 302.177L344.385 302.172C349.532 301.156 354.376 303.729 355.202 307.914C355.227 308.042 355.249 308.17 355.266 308.296C356.375 307.823 357.576 307.445 358.846 307.195C359.098 307.145 359.347 307.103 359.597 307.066C358.454 306.136 357.619 304.814 357.312 303.258C356.613 299.716 358.916 296.275 362.455 295.577C365.994 294.878 369.431 297.185 370.131 300.728C370.179 300.972 370.212 301.22 370.233 301.465C371.61 300.331 373.325 299.493 375.26 299.111C380.757 298.026 385.996 301 387.16 305.786C387.992 305.275 388.947 304.895 389.98 304.691C394.162 303.865 398.147 306.201 398.878 309.902C399.107 311.063 398.988 312.222 398.59 313.288C401.515 313.89 403.838 315.871 404.374 318.583C404.83 320.897 403.887 323.215 402.064 324.878C399.312 341.089 376.429 357.414 346.298 363.361C316.878 369.168 290.087 363.199 280.738 349.927Z" fill="#0F1412"/>
<path fill-rule="evenodd" clip-rule="evenodd" d="M394.497 339.225C394.3 339.155 394.103 339.088 393.904 339.03C394.251 337.704 394.304 336.269 394.008 334.77C392.721 328.248 385.379 322.992 377.615 323.029C375.529 323.039 373.632 323.433 371.985 324.129C369.723 318.877 363.283 314.925 356.498 314.957C354.376 314.966 352.449 315.366 350.788 316.068C348.116 314.633 345.006 313.79 341.828 313.805C337.156 313.825 333.375 315.692 331.3 318.565C329.66 317.315 327.659 316.555 325.635 316.564C321.295 316.585 318.47 320.129 319.328 324.476C319.367 324.671 319.417 324.868 319.467 325.061L319.444 325.062C314.101 325.086 310.439 328.502 311.266 332.691C311.291 332.819 311.32 332.946 311.352 333.068C310.103 332.831 308.801 332.701 307.483 332.708C307.221 332.709 306.965 332.716 306.71 332.728C307.45 331.614 307.741 330.178 307.433 328.619C306.734 325.077 303.188 322.221 299.514 322.235C295.841 322.254 293.429 325.142 294.127 328.681C294.175 328.925 294.239 329.17 294.314 329.409C292.551 328.586 290.577 328.117 288.569 328.127C282.864 328.157 278.977 332.035 279.711 336.863C278.972 336.618 278.203 336.458 277.418 336.394C277.118 338.495 277.149 340.589 277.557 342.659C281.153 360.876 311.934 370.148 346.291 363.366C367.381 359.199 384.925 349.955 394.497 339.225Z" fill="#0F1412"/>
<path fill-rule="evenodd" clip-rule="evenodd" d="M337.58 356.346C339.097 356.047 340.608 356.143 342.012 356.576C343.022 354.554 344.498 353.193 346.313 352.835C348.793 352.345 351.394 353.838 353.487 356.591C354.904 353.942 357.174 352.034 359.98 351.48C362.591 350.964 365.213 351.708 367.431 353.354C368.97 351.224 371.084 349.733 373.582 349.24C375.956 348.771 378.342 349.268 380.49 350.503C380.978 347.515 382.681 345.207 385.07 344.736C388.5 344.059 392.052 347.417 393.002 352.233C393.953 357.05 391.944 361.506 388.514 362.183C388.364 362.212 388.211 362.231 388.058 362.245C388.862 366.853 387.951 371.256 385.856 374.405C386.017 374.846 386.152 375.311 386.247 375.792C387.044 379.831 385.012 383.635 381.706 384.288C380.778 384.471 379.844 384.382 378.971 384.075C378.718 386.213 377.917 388.17 376.697 389.719C377.575 390.826 378.276 392.338 378.617 394.067C379.391 397.989 378.047 401.56 375.616 402.04C373.185 402.52 370.585 399.727 369.811 395.805C369.632 394.899 369.566 394.011 369.596 393.177C366.269 393.108 363.145 391.102 361.262 387.972C360.637 391.983 358.076 395.205 354.496 395.912C349.649 396.869 344.775 392.858 343.609 386.952C342.952 383.62 343.614 380.39 345.192 378.045C344.586 377.329 344.021 376.52 343.503 375.615C342.872 375.903 342.206 376.124 341.5 376.264C336.319 377.287 331.234 373.653 330.147 368.149C329.076 362.662 332.395 357.37 337.58 356.346Z" fill="#0F1412"/>
<path fill-rule="evenodd" clip-rule="evenodd" d="M282.325 351.949C284.343 349.158 287.578 347.02 291.482 346.25C293.491 345.853 295.469 345.865 297.321 346.21C297.463 340.721 302.124 335.663 308.661 334.373C310.705 333.969 312.713 333.979 314.582 334.332C316.596 332.432 319.26 331.016 322.322 330.412C326.822 329.524 331.18 330.58 334.288 332.937C335.381 331.413 337.01 330.296 338.96 329.911C343.141 329.085 347.23 331.943 348.088 336.29C348.127 336.485 348.154 336.683 348.181 336.877L348.203 336.872C353.35 335.856 358.194 338.429 359.02 342.614C359.046 342.742 359.067 342.87 359.084 342.996C360.193 342.523 361.395 342.145 362.665 341.895C362.916 341.845 363.166 341.804 363.416 341.766C362.272 340.836 361.437 339.514 361.13 337.959C360.431 334.416 362.734 330.975 366.273 330.277C369.812 329.578 373.25 331.886 373.949 335.428C373.997 335.673 374.03 335.92 374.052 336.165C375.432 335.03 377.148 334.192 379.079 333.811C384.575 332.726 389.815 335.7 390.978 340.486C391.81 339.975 392.766 339.595 393.799 339.391C394.017 339.348 394.229 339.318 394.446 339.29C384.861 349.996 367.348 359.214 346.298 363.369C318.405 368.867 292.876 363.793 282.325 351.949Z" fill="#0F1412"/>
<path opacity="0.5" fill-rule="evenodd" clip-rule="evenodd" d="M305.239 372.407L335.791 527.187C330.123 526.233 324.939 524.77 320.412 522.857L289.86 368.077C294.387 369.99 299.567 371.454 305.239 372.407Z" fill="#0F1412"/>
<path fill-rule="evenodd" clip-rule="evenodd" d="M336.965 354.602C338.446 354.31 339.909 354.408 341.276 354.825C342.258 352.859 343.694 351.533 345.46 351.185C347.871 350.709 350.399 352.161 352.438 354.839C353.814 352.26 356.024 350.403 358.751 349.865C361.291 349.364 363.838 350.086 365.996 351.686C367.492 349.615 369.548 348.167 371.979 347.687C374.286 347.232 376.61 347.714 378.697 348.918C379.17 346.014 380.827 343.77 383.153 343.311C386.485 342.654 389.94 345.918 390.865 350.603C391.789 355.288 389.834 359.62 386.502 360.277C386.355 360.306 386.207 360.324 386.057 360.338C386.84 364.82 385.952 369.098 383.919 372.165C384.077 372.595 384.206 373.049 384.298 373.515C385.074 377.445 383.095 381.142 379.882 381.776C378.981 381.954 378.074 381.867 377.223 381.571C376.981 383.648 376.198 385.555 375.012 387.058C375.868 388.134 376.549 389.604 376.881 391.287C377.634 395.104 376.325 398.575 373.962 399.041C371.599 399.508 369.068 396.791 368.315 392.978C368.142 392.099 368.076 391.234 368.108 390.423C364.87 390.356 361.831 388.407 360.005 385.364C359.397 389.266 356.905 392.4 353.422 393.088C348.711 394.018 343.972 390.117 342.839 384.376C342.199 381.134 342.843 377.994 344.38 375.711C343.793 375.015 343.24 374.227 342.739 373.35C342.127 373.631 341.478 373.845 340.79 373.98C335.752 374.975 330.808 371.442 329.752 366.093C328.696 360.743 331.927 355.597 336.965 354.602Z" fill="#0F1412"/>
<path fill-rule="evenodd" clip-rule="evenodd" d="M309.202 355.784C310.16 355.595 310.787 354.659 310.598 353.701C310.409 352.743 309.473 352.116 308.515 352.305C307.557 352.494 306.93 353.43 307.119 354.388C307.308 355.346 308.247 355.972 309.202 355.784Z" fill="#0F1412"/>
<path fill-rule="evenodd" clip-rule="evenodd" d="M311.641 317.847C311.909 316.908 312.895 316.366 313.833 316.633C314.772 316.901 315.319 317.89 315.046 318.822C314.776 319.765 313.794 320.31 312.855 320.039C311.911 319.768 311.37 318.786 311.641 317.847Z" fill="#0F1412"/>
<path fill-rule="evenodd" clip-rule="evenodd" d="M318.294 312.287C318.664 311 320.008 310.254 321.3 310.628C322.582 310.995 323.325 312.348 322.954 313.631C322.584 314.922 321.24 315.663 319.952 315.289C318.665 314.919 317.923 313.574 318.294 312.287Z" fill="#0F1412"/>
<path fill-rule="evenodd" clip-rule="evenodd" d="M318.693 301.025C319.538 300.542 320.624 300.839 321.107 301.688C321.596 302.541 321.299 303.626 320.445 304.106C319.592 304.591 318.511 304.293 318.031 303.443C317.546 302.59 317.845 301.516 318.693 301.025Z" fill="#0F1412"/>
<path fill-rule="evenodd" clip-rule="evenodd" d="M327.335 301.696C328.506 301.024 329.98 301.436 330.639 302.597C331.306 303.762 330.892 305.245 329.735 305.906C328.566 306.57 327.085 306.164 326.43 305.001C325.766 303.836 326.167 302.348 327.335 301.696Z" fill="#0F1412"/>
<path fill-rule="evenodd" clip-rule="evenodd" d="M319.252 306.258C319.527 305.318 320.505 304.778 321.449 305.048C322.384 305.316 322.929 306.301 322.658 307.241C322.387 308.181 321.409 308.721 320.465 308.451C319.526 308.179 318.984 307.194 319.252 306.258Z" fill="#0F1412"/>
<path fill-rule="evenodd" clip-rule="evenodd" d="M373.151 313.501C374.109 313.312 374.736 312.376 374.547 311.418C374.358 310.46 373.422 309.833 372.464 310.022C371.506 310.211 370.879 311.147 371.068 312.105C371.258 313.066 372.193 313.69 373.151 313.501Z" fill="#0F1412"/>
<path fill-rule="evenodd" clip-rule="evenodd" d="M381.388 318.155C382.699 317.896 383.556 316.618 383.297 315.307C383.038 313.996 381.757 313.14 380.449 313.398C379.138 313.657 378.282 314.935 378.541 316.246C378.8 317.557 380.077 318.413 381.388 318.155Z" fill="#0F1412"/>
<path fill-rule="evenodd" clip-rule="evenodd" d="M390.645 308.599C391.464 309.132 391.696 310.23 391.163 311.049C390.631 311.872 389.529 312.105 388.709 311.569C387.889 311.032 387.66 309.93 388.193 309.114C388.73 308.294 389.826 308.069 390.645 308.599Z" fill="#0F1412"/>
<path fill-rule="evenodd" clip-rule="evenodd" d="M394.002 316.59C395.13 317.323 395.446 318.822 394.714 319.943C393.984 321.067 392.477 321.38 391.357 320.652C390.237 319.921 389.916 318.415 390.651 317.294C391.383 316.178 392.885 315.854 394.002 316.59Z" fill="#0F1412"/>
<path fill-rule="evenodd" clip-rule="evenodd" d="M386.938 314.968C387.896 314.779 388.523 313.843 388.335 312.889C388.146 311.931 387.21 311.303 386.252 311.493C385.294 311.682 384.667 312.617 384.856 313.575C385.044 314.53 385.98 315.157 386.938 314.968Z" fill="#0F1412"/>
<path fill-rule="evenodd" clip-rule="evenodd" d="M344.841 322.942C345.799 322.753 346.423 321.818 346.235 320.864C346.045 319.906 345.11 319.278 344.155 319.467C343.197 319.656 342.57 320.592 342.759 321.55C342.948 322.508 343.883 323.131 344.841 322.942Z" fill="#0F1412"/>
<path fill-rule="evenodd" clip-rule="evenodd" d="M332.691 329.519C333.645 329.331 334.269 328.4 334.081 327.446C333.892 326.491 332.96 325.864 332.006 326.052C331.052 326.24 330.425 327.176 330.613 328.13C330.805 329.084 331.736 329.708 332.691 329.519Z" fill="#0F1412"/>
<path fill-rule="evenodd" clip-rule="evenodd" d="M338.783 323.384C340.091 323.126 340.947 321.848 340.689 320.541C340.431 319.233 339.153 318.377 337.846 318.635C336.539 318.893 335.682 320.17 335.94 321.478C336.198 322.785 337.476 323.642 338.783 323.384Z" fill="#0F1412"/>
<path fill-rule="evenodd" clip-rule="evenodd" d="M350.009 323.943C350.564 323.138 350.359 322.039 349.555 321.484C348.75 320.928 347.651 321.134 347.095 321.938C346.544 322.742 346.745 323.842 347.55 324.397C348.354 324.953 349.453 324.747 350.009 323.943Z" fill="#0F1412"/>
<path fill-rule="evenodd" clip-rule="evenodd" d="M299.455 337.154C298.601 336.686 297.526 337.012 297.061 337.861C296.59 338.719 296.908 339.796 297.764 340.259C298.621 340.722 299.696 340.412 300.162 339.551C300.63 338.698 300.316 337.62 299.455 337.154Z" fill="#0F1412"/>
<path fill-rule="evenodd" clip-rule="evenodd" d="M290.851 337.986C289.679 337.347 288.206 337.778 287.572 338.953C286.929 340.126 287.364 341.597 288.535 342.233C289.711 342.871 291.179 342.437 291.821 341.26C292.461 340.092 292.022 338.621 290.851 337.986Z" fill="#0F1412"/>
<path fill-rule="evenodd" clip-rule="evenodd" d="M285.734 334.463C284.872 333.993 283.796 334.315 283.334 335.175C282.859 336.034 283.176 337.107 284.038 337.577C284.909 338.053 285.977 337.729 286.443 336.868C286.91 336.011 286.596 334.933 285.734 334.463Z" fill="#0F1412"/>
<path fill-rule="evenodd" clip-rule="evenodd" d="M317.441 360.439C318.752 360.18 319.608 358.903 319.35 357.592C319.091 356.28 317.813 355.424 316.502 355.683C315.191 355.942 314.335 357.219 314.593 358.53C314.848 359.842 316.13 360.698 317.441 360.439Z" fill="#0F1412"/>
<path fill-rule="evenodd" clip-rule="evenodd" d="M326.695 350.883C327.515 351.417 327.747 352.514 327.214 353.334C326.682 354.157 325.58 354.39 324.76 353.853C323.94 353.317 323.71 352.214 324.248 351.398C324.785 350.578 325.876 350.35 326.695 350.883Z" fill="#0F1412"/>
<path fill-rule="evenodd" clip-rule="evenodd" d="M330.056 358.875C331.184 359.608 331.499 361.107 330.768 362.227C330.038 363.351 328.53 363.664 327.411 362.937C326.291 362.206 325.97 360.7 326.705 359.579C327.433 358.463 328.939 358.139 330.056 358.875Z" fill="#0F1412"/>
<path fill-rule="evenodd" clip-rule="evenodd" d="M322.993 357.251C323.951 357.062 324.578 356.126 324.389 355.168C324.2 354.21 323.264 353.583 322.306 353.772C321.348 353.961 320.721 354.897 320.91 355.855C321.099 356.813 322.035 357.44 322.993 357.251Z" fill="#0F1412"/>
<path fill-rule="evenodd" clip-rule="evenodd" d="M367.673 364.375C367.941 363.437 368.927 362.895 369.866 363.162C370.804 363.43 371.351 364.418 371.078 365.351C370.808 366.294 369.826 366.839 368.887 366.568C367.944 366.301 367.403 365.319 367.673 364.375Z" fill="#0F1412"/>
<path fill-rule="evenodd" clip-rule="evenodd" d="M374.326 358.82C374.697 357.537 376.04 356.788 377.332 357.161C378.614 357.529 379.357 358.881 378.986 360.164C378.616 361.451 377.271 362.193 375.985 361.826C374.697 361.452 373.955 360.107 374.326 358.82Z" fill="#0F1412"/>
<path fill-rule="evenodd" clip-rule="evenodd" d="M374.724 347.558C375.57 347.075 376.655 347.372 377.139 348.222C377.627 349.074 377.33 350.159 376.476 350.64C375.623 351.124 374.542 350.826 374.061 349.973C373.577 349.12 373.876 348.046 374.724 347.558Z" fill="#0F1412"/>
<path fill-rule="evenodd" clip-rule="evenodd" d="M383.366 348.23C384.537 347.558 386.012 347.97 386.671 349.132C387.338 350.296 386.924 351.779 385.766 352.44C384.598 353.104 383.116 352.698 382.461 351.535C381.798 350.37 382.195 348.883 383.366 348.23Z" fill="#0F1412"/>
<path fill-rule="evenodd" clip-rule="evenodd" d="M375.281 352.789C375.556 351.848 376.534 351.308 377.477 351.578C378.413 351.847 378.958 352.832 378.687 353.771C378.416 354.711 377.438 355.255 376.494 354.981C375.559 354.713 375.017 353.727 375.281 352.789Z" fill="#0F1412"/>
<path fill-rule="evenodd" clip-rule="evenodd" d="M358.487 380.674C357.591 380.289 357.177 379.242 357.559 378.347C357.947 377.447 358.997 377.033 359.886 377.42C360.786 377.808 361.202 378.846 360.817 379.746C360.429 380.646 359.383 381.063 358.487 380.674Z" fill="#0F1412"/>
<path fill-rule="evenodd" clip-rule="evenodd" d="M353.814 373.376C352.589 372.845 352.015 371.421 352.551 370.183C353.083 368.962 354.513 368.395 355.737 368.922C356.97 369.451 357.54 370.877 357.006 372.11C356.475 373.335 355.043 373.907 353.814 373.376Z" fill="#0F1412"/>
<path fill-rule="evenodd" clip-rule="evenodd" d="M342.692 371.552C342.319 370.654 342.755 369.615 343.652 369.239C344.558 368.865 345.595 369.293 345.969 370.199C346.339 371.105 345.908 372.143 345.001 372.513C344.099 372.886 343.07 372.457 342.692 371.552Z" fill="#0F1412"/>
<path fill-rule="evenodd" clip-rule="evenodd" d="M347.952 371.662C347.055 371.273 346.639 370.231 347.027 369.331C347.413 368.435 348.457 368.014 349.355 368.407C350.251 368.796 350.667 369.834 350.275 370.735C349.893 371.63 348.851 372.043 347.952 371.662Z" fill="#0F1412"/>
<path fill-rule="evenodd" clip-rule="evenodd" d="M358.28 358.607C357.446 358.1 357.18 357.009 357.687 356.175C358.198 355.341 359.284 355.072 360.123 355.581C360.956 356.084 361.227 357.182 360.713 358.018C360.206 358.851 359.114 359.114 358.28 358.607Z" fill="#0F1412"/>
<path fill-rule="evenodd" clip-rule="evenodd" d="M354.664 350.729C353.523 350.033 353.163 348.543 353.854 347.4C354.55 346.255 356.042 345.887 357.187 346.586C358.331 347.281 358.692 348.771 357.997 349.919C357.302 351.064 355.812 351.424 354.664 350.729Z" fill="#0F1412"/>
<path fill-rule="evenodd" clip-rule="evenodd" d="M349.097 348.219C348.263 347.712 347.997 346.621 348.503 345.783C349.01 344.949 350.101 344.683 350.936 345.194C351.777 345.699 352.039 346.791 351.537 347.628C351.022 348.459 349.932 348.729 349.097 348.219Z" fill="#0F1412"/>
<line x1="247.395" y1="588.317" x2="387.61" y2="194.918" stroke="#D80000" stroke-width="28"/>
</svg>
