<svg width="1021" height="237" viewBox="0 0 1021 237" fill="none" xmlns="http://www.w3.org/2000/svg">
<rect width="1019" height="228" transform="translate(1.84543) rotate(0.463756)" fill="white"/>
<path d="M45.8606 77.3598L42.5407 77.333L42.5501 76.173L51.7366 63.0469L43.2379 50.4977L43.2473 49.3378L46.7672 49.3662L53.9186 60.3445L61.4867 49.4854L64.7666 49.5119L64.7572 50.6719L56.0165 63.0816L65.0694 76.3553L65.06 77.5152L61.5401 77.4867L53.7942 65.8237L45.8606 77.3598ZM73.5759 77.5842L70.0961 77.556L70.3227 49.5569L82.0423 49.6518C84.4422 49.6712 86.316 50.4464 87.6637 51.9774C89.038 53.5085 89.7147 55.5674 89.6937 58.154C89.6728 60.7406 88.9629 62.7882 87.5639 64.2969C86.1919 65.7792 84.3059 66.5106 81.906 66.4912L73.6663 66.4245L73.5759 77.5842ZM73.7776 52.665L73.6912 63.3446L81.331 63.4065C82.7976 63.4183 83.9613 62.9611 84.8222 62.0347C85.6832 61.0816 86.1205 59.7784 86.1339 58.1252C86.1475 56.4452 85.7314 55.1351 84.8856 54.1949C84.0401 53.2281 82.884 52.7387 81.4174 52.7268L73.7776 52.665ZM98.3733 77.7849L95.1734 77.759L95.4 49.7599L98.8799 49.7881L98.7021 71.7473L112.919 49.9017L116.119 49.9276L115.893 77.9267L112.413 77.8985L112.591 55.9392L98.3733 77.7849ZM126.816 78.0151L123.337 77.9869L123.563 49.9879L143.922 50.1526L143.696 78.1517L140.216 78.1236L140.418 53.2044L127.018 53.0959L126.816 78.0151ZM148.068 78.1871L148.094 74.9872C150.227 75.0045 151.673 74.2562 152.432 72.7423C153.218 71.2019 153.629 68.2451 153.664 63.8719L153.775 50.2324L170.814 50.3703L170.587 78.3694L167.108 78.3412L167.309 53.422L157.03 53.3388L156.941 64.2585C156.899 69.4583 156.176 73.0793 154.773 75.1213C153.396 77.1902 151.161 78.2122 148.068 78.1871ZM189.622 78.5235L178.022 78.4296L178.249 50.4305L181.729 50.4587L181.638 61.6183L189.758 61.684C192.211 61.7039 194.125 62.4794 195.499 64.0106C196.874 65.5151 197.551 67.5606 197.53 70.1472C197.509 72.7871 196.798 74.8481 195.4 76.3302C194.001 77.8122 192.075 78.5433 189.622 78.5235ZM181.613 64.6982L181.527 75.3778L189.247 75.4403C190.687 75.452 191.824 74.9945 192.658 74.0679C193.519 73.1148 193.956 71.7983 193.97 70.1184C193.983 68.4651 193.567 67.1684 192.721 66.2282C191.903 65.2615 190.773 64.7723 189.333 64.7607L181.613 64.6982ZM205.541 78.6523L202.061 78.6242L202.288 50.6251L205.768 50.6532L205.541 78.6523ZM216.182 78.7385L212.982 78.7126L213.209 50.7135L216.689 50.7416L216.511 72.7009L230.728 50.8553L233.928 50.8812L233.701 78.8803L230.221 78.8521L230.399 56.8928L216.182 78.7385ZM217.386 43.667L217.39 43.1871L220.19 43.2097L220.186 43.6497C220.178 44.6097 220.465 45.372 221.048 45.9368C221.657 46.475 222.508 46.7486 223.601 46.7575C224.694 46.7663 225.55 46.5066 226.167 45.9782C226.785 45.4232 227.098 44.6657 227.106 43.7057L227.109 43.2657L229.909 43.2884L229.905 43.7684C229.892 45.4483 229.308 46.777 228.153 47.7543C226.998 48.7317 225.475 49.2127 223.581 49.1974C221.715 49.1823 220.212 48.6768 219.073 47.6808C217.935 46.6849 217.372 45.347 217.386 43.667ZM263.705 79.1231L251.106 79.0211L251.332 51.0221L269.972 51.1729L269.947 54.2528L254.787 54.1301L254.722 62.2099L263.842 62.2837C266.242 62.3031 268.115 63.0783 269.463 64.6092C270.811 66.1135 271.474 68.159 271.453 70.7456C271.432 73.3321 270.736 75.3799 269.364 76.8888C267.991 78.3978 266.105 79.1425 263.705 79.1231ZM254.697 65.2898L254.611 75.9694L263.09 76.038C264.53 76.0497 265.681 75.5923 266.542 74.6659C267.429 73.7131 267.88 72.3967 267.894 70.7167C267.907 69.0635 267.477 67.7666 266.605 66.8262C265.759 65.8593 264.617 65.37 263.177 65.3584L254.697 65.2898ZM277.638 79.2359L274.438 79.21L274.447 78.05L285.104 51.2954L288.584 51.3236L298.846 78.2475L298.837 79.4075L295.397 79.3796L292.657 71.9172L280.578 71.8194L277.638 79.2359ZM286.746 55.9489L281.642 68.868L291.601 68.9486L286.746 55.9489ZM306.687 79.471L303.487 79.4451L303.713 51.446L307.193 51.4742L307.016 73.4335L321.233 51.5878L324.433 51.6137L324.206 79.6128L320.726 79.5847L320.904 57.6254L306.687 79.471ZM307.891 44.3996L307.895 43.9196L310.694 43.9423L310.691 44.3823C310.683 45.3422 310.97 46.1046 311.552 46.6693C312.161 47.2076 313.013 47.4812 314.106 47.49C315.199 47.4989 316.055 47.2391 316.672 46.7108C317.29 46.1558 317.603 45.3983 317.611 44.4383L317.614 43.9983L320.414 44.021L320.41 44.501C320.397 46.1809 319.813 47.5095 318.658 48.4869C317.503 49.4643 315.979 49.9453 314.086 49.9299C312.219 49.9148 310.717 49.4093 309.578 48.4134C308.44 47.4175 307.877 46.0796 307.891 44.3996ZM335.13 79.7012L331.65 79.6731L331.877 51.674L335.357 51.7022L335.256 64.1018L339.736 64.138L347.956 51.8041L351.196 51.8304L351.187 52.9903L342.765 65.5226L351.499 78.6737L351.489 79.8337L348.049 79.8058L339.751 67.2182L335.231 67.1817L335.13 79.7012ZM373.621 80.0128L356.141 79.8713L356.368 51.8722L373.807 52.0134L373.783 55.0933L359.823 54.9803L359.748 64.26L371.827 64.3578L371.803 67.4377L359.723 67.3399L359.646 76.8196L373.646 76.9329L373.621 80.0128ZM382.98 80.0886L379.5 80.0604L379.727 52.0613L391.446 52.1562C393.846 52.1756 395.72 52.9508 397.068 54.4817C398.442 56.0129 399.119 58.0718 399.098 60.6584C399.077 63.245 398.367 65.2926 396.968 66.8013C395.596 68.2836 393.71 69.015 391.31 68.9956L383.07 68.9289L382.98 80.0886ZM383.182 55.1694L383.095 65.849L390.735 65.9109C392.201 65.9227 393.365 65.4655 394.226 64.5391C395.087 63.586 395.524 62.2828 395.538 60.6296C395.551 58.9496 395.135 57.6395 394.29 56.6993C393.444 55.7325 392.288 55.2431 390.821 55.2312L383.182 55.1694ZM449.57 86.3477L446.371 86.3218L446.417 80.602L414.538 80.344L414.765 52.3449L418.244 52.3731L418.043 77.2923L428.642 77.3781L428.844 52.4589L432.324 52.487L432.122 77.4062L442.722 77.492L442.924 52.5728L446.403 52.601L446.202 77.5202L449.642 77.548L449.57 86.3477ZM458.049 80.6962L454.849 80.6703L455.076 52.6712L458.556 52.6994L458.378 74.6586L472.595 52.813L475.795 52.8389L475.568 80.838L472.089 80.8098L472.266 58.8505L458.049 80.6962ZM486.492 80.9264L483.012 80.8982L483.239 52.8992L503.598 53.064L503.372 81.063L499.892 81.0349L500.093 56.1157L486.694 56.0072L486.492 80.9264ZM511.224 81.1266L508.024 81.1007L508.033 79.9407L518.69 53.1861L522.17 53.2143L532.432 80.1382L532.423 81.2982L528.983 81.2703L526.244 73.8079L514.164 73.7101L511.224 81.1266ZM520.333 57.8396L515.228 70.7587L525.188 70.8393L520.333 57.8396ZM533.993 81.3109L534.019 78.111C536.152 78.1283 537.598 77.3799 538.357 75.866C539.143 74.3257 539.554 71.3689 539.589 66.9957L539.699 53.3562L556.739 53.4941L556.512 81.4932L553.032 81.465L553.234 56.5458L542.954 56.4626L542.866 67.3823C542.824 72.5821 542.101 76.203 540.698 78.2451C539.321 80.314 537.086 81.3359 533.993 81.3109ZM598.543 87.2736L592.223 87.2224L592.267 81.7826L573.588 81.6314L573.814 53.6323L580.694 53.688L580.516 75.6873L588.556 75.7523L588.734 53.7531L595.614 53.8087L595.436 75.808L598.635 75.8339L598.543 87.2736ZM622.308 82.0257L603.509 81.8736L603.735 53.8745L622.455 54.026L622.406 60.0258L610.566 59.93L610.525 65.0498L620.525 65.1307L620.479 70.8106L610.479 70.7296L610.437 75.9295L622.357 76.0259L622.308 82.0257ZM626.079 82.0563L625.439 82.0511L625.49 75.7713L626.13 75.7765C627.89 75.7907 629.001 75.1997 629.464 74.0034C629.954 72.8073 630.214 70.3693 630.244 66.6895L630.346 54.0899L649.745 54.2469L649.518 82.246L642.639 82.1903L642.817 60.191L636.777 60.1421L636.713 67.9819C636.674 72.835 635.792 76.4014 634.067 78.6808C632.368 80.9605 629.706 82.0856 626.079 82.0563ZM669.278 82.4059L656.358 82.3013L656.585 54.3023L663.465 54.358L663.385 64.2776L669.424 64.3265C671.984 64.3472 673.978 65.1634 675.405 66.775C676.832 68.3866 677.534 70.5924 677.511 73.3923C677.489 76.1922 676.751 78.3996 675.298 80.0146C673.844 81.6295 671.838 82.4266 669.278 82.4059ZM663.336 70.2774L663.287 76.3572L668.007 76.3954C668.7 76.401 669.289 76.1525 669.773 75.6497C670.283 75.1472 670.543 74.4026 670.551 73.4159C670.559 72.4293 670.312 71.6673 669.809 71.1299C669.334 70.5927 668.749 70.3212 668.056 70.3156L663.336 70.2774ZM686.957 82.549L680.078 82.4933L680.304 54.4943L687.184 54.5499L686.957 82.549ZM700.099 82.6554L693.779 82.6042L694.006 54.6052L700.885 54.6608L700.759 70.2603L710.085 54.7353L716.405 54.7865L716.178 82.7855L709.299 82.7299L709.425 67.1304L700.099 82.6554ZM698.503 47.4813L698.506 47.1213L703.666 47.1631L703.664 47.4031C703.657 48.2831 704.187 48.7274 705.254 48.736C706.374 48.7451 706.937 48.3096 706.944 47.4296L706.946 47.1897L711.986 47.2304L711.983 47.5904C711.969 49.2704 711.345 50.5987 710.111 51.5754C708.876 52.5521 707.246 53.0323 705.219 53.0159C703.192 52.9995 701.556 52.4929 700.311 51.4961C699.092 50.4995 698.49 49.1613 698.503 47.4813ZM735.696 88.3837L729.376 88.3325L729.469 76.8929L731.989 76.9133C732.744 75.8261 733.301 74.6172 733.658 73.2867C734.042 71.9298 734.244 70.1313 734.262 67.8914L734.367 54.9318L753.646 55.0879L753.468 77.0872L756.668 77.1131L756.575 88.5527L750.255 88.5016L750.299 83.0617L735.74 82.9439L735.696 88.3837ZM738.988 76.97L746.588 77.0315L746.718 61.032L740.638 60.9828L740.581 67.9426C740.55 71.8091 740.019 74.8183 738.988 76.97ZM780.35 83.305L761.55 83.1528L761.777 55.1537L780.496 55.3052L780.448 61.305L768.608 61.2092L768.567 66.329L778.566 66.41L778.52 72.0898L768.521 72.0089L768.479 77.2087L780.398 77.3052L780.35 83.305ZM792.96 83.407L786.081 83.3514L786.307 55.3523L793.187 55.408L793.098 66.4076L801.498 66.4756L801.587 55.4759L808.467 55.5316L808.24 83.5307L801.36 83.475L801.449 72.4754L793.05 72.4074L792.96 83.407ZM827.984 83.6905L815.064 83.586L815.291 55.5869L822.171 55.6426L822.09 65.5622L828.13 65.6111C830.69 65.6318 832.683 66.448 834.11 68.0596C835.537 69.6712 836.24 71.877 836.217 74.6769C836.194 77.4768 835.456 79.6842 834.003 81.2992C832.55 82.9141 830.544 83.7112 827.984 83.6905ZM822.042 71.562L821.992 77.6418L826.712 77.68C827.406 77.6857 827.994 77.4371 828.478 76.9343C828.989 76.4318 829.249 75.6872 829.257 74.7005C829.265 73.7139 829.017 72.9519 828.515 72.4145C828.039 71.8773 827.455 71.6058 826.762 71.6002L822.042 71.562ZM60.5035 126.48L57.0236 126.452L57.125 113.932L52.7251 113.897L45.624 126.36L42.1441 126.331L42.1535 125.171L49.8188 112.193L42.9213 99.4968L42.9307 98.3368L46.0906 98.3624L52.75 110.817L57.1499 110.852L57.2503 98.4527L60.7301 98.4809L60.6298 110.88L65.0296 110.916L71.8898 98.5712L75.0497 98.5968L75.0403 99.7567L67.9382 112.34L75.3924 125.44L75.383 126.6L71.9031 126.572L65.0047 113.996L60.6048 113.96L60.5035 126.48ZM83.8012 126.669L80.4413 126.641L80.6679 98.6423L84.0278 98.6694L92.9526 112.942L102.107 98.8158L105.347 98.842L105.12 126.841L101.761 126.814L101.937 104.975L93.9979 117.231L91.718 117.212L83.9776 104.869L83.8012 126.669ZM130.029 127.043L112.55 126.901L112.776 98.9021L130.216 99.0433L130.191 102.123L116.231 102.01L116.156 111.29L128.236 111.388L128.211 114.468L116.131 114.37L116.054 123.849L130.054 123.963L130.029 127.043ZM139.388 127.118L135.908 127.09L136.135 99.0912L139.615 99.1194L139.514 111.519L153.154 111.629L153.254 99.2298L156.734 99.258L156.508 127.257L153.028 127.229L153.129 114.709L139.489 114.599L139.388 127.118ZM184.149 128.081C180.922 128.055 178.396 127.181 176.57 125.459C174.744 123.711 173.843 121.304 173.868 118.237L173.895 114.957L167.535 114.906L167.434 127.345L163.954 127.317L164.181 99.3182L167.661 99.3464L167.56 111.826L173.919 111.877L173.946 108.558C173.971 105.491 174.924 103.112 176.804 101.42C178.712 99.7025 181.238 98.8563 184.385 98.8817C187.612 98.9079 190.125 99.7816 191.924 101.503C193.75 103.224 194.651 105.632 194.626 108.725L194.547 118.405C194.523 121.445 193.583 123.824 191.729 125.542C189.875 127.26 187.349 128.107 184.149 128.081ZM191.066 118.576L191.147 108.577C191.163 106.63 190.562 105.065 189.345 103.882C188.154 102.699 186.492 102.099 184.359 102.082C182.199 102.064 180.501 102.624 179.265 103.76C178.056 104.897 177.444 106.439 177.428 108.386L177.347 118.385C177.331 120.332 177.932 121.897 179.149 123.08C180.366 124.263 182.041 124.864 184.175 124.881C186.308 124.898 187.979 124.338 189.188 123.201C190.424 122.065 191.05 120.523 191.066 118.576ZM419.909 129.389L407.149 129.286L407.376 101.287L419.136 101.382C421.535 101.401 423.384 102.056 424.68 103.347C425.976 104.611 426.615 106.429 426.596 108.803C426.571 111.816 425.342 113.833 422.907 114.853C426.046 115.785 427.601 118.104 427.571 121.811C427.551 124.264 426.869 126.152 425.525 127.474C424.181 128.77 422.309 129.408 419.909 129.389ZM410.732 116.634L410.654 126.234L419.334 126.304C420.854 126.317 422.017 125.913 422.824 125.093C423.657 124.273 424.08 123.103 424.092 121.583C424.105 120.036 423.701 118.846 422.881 118.013C422.088 117.153 420.932 116.717 419.412 116.705L410.732 116.634ZM410.831 104.395L410.756 113.674L418.516 113.737C419.982 113.749 421.105 113.358 421.885 112.565C422.692 111.744 423.101 110.601 423.113 109.134C423.125 107.641 422.734 106.491 421.941 105.685C421.174 104.879 420.031 104.469 418.511 104.457L410.831 104.395ZM447.658 129.614L436.098 129.52L436.3 104.601L429.58 104.547L429.605 101.467L439.805 101.549L439.714 112.709L447.794 112.774C450.247 112.794 452.161 113.57 453.535 115.101C454.937 116.605 455.627 118.651 455.606 121.238C455.584 123.878 454.874 125.939 453.476 127.421C452.077 128.903 450.138 129.634 447.658 129.614ZM439.689 115.789L439.603 126.468L447.283 126.531C448.749 126.542 449.9 126.085 450.734 125.158C451.595 124.205 452.032 122.889 452.046 121.209C452.059 119.556 451.643 118.259 450.797 117.319C449.952 116.352 448.809 115.863 447.369 115.851L439.689 115.789ZM478.65 129.865L461.171 129.723L461.398 101.724L478.837 101.865L478.812 104.945L464.853 104.832L464.777 114.112L476.857 114.21L476.832 117.289L464.753 117.192L464.676 126.671L478.675 126.785L478.65 129.865ZM497.289 130.015L484.53 129.912L484.756 101.913L496.516 102.008C498.916 102.028 500.764 102.683 502.06 103.973C503.357 105.237 503.995 107.056 503.976 109.429C503.952 112.442 502.722 114.459 500.287 115.479C503.426 116.411 504.981 118.731 504.951 122.437C504.931 124.89 504.249 126.778 502.905 128.101C501.561 129.397 499.689 130.035 497.289 130.015ZM488.112 117.261L488.034 126.86L496.714 126.931C498.234 126.943 499.397 126.539 500.204 125.719C501.037 124.899 501.46 123.729 501.473 122.209C501.485 120.662 501.081 119.472 500.261 118.639C499.468 117.779 498.312 117.343 496.792 117.331L488.112 117.261ZM488.211 105.021L488.136 114.301L495.896 114.364C497.362 114.375 498.486 113.985 499.265 113.191C500.072 112.371 500.481 111.227 500.493 109.761C500.505 108.267 500.115 107.118 499.321 106.311C498.554 105.505 497.411 105.096 495.891 105.083L488.211 105.021ZM542.379 130.38L510.74 130.124L510.966 102.125L514.446 102.153L514.244 127.073L524.844 127.158L525.046 102.239L528.526 102.267L528.324 127.187L538.924 127.272L539.125 102.353L542.605 102.381L542.379 130.38ZM553.001 130.466L549.801 130.44L550.028 102.441L553.507 102.47L553.33 124.429L567.547 102.583L570.747 102.609L570.52 130.608L567.04 130.58L567.218 108.621L553.001 130.466ZM578.884 130.676L575.564 130.649L575.574 129.489L584.76 116.363L576.261 103.814L576.271 102.654L579.791 102.682L586.942 113.661L594.51 102.801L597.79 102.828L597.781 103.988L589.04 116.398L598.093 129.671L598.083 130.831L594.563 130.803L586.818 119.14L578.884 130.676ZM612.644 131.549C609.257 131.522 606.624 130.62 604.745 128.845C602.893 127.043 601.98 124.556 602.006 121.383L602.079 112.343C602.104 109.17 603.058 106.711 604.939 104.966C606.846 103.195 609.493 102.323 612.88 102.35C615.787 102.374 618.207 103.207 620.14 104.849C622.073 106.491 623.028 108.859 623.003 111.952L622.999 112.352L619.52 112.324L619.523 111.924C619.539 109.871 618.872 108.305 617.521 107.228C616.196 106.124 614.627 105.564 612.814 105.55C610.494 105.531 608.703 106.103 607.44 107.266C606.204 108.403 605.578 110.025 605.561 112.131L605.484 121.651C605.467 123.757 606.067 125.402 607.284 126.586C608.528 127.742 610.31 128.33 612.63 128.349C614.443 128.364 616.021 127.83 617.363 126.747C618.731 125.692 619.424 124.137 619.441 122.084L619.444 121.684L622.924 121.712L622.92 122.112C622.895 125.205 621.903 127.557 619.943 129.168C617.983 130.779 615.55 131.573 612.644 131.549ZM630.735 131.096L627.415 131.069L627.425 129.909L633.787 119.8C631.95 119.332 630.545 118.4 629.569 117.006C628.594 115.584 628.115 113.78 628.133 111.594C628.154 108.927 628.865 106.853 630.263 105.371C631.689 103.862 633.682 103.118 636.242 103.139L647.641 103.231L647.415 131.231L643.935 131.202L644.023 120.283L637.383 120.229L630.735 131.096ZM636.808 117.144L644.048 117.203L644.136 106.283L636.897 106.225C635.243 106.211 633.96 106.668 633.045 107.593C632.158 108.52 631.707 109.876 631.692 111.663C631.663 115.289 633.368 117.116 636.808 117.144ZM683.277 131.521L679.797 131.493L679.893 119.613C677.807 120.316 675.711 120.659 673.604 120.642C666.991 120.589 663.707 117.762 663.753 112.162L663.824 103.362L667.304 103.391L667.235 111.83C667.205 115.537 669.417 117.408 673.87 117.444C676.057 117.462 678.073 117.105 679.919 116.373L680.023 103.494L683.503 103.522L683.277 131.521ZM708.213 131.723L690.734 131.581L690.96 103.582L708.4 103.723L708.375 106.803L694.415 106.69L694.34 115.97L706.42 116.068L706.395 119.148L694.315 119.05L694.239 128.529L708.238 128.643L708.213 131.723ZM697.342 100.914L693.902 100.886L693.941 96.166L697.38 96.1938L697.342 100.914ZM705.422 100.979L701.982 100.951L702.02 96.2314L705.46 96.2592L705.422 100.979ZM717.572 131.798L714.092 131.77L714.319 103.771L726.039 103.866C728.439 103.885 730.312 104.661 731.66 106.192C733.034 107.723 733.711 109.782 733.69 112.368C733.669 114.955 732.959 117.002 731.56 118.511C730.188 119.993 728.302 120.725 725.902 120.705L717.663 120.639L717.572 131.798ZM717.774 106.879L717.688 117.559L725.327 117.621C726.794 117.633 727.958 117.175 728.819 116.249C729.68 115.296 730.117 113.993 730.13 112.339C730.144 110.659 729.728 109.349 728.882 108.409C728.036 107.442 726.88 106.953 725.414 106.941L717.774 106.879ZM742.65 132.001L739.17 131.973L739.396 103.974L742.876 104.002L742.776 116.402L756.415 116.512L756.516 104.113L759.996 104.141L759.769 132.14L756.289 132.112L756.39 119.592L742.751 119.482L742.65 132.001ZM778.815 132.294L767.216 132.2L767.442 104.201L770.922 104.229L770.832 115.389L778.952 115.455C781.405 115.475 783.319 116.25 784.693 117.781C786.067 119.286 786.744 121.331 786.723 123.918C786.702 126.558 785.992 128.619 784.593 130.101C783.195 131.583 781.269 132.314 778.815 132.294ZM770.807 118.469L770.72 129.149L778.44 129.211C779.88 129.223 781.017 128.765 781.851 127.839C782.713 126.886 783.15 125.569 783.163 123.889C783.177 122.236 782.761 120.939 781.915 119.999C781.096 119.032 779.967 118.543 778.527 118.531L770.807 118.469ZM794.735 132.423L791.255 132.395L791.481 104.396L794.961 104.424L794.735 132.423ZM803.095 132.491L799.776 132.464L799.785 131.304L808.971 118.178L800.473 105.629L800.482 104.469L804.002 104.497L811.153 115.475L818.722 104.616L822.001 104.643L821.992 105.803L813.251 118.212L822.304 131.486L822.295 132.646L818.775 132.618L811.029 120.955L803.095 132.491ZM840.651 132.795L837.291 132.767L837.518 104.768L840.878 104.796L849.803 119.068L858.957 104.942L862.197 104.968L861.971 132.967L858.611 132.94L858.788 111.101L850.848 123.357L848.568 123.338L840.828 110.995L840.651 132.795ZM879.381 130.508C881.647 130.526 883.425 129.941 884.715 128.751C886.031 127.535 886.698 125.914 886.714 123.887L886.791 114.448C886.807 112.421 886.167 110.802 884.87 109.592C883.6 108.355 881.832 107.727 879.565 107.709C877.272 107.69 875.48 108.289 874.19 109.505C872.901 110.695 872.248 112.303 872.231 114.33L872.155 123.769C872.138 125.796 872.765 127.428 874.035 128.665C875.306 129.875 877.087 130.49 879.381 130.508ZM868.676 123.581L868.75 114.461C868.775 111.342 869.755 108.896 871.69 107.125C873.651 105.354 876.284 104.482 879.591 104.509C882.898 104.536 885.504 105.45 887.409 107.252C889.341 109.055 890.295 111.516 890.269 114.636L890.196 123.755C890.17 126.875 889.177 129.321 887.216 131.092C885.282 132.863 882.661 133.735 879.355 133.708C876.048 133.681 873.429 132.767 871.497 130.964C869.591 129.162 868.651 126.701 868.676 123.581ZM928.382 133.505L896.743 133.249L896.969 105.25L900.449 105.278L900.247 130.197L910.847 130.283L911.049 105.364L914.529 105.392L914.327 130.311L924.927 130.397L925.128 105.478L928.608 105.506L928.382 133.505ZM953.283 133.706L935.804 133.565L936.031 105.566L953.47 105.707L953.445 108.787L939.485 108.674L939.41 117.954L951.49 118.051L951.465 121.131L939.385 121.033L939.309 130.513L953.308 130.626L953.283 133.706ZM962.642 133.782L959.162 133.754L959.389 105.755L962.869 105.783L962.769 118.183L967.248 118.219L975.469 105.885L978.708 105.911L978.699 107.071L970.277 119.603L979.011 132.755L979.002 133.915L975.562 133.887L967.264 121.299L962.744 121.262L962.642 133.782Z" fill="#0F1412"/>
<path d="M229.861 127.851L222.942 127.795L223.031 116.795L220.391 116.774L214.622 127.727L208.062 127.674L208.08 125.434L214.738 113.368L208.95 101.961L208.969 99.6808L214.929 99.729L220.359 110.773L223.079 110.795L223.168 99.7957L230.088 99.8517L229.999 110.851L232.719 110.873L238.328 99.9184L244.288 99.9666L244.269 102.247L238.297 113.559L244.759 125.731L244.741 127.971L238.181 127.918L232.59 116.873L229.95 116.851L229.861 127.851ZM255.186 128.056L248.866 128.005L249.092 100.006L255.972 100.061L255.846 115.661L265.172 100.136L271.492 100.187L271.265 128.186L264.385 128.13L264.512 112.531L255.186 128.056ZM285.002 128.297L278.123 128.241L278.349 100.242L291.349 100.348C293.909 100.368 295.902 101.184 297.329 102.796C298.756 104.408 299.458 106.613 299.436 109.413C299.413 112.213 298.675 114.421 297.222 116.036C295.769 117.651 293.762 118.448 291.202 118.427L285.083 118.377L285.002 128.297ZM285.18 106.298L285.131 112.378L289.931 112.416C290.624 112.422 291.213 112.174 291.697 111.671C292.208 111.168 292.467 110.424 292.475 109.437C292.483 108.45 292.236 107.688 291.734 107.151C291.258 106.614 290.674 106.342 289.98 106.337L285.18 106.298ZM311.212 128.509L304.333 128.454L304.559 100.454L311.439 100.51L311.35 111.51L319.75 111.578L319.839 100.578L326.719 100.634L326.492 128.633L319.612 128.577L319.701 117.578L311.302 117.51L311.212 128.509ZM346.236 128.793L333.316 128.688L333.543 100.689L340.423 100.745L340.342 110.664L346.382 110.713C348.942 110.734 350.935 111.55 352.362 113.162C353.789 114.773 354.492 116.979 354.469 119.779C354.446 122.579 353.708 124.786 352.255 126.401C350.802 128.016 348.796 128.813 346.236 128.793ZM340.294 116.664L340.244 122.744L344.964 122.782C345.658 122.788 346.246 122.539 346.73 122.037C347.241 121.534 347.501 120.789 347.509 119.803C347.516 118.816 347.269 118.054 346.767 117.517C346.291 116.979 345.707 116.708 345.014 116.702L340.294 116.664ZM363.915 128.936L357.035 128.88L357.262 100.881L364.142 100.937L363.915 128.936ZM392.003 101.162L391.984 103.442L384.656 114.343L392.754 126.929L392.736 129.169L385.856 129.113L380.367 120.349L374.697 129.023L368.057 128.969L368.075 126.729L376.375 114.356L369.265 103.258L369.283 100.978L376.163 101.034L380.665 108.271L385.363 101.109L392.003 101.162Z" fill="#FF0000"/>
<path d="M42.4152 181.838L41.1192 181.828L41.1577 177.076L42.3817 177.086C42.8344 176.497 43.2313 175.893 43.5724 175.271C43.9135 174.634 44.209 173.716 44.4587 172.518C44.7244 171.321 44.8631 169.994 44.8749 168.538L44.9314 161.554L54.4351 161.631L54.3093 177.182L56.4692 177.2L56.4307 181.952L55.1348 181.941L55.1631 178.437L42.4435 178.334L42.4152 181.838ZM43.9176 177.098L52.8933 177.171L53.0091 162.867L46.2173 162.812L46.1709 168.548C46.1529 170.772 45.9469 172.498 45.5529 173.727C45.1914 174.908 44.6463 176.032 43.9176 177.098ZM63.8721 178.796C62.3362 178.783 61.1315 178.366 60.2582 177.542C59.3848 176.719 58.9537 175.62 58.9648 174.244L58.9951 170.5C59.0063 169.124 59.4551 168.032 60.3417 167.223C61.2284 166.398 62.4397 165.992 63.9757 166.004C65.4956 166.017 66.6843 166.434 67.5417 167.257C68.399 168.08 68.8221 169.18 68.811 170.555L68.7922 172.883L60.2724 172.814L60.261 174.23C60.2527 175.254 60.5661 176.073 61.2011 176.686C61.8523 177.283 62.7459 177.587 63.8819 177.596C64.9058 177.604 65.7157 177.371 66.3116 176.895C66.9075 176.42 67.2648 175.759 67.3837 174.912L68.6796 174.923C68.5738 176.138 68.1021 177.094 67.2644 177.791C66.4268 178.472 65.2961 178.807 63.8721 178.796ZM60.2913 170.487L60.2818 171.662L67.5055 171.721L67.515 170.545C67.5232 169.537 67.2097 168.734 66.5745 168.137C65.9554 167.524 65.0699 167.213 63.918 167.204C62.798 167.195 61.9156 167.492 61.2707 168.094C60.6259 168.681 60.2994 169.479 60.2913 170.487ZM78.2303 178.624L72.3025 178.576L72.4014 166.36L77.9932 166.406C79.1452 166.415 80.0309 166.694 80.6505 167.243C81.2701 167.792 81.5758 168.571 81.5676 169.579C81.556 171.019 80.9563 171.966 79.7686 172.42C81.3015 172.801 82.0617 173.775 82.049 175.343C82.0402 176.431 81.7055 177.252 81.045 177.807C80.3845 178.361 79.4463 178.634 78.2303 178.624ZM73.6435 173.019L73.6078 177.435L78.1676 177.471C78.9676 177.478 79.5771 177.291 79.9962 176.91C80.4313 176.53 80.6518 175.98 80.6576 175.26C80.6632 174.572 80.4515 174.034 80.0227 173.646C79.5938 173.259 78.9634 173.062 78.1314 173.055L73.6435 173.019ZM73.688 167.523L73.6525 171.915L77.9483 171.949C78.6523 171.955 79.1979 171.76 79.5851 171.363C79.9885 170.95 80.1929 170.408 80.1983 169.736C80.2039 169.048 80.0082 168.518 79.6112 168.147C79.2303 167.76 78.6639 167.563 77.9119 167.557L73.688 167.523ZM86.7465 178.693L85.4505 178.682L85.5494 166.467L86.8453 166.477L86.7626 176.701L94.2851 166.538L95.5811 166.548L95.4822 178.764L94.1862 178.753L94.2688 168.553L86.7465 178.693ZM103.996 179.121C102.46 179.108 101.247 178.722 100.357 177.963C99.4673 177.188 99.0119 176.128 98.9908 174.784L100.239 174.794C100.231 175.754 100.553 176.517 101.204 177.082C101.872 177.631 102.798 177.911 103.982 177.92C105.022 177.929 105.839 177.703 106.435 177.244C107.031 176.785 107.332 176.163 107.338 175.379C107.344 174.708 107.092 174.177 106.583 173.789C106.09 173.385 105.404 173.18 104.524 173.173L102.844 173.159L102.853 172.007L104.533 172.021C105.301 172.027 105.911 171.84 106.362 171.459C106.813 171.079 107.041 170.561 107.047 169.905C107.052 169.169 106.785 168.591 106.245 168.17C105.704 167.75 104.93 167.536 103.922 167.528C102.882 167.519 102.064 167.785 101.467 168.324C100.871 168.863 100.553 169.612 100.513 170.572L99.2409 170.562C99.2838 169.218 99.7243 168.174 100.562 167.428C101.4 166.683 102.547 166.316 104.003 166.328C105.379 166.339 106.457 166.668 107.235 167.314C108.03 167.945 108.424 168.78 108.415 169.82C108.41 170.524 108.205 171.122 107.801 171.615C107.413 172.092 106.89 172.408 106.233 172.562C107 172.713 107.605 173.046 108.049 173.561C108.493 174.077 108.712 174.711 108.706 175.463C108.696 176.615 108.281 177.515 107.46 178.165C106.638 178.814 105.484 179.133 103.996 179.121ZM126.179 179.012L118.404 178.949L118.54 162.15L125.643 162.207C127.211 162.22 128.424 162.63 129.282 163.437C130.155 164.244 130.586 165.391 130.574 166.879C130.561 168.495 129.927 169.642 128.674 170.32C130.364 171.07 131.201 172.405 131.186 174.324C131.173 175.86 130.732 177.033 129.861 177.842C128.991 178.635 127.763 179.025 126.179 179.012ZM121.923 165.153L121.891 169.161L125.395 169.189C125.907 169.194 126.324 169.021 126.647 168.672C126.97 168.322 127.134 167.827 127.139 167.187C127.144 166.548 126.98 166.058 126.647 165.719C126.33 165.365 125.923 165.186 125.427 165.182L121.923 165.153ZM121.868 171.993L121.836 176.001L126.036 176.035C126.532 176.039 126.941 175.866 127.264 175.517C127.603 175.168 127.775 174.673 127.78 174.033C127.785 173.393 127.621 172.904 127.288 172.565C126.971 172.21 126.564 172.031 126.068 172.027L121.868 171.993ZM140.528 179.488C138.416 179.471 136.788 178.93 135.645 177.865C134.517 176.8 133.961 175.307 133.977 173.387L134.021 167.963C134.036 166.043 134.616 164.56 135.761 163.513C136.922 162.467 138.558 161.952 140.67 161.969C142.462 161.983 143.946 162.491 145.121 163.493C146.297 164.494 146.878 165.963 146.862 167.899L146.86 168.139L143.452 168.112L143.454 167.872C143.461 166.976 143.179 166.293 142.607 165.825C142.05 165.34 141.324 165.094 140.428 165.087C138.444 165.071 137.445 165.959 137.431 167.751L137.383 173.655C137.368 175.447 138.353 176.351 140.337 176.367C141.249 176.374 141.987 176.148 142.551 175.689C143.114 175.229 143.4 174.543 143.407 173.631L143.409 173.391L146.817 173.419L146.815 173.659C146.799 175.611 146.196 177.078 145.004 178.06C143.828 179.027 142.336 179.503 140.528 179.488ZM161.269 179.296L150.278 179.207L150.414 162.408L161.357 162.496L161.333 165.472L153.797 165.411L153.765 169.395L160.197 169.447L160.174 172.279L153.742 172.227L153.71 176.259L161.293 176.32L161.269 179.296ZM166.351 179.337L163.087 179.311L163.096 178.183L168.294 170.617L163.694 163.643L163.703 162.515L167.183 162.543L170.427 167.97L173.975 162.598L177.239 162.625L177.23 163.753L172.47 170.627L177.592 178.3L177.583 179.428L174.127 179.4L170.312 173.369L166.351 179.337ZM191.068 179.825C189.532 179.813 188.327 179.395 187.454 178.572C186.58 177.749 186.149 176.649 186.16 175.273L186.197 170.762C186.21 169.146 186.508 167.884 187.092 166.977C187.691 166.054 188.673 165.389 190.036 164.985L192.826 164.191C193.372 164.051 193.749 163.871 193.959 163.648C194.185 163.41 194.299 163.123 194.302 162.787L194.303 162.643L195.599 162.653L195.598 162.797C195.592 163.517 195.412 164.06 195.057 164.425C194.702 164.79 194.035 165.113 193.057 165.393L190.555 166.093C189.432 166.404 188.628 166.901 188.143 167.585C187.657 168.269 187.409 169.227 187.399 170.459L187.397 170.747C188.641 169.317 190.103 168.609 191.782 168.623C193.11 168.634 194.155 169.05 194.916 169.872C195.694 170.678 196.077 171.778 196.066 173.17L196.048 175.33C196.037 176.705 195.588 177.806 194.702 178.631C193.831 179.44 192.62 179.838 191.068 179.825ZM191.077 178.625C192.245 178.635 193.144 178.338 193.773 177.735C194.418 177.116 194.744 176.295 194.753 175.271L194.769 173.255C194.777 172.231 194.488 171.405 193.901 170.776C193.33 170.147 192.541 169.829 191.533 169.821C190.173 169.81 188.823 170.535 187.483 171.996L187.457 175.212C187.449 176.236 187.762 177.062 188.397 177.692C189.048 178.305 189.942 178.616 191.077 178.625ZM205.304 167.148C206.6 167.159 207.629 167.575 208.39 168.397C209.168 169.203 209.551 170.303 209.54 171.695L209.509 175.462C209.498 176.854 209.097 177.955 208.306 178.765C207.532 179.559 206.481 179.95 205.153 179.939C203.489 179.926 202.071 179.226 200.898 177.841L200.852 183.457L199.556 183.446L199.686 167.391L200.502 167.397L200.895 169.249C202.187 167.835 203.656 167.135 205.304 167.148ZM205.019 178.738C206.011 178.746 206.789 178.449 207.354 177.845C207.919 177.226 208.206 176.396 208.214 175.356L208.243 171.78C208.251 170.756 207.97 169.93 207.399 169.301C206.844 168.673 206.087 168.355 205.127 168.347C203.735 168.335 202.345 169.068 200.957 170.545L200.909 176.473C202.273 177.972 203.643 178.727 205.019 178.738ZM216.22 183.581L215.116 183.572L215.12 183.068L216.587 179.744L211.905 168.114L211.91 167.49L213.134 167.5L217.249 178.021L221.486 167.567L222.686 167.577L222.681 168.201L216.22 183.581ZM229.661 179.85L228.365 179.839L228.455 168.776L224.111 168.74L224.12 167.588L234.104 167.669L234.095 168.821L229.751 168.786L229.661 179.85ZM239.595 180.218C238.411 180.209 237.453 179.897 236.722 179.283C235.991 178.653 235.63 177.786 235.639 176.682C235.65 175.434 236.089 174.486 236.959 173.837C237.828 173.172 239.087 172.846 240.735 172.859L244.142 172.887L244.154 171.471C244.161 170.607 243.878 169.924 243.306 169.424C242.751 168.907 241.945 168.645 240.889 168.636C239.865 168.628 239.063 168.869 238.483 169.361C237.903 169.852 237.609 170.506 237.603 171.322L236.331 171.311C236.341 170.127 236.74 169.187 237.53 168.489C238.336 167.776 239.458 167.425 240.898 167.436C242.354 167.448 243.48 167.809 244.274 168.52C245.068 169.23 245.46 170.193 245.45 171.409L245.381 179.977L244.541 179.97L244.123 178.263C243.59 178.818 242.915 179.285 242.096 179.662C241.292 180.04 240.459 180.225 239.595 180.218ZM239.845 179.02C241.301 179.032 242.722 178.379 244.109 177.063L244.133 174.039L240.725 174.011C238.213 173.991 236.95 174.837 236.937 176.548C236.93 177.332 237.189 177.943 237.714 178.379C238.254 178.799 238.965 179.013 239.845 179.02ZM248.191 180L247.879 179.997L247.889 178.797L248.033 178.798C248.961 178.806 249.62 178.403 250.011 177.59C250.401 176.777 250.604 175.467 250.618 173.659L250.666 167.803L259.018 167.871L258.919 180.087L257.623 180.076L257.712 169.012L251.904 168.965L251.867 173.645C251.832 177.901 250.607 180.019 248.191 180ZM269.006 180.168L263.054 180.12L263.153 167.904L264.449 167.915L264.413 172.355L269.069 172.392C270.205 172.402 271.106 172.761 271.772 173.47C272.439 174.164 272.767 175.118 272.757 176.334C272.747 177.534 272.404 178.476 271.726 179.158C271.065 179.841 270.158 180.178 269.006 180.168ZM264.404 173.507L264.359 178.979L268.703 179.014C269.535 179.02 270.201 178.786 270.701 178.31C271.201 177.818 271.454 177.156 271.461 176.324C271.468 175.476 271.225 174.802 270.733 174.302C270.257 173.802 269.603 173.549 268.771 173.542L264.404 173.507ZM276.936 180.232L275.64 180.222L275.738 168.006L277.034 168.017L276.99 173.561L284.189 173.619L284.234 168.075L285.53 168.086L285.431 180.301L284.135 180.291L284.18 174.771L276.98 174.713L276.936 180.232ZM295.273 180.381L289.561 180.335L289.66 168.119L290.956 168.129L290.92 172.569L295.336 172.605C296.472 172.614 297.373 172.974 298.039 173.683C298.706 174.376 299.034 175.331 299.024 176.547C299.014 177.747 298.671 178.688 297.993 179.371C297.332 180.053 296.425 180.39 295.273 180.381ZM290.911 173.721L290.866 179.193L294.97 179.226C295.802 179.233 296.468 178.998 296.968 178.522C297.468 178.03 297.721 177.369 297.728 176.537C297.735 175.689 297.492 175.015 297 174.515C296.524 174.015 295.87 173.761 295.038 173.755L290.911 173.721ZM302.617 180.44L301.321 180.43L301.419 168.214L302.715 168.225L302.617 180.44ZM306.908 180.475L305.78 180.466L305.785 179.842L310.053 174.404L305.898 168.874L305.903 168.25L307.103 168.26L310.877 173.403L314.759 168.322L315.887 168.331L315.882 168.955L311.686 174.369L315.889 179.924L315.884 180.548L314.708 180.538L310.838 175.299L306.908 180.475ZM329.766 180.948C328.23 180.936 327.026 180.518 326.152 179.695C325.279 178.872 324.848 177.772 324.859 176.396L324.896 171.884C324.909 170.268 325.207 169.007 325.79 168.099C326.39 167.176 327.371 166.512 328.734 166.107L331.525 165.314C332.07 165.174 332.448 164.993 332.657 164.771C332.883 164.533 332.998 164.246 333 163.91L333.002 163.766L334.297 163.776L334.296 163.92C334.291 164.64 334.11 165.183 333.755 165.548C333.4 165.913 332.734 166.236 331.755 166.516L329.253 167.215C328.131 167.526 327.327 168.024 326.841 168.708C326.356 169.392 326.108 170.35 326.098 171.582L326.096 171.87C327.339 170.44 328.801 169.732 330.481 169.745C331.809 169.756 332.854 170.173 333.615 170.995C334.393 171.801 334.776 172.9 334.764 174.292L334.747 176.452C334.736 177.828 334.287 178.929 333.4 179.753C332.53 180.562 331.318 180.961 329.766 180.948ZM329.776 179.748C330.944 179.757 331.842 179.461 332.471 178.858C333.116 178.239 333.443 177.418 333.451 176.394L333.468 174.378C333.476 173.354 333.187 172.527 332.6 171.899C332.029 171.27 331.239 170.952 330.231 170.943C328.871 170.932 327.521 171.658 326.182 173.119L326.156 176.335C326.147 177.359 326.461 178.185 327.096 178.814C327.747 179.428 328.64 179.739 329.776 179.748ZM341.428 181.042C340.244 181.033 339.286 180.721 338.555 180.107C337.824 179.477 337.463 178.61 337.472 177.506C337.482 176.258 337.922 175.31 338.791 174.661C339.661 173.996 340.919 173.67 342.567 173.683L345.975 173.711L345.986 172.295C345.993 171.431 345.711 170.749 345.139 170.248C344.583 169.732 343.777 169.469 342.721 169.46C341.697 169.452 340.895 169.694 340.315 170.185C339.735 170.676 339.442 171.33 339.435 172.146L338.164 172.136C338.173 170.952 338.573 170.011 339.362 169.313C340.168 168.6 341.291 168.249 342.731 168.261C344.187 168.272 345.312 168.633 346.106 169.344C346.901 170.054 347.293 171.018 347.283 172.233L347.214 180.801L346.374 180.794L345.956 179.087C345.423 179.643 344.747 180.109 343.928 180.487C343.125 180.864 342.292 181.049 341.428 181.042ZM341.677 179.844C343.133 179.856 344.555 179.204 345.941 177.887L345.966 174.863L342.558 174.835C340.046 174.815 338.783 175.661 338.769 177.373C338.763 178.157 339.022 178.767 339.546 179.203C340.087 179.623 340.797 179.837 341.677 179.844ZM352.496 180.844L351.2 180.833L351.298 168.618L352.594 168.628L352.512 178.852L360.034 168.689L361.33 168.699L361.231 180.915L359.935 180.904L360.018 170.705L352.496 180.844ZM358.973 166.304C358.313 166.891 357.43 167.179 356.326 167.171C355.222 167.162 354.337 166.858 353.67 166.261C353.018 165.664 352.697 164.861 352.705 163.853L352.707 163.565L353.883 163.575L353.881 163.839C353.875 164.559 354.087 165.12 354.516 165.524C354.961 165.911 355.567 166.108 356.335 166.115C357.103 166.121 357.704 165.934 358.14 165.553C358.591 165.157 358.819 164.599 358.825 163.879L358.827 163.615L360.003 163.624L360.001 163.912C359.993 164.92 359.65 165.717 358.973 166.304ZM366.651 180.959L365.355 180.948L365.454 168.732L366.75 168.743L366.706 174.239L369.178 174.259L373.518 168.798L374.598 168.806L374.593 169.43L370.35 174.772L374.696 180.4L374.691 181.024L373.515 181.014L369.216 175.411L366.696 175.391L366.651 180.959ZM381.885 181.37C380.349 181.357 379.145 180.94 378.271 180.117C377.398 179.293 376.967 178.194 376.978 176.818L377.008 173.074C377.019 171.698 377.468 170.606 378.355 169.797C379.241 168.972 380.453 168.566 381.989 168.578C383.509 168.591 384.697 169.008 385.555 169.831C386.412 170.654 386.835 171.754 386.824 173.13L386.805 175.457L378.285 175.389L378.274 176.804C378.266 177.828 378.579 178.647 379.214 179.26C379.865 179.857 380.759 180.161 381.895 180.17C382.919 180.178 383.729 179.945 384.325 179.47C384.92 178.994 385.278 178.333 385.397 177.486L386.693 177.497C386.587 178.712 386.115 179.668 385.277 180.365C384.44 181.047 383.309 181.381 381.885 181.37ZM378.304 173.061L378.295 174.237L385.519 174.295L385.528 173.119C385.536 172.111 385.223 171.309 384.588 170.711C383.968 170.098 383.083 169.787 381.931 169.778C380.811 169.769 379.929 170.066 379.284 170.668C378.639 171.255 378.312 172.053 378.304 173.061ZM396.033 168.692C397.328 168.702 398.357 169.119 399.119 169.941C399.896 170.747 400.279 171.846 400.268 173.238L400.237 177.006C400.226 178.398 399.825 179.499 399.035 180.309C398.26 181.102 397.209 181.494 395.881 181.483C394.217 181.47 392.799 180.77 391.626 179.385L391.58 185L390.284 184.99L390.414 168.934L391.23 168.941L391.623 170.792C392.915 169.379 394.385 168.679 396.033 168.692ZM395.747 180.282C396.739 180.29 397.517 179.992 398.082 179.389C398.647 178.769 398.934 177.94 398.942 176.9L398.971 173.324C398.979 172.3 398.698 171.474 398.127 170.845C397.572 170.216 396.815 169.898 395.855 169.891C394.463 169.879 393.073 170.612 391.685 172.089L391.637 178.017C393.001 179.516 394.371 180.271 395.747 180.282ZM408.378 180.384C409.546 180.394 410.445 180.097 411.074 179.494C411.719 178.875 412.045 178.054 412.054 177.03L412.083 173.406C412.091 172.382 411.778 171.563 411.143 170.95C410.524 170.321 409.63 170.002 408.462 169.993C407.327 169.983 406.428 170.288 405.767 170.907C405.122 171.526 404.795 172.339 404.787 173.347L404.758 176.971C404.75 177.995 405.063 178.821 405.698 179.451C406.349 180.064 407.242 180.375 408.378 180.384ZM408.369 181.584C406.817 181.572 405.604 181.154 404.731 180.331C403.873 179.492 403.45 178.384 403.462 177.008L403.492 173.288C403.503 171.929 403.944 170.836 404.814 170.011C405.701 169.186 406.92 168.78 408.472 168.793C410.04 168.805 411.253 169.231 412.11 170.07C412.967 170.909 413.39 172.009 413.379 173.369L413.349 177.088C413.338 178.464 412.897 179.565 412.026 180.39C411.156 181.199 409.937 181.597 408.369 181.584ZM422.821 181.413L416.893 181.365L416.992 169.15L422.583 169.195C423.735 169.204 424.621 169.483 425.241 170.032C425.86 170.581 426.166 171.36 426.158 172.368C426.146 173.808 425.547 174.755 424.359 175.209C425.892 175.59 426.652 176.564 426.639 178.132C426.63 179.22 426.296 180.041 425.635 180.596C424.975 181.151 424.037 181.423 422.821 181.413ZM418.234 175.808L418.198 180.224L422.758 180.261C423.558 180.267 424.167 180.08 424.587 179.699C425.022 179.319 425.242 178.769 425.248 178.049C425.253 177.361 425.042 176.823 424.613 176.436C424.184 176.048 423.554 175.851 422.722 175.844L418.234 175.808ZM418.278 170.312L418.243 174.704L422.539 174.739C423.243 174.744 423.788 174.549 424.175 174.152C424.579 173.739 424.783 173.197 424.789 172.525C424.794 171.837 424.598 171.307 424.201 170.936C423.821 170.549 423.254 170.352 422.502 170.346L418.278 170.312Z" fill="#0F1412"/>
</svg>
