<svg width="2063" height="104" viewBox="0 0 2063 104" fill="none" xmlns="http://www.w3.org/2000/svg">
<path opacity="0.2" d="M11.7602 103.92H0.000195366V99.1199L34.4402 -8.214e-05H46.2002V4.79992L11.7602 103.92ZM47.1414 103.92H35.3814V99.1199L69.8214 -8.214e-05H81.5814V4.79992L47.1414 103.92ZM82.5227 103.92H70.7627V99.1199L105.203 -8.214e-05H116.963V4.79992L82.5227 103.92ZM117.904 103.92H106.144V99.1199L140.584 -8.214e-05H152.344V4.79992L117.904 103.92ZM153.285 103.92H141.525V99.1199L175.965 -8.214e-05H187.725V4.79992L153.285 103.92ZM188.666 103.92H176.906V99.1199L211.346 -8.214e-05L223.106 -8.214e-05V4.79992L188.666 103.92ZM224.048 103.92H212.288V99.1199L246.728 -8.214e-05H258.488V4.79992L224.048 103.92ZM259.429 103.92H247.669V99.1199L282.109 -8.214e-05L293.869 -8.214e-05V4.79992L259.429 103.92ZM294.81 103.92H283.05V99.1199L317.49 -8.214e-05H329.25V4.79992L294.81 103.92ZM330.191 103.92H318.431V99.1199L352.871 -8.214e-05H364.631V4.79992L330.191 103.92ZM365.573 103.92H353.813V99.1199L388.253 -8.214e-05H400.013V4.79992L365.573 103.92ZM400.954 103.92H389.194V99.1199L423.634 -8.214e-05H435.394V4.79992L400.954 103.92ZM436.335 103.92H424.575V99.1199L459.015 -8.214e-05H470.775V4.79992L436.335 103.92ZM471.716 103.92H459.956V99.1199L494.396 -8.214e-05H506.156V4.79992L471.716 103.92ZM507.098 103.92H495.338V99.1199L529.778 -8.214e-05L541.538 -8.214e-05V4.79992L507.098 103.92ZM542.479 103.92H530.719V99.1199L565.159 -8.214e-05H576.919V4.79992L542.479 103.92ZM577.86 103.92H566.1V99.1199L600.54 -8.214e-05L612.3 -8.214e-05V4.79992L577.86 103.92ZM613.241 103.92H601.481V99.1199L635.921 -8.214e-05H647.681V4.79992L613.241 103.92ZM648.623 103.92H636.863V99.1199L671.303 -8.214e-05H683.063V4.79992L648.623 103.92ZM684.004 103.92H672.244V99.1199L706.684 -8.214e-05H718.444V4.79992L684.004 103.92ZM719.385 103.92H707.625V99.1199L742.065 -8.214e-05H753.825V4.79992L719.385 103.92ZM754.766 103.92H743.006V99.1199L777.446 -8.214e-05H789.206V4.79992L754.766 103.92ZM790.148 103.92H778.388V99.1199L812.828 -8.214e-05H824.588V4.79992L790.148 103.92ZM825.529 103.92H813.769V99.1199L848.209 -8.214e-05L859.969 -8.214e-05V4.79992L825.529 103.92ZM860.91 103.92H849.15V99.1199L883.59 -8.214e-05H895.35V4.79992L860.91 103.92ZM896.291 103.92H884.531V99.1199L918.971 -8.214e-05L930.731 -8.214e-05V4.79992L896.291 103.92ZM931.673 103.92H919.913V99.1199L954.353 -8.214e-05H966.113V4.79992L931.673 103.92ZM967.054 103.92H955.294V99.1199L989.734 -8.214e-05H1001.49V4.79992L967.054 103.92ZM1002.44 103.92H990.675V99.1199L1025.12 -8.214e-05H1036.88V4.79992L1002.44 103.92ZM1037.82 103.92H1026.06V99.1199L1060.5 -8.214e-05H1072.26V4.79992L1037.82 103.92ZM1073.2 103.92H1061.44V99.1199L1095.88 -8.214e-05H1107.64V4.79992L1073.2 103.92ZM1108.58 103.92H1096.82V99.1199L1131.26 -8.214e-05H1143.02V4.79992L1108.58 103.92ZM1143.96 103.92H1132.2V99.1199L1166.64 -8.214e-05H1178.4V4.79992L1143.96 103.92ZM1179.34 103.92H1167.58V99.1199L1202.02 -8.214e-05H1213.78V4.79992L1179.34 103.92ZM1214.72 103.92H1202.96V99.1199L1237.4 -8.214e-05L1249.16 -8.214e-05V4.79992L1214.72 103.92ZM1250.1 103.92H1238.34V99.1199L1272.78 -8.214e-05H1284.54V4.79992L1250.1 103.92ZM1285.49 103.92H1273.73V99.1199L1308.17 -8.214e-05H1319.93V4.79992L1285.49 103.92ZM1320.87 103.92H1309.11V99.1199L1343.55 -8.214e-05H1355.31V4.79992L1320.87 103.92ZM1356.25 103.92H1344.49V99.1199L1378.93 -8.214e-05H1390.69V4.79992L1356.25 103.92ZM1391.63 103.92H1379.87V99.1199L1414.31 -8.214e-05H1426.07V4.79992L1391.63 103.92ZM1427.01 103.92H1415.25V99.1199L1449.69 -8.214e-05H1461.45V4.79992L1427.01 103.92ZM1462.39 103.92H1450.63V99.1199L1485.07 -8.214e-05H1496.83V4.79992L1462.39 103.92ZM1497.77 103.92H1486.01V99.1199L1520.45 -8.214e-05H1532.21V4.79992L1497.77 103.92ZM1533.15 103.92H1521.39V99.1199L1555.83 -8.214e-05L1567.59 -8.214e-05V4.79992L1533.15 103.92ZM1568.54 103.92H1556.78V99.1199L1591.22 -8.214e-05H1602.98V4.79992L1568.54 103.92ZM1603.92 103.92H1592.16V99.1199L1626.6 -8.214e-05L1638.36 -8.214e-05V4.79992L1603.92 103.92ZM1639.3 103.92H1627.54V99.1199L1661.98 -8.214e-05H1673.74V4.79992L1639.3 103.92ZM1674.68 103.92H1662.92V99.1199L1697.36 -8.214e-05H1709.12V4.79992L1674.68 103.92ZM1710.06 103.92H1698.3V99.1199L1732.74 -8.214e-05H1744.5V4.79992L1710.06 103.92ZM1745.44 103.92H1733.68V99.1199L1768.12 -8.214e-05H1779.88V4.79992L1745.44 103.92ZM1780.82 103.92H1769.06V99.1199L1803.5 -8.214e-05H1815.26V4.79992L1780.82 103.92ZM1816.2 103.92H1804.44V99.1199L1838.88 -8.214e-05H1850.64V4.79992L1816.2 103.92ZM1851.59 103.92H1839.83V99.1199L1874.27 -8.214e-05L1886.03 -8.214e-05V4.79992L1851.59 103.92ZM1886.97 103.92H1875.21V99.1199L1909.65 -8.214e-05H1921.41V4.79992L1886.97 103.92ZM1922.35 103.92H1910.59V99.1199L1945.03 -8.214e-05L1956.79 -8.214e-05V4.79992L1922.35 103.92ZM1957.73 103.92H1945.97V99.1199L1980.41 -8.214e-05H1992.17V4.79992L1957.73 103.92ZM1993.11 103.92H1981.35V99.1199L2015.79 -8.214e-05H2027.55V4.79992L1993.11 103.92ZM2028.49 103.92H2016.73V99.1199L2051.17 -8.214e-05H2062.93V4.79992L2028.49 103.92Z" fill="black"/>
</svg>
