<svg width="266" height="266" viewBox="0 0 266 266" fill="none" xmlns="http://www.w3.org/2000/svg">
<path d="M95.8681 5.93147C96.2192 -0.265337 104.39 -2.24965 107.544 3.0959L129.721 40.6794C132.084 44.6848 137.83 44.8202 140.379 40.9306L164.301 4.4332C167.704 -0.757861 175.772 1.60909 175.831 7.81556L176.245 51.4521C176.289 56.1026 181.197 59.0927 185.35 56.999L224.316 37.3523C229.858 34.5579 235.662 40.6419 232.609 46.0463L211.149 84.0435C208.862 88.0929 211.618 93.1367 216.261 93.3997L259.83 95.8681C266.027 96.2192 268.011 104.39 262.665 107.544L225.082 129.721C221.076 132.084 220.941 137.83 224.831 140.379L261.328 164.301C266.519 167.704 264.152 175.772 257.946 175.831L214.309 176.245C209.659 176.289 206.668 181.197 208.762 185.35L228.409 224.316C231.203 229.858 225.119 235.662 219.715 232.609L181.718 211.149C177.668 208.862 172.625 211.618 172.361 216.261L169.893 259.83C169.542 266.027 161.371 268.011 158.217 262.665L136.04 225.082C133.677 221.076 127.931 220.941 125.382 224.831L101.46 261.328C98.0574 266.519 89.989 264.152 89.9302 257.946L89.5166 214.309C89.4725 209.659 84.5641 206.668 80.4114 208.762L41.4457 228.409C35.9036 231.203 30.0997 225.119 33.152 219.715L54.612 181.718C56.8991 177.668 54.1434 172.624 49.5002 172.361L5.9315 169.893C-0.265315 169.542 -2.24963 161.371 3.09592 158.217L40.6795 136.04C44.6848 133.677 44.8202 127.931 40.9306 125.382L4.43322 101.46C-0.757843 98.0573 1.60911 89.989 7.81558 89.9302L51.4522 89.5165C56.1026 89.4725 59.0928 84.5641 56.999 80.4114L37.3523 41.4457C34.5579 35.9035 40.6419 30.0996 46.0463 33.1519L84.0435 54.612C88.093 56.899 93.1367 54.1434 93.3998 49.5001L95.8681 5.93147Z" fill="#D80000"/>
</svg>
