<svg width="371" height="217" viewBox="0 0 371 217" fill="none" xmlns="http://www.w3.org/2000/svg">
<path d="M82.8881 90.03L20.9037 85.6956L21.8685 71.8977L83.853 76.2321L82.8881 90.03Z" fill="#282828"/>
<path d="M108.727 75.945L90.7901 74.6907L91.8886 58.9823L109.826 60.2366L108.727 75.945Z" fill="#282828"/>
<path d="M176.381 96.5676L114.396 92.2332L115.361 78.4353L177.345 82.7697L176.381 96.5676Z" fill="#282828"/>
<path d="M208.722 20.0098L195.56 19.0894L188.345 9.41237L188.745 3.68094L203.711 4.72742L208.722 20.0098Z" fill="#282828"/>
<path d="M233.259 0.927499L255.126 90.8751L254.711 96.8188L241.337 95.8837L219.576 5.94348L219.992 -0.000235994L233.259 0.927499Z" fill="#282828"/>
<path d="M328.435 107.2L266.451 102.866L267.416 89.068L329.4 93.4024L328.435 107.2Z" fill="#282828"/>
<path d="M19.3561 112.998L15.1776 172.754C15.0688 174.31 15.336 175.573 15.9792 176.543C16.6932 177.517 17.7578 178.054 19.173 178.153L22.0387 178.353L20.9774 193.531L18.6424 193.367C11.9911 192.902 7.1164 190.926 4.01835 187.439C0.920309 183.951 -0.386267 178.74 0.0986291 171.806L4.27715 112.05C5.22715 98.4648 12.3534 92.1371 25.656 93.0673L27.9911 93.2306L26.9298 108.408L24.064 108.208C22.6489 108.109 21.5199 108.492 20.6773 109.358C19.9054 110.228 19.465 111.441 19.3561 112.998Z" fill="#282828"/>
<path d="M58.8716 165.25C61.419 165.428 63.4398 165.001 64.9341 163.968C66.4334 162.864 67.2474 161.392 67.376 159.552L68.4819 143.738C68.6155 141.827 68.0167 140.221 66.6857 138.919C65.3546 137.617 63.4154 136.877 60.8681 136.699C58.1793 136.511 56.0852 136.969 54.586 138.073C53.0867 139.177 52.2702 140.684 52.1366 142.595L51.0308 158.409C50.9021 160.249 51.5033 161.82 52.8344 163.121C54.1704 164.353 56.1828 165.062 58.8716 165.25ZM57.8177 180.322C49.8928 179.768 43.8679 177.462 39.7431 173.405C35.6233 169.277 33.7835 164.065 34.2239 157.767L35.4263 140.573C35.8617 134.346 38.404 129.511 43.0533 126.068C47.7783 122.558 54.0678 121.078 61.922 121.627C69.847 122.182 75.8315 124.556 79.8757 128.749C83.9247 132.872 85.7365 137.976 85.311 144.061L84.1087 161.255C83.6683 167.553 81.121 172.459 76.4668 175.973C71.8175 179.416 65.6012 180.866 57.8177 180.322Z" fill="#282828"/>
<path d="M100.934 178.75L105.112 118.995C105.221 117.438 104.918 116.173 104.204 115.198C103.561 114.229 102.532 113.695 101.117 113.596L98.251 113.396L99.3123 98.2178L101.647 98.3811C114.95 99.3113 121.126 106.569 120.176 120.155L115.998 179.91C115.513 186.845 113.494 191.823 109.941 194.845C106.387 197.868 101.285 199.146 94.6337 198.681L92.2987 198.518L93.36 183.34L96.2257 183.541C97.6409 183.64 98.7344 183.254 99.5063 182.384C100.349 181.518 100.825 180.307 100.934 178.75Z" fill="#282828"/>
<path d="M154.913 185.831L139.842 184.777L140.257 178.834L164.68 127L147.592 125.805L147.11 132.704L131.72 131.628L133.256 109.657L182.822 113.123L181.835 127.24L154.913 185.831Z" fill="#282828"/>
<path d="M206.806 148.184L192.583 147.189L192.999 141.246L210.546 114.529L224.45 115.501L238.107 144.4L237.692 150.344L223.469 149.349L216.116 134.01L206.806 148.184Z" fill="#282828"/>
<path d="M270.086 130.531L265.907 190.286C265.799 191.843 266.066 193.106 266.709 194.076C267.423 195.05 268.488 195.586 269.903 195.685L272.768 195.886L271.707 211.063L269.372 210.9C262.721 210.435 257.846 208.459 254.748 204.971C251.65 201.484 250.343 196.273 250.828 189.339L255.007 129.583C255.957 115.998 263.083 109.67 276.386 110.6L278.721 110.763L277.659 125.941L274.794 125.741C273.379 125.642 272.25 126.025 271.407 126.89C270.635 127.761 270.195 128.974 270.086 130.531Z" fill="#282828"/>
<path d="M309.601 182.783C312.149 182.961 314.17 182.533 315.664 181.5C317.163 180.396 317.977 178.925 318.106 177.085L319.212 161.27C319.345 159.36 318.746 157.754 317.415 156.452C316.084 155.15 314.145 154.41 311.598 154.232C308.909 154.044 306.815 154.502 305.316 155.606C303.816 156.71 303 158.217 302.866 160.127L301.761 175.942C301.632 177.782 302.233 179.352 303.564 180.654C304.9 181.885 306.913 182.595 309.601 182.783ZM308.547 197.854C300.623 197.3 294.598 194.995 290.473 190.938C286.353 186.81 284.513 181.597 284.954 175.3L286.156 158.106C286.591 151.879 289.134 147.044 293.783 143.6C298.508 140.091 304.798 138.611 312.652 139.16C320.577 139.714 326.561 142.088 330.605 146.282C334.654 150.405 336.466 155.509 336.041 161.594L334.838 178.788C334.398 185.086 331.851 189.991 327.197 193.506C322.547 196.949 316.331 198.399 308.547 197.854Z" fill="#282828"/>
<path d="M351.663 196.283L355.842 136.528C355.951 134.971 355.648 133.705 354.934 132.731C354.291 131.762 353.262 131.228 351.846 131.129L348.981 130.928L350.042 115.751L352.377 115.914C365.68 116.844 371.856 124.102 370.906 137.688L366.728 197.443C366.243 204.378 364.224 209.356 360.67 212.378C357.117 215.401 352.015 216.679 345.363 216.214L343.028 216.051L344.09 200.873L346.955 201.073C348.371 201.172 349.464 200.787 350.236 199.916C351.079 199.051 351.555 197.84 351.663 196.283Z" fill="#282828"/>
</svg>
