<svg width="479" height="455" viewBox="0 0 479 455" fill="none" xmlns="http://www.w3.org/2000/svg">
<path d="M348.886 182.058L351.859 188.206C361.249 207.623 360.985 230.476 351.117 252.541L311.312 341.574L216.806 317.495C193.381 311.531 175.304 297.548 165.914 278.131L164.17 274.526C164.133 274.544 164.088 274.581 164.056 274.613C159.584 278.274 155.223 282.069 150.986 285.959C162.552 309.521 184.716 326.724 212.644 333.836L320.91 361.42L366.511 259.425C378.361 232.935 378.552 204.671 367.039 180.865L365.729 178.158C364.419 178.417 363.114 178.689 361.803 178.98C357.518 179.897 353.193 180.928 348.886 182.058Z" fill="white"/>
<path d="M358.578 155.723L359.107 155.202L358.802 154.991L358.03 155.816C358.213 155.775 358.39 155.752 358.578 155.723Z" fill="#0F1412"/>
<path d="M427.747 192.266L431.742 188.946L427.962 182.88C424.049 176.6 418.986 170.884 413.139 166.067L413.363 165.959L414.069 161.793C414.424 159.7 413.984 155.616 411.323 152.947C411.005 152.629 410.612 152.165 410.156 151.645C406.946 147.971 402.549 142.941 396.533 142.943C394.431 142.94 392.802 143.603 392.008 143.924C391.508 144.128 390.961 144.314 390.403 144.507C389.16 144.937 387.752 145.424 386.299 146.127C385.055 146.729 383.977 147.414 383.014 148.176C381.49 148.067 379.952 148.052 378.389 148.131L378.544 147.083C373.101 144.869 367.361 144.137 361.943 144.966C359.164 145.392 356.588 146.191 354.067 147.41C351.107 148.841 348.686 150.644 346.465 152.293C346.291 152.423 346.138 152.55 345.97 152.678C345.308 149.715 344.25 146.832 342.79 144.138L339.293 137.678L323.538 144.106C323.237 144.229 322.942 144.361 322.652 144.501C318.664 146.43 315.704 150.003 314.532 154.3C313.952 156.429 313.244 158.54 312.43 160.579C311.145 163.801 309.562 166.925 307.724 169.867L301.141 180.404C301.076 180.384 301.009 180.369 300.945 180.35C294.441 178.389 287.079 174.253 285.767 172.333C283.265 167.385 278.564 167.69 274.017 167.986C271.789 168.131 269.025 168.344 266.826 168.513C265.21 168.637 263.926 168.739 263.583 168.756C261.931 168.797 260.234 168.895 258.593 168.991C257.935 169.03 257.276 169.068 256.617 169.102L258.816 165.307L246.547 163.863C246.077 162.602 245.682 161.774 245.667 161.75C242.659 156.436 236.874 154.508 231.601 157.058C230.401 157.638 229.333 158.403 228.382 159.245L223.087 154.977C223.962 153.894 224.924 153.29 225.577 152.974C226.11 152.716 226.471 152.633 226.486 152.63C225.988 152.742 224.532 152.859 223.833 152.916C222.94 152.987 222.235 153.044 221.578 153.157L215.141 154.259C214.259 154.369 212.286 154.33 210.058 154.196C209.852 153.045 209.507 151.906 209.019 150.809C207.199 146.704 203.626 143.675 199.462 142.704L194.66 141.585L191.685 145.005L190.606 131.205L193.772 124.49C195.376 121.09 196.702 117.59 197.716 114.089C198.195 112.438 199.109 110.16 200.757 108.678C200.893 108.555 201.4 108.127 202.25 107.716C202.859 107.421 203.388 107.263 203.768 107.188C206.502 112.051 211.367 115.289 216.914 115.901L222.448 116.512C225.695 116.87 228.965 116.308 231.906 114.885C238.399 111.745 242.259 104.899 241.511 97.846C241.232 95.2113 240.372 92.8935 238.955 90.9406C239.512 90.846 240.077 90.7268 240.649 90.5764C241.407 90.3775 242.186 90.0857 242.966 89.7085C246.583 87.9595 251.083 84.0439 251.865 78.7623C252.381 75.2795 251.176 71.899 248.557 69.4873C242.999 64.3695 235.738 67.4007 231.837 69.0284C231.349 69.2322 230.683 69.5095 230.529 69.5621C223.786 71.3994 216.675 71.5932 209.966 70.1232L208.981 69.9019C205.796 69.1744 201.433 68.178 196.752 69.6217C196.115 69.8177 195.484 70.0667 194.874 70.3614C191.716 71.8888 189.214 74.5733 187.919 77.7426C187.916 77.744 187.912 77.7457 187.911 77.7465C181.602 80.7973 178.127 87.4565 176.788 93.1632L176.219 92.9872C171.745 103.616 169.12 114.85 168.399 126.234C168.286 126.141 168.171 126.05 168.056 125.959L168.497 118.286L164.379 117.703C164.074 116.97 163.698 116.238 163.181 115.525C160.074 111.258 155.17 111.496 152.535 111.625C152.162 111.642 151.598 111.669 151.406 111.661L149.387 111.544L147.546 112.381C147.241 112.52 146.949 112.657 146.672 112.791C140.167 115.936 137.597 120.287 138.315 127.13C137.421 127.972 136.441 128.821 135.424 129.7C134.586 130.426 133.746 131.153 132.926 131.898C131.855 132.869 131.222 133.864 130.882 134.399L130.865 134.432L124.366 143.502L134.692 146.898C137.5 148.171 140.149 148.224 142.564 147.056L143.21 146.741L143.77 146.343C145.221 145.312 146.79 144.189 148.421 143C148.099 147.946 147.98 152.906 148.089 157.864L148.2 163.014L147.894 163.817L147.622 164.25L147.68 164.287L144.538 170.835L138.882 164.753C135.165 167.084 132.317 170.595 130.863 174.64C128.381 181.545 130.49 188.314 133.281 192.33C135.021 194.847 137.641 197.405 140.783 198.997C140.31 200.58 140.025 202.271 140.13 204.067L137.122 204.391L133.227 234.966C129.764 235.45 126.365 236.196 123.064 237.199C120.047 238.117 116.294 239.259 112.409 241.137C111.906 241.381 111.431 241.644 110.947 241.902L110.753 241.89L108.521 243.287C108.409 243.357 108.305 243.433 108.193 243.505C107.933 243.672 107.679 243.843 107.426 244.016C107.01 244.297 106.604 244.586 106.206 244.882C105.996 245.038 105.783 245.193 105.578 245.353C105.084 245.738 104.605 246.134 104.14 246.542C104.048 246.622 103.95 246.699 103.859 246.78C103.311 247.271 102.787 247.778 102.283 248.299C102.136 248.45 101.998 248.608 101.855 248.762C101.5 249.144 101.154 249.531 100.822 249.927C100.66 250.12 100.503 250.315 100.347 250.511C100.035 250.904 99.7358 251.304 99.4455 251.71C99.3139 251.895 99.1793 252.076 99.0525 252.263C98.6514 252.853 98.2662 253.455 97.9103 254.073C97.2471 255.229 96.2692 257.928 95.9071 258.953C95.844 259.131 95.7943 259.274 95.7737 259.333C94.9541 261.706 93.8393 264.962 94.7202 268.09C94.746 268.182 94.7637 268.274 94.7927 268.365C94.8019 268.393 94.8158 268.422 94.8253 268.451C95.1714 269.492 95.7476 270.514 96.6474 271.48C96.6555 271.489 96.6658 271.496 96.6747 271.505C96.968 271.818 97.2796 272.106 97.608 272.362C92.7635 278.913 89.1696 286.257 87.0939 294.009L74.919 290.288C70.9058 299.854 69.1037 309.608 69.5631 319.279C70.68 342.819 84.9877 361.183 89.3798 363.798C91.8072 365.243 94.753 365.386 97.2585 364.178L97.4321 364.094L99.2653 363.095C106.123 376.243 117.655 386.324 132.155 391.697C147.977 397.56 165.369 396.901 179.869 389.888C185.825 387.008 191.196 383.119 195.835 378.331C211.595 362.06 218.653 336.683 215.122 312.488L223.789 310.376C227.408 313.561 231.403 315.963 235.712 317.541C247.976 322.036 257.29 318.073 271.385 312.074C276.647 309.834 282.61 307.296 290.066 304.553C299.808 300.968 306.656 299.034 313.279 297.163C322.918 294.442 332.022 291.872 347.137 284.839C348.474 284.218 349.752 283.61 350.965 283.024C353.157 281.963 355.351 280.867 357.517 279.75C358.157 279.955 358.794 280.166 359.425 280.378C360.911 280.877 362.389 281.39 363.864 281.9C377.788 286.724 393.57 292.194 410.047 284.227C410.049 284.226 410.05 284.226 410.051 284.225C411.208 283.666 412.37 283.037 413.502 282.358C428.288 273.496 438.46 256.301 439.417 238.552C439.877 230.042 438.733 221.283 435.973 212.14L438.219 211.054L429.912 193.878L428.825 194.404C428.47 193.694 428.119 192.983 427.747 192.266ZM178.547 344.144C175.939 348.622 172.846 351.958 169.109 354.317L166.355 352.092L165.058 352.86L163.804 345.649L167.26 346.515L170.051 350.406L172.02 347.708L172.585 347.849L172.565 346.962L176.536 341.519C176.807 341.213 177.218 340.716 177.619 340.034C178.562 340.037 179.656 339.915 180.814 339.522C180.164 341.127 179.409 342.662 178.547 344.144ZM189.92 252.035C187.421 249.763 184.947 247.949 182.468 246.571C183.14 244.262 183.784 241.575 183.839 238.616C185.992 243.067 188.036 247.514 189.92 252.035ZM304.127 181.147L310.689 181.966C308.411 181.86 306.228 181.583 304.127 181.147Z" fill="#0F1412"/>
<path d="M88.7935 290.402C86.2275 296.519 83.5678 305.34 84.066 315.836C85.111 337.869 99.4384 354.056 100.021 353.741C100.484 353.491 92.2887 342.791 88.6816 325.262C85.8068 311.294 87.0846 299.015 88.7935 290.402Z" fill="white"/>
<path d="M343.103 165.881C343.897 163.917 344.899 160.721 344.899 156.697C344.898 151.175 343.011 147.019 341.907 144.98L332.949 148.635C330.881 149.479 329.343 151.243 328.755 153.398C328.15 155.619 327.371 158.025 326.36 160.557C324.676 164.776 322.763 168.313 320.991 171.149C322.886 171.386 325.083 171.492 327.511 171.299C334.633 170.734 340.019 167.887 343.103 165.881Z" fill="white"/>
<path d="M154.464 189.225C157.423 188.511 159.069 184.936 158.764 184.64C158.48 184.367 156.724 187.132 154.176 187.124C150.923 187.114 147.719 182.588 146.998 178.416C146.154 173.529 148.809 169.652 149.554 168.637C148.673 169.189 146.115 170.953 144.892 174.355C142.996 179.629 146.005 184.132 146.338 184.614C146.554 184.925 150.327 190.225 154.464 189.225Z" fill="white"/>
<path d="M358.263 163.088C366.005 153.625 377.733 151.988 381.778 151.614C377.879 150.028 373.685 149.367 369.503 150.006C364.395 150.788 361.16 153.218 357.675 155.81C354.03 158.52 353.377 160.067 353.145 160.733C351.867 164.378 353.91 167.987 354.539 169.013C355.44 167.094 356.643 165.067 358.263 163.088Z" fill="white"/>
<path d="M145.345 136.607C149.088 133.949 152.806 131.251 156.417 128.419C156.909 128.034 156.782 126.872 156.964 126.074C157.636 123.128 159.839 122.346 161.982 124.236C162.179 124.41 162.782 124.203 163.152 124.059C163.286 124.007 163.352 123.619 163.346 123.388C163.282 121.298 163.897 118.697 162.875 117.292C162.146 116.29 159.207 116.896 157.254 116.784C152.819 118.8 152.183 120.077 152.965 124.512C153.178 125.716 152.762 127.467 151.956 128.331C149.744 130.701 147.159 132.722 144.748 134.91C144.377 135.246 144.141 135.732 143.842 136.149C144.354 136.316 145.084 136.792 145.345 136.607Z" fill="white"/>
<path d="M406.944 158.684C409.55 160.247 410.591 157.997 412.302 157.385C412.359 157.365 412.218 156.054 411.84 155.673C409.95 153.777 405.796 148.077 402.846 148.078C402.351 148.078 401.878 148.268 401.42 148.455C398.872 149.493 395.428 150.209 393.602 152.287C394.207 152.572 394.528 152.721 394.847 152.872C398.899 154.776 403.124 156.392 406.944 158.684Z" fill="white"/>
<path d="M427.328 184.156C422.79 176.873 416.664 170.62 409.561 165.809C400.164 159.443 391.159 157.085 385.933 156.118C388.35 156.149 391.126 156.357 394.161 156.893C399.275 157.799 403.502 159.353 406.698 160.826C404.93 159.191 403.273 158.076 402.045 157.349C398.516 155.256 395.371 154.483 393.745 154.08C388.648 152.819 383.86 153.005 378.793 154.157C370.343 156.08 359.145 160.242 357.508 170.021C359.959 169.199 362.775 165.632 365.023 164.009C367.672 162.096 370.466 160.384 373.375 158.895C370.328 162.258 366.512 165.65 364.253 169.448C370.571 170.302 378.235 168.41 384.667 167.767C370.576 169.177 358.313 177.949 345.101 182.374C332.317 186.656 318.085 189.109 304.899 185.136C299.394 183.477 287.414 178.307 284.782 172.988C284.635 172.691 271.21 173.861 270.102 173.888C263.174 174.058 254.823 175.373 248.238 172.791C249.54 171.622 250.887 170.494 251.794 168.929C249.933 168.71 248.073 168.49 246.212 168.272C246.629 168.321 245.07 163.107 244.856 162.728C242.205 158.046 238.121 164.619 236.462 166.763C233.098 171.109 228.561 174.131 222.805 173.114C220.581 172.72 218.354 172.023 216.345 170.986C216.878 171.261 219.501 163.054 219.629 163.075C225.594 164.069 231.968 161.794 235.784 157.061C235.122 157.881 230.404 157.981 229.276 158.174C227.107 158.545 224.938 158.916 222.769 159.287C219.15 159.906 203.52 158.625 203.403 157.025C203.247 154.801 207.774 156.294 207.77 156.301C209.547 153.098 207.488 148.458 203.92 147.626C201.643 150.243 199.149 153.479 196.747 157.369C194.62 160.816 192.992 164.086 191.74 166.991L188.586 126.619C189.95 123.726 191.315 120.833 192.678 117.94C194.078 114.973 195.251 111.904 196.164 108.753C197.179 105.248 198.902 101.955 201.592 99.5326C204.667 96.7644 210.868 94.274 214.884 97.1883C215.871 97.9042 216.561 98.8286 217.043 99.7755C218.434 102.504 221.085 104.365 224.13 104.701C225.974 104.905 227.818 105.109 229.663 105.312C235.287 105.933 240.277 101.281 239.681 95.6543C239.521 94.1445 239.013 93.1008 238.373 92.3589C236.645 90.3601 233.667 90.2319 231.3 89.7066L227.535 89.5178C220.726 89.1755 213.907 89.9734 207.361 91.8787C206.537 92.219 205.708 92.543 204.867 92.8299C202.482 93.6413 200.05 93.9825 198.406 96.4216C197.843 97.2576 195.689 97.0209 194.262 97.2745C194.159 95.9304 193.604 94.4112 194.043 93.2766C195.164 90.374 197.147 88.0826 201.087 86.9908C202.922 86.5793 205.5 85.8904 208.121 85.4695C208.468 85.4137 208.839 85.4212 209.213 85.4526C209.216 85.4416 221.542 83.9475 221.542 83.9475C222.918 83.7807 224.275 83.4916 225.599 83.0844C227.688 82.4404 229.71 81.6102 231.743 80.8026C235.983 79.1172 240.614 80.7172 244.887 79.5958C247.104 79.0142 252.004 74.9276 249.323 72.4578C247.058 70.3712 241.363 73.7674 239 74.4118C231.052 76.5774 222.579 76.8356 214.529 75.0711C211.538 74.4159 208.408 73.4927 205.483 74.3946C202.557 75.2965 200.308 79.0161 202.116 81.4859C195.943 80.3155 191.533 87.5807 190.748 93.8147C189.963 100.049 190.5 107.126 186.234 111.739C187.519 105.529 188.804 99.3188 190.089 93.1089C183.284 109.273 181.118 127.36 183.912 144.674C180.55 141.917 174.751 143.135 172.781 147.011C176.353 141.029 174.258 132.361 168.348 128.671C168.208 133.802 167.056 138.903 164.978 143.598C165.53 133.984 166.083 124.371 166.635 114.758C163.665 127.817 162.305 141.24 162.597 154.629L168.003 147.6C165.999 152.85 163.996 158.1 161.992 163.35C162.151 163.234 162.313 163.124 162.471 163.009L160.883 165.543C158.34 165.749 155.77 165.46 153.34 164.596C161.61 169.699 164.563 181.802 159.574 190.14C157.247 194.03 153.33 198.159 155.061 202.348C155.266 200.291 158.794 199.825 159.527 201.757C162.798 196.665 166.068 191.573 169.338 186.481C168.361 189.399 169.668 194.41 172.323 192.858C171.386 195.039 168.975 199.842 163.693 203.742C158.412 207.641 153.111 208.532 150.751 208.786C149.447 219.017 148.143 229.248 146.84 239.48C140.278 239.725 135.125 240.959 131.767 241.98C125.455 243.9 116.14 246.734 111.336 255.094C110.997 255.683 107.733 264.066 109.329 262.734C113.679 259.106 122.465 252.773 135.304 249.858C145.854 247.461 154.751 248.37 160.035 249.326C133.146 248.452 107.036 268.475 100.906 294.671C98.0852 306.726 99.146 318.914 102.179 330.926C104.145 338.714 108.104 345.705 111.287 353.018C125.577 385.842 171.127 395.53 196.271 369.571C214.608 350.639 218.515 319.921 209.565 295.741C206.242 286.763 201.187 274.313 193.93 267.65C197.37 270.809 201.226 274.916 204.887 280.121C206.796 282.836 208.387 285.47 209.712 287.933C211.92 288.014 214.128 288.094 216.336 288.175C219.534 289.161 222.732 290.147 225.929 291.133C225.328 292.01 223.932 293.751 221.555 294.547C218.095 295.705 213.996 294.375 211.147 291.181C212.088 293.161 213.021 295.375 213.875 297.817C214.443 299.441 214.92 301.003 215.321 302.488C221.081 301.084 226.84 299.68 232.6 298.276C234.999 300.934 239.019 304.653 244.848 306.789C257.686 311.493 266.403 303.797 293.554 293.804C318.213 284.729 325.509 285.745 349.998 274.352C355.532 271.777 360.018 269.465 363.027 267.865C364.275 268.236 366.129 268.803 368.355 269.551C384.349 274.932 399.683 281.814 415.608 272.27C428.41 264.598 436.757 249.855 437.555 235.05C438.461 218.233 432.055 201.805 423.632 187.221C424.864 186.201 426.096 185.179 427.328 184.156ZM178.131 170.529C178.388 167.621 178.659 164.709 179.065 161.819C179.162 161.133 179.154 160.322 179.387 159.684L180.681 158.628C180.919 158.592 181.195 158.586 181.518 158.617C184.007 158.86 183.456 160.595 183.257 162.155C183.196 162.638 183.077 163.118 183.059 163.602C182.687 173.396 179.771 183.002 180.871 192.93C180.95 193.644 179.633 194.867 178.718 195.232C177.903 195.557 176.745 195.019 175.627 194.844C175.905 194.093 176.114 193.761 176.145 193.413C176.815 185.786 177.453 178.156 178.131 170.529ZM171.341 183.283C171.616 180.443 172.155 177.628 172.605 174.804C172.655 174.491 172.775 174.189 172.971 173.499C173.392 174.15 173.814 174.504 173.821 174.865C173.878 177.827 173.95 180.793 173.79 183.746C173.752 184.437 172.849 185.08 172.342 185.746C171.987 184.923 171.265 184.065 171.341 183.283ZM163.768 230.583C163.715 229.144 163.731 227.7 163.786 226.261C163.91 223.061 164.074 219.863 164.222 216.664C164.002 216.66 163.782 216.654 163.562 216.65C163.579 215.931 163.336 214.766 163.662 214.576C164.661 213.99 165.872 213.743 167.028 213.49C167.121 213.47 167.665 214.456 167.595 214.912C166.777 220.219 165.893 225.515 164.983 230.806C164.918 231.185 164.514 231.506 164.268 231.854C164.093 231.431 163.784 231.012 163.768 230.583ZM164.354 302.057C164.571 300.495 164.482 298.891 164.661 297.322C166.428 281.719 168.219 266.119 170.02 250.521C170.13 249.57 170.072 248.277 170.646 247.771C171.802 246.751 173.34 246.164 174.832 245.336C174.824 245.251 174.955 245.718 174.896 246.159C173.838 254.118 172.668 262.063 171.701 270.033C170.529 279.696 169.6 289.39 168.371 299.045C168.181 300.536 167.201 302.141 166.123 303.24C165.205 304.176 164.1 303.899 164.354 302.057ZM169.618 324.85C170.245 324.359 171.276 323.843 171.937 324.028C174.784 324.821 173.537 323.581 173.165 322.16C172.597 319.983 172.272 317.678 172.293 315.431C172.31 313.438 173.515 312.667 175.398 313.724C175.433 314.667 175.241 315.708 175.59 316.515C175.855 317.127 176.785 317.525 177.5 317.833C177.8 317.963 178.307 317.614 178.72 317.483C178.422 317.931 178.146 318.394 177.823 318.823C176.956 319.976 175.138 321.911 175.331 322.136C178.023 325.275 174.791 326.002 173.379 327.447C172.424 327.446 171.462 327.508 170.516 327.415C169.751 327.34 169.006 327.066 168.251 326.88C168.696 326.187 169.007 325.328 169.618 324.85ZM142.181 290.921C142.229 288.38 144.191 288.946 145.655 288.92C146.985 288.896 148.582 288.855 147.998 291.046C147.251 293.853 148.238 294.813 151.148 294.475C153.532 294.199 155.12 296.853 153.868 298.826C153.488 299.425 152.533 299.659 151.842 300.06C151.597 299.508 151.353 298.956 151.108 298.404C151.15 296.641 151.079 296.668 149.505 297.607C149.013 297.901 148.254 297.747 147.616 297.799C147.592 296.397 147.285 297.119 146.361 297.223C144.957 297.381 143.402 296.194 141.911 295.578C143.913 294.134 142.151 292.478 142.181 290.921ZM113.601 321.895C113.891 320.986 114.667 320.057 115.495 319.55C116.126 319.164 117.165 319.51 117.994 319.368C120.194 318.989 120.533 317.455 120.196 315.571C119.741 313.035 118.462 315.303 117.616 315.102C117.064 314.971 116.585 314.534 116.072 314.233C118.037 311.21 115.518 312.647 114.416 312.491C113.731 312.393 113.099 311.927 112.444 311.627C113.07 311.188 113.683 310.42 114.328 310.392C115.226 310.352 116.136 310.915 117.063 311.127C117.741 311.282 118.661 311.601 119.115 311.302C121.06 310.02 122.872 308.537 124.733 307.128C123.853 305.418 123.05 303.663 122.069 302.014C121.305 300.731 121.223 299.567 122.714 299.093C124.326 298.582 125.103 298.026 124.223 296.286C124.131 296.103 124.731 295.57 125.01 295.2C126.747 297.592 128.223 296.022 129.931 295.066C130.483 294.757 131.623 295.474 132.468 295.791C132.515 295.808 132.445 296.629 132.224 296.786C131.118 297.568 129.907 299.848 130.163 300.832C130.491 302.101 130.444 304.206 132.242 301.575C132.569 301.098 133.465 301.009 134.098 300.742C134.315 301.41 134.671 302.069 134.722 302.749C134.908 305.305 131.399 307.111 128.73 305.848C127.991 305.498 127.3 305.047 126.587 304.643C126.868 305.309 127.327 305.965 127.363 306.644C127.384 307.044 126.734 307.481 126.386 307.9C127.161 308.177 127.934 308.455 128.709 308.732C128.01 309.291 127.364 309.948 126.587 310.361C126.279 310.525 125.683 310.047 125.216 310.041C124.784 310.034 124.348 310.267 123.915 310.395C124.25 310.618 124.565 310.883 124.925 311.056C128.264 312.667 128.69 315.692 126.033 318.64C125.71 318.997 125.453 319.623 125.512 320.079C125.812 322.418 124.653 325.189 122.976 325.408C120.323 325.755 120.953 323.268 120.243 321.943C120.129 321.731 120.075 321.301 119.976 321.296C118.764 321.234 117.547 321.209 116.338 321.275C116.271 321.279 116.24 322.169 116.216 322.647C116.195 323.083 116.206 323.52 116.204 323.958C115.737 323.931 115.087 324.088 114.84 323.842C114.286 323.286 113.447 322.379 113.601 321.895ZM119.712 335.845C119.25 335.913 118.456 335.882 118.324 335.627C117.917 334.849 117.758 333.942 117.502 333.085C118.042 333.047 118.581 332.994 119.121 332.973C120.383 332.924 121.646 332.86 122.909 332.856C124.761 332.849 126.615 332.891 128.468 332.912C128.085 334.553 127.701 336.194 127.318 337.836C125.852 338.214 124.383 338.586 122.918 338.972C122.154 339.174 121.397 339.402 120.636 339.619C120.631 338.718 120.523 337.802 120.657 336.923C120.746 336.342 121.181 335.814 121.461 335.262C120.879 335.465 120.31 335.756 119.712 335.845ZM139.241 356.483C139.249 356.396 138.638 356.122 138.346 356.161C137.604 356.26 136.879 356.488 136.147 356.665C136.028 355.901 135.864 355.141 135.812 354.374C135.792 354.061 136.018 353.73 136.131 353.408C135.817 353.497 135.497 353.57 135.189 353.679C132.699 354.565 130.307 353.235 129.669 350.627C129.571 350.227 129.461 349.714 129.173 349.495C127.897 348.527 126.378 347.821 125.273 346.698C123.358 344.753 123.954 341.905 126.534 341.71C131.095 341.365 128.805 339.766 127.548 338.142C127.486 338.063 127.447 337.965 127.403 337.871C129.586 337.392 131.758 336.851 133.956 336.456C136.455 336.005 138.154 338.141 137.583 340.52C137.345 341.516 137.958 342.715 138.183 343.822C138.821 343.437 139.429 342.994 140.099 342.677C141.721 341.907 143.311 341.221 145.107 341.376L142.055 359.572C140.609 359.132 139.022 358.841 139.241 356.483ZM151.422 359.317C151.325 359.39 151.535 359.827 151.705 360.263L151.799 362.334C151.527 362.503 150.699 362.544 150.637 362.42C150.103 361.353 149.572 360.246 149.328 359.09C149.209 358.526 149.701 357.832 149.917 357.197C148.73 356.975 147.545 356.735 146.352 356.561L148.766 342.167C149.472 342.253 150.184 342.274 150.885 342.243L151.655 359.16C151.577 359.213 151.497 359.26 151.422 359.317ZM161.01 359.823C160.719 359.636 160.443 359.434 160.195 359.201C159.741 359.888 159.172 360.523 158.783 361.186C158.251 362.095 156.683 362.397 155.571 362.966L154.466 338.675C154.816 338.331 155.3 337.958 155.669 337.833C156.071 337.697 156.828 337.875 157.243 338.166L161.01 359.823ZM193.511 350.744C191.67 352.867 190.726 355.49 189.354 357.87C188.622 359.141 187.013 359.93 185.742 360.859C185.329 361.161 184.735 361.215 184.225 361.382C184.361 360.94 184.381 360.403 184.652 360.072C187.372 356.732 190.133 353.426 192.884 350.112C192.96 350.02 193.059 349.946 193.482 349.552C193.506 350.139 193.66 350.573 193.511 350.744ZM197.792 328.112C196.886 334.165 195.034 339.904 191.947 345.209C188.719 350.753 184.536 355.404 178.976 358.692C176.006 360.448 173.856 360.522 171.955 358.986C171.523 359.242 171.057 359.441 170.55 359.577C170.342 359.65 170.133 359.706 169.923 359.754C170.202 360.54 170.187 361.275 169.046 361.839C167.591 362.557 166.455 362.196 165.382 360.965C165.255 360.969 165.129 360.963 165.003 360.959L160.865 337.168C161.242 337.162 161.618 337.175 161.988 337.221C162.204 337.007 162.28 336.556 162.119 335.652C161.905 334.44 167.594 333.073 169.029 333.852C169.454 334.082 169.988 334.111 170.473 334.233C170.463 333.787 170.584 333.284 170.421 332.903C168.775 329.03 168.763 329.036 172.752 327.705C172.957 327.637 173.156 327.553 173.358 327.474C174.179 329.157 174.992 330.845 175.827 332.52C175.98 332.827 176.226 333.088 176.428 333.37C176.611 333.119 176.915 332.889 176.959 332.616C177.633 328.457 178.263 328.01 182.361 328.56C183.663 328.735 185.127 329.417 185.6 327.056C186.017 324.975 187.945 324.803 189.678 325.397C190.79 325.778 191.754 326.59 192.785 327.21C191.946 326.188 191.18 325.091 190.25 324.158C188.915 322.819 187.461 321.598 186.057 320.326C187.818 319.495 189.564 318.624 191.35 317.85C192.104 317.523 192.936 317.31 193.751 317.222C194.11 317.184 194.842 317.574 194.851 317.792C194.922 319.581 196.11 321.679 193.648 322.879C193.242 323.077 192.877 323.358 192.493 323.6C192.859 323.797 193.209 324.121 193.595 324.171C196.747 324.582 196.614 326.306 195.381 328.503C195.76 328.199 196.178 327.934 196.507 327.582C196.975 327.082 197.375 326.519 197.805 325.982C197.804 326.695 197.895 327.417 197.792 328.112ZM194.028 314.907C193.874 315.21 193.227 315.56 192.962 315.464C190.555 314.583 188.193 313.577 185.789 312.687C185.29 312.502 184.668 312.646 184.103 312.638C184.111 313.16 184.103 313.683 184.129 314.205C184.156 314.737 184.217 315.267 184.264 315.799C183.687 315.738 182.884 315.899 182.573 315.58C180.557 313.508 177.912 314.066 175.487 313.715C174.791 311.844 175.71 311.318 177.481 310.915C180.605 310.204 183.603 308.917 186.738 308.292C188.543 307.932 190.614 308.067 192.374 308.606C193.598 308.982 194.989 310.261 195.38 311.442C195.684 312.357 194.603 313.77 194.028 314.907ZM171.159 230.65C171.757 228.765 173.889 228.15 176.684 229.236C177.585 229.585 178.983 230.521 178.926 231.057C178.826 232.003 177.781 232.848 177.246 233.58C175.556 233.629 174.355 233.655 173.156 233.703C170.78 233.797 170.586 232.453 171.159 230.65ZM221.457 284.531C220.981 284.456 220.501 284.314 220.059 284.119C218.524 283.445 215.657 283.588 217.886 280.53C218.113 280.218 217.617 279.171 217.202 278.679C216.986 278.424 215.91 278.426 215.74 278.671C213.546 281.833 213.81 278.907 213.34 277.743C212.933 276.738 212.352 275.784 212.082 274.747C211.092 270.937 208.998 269.489 205.064 270C204.569 270.064 203.973 270.179 203.567 269.979C198.344 267.42 198.161 262.929 194.729 259.098C191.235 255.2 186.829 251.104 181.829 249.311C179.973 248.646 179.106 247.43 179.773 245.057C180.966 240.809 182.816 236.575 181.551 231.946C181.406 231.419 181.754 230.765 181.848 230.166C182.64 225.137 183.367 220.096 184.258 215.085C184.465 213.927 185.228 212.868 185.735 211.764C186.712 212.575 188.076 213.19 188.606 214.23C194.842 226.453 201.155 238.624 206.054 251.462C207.327 254.801 208.429 258.136 210.034 261.284C211.541 264.241 212.856 267.107 212.232 270.519C212.841 270.948 213.553 271.538 214.346 271.984C215.182 272.454 216.371 272.556 216.924 273.22C219.249 276.007 221.435 278.911 223.577 281.843C224.272 282.795 224.673 283.962 225.209 285.031C223.958 284.868 222.704 284.725 221.457 284.531ZM223.135 254.761C221.563 257.179 220.31 257.369 218.908 254.875C215.24 248.348 211.839 241.672 208.338 235.051C208.226 234.84 208.19 234.589 208.118 234.357C208.07 234.365 208.021 234.373 207.971 234.381C207.725 232.721 207.478 231.062 207.231 229.402C208.709 230.34 210.258 231.185 211.634 232.254C212.367 232.822 212.752 233.817 213.373 234.552C216.105 237.78 218.648 241.21 221.67 244.141C225.822 248.165 226.261 249.948 223.135 254.761ZM244.545 263.21C244.524 263.754 243.319 261.778 242.166 261.941C241.928 261.975 241.651 262.08 241.454 261.999C240.317 261.534 238.89 261.307 238.129 260.477C235.184 257.27 232.445 253.872 229.647 250.53C229.105 249.883 228.643 249.169 227.855 248.092C228.457 247.277 228.955 246.069 229.849 245.564C230.539 245.175 232.146 245.294 232.628 245.831C236.263 249.883 239.843 254 243.16 258.312C244.147 259.595 244.608 261.577 244.545 263.21ZM383.57 221.919C384.486 221.593 385.38 221.203 386.621 220.706C386.507 220.742 386.759 220.573 386.969 220.614C388.004 220.817 389.576 220.754 389.942 221.381C390.759 222.775 389.604 223.423 388.256 223.847C387.247 224.165 386.333 224.837 385.436 225.439C384.336 226.179 383.247 226.853 382.481 225.163C381.879 223.832 381.809 222.543 383.57 221.919ZM320.163 248.324C325.541 249.214 330.945 247.312 336.064 245.442C343.832 242.603 351.6 239.765 359.367 236.926C360.873 236.376 362.598 235.855 364.127 236.048C364.824 236.137 365.481 236.374 366.057 236.825C357.049 240.198 348.039 243.571 339.032 246.945C333.633 248.967 328.131 251.011 322.375 251.327C316.619 251.644 310.463 249.973 306.678 245.624C302.198 240.474 301.98 232.994 301.994 226.169C302.003 221.333 306.248 224.463 306.809 227.393C307.143 229.141 306.854 230.941 306.863 232.721C306.9 240.149 312.835 247.111 320.163 248.324ZM273.083 194.107C273.99 194.39 275.068 195.015 275.765 194.371C276.045 194.113 276.149 193.72 276.219 193.347C276.525 191.732 276.474 190.023 277.146 188.523C277.773 187.123 279.257 186.068 280.828 186.376C281.453 186.499 284.132 189.025 283.233 189.276C281.639 189.721 279.729 187.378 278.608 188.595C278.033 189.219 278.407 190.27 279.039 190.835C279.671 191.4 280.504 191.709 281.112 192.3C282.356 193.511 282.381 195.619 283.666 196.787C284.432 197.484 285.504 197.71 286.517 197.926C290.255 198.719 293.95 199.718 297.578 200.918C298.132 201.102 298.687 201.29 299.239 201.483C298.684 201.72 298.131 201.956 297.578 202.193C297.971 202.738 298.364 203.282 298.758 203.827C297.446 205.573 294.77 205.189 292.659 204.627C289.356 203.747 286.053 202.867 282.75 201.987C282.107 201.816 281.389 201.586 281.095 200.989C280.899 200.593 280.941 200.123 280.827 199.696C280.414 198.146 278.372 197.879 276.77 197.823C274.056 197.728 271.353 197.347 268.721 196.687C269.1 194.821 271.265 193.541 273.083 194.107ZM277.338 231.182C277.776 224.046 277.557 216.871 277.608 209.711C277.613 208.923 277.591 208.135 277.582 207.346C277.327 207.31 277.071 207.276 276.816 207.241C276.979 206.554 277.141 205.866 277.304 205.179C278.001 205.559 278.816 205.822 279.356 206.361C279.71 206.715 279.71 207.46 279.789 208.04C279.92 209.002 279.911 209.988 280.109 210.934C280.22 211.465 280.625 211.934 280.899 212.432C281.204 212.063 281.589 211.735 281.797 211.318C282.335 210.24 282.71 209.073 283.317 208.04C283.696 207.398 284.381 206.936 284.929 206.393C285.212 207.003 285.65 207.59 285.75 208.23C285.994 209.785 286.255 211.372 286.187 212.933C286.104 214.829 286.548 215.931 288.675 216.036C289.432 216.074 290.159 216.697 290.9 217.053C290.04 217.204 289.185 217.39 288.32 217.491C287.971 217.532 287.597 217.327 287.242 217.35C286.798 217.378 286.362 217.525 285.922 217.622C286.292 217.984 286.617 218.593 287.038 218.668C289.192 219.05 289.299 220.419 288.93 222.138C288.653 223.427 288.51 224.746 288.199 226.024C287.754 227.852 287.209 229.656 286.707 231.469L285.985 234.463C286.882 234.901 287.965 235.896 288.643 235.671C290.566 235.032 290.618 236.317 290.464 237.306C290.372 237.901 289.281 238.852 288.755 238.781C286.493 238.477 284.179 238.102 282.065 237.285C279.406 236.258 277.1 235.05 277.338 231.182ZM243.197 201.549C244.249 198.285 245.546 194.889 249.342 194.244C252.714 193.67 256.227 193.881 259.678 193.896C260.11 193.898 260.992 195.123 260.9 195.258C259.786 196.885 258.803 198.826 257.241 199.867C255.173 201.244 252.623 201.897 249.211 203.302C248.071 203.246 245.871 203.182 243.685 202.97C243.463 202.948 243.067 201.95 243.197 201.549ZM285.254 268.064C284.891 267.679 284.615 267.179 284.136 266.954C283.566 266.683 282.899 266.884 282.271 266.952C280.343 267.161 278.541 266.069 276.909 265.021C270.705 261.032 264.501 257.045 258.295 253.057C256.654 252.002 254.987 250.924 253.71 249.456C253.648 249.386 253.588 249.315 253.528 249.242C253.263 248.919 253.004 248.511 253.121 248.11C253.256 247.65 253.799 247.465 254.272 247.39C260.368 246.423 265.865 252.683 270.303 255.977C276.396 260.499 283.312 263.764 290.176 266.997C289.529 268.908 286.633 269.535 285.254 268.064ZM373.838 254.409C373.008 253.172 374.043 251.272 373.137 250.09C372.324 249.029 370.67 249.384 369.414 249.842C358.859 253.697 348.309 257.583 337.73 261.369C326.969 265.22 316.552 270.052 305.522 273.13C301.405 274.278 296.958 275.168 292.916 273.776C292.906 273.773 292.897 273.77 292.888 273.766C291.748 273.366 290.499 272.451 290.73 271.27C290.937 270.216 292.262 269.746 293.313 269.964C294.366 270.181 295.258 270.852 296.239 271.29C299.446 272.721 303.156 271.551 306.464 270.372C329.522 262.157 352.581 253.942 375.64 245.727C376.046 248.713 375.398 251.831 373.838 254.409ZM378.166 232.265C377.652 235.103 376.632 237.895 377.936 240.801C378.058 241.074 377.597 241.609 377.406 242.022C377.023 241.792 376.385 241.63 376.301 241.319C375.959 240.048 375.654 238.738 375.577 237.429C375.384 234.184 374.733 233.636 371.515 234.293C370.689 234.462 369.863 234.652 369.027 234.743C368.702 234.778 368.351 234.568 367.529 234.329C368.266 233.834 368.662 233.467 369.131 233.27C371.344 232.335 373.565 231.415 375.81 230.56C376.428 230.325 377.394 230.024 377.74 230.309C378.152 230.65 378.28 231.629 378.166 232.265ZM406.008 247.654C404.36 248.836 401.947 248.817 400.318 247.609C400.231 249.253 400.06 250.578 398.81 251.468C397.413 250.414 396.564 248.927 396.136 247.205C395.775 248.497 395.684 249.864 395.87 251.192C395.217 250.68 390.796 251.036 389.532 250.067C388.898 249.581 389.059 248.762 390.889 247.333C393.726 245.116 401.378 243.485 395.074 239.387C393.5 238.364 391.636 237.878 390.007 236.942C388.051 235.818 386.478 234.038 385.602 231.958C385.214 231.036 384.965 229.966 385.369 229.05C385.993 227.631 387.936 227.253 389.396 227.777C395.534 229.979 400.554 237.908 407.889 232.289C411.212 229.74 412.099 225.191 412.748 221.056C413.162 218.424 413.575 215.793 413.989 213.161C414.191 211.872 414.385 210.507 413.886 209.302C413.441 208.228 412.509 207.444 411.594 206.726C407.938 203.853 404.018 201.316 399.901 199.155C397.298 197.788 393.651 196.758 391.788 199.032C390.334 200.807 390.961 203.621 389.63 205.489C388.422 201.145 385.267 197.381 381.2 195.433L383.538 193.679C383.118 193.015 383.216 192.068 383.761 191.502C384.664 192.667 385.412 193.952 385.978 195.312C391.091 183.262 407.622 196.466 412.066 202.384C416.589 208.408 418.903 216.053 418.477 223.574C418.25 227.578 417.209 231.659 414.727 234.808C412.919 237.102 411.134 239.25 409.654 241.706C408.937 242.89 407.592 246.519 406.008 247.654ZM402.012 227.11C401.125 224.579 402.727 223.823 403.963 223.276C406.201 222.287 407.155 224.148 407.397 225.696C407.599 226.983 406.761 228.433 406.383 229.812L402.012 227.11Z" fill="white"/>
<path d="M109.33 262.736C113.679 259.108 122.466 252.775 135.305 249.859C136.524 249.582 137.717 249.354 138.888 249.161C132.335 248.244 125.765 247.589 119.188 247.176C116.15 249.077 113.346 251.598 111.337 255.095C110.997 255.685 107.734 264.067 109.33 262.736Z" fill="white"/>
</svg>
