<svg width="407" height="391" viewBox="0 0 407 391" fill="none" xmlns="http://www.w3.org/2000/svg">
<path d="M359.723 167.506C360.159 167.404 360.569 167.3 360.95 167.194C367.571 168.074 373.184 167.327 377.319 166.247C384.717 164.313 389.062 161.016 389.243 160.876L391.924 158.815L388.548 158.605C388.404 158.596 376.3 157.792 362.983 153.498C369.409 153.218 374.64 151.616 378.438 149.925C385.424 146.815 389.175 142.856 389.331 142.689L391.642 140.219L388.276 140.56C388.127 140.575 375.035 141.85 360.488 139.4C362.088 138.586 363.017 137.914 363.156 137.811L363.539 137.527C375.48 134.189 381.122 125.995 381.433 125.529L383.314 122.718L380.048 123.599C379.93 123.63 369.811 126.316 357.881 126.392C360.211 124.861 361.503 123.544 361.657 123.382L363.992 120.937L363.914 120.944C370.958 115.865 373.76 109.844 373.947 109.428L375.333 106.344L372.26 107.755C372.153 107.804 363.362 111.799 352.258 113.943C354.632 111.956 355.861 110.265 355.993 110.077L357.943 107.314L357.578 107.403C364.165 101.487 366.085 94.8835 366.203 94.453L367.103 91.1933L364.281 93.057C364.201 93.1105 358.184 97.0423 349.86 100.383C350.556 99.4462 350.924 98.8052 350.987 98.6915L352.627 95.7344L352.1 95.9246C356.829 90.0796 357.935 84.487 358.008 84.0896L358.618 80.7639L355.97 82.8678C355.896 82.9261 350.524 87.1501 342.86 91.1025C343.26 90.4201 343.472 89.9676 343.513 89.8758L344.899 86.7921L341.826 88.2032C341.727 88.2484 331.771 92.7751 320.782 93.7517C318.97 93.9133 317.13 93.9443 315.313 93.8452C314.733 93.8136 314.192 94.1063 313.903 94.6087C313.841 94.7161 313.8 94.8308 313.766 94.9463C313.249 94.2775 312.781 93.6848 312.387 93.1954C312.281 93.0625 312.079 93.2092 312.17 93.3531C316.996 101.053 333.656 130.057 325.927 152.335C315.223 183.186 268.956 204.079 220.066 185.7C221.282 187.478 222.561 189.587 223.764 192.031C225.268 195.088 226.293 197.941 227.004 200.394C227.435 200.474 227.892 200.548 228.363 200.619C222.219 214.33 222.44 226.294 223.886 234.253C225.65 243.956 229.454 249.849 229.615 250.096L231.467 252.926L231.933 249.576C231.949 249.458 232.847 243.177 235.242 234.313C235.338 235.104 235.442 235.875 235.56 236.605C237.288 247.263 241.327 253.787 241.498 254.059L243.297 256.924L243.825 253.583C243.844 253.464 244.793 247.631 247.134 239.165C250.146 245.455 253.459 248.899 253.621 249.064L255.984 251.483L255.795 248.105C255.793 248.075 255.768 247.591 255.746 246.738C258.785 253.062 262.011 256.541 262.175 256.716L264.492 259.18L264.367 255.8C264.363 255.691 264.188 250.341 264.788 242.406C267.439 246.813 269.82 249.195 269.96 249.332L272.371 251.705L272.115 248.332C272.109 248.256 271.912 245.481 271.917 241.01C272.366 241.802 272.817 242.567 273.263 243.274C278.756 251.954 284.727 256.156 284.979 256.331L287.757 258.26L286.932 254.98C286.898 254.845 284.903 246.774 283.765 235.318C287.931 240.786 291.865 243.42 292.052 243.544L294.874 245.407L293.973 242.147C293.958 242.092 293.498 240.401 292.899 237.556C297.42 243.514 302.229 247.135 304.842 248.836C306.152 249.688 306.968 250.099 307.001 250.116L310.026 251.631L308.743 248.5C308.694 248.38 305.705 240.999 303.158 230.404C304.883 231.894 306.527 233.093 307.958 234.023C310.557 235.714 312.333 236.45 312.407 236.481L315.536 237.766L314.024 234.74C314.003 234.699 313.474 233.63 312.657 231.766C315.178 234.173 317.682 236.08 319.961 237.563C326.945 242.107 332.633 243.358 332.872 243.409L336.18 244.116L334.153 241.408C334.073 241.301 328.938 234.381 323.603 224.122C327.25 225.803 329.785 226.333 329.936 226.363L333.252 227.035L331.768 225.097C344.599 231.392 355.586 229.916 356.107 229.841L359.457 229.358L356.615 227.52C356.071 227.166 346.279 220.736 336.178 210.529C340.274 211.643 343.085 211.683 343.289 211.684L346.671 211.704L345.709 210.855C359.465 216.215 370.68 212.913 371.243 212.74L374.477 211.747L371.387 210.369C371.322 210.34 364.762 207.393 356.64 202.11C354.204 200.524 351.887 198.894 349.685 197.23C352.68 197.277 354.576 196.935 354.774 196.897L355.28 196.8C368.684 200.433 378.913 196.521 379.473 196.299L382.618 195.053L379.429 193.924C379.318 193.884 368.46 190.001 356.89 182.616C357.257 182.57 357.607 182.522 357.926 182.472C363.586 183.789 368.606 183.898 372.516 183.565C380.647 182.874 385.805 180.287 386.021 180.177L389.035 178.642L385.755 177.816C385.61 177.78 373.103 174.577 359.723 167.506ZM364.982 94.1158C364.982 94.1158 364.828 94.6735 364.447 95.6099C364.828 94.6741 364.982 94.1158 364.982 94.1158ZM357.148 106.038C356.397 106.74 355.571 107.432 354.683 108.107C355.571 107.432 356.397 106.74 357.148 106.038ZM271.947 238.4C272.4 239.278 272.86 240.132 273.331 240.94C272.86 240.133 272.4 239.278 271.947 238.4ZM277.4 246.948C276.726 246.085 276.043 245.152 275.36 244.151C276.042 245.152 276.726 246.085 277.4 246.948C278.075 247.812 278.737 248.608 279.376 249.335C278.737 248.608 278.074 247.813 277.4 246.948ZM285.706 255.29C285.706 255.29 285.693 255.281 285.67 255.265C285.692 255.281 285.706 255.29 285.706 255.29ZM285.658 255.255C285.577 255.198 285.395 255.065 285.122 254.853C285.395 255.066 285.577 255.198 285.658 255.255ZM348.199 195.889C348.11 195.883 348.018 195.877 347.928 195.871C347.927 195.871 347.927 195.87 347.926 195.869C348.016 195.876 348.11 195.884 348.199 195.889ZM345.626 195.647C345.623 195.647 345.62 195.646 345.617 195.646C345.616 195.645 345.615 195.644 345.614 195.643C345.616 195.643 345.619 195.644 345.622 195.644C345.624 195.645 345.625 195.646 345.626 195.647ZM333.648 209.741C333.649 209.741 333.649 209.742 333.65 209.742C333.785 209.885 333.922 210.025 334.058 210.166C333.921 210.024 333.785 209.885 333.648 209.741ZM350.028 115.63C350.543 115.547 351.056 115.46 351.563 115.369C351.056 115.46 350.544 115.546 350.028 115.63ZM331.828 175.163L331.828 175.164C331.817 175.157 331.807 175.149 331.796 175.142C331.807 175.149 331.817 175.156 331.828 175.163ZM306.013 248.076C305.864 247.983 305.707 247.882 305.54 247.773C305.515 247.757 305.488 247.739 305.463 247.722C305.656 247.85 305.842 247.969 306.013 248.076ZM308.656 232.961C308.644 232.953 308.632 232.945 308.62 232.937C308.711 232.997 308.795 233.048 308.883 233.105C308.806 233.056 308.735 233.013 308.656 232.961ZM311.336 228.62C311.509 228.805 311.681 228.995 311.854 229.176C311.683 228.996 311.512 228.815 311.341 228.631C311.34 228.627 311.338 228.623 311.336 228.62ZM320.659 236.5C320.586 236.453 320.512 236.4 320.44 236.352C320.517 236.403 320.594 236.458 320.67 236.507C320.666 236.505 320.662 236.502 320.659 236.5ZM327.087 232.955C326.492 231.966 325.872 230.911 325.237 229.794C325.872 230.91 326.492 231.966 327.087 232.955ZM330.049 222.762C330.045 222.757 330.04 222.751 330.036 222.746C330.215 222.845 330.394 222.949 330.571 223.045C330.397 222.951 330.224 222.86 330.049 222.762ZM342.747 208.168C342.744 208.165 342.74 208.161 342.738 208.158C343.178 208.373 343.618 208.589 344.054 208.784C343.621 208.59 343.184 208.381 342.747 208.168ZM347.473 197.127C347.475 197.128 347.477 197.128 347.479 197.128C347.697 197.298 347.914 197.475 348.131 197.643C347.912 197.474 347.692 197.3 347.473 197.127ZM353.047 181.585C353.046 181.585 353.045 181.584 353.045 181.584L353.046 181.584C353.047 181.584 353.047 181.585 353.048 181.585L353.047 181.585ZM351.997 195.91C352.109 195.905 352.213 195.898 352.318 195.891C352.319 195.891 352.32 195.892 352.321 195.892C352.217 195.899 352.108 195.904 351.997 195.91ZM354.86 182.807C354.861 182.807 354.863 182.807 354.864 182.807C355.027 182.914 355.19 183.027 355.352 183.133C355.189 183.026 355.024 182.915 354.86 182.807ZM357.764 167.898C357.765 167.898 357.766 167.897 357.767 167.897C357.962 168.004 358.157 168.11 358.35 168.215C358.155 168.109 357.96 168.004 357.764 167.898ZM359.398 196.396C358.87 196.303 358.336 196.2 357.795 196.085L357.792 196.083C358.334 196.2 358.87 196.304 359.398 196.396Z" fill="black"/>
<path d="M95.2742 122.637C93.4408 99.128 116.904 75.2891 123.524 69.0638C123.648 68.9475 123.49 68.7551 123.353 68.8561C122.849 69.2298 122.245 69.6846 121.576 70.2007C121.573 70.0803 121.562 69.959 121.529 69.8394C121.377 69.2794 120.928 68.86 120.359 68.7437C118.576 68.3792 116.804 67.8832 115.092 67.2677C104.709 63.5394 96.2238 56.6388 96.1395 56.5693L93.5242 54.4258L94.0843 57.7601C94.1008 57.8594 94.1901 58.3506 94.4049 59.1121C87.9925 53.3479 83.8648 47.9007 83.8087 47.8251L81.7808 45.1191L81.5285 48.4909C81.4987 48.8937 81.1507 54.5833 84.2461 61.4365L83.7839 61.1188L84.6219 64.3951C84.6539 64.5211 84.8476 65.2343 85.283 66.3169C78.0777 60.9759 73.2534 55.6489 73.1884 55.5767L70.9302 53.0587L70.9752 56.4401C70.9809 56.8867 71.1648 63.7606 76.0393 71.1524L75.7083 70.9742L76.8941 74.1414C76.9746 74.3564 77.7349 76.3034 79.5282 78.8273C69.3294 73.9404 61.8374 67.8488 61.7466 67.7745L59.1313 65.6304L59.6913 68.9653C59.7671 69.415 60.9515 75.9491 66.4798 82.6469L66.4063 82.6205L68.046 85.5776C68.1545 85.7728 69.0707 87.3742 70.9359 89.4459C59.4141 86.3498 50.3052 81.1887 50.1996 81.1282L47.2639 79.4485L48.3703 82.6446C48.5543 83.1747 51.9363 92.5299 62.6415 98.7842L62.941 99.1565C63.0488 99.2909 63.7776 100.176 65.1191 101.369C50.4259 100.054 38.0843 95.5043 37.9438 95.4516L34.7745 94.2692L36.384 97.2439C36.493 97.445 39.1188 102.226 45.0886 107.003C48.3349 109.602 52.9893 112.477 59.1349 114.375C45.1645 115.156 33.2514 112.867 33.1102 112.839L29.7911 112.188L31.8631 114.861C32.0027 115.042 35.3708 119.332 42.0374 123.077C45.764 125.17 51.0046 127.313 57.6324 128.14C57.9744 128.339 58.3444 128.543 58.7405 128.752C44.0058 132.203 31.0952 132.133 30.9409 132.132L27.5584 132.1L30.0852 134.348C30.2659 134.509 34.6006 138.318 42.2903 141.047C45.989 142.359 50.8718 143.526 56.6821 143.685C56.9777 143.815 57.3038 143.95 57.6478 144.087C44.5846 148.301 33.0964 149.307 32.9792 149.316L29.6081 149.601L32.3347 151.603C32.82 151.96 41.7243 158.335 55.6115 158.216L56.077 158.438C56.2588 158.525 58.0066 159.336 60.9149 160.05C58.3641 161.101 55.7096 162.091 52.9505 163.008C43.7556 166.062 36.663 167.251 36.5925 167.262L33.2549 167.813L36.1315 169.592C36.6325 169.903 46.6457 175.938 61.3107 174.237L60.1648 174.815L63.4416 175.653C63.6397 175.704 66.3687 176.377 70.6132 176.336C58.2566 183.652 47.1543 187.392 46.5394 187.596L43.3242 188.654L46.4417 189.97C46.9275 190.175 57.1815 194.385 71.1889 191.546L69.2628 193.045L72.6399 193.235C72.7946 193.244 75.3805 193.374 79.3346 192.672C71.5748 201.245 64.8547 206.637 64.7494 206.721L62.1018 208.827L65.4811 208.981C65.7247 208.992 71.5448 209.223 79.4521 206.596C82.0314 205.739 84.9384 204.528 87.9867 202.838C86.7233 204.435 85.9414 205.334 85.9101 205.37L83.6807 207.913L87.0328 207.463C87.1123 207.453 89.0173 207.191 91.9596 206.213C93.5795 205.674 95.4734 204.932 97.5196 203.927C92.3722 213.532 87.6116 219.915 87.5332 220.018L85.4995 222.722L88.8094 222.023C88.8469 222.014 89.7396 221.824 91.2226 221.332C94.1818 220.348 99.7509 218.063 105.634 213.445C104.333 216.046 103.461 217.565 103.432 217.614L101.734 220.539L104.937 219.452C105.15 219.38 109.622 217.828 115.037 213.594C111.034 224.389 107.059 231.69 106.993 231.812L105.364 234.776L108.54 233.614C108.827 233.509 115.67 230.957 123.181 223.951C123.792 223.38 124.422 222.754 125.057 222.102C123.93 226.428 123.037 229.063 123.012 229.135L121.91 232.333L124.843 230.648C125.014 230.55 127.919 228.85 131.6 225.258C130.171 233.086 128.646 238.217 128.614 238.321L127.637 241.559L130.503 239.763C130.706 239.636 134.709 237.086 139.25 231.739C139.013 232.559 138.866 233.021 138.856 233.049L137.817 236.269L140.716 234.527C140.914 234.408 144.992 231.916 149.499 226.594C149.618 235.378 149.06 241.262 149.048 241.381L148.713 244.746L151.178 242.431C151.412 242.21 156.972 236.922 161.343 227.051C161.644 226.374 161.94 225.654 162.232 224.914C162.304 234.095 161.581 240.4 161.567 240.517L161.168 243.876L163.677 241.607C163.895 241.409 169.068 236.672 173.233 227.732C176.648 220.399 179.892 208.882 177.422 194.061C177.895 194.111 178.356 194.155 178.793 194.188C180.102 191.995 181.817 189.494 184.046 186.918C185.829 184.859 187.6 183.142 189.228 181.731C137.279 187.125 97.8138 155.193 95.2742 122.637ZM78.6617 72.5675C78.2535 72.0476 77.863 71.5267 77.5054 71.0088C77.863 71.5267 78.2542 72.047 78.6617 72.5675ZM37.4983 96.6385C37.4983 96.6385 37.7526 96.7338 38.2324 96.8999C37.7532 96.7339 37.4988 96.6392 37.4983 96.6385ZM53.3647 156.886C52.8119 156.861 52.2689 156.826 51.735 156.781C52.2697 156.825 52.814 156.86 53.3674 156.885L53.3647 156.886ZM65.2519 159.544C65.2544 159.544 65.2576 159.544 65.2608 159.545C65.2588 159.545 65.258 159.546 65.2566 159.547C65.2534 159.547 65.2509 159.546 65.2477 159.546C65.249 159.545 65.2505 159.544 65.2519 159.544ZM62.9662 159.178C62.9654 159.179 62.9648 159.179 62.9641 159.179C62.875 159.163 62.7853 159.145 62.6976 159.128C62.7847 159.145 62.8771 159.162 62.9662 159.178ZM59.8876 129.785C60.1023 129.732 60.3177 129.679 60.5325 129.625C60.5332 129.626 60.5344 129.626 60.535 129.626C60.3182 129.68 60.1029 129.732 59.8876 129.785ZM59.0084 144.975C59.1922 144.914 59.3789 144.847 59.5629 144.784C59.5642 144.784 59.5654 144.785 59.5667 144.785C59.3813 144.848 59.1943 144.913 59.0084 144.975ZM58.7092 158.087C58.7098 158.087 58.7105 158.086 58.7118 158.086C58.8118 158.119 58.9106 158.152 59.0177 158.186C58.9119 158.152 58.8079 158.12 58.7092 158.087ZM61.6314 144.062C61.6321 144.063 61.6315 144.062 61.6321 144.062C61.6321 144.062 61.6328 144.062 61.6334 144.062C61.6328 144.062 61.6321 144.063 61.6314 144.062ZM62.3179 160.842C62.5709 160.735 62.8264 160.618 63.0803 160.509C63.0822 160.509 63.0842 160.51 63.0861 160.51C62.83 160.621 62.573 160.734 62.3179 160.842ZM63.4409 172.652C63.9124 172.574 64.3929 172.477 64.8733 172.38C64.8691 172.382 64.8648 172.385 64.8607 172.387C64.3836 172.483 63.9091 172.574 63.4409 172.652ZM72.7605 176.521C72.9275 176.419 73.0949 176.318 73.2621 176.214C73.2627 176.214 73.2635 176.214 73.2641 176.214C73.0961 176.318 72.9288 176.419 72.7605 176.521ZM79.2251 108.47C79.2454 108.475 79.2649 108.48 79.2852 108.485C79.2606 108.489 79.236 108.492 79.2107 108.496L79.2251 108.47ZM72.8701 189.863C73.0667 189.815 73.266 189.76 73.4636 189.709C73.4585 189.713 73.4526 189.718 73.4475 189.722C73.254 189.773 73.0626 189.816 72.8701 189.863ZM79.052 205.391C79.0478 205.393 79.0431 205.394 79.0383 205.396C79.1295 205.366 79.2255 205.328 79.3182 205.297C79.2296 205.327 79.1391 205.362 79.052 205.391ZM93.4615 167.477C93.7829 167.249 94.1044 167.02 94.4262 166.777C94.105 167.02 93.7836 167.253 93.4622 167.482L93.4615 167.477ZM90.0589 200.139C89.8466 200.275 89.6353 200.407 89.4237 200.537C89.6374 200.405 89.8517 200.266 90.0661 200.129C90.0637 200.132 90.0613 200.135 90.0589 200.139ZM91.5594 205.008C91.4702 205.038 91.3903 205.061 91.3026 205.089C91.4032 205.057 91.4968 205.028 91.6003 204.994C91.5867 204.999 91.573 205.004 91.5594 205.008ZM90.8218 220.126C90.6318 220.19 90.4544 220.247 90.2852 220.3C90.4782 220.239 90.6898 220.17 90.9105 220.095C90.8825 220.106 90.8503 220.118 90.8218 220.126ZM106.848 213.865C107.213 213.134 107.609 212.321 108.028 211.438C107.61 212.32 107.213 213.133 106.848 213.865ZM109.444 208.354C109.444 208.353 109.445 208.351 109.445 208.35L109.446 208.35C109.445 208.351 109.444 208.353 109.444 208.354ZM108.104 232.422C108.104 232.422 108.12 232.417 108.146 232.407C108.119 232.417 108.104 232.422 108.104 232.422ZM118.252 226.456C119.123 225.792 120.021 225.063 120.935 224.267C120.021 225.063 119.123 225.792 118.252 226.456ZM125.693 219.568C125.033 220.303 124.372 221.013 123.711 221.675C124.371 221.013 125.033 220.303 125.693 219.568ZM140.065 233.439C140.065 233.438 144.668 230.665 149.463 224.637C144.668 230.665 140.065 233.439 140.065 233.439ZM162.828 240.666C162.828 240.666 163.504 234.957 163.517 226.417C163.504 234.958 162.828 240.665 162.828 240.666ZM163.453 221.532C163.47 222.15 163.485 222.76 163.495 223.358C163.485 222.76 163.471 222.15 163.453 221.532Z" fill="black"/>
<path d="M298.612 110.914C270.493 101.365 241.303 94.6005 211.85 90.8082C182.398 87.0159 152.445 86.1653 122.826 88.2801L112.683 89.0044L118.896 97.0542C123.276 102.73 126.449 109.116 128.324 116.037C130.199 122.957 130.686 130.07 129.77 137.182L122.679 192.254C120.454 209.535 125.092 226.647 135.738 240.442L184.457 303.56L247.575 254.841C261.368 244.194 270.189 228.815 272.414 211.534L279.505 156.461C281.358 142.07 288.705 129.263 300.19 120.397L308.24 114.184L298.612 110.914Z" fill="white"/>
<path d="M140.055 237.107L185.441 295.907L244.241 250.522C256.791 240.835 264.979 226.56 267.003 210.836L274.094 155.764C276.119 140.041 284.307 125.765 296.856 116.079C274.013 108.32 245.106 100.589 211.153 96.2172C187.225 93.1363 157.36 91.282 123.213 93.7206C126.267 97.6771 130.907 104.714 133.588 114.609C135.622 122.114 136.192 130.016 135.18 137.877L128.089 192.95C126.064 208.673 130.369 224.558 140.055 237.107Z" fill="black"/>
<path d="M150.349 229.162C142.716 219.273 139.391 207.002 140.986 194.611L148.077 139.539C149.304 130.012 148.651 120.479 146.139 111.208C145.636 109.352 145.064 107.525 144.423 105.729C166.154 105.212 187.963 106.344 209.492 109.116C231.01 111.887 252.38 116.312 273.262 122.312C266.843 131.684 262.689 142.511 261.196 154.104L254.105 209.176C252.51 221.566 246.185 232.594 236.294 240.228L187.789 277.667L150.349 229.162Z" fill="black"/>
<path d="M187.538 279.621L149.247 230.013C141.386 219.829 137.962 207.193 139.605 194.433L146.696 139.361C147.899 130.015 147.26 120.666 144.795 111.572C144.304 109.757 143.737 107.949 143.112 106.197L142.464 104.381L144.39 104.335C166.17 103.817 188.132 104.961 209.67 107.734C231.198 110.506 252.723 114.96 273.648 120.973L275.504 121.507L274.414 123.1C268.024 132.427 264.042 142.918 262.579 154.282L255.488 209.354C253.845 222.114 247.332 233.471 237.147 241.331L187.538 279.621ZM151.453 228.31L188.042 275.713L235.444 239.125C245.039 231.719 251.177 221.019 252.725 208.998L259.816 153.926C261.253 142.767 265.028 132.416 271.045 123.129C250.832 117.419 230.075 113.171 209.315 110.498C188.544 107.823 167.374 106.674 146.36 107.08C146.766 108.321 147.143 109.58 147.485 110.842C150.046 120.292 150.71 130.006 149.46 139.716L142.369 194.788C140.821 206.811 144.047 218.716 151.453 228.31Z" fill="white"/>
<path d="M332.708 293.531C333.652 284.612 333.803 275.873 333.156 267.558C332.006 252.787 327.66 240.275 322.936 228.96C323.032 228.915 323.129 228.866 323.225 228.816C324.895 227.926 326 226.255 326.256 224.233C326.524 222.133 325.859 220.179 324.445 218.882L322.597 217.172C317.9 212.822 313.044 208.323 307.513 204.538C304.931 202.77 302.254 201.282 299.533 199.969C299.874 198.804 299.941 197.328 299.382 195.508C299.378 195.261 299.369 195.014 299.35 194.773C298.514 184.547 297.339 175.082 295.758 165.837C295.246 162.843 294.551 159.926 293.878 157.104C292.979 153.331 292.129 149.766 291.727 146.179C291.627 145.283 291.661 143.988 291.698 142.618C291.826 137.837 292.039 129.836 285.02 126.143C283.475 125.331 281.906 124.625 280.334 123.98C280.4 122.996 280.297 122.158 280.232 121.633C278.666 108.906 278.775 95.5783 280.562 80.8886C280.687 79.8651 280.866 78.954 281.108 78.1386C281.478 78.5479 281.897 78.9434 282.371 79.3173C283.201 79.9731 284.061 80.4566 284.88 80.8423L284.761 83.4262C284.748 83.7107 284.746 84.0057 284.749 84.3072C283.681 84.7955 282.718 85.539 281.963 86.4951C280.452 88.4064 280.167 90.5838 280.046 91.5146C279.739 93.8762 279.544 97.3949 281.395 100.676C283.467 104.355 287.113 106.036 290.058 107.089C292.012 107.788 294.023 108.393 296.03 108.884C296.541 109.011 297.154 109.152 297.83 109.239C299.124 109.405 300.307 109.337 301.443 109.033C304.009 108.345 306.099 106.523 307.652 103.619C308.48 102.073 309.129 100.43 309.581 98.736C310.316 95.983 309.973 93.6114 308.562 91.6856C307.411 90.1159 305.896 89.3961 304.884 89.0161C304.885 89.0149 304.884 89.0168 304.884 89.0161C307.371 89.3578 311.295 89.0185 315.773 85.4067C317.062 85.9591 318.484 86.4988 320.154 86.7137C320.429 86.7491 320.706 86.7744 320.987 86.7904C323.991 86.9536 326.765 85.8515 328.6 83.7661L330.341 81.7514L329.905 79.1683C329.384 76.0763 327.465 74.9904 319.391 70.4207C318.768 70.0681 318.274 69.79 318.013 69.6365C317.743 69.4335 317.389 69.1116 317.016 68.7729C315.917 67.7736 314.378 66.3742 312.252 65.6188C310.734 61.7409 307.183 59.8725 305.202 58.8301C304.765 58.5997 304.324 58.3722 303.905 58.1221C303.782 57.9987 303.564 57.7471 303.399 57.5564C303.084 57.1918 302.765 56.8288 302.434 56.4902L301.849 55.8948C300.014 54.0251 297.001 54.0244 295.164 55.8931L294.327 55.3949C292.097 54.0689 289.792 52.6992 287.928 51.2078C287.102 50.5481 286.274 49.5876 285.398 48.5722C284.599 47.6461 283.694 46.5974 282.643 45.6063C281.089 44.1392 279.21 43.2279 277.21 42.9704C273.282 42.4646 269.572 44.6019 267.977 48.2889C262.433 61.1093 259.277 74.5103 258.046 90.4652C257.787 93.8211 257.664 97.1866 257.565 100.476C257.39 100.447 257.215 100.422 257.041 100.399C254.556 100.079 252.165 100.389 249.998 101.298C247.851 98.5277 244.492 96.6293 240.653 96.135C240.213 96.0784 239.777 96.0405 239.344 96.0211C240.487 88.4546 240.515 80.3057 239.458 70.035C238.179 57.6221 234.069 46.7171 229.607 35.7134C228.954 34.1015 228.14 32.0955 226.549 30.2723C224.75 28.2097 222.269 26.9629 219.177 26.5648C218.373 26.4612 217.513 26.4092 216.473 26.4024L210.727 26.3638C209.725 26.3573 208.788 26.4165 207.913 26.5412C205.481 23.0323 201.281 22.3768 199.401 22.084C198.899 22.0056 198.389 21.9295 197.877 21.8636C195.035 21.4977 191.335 21.3367 187.903 23.3578C186.944 23.9227 186.183 24.5605 185.571 25.0736C185.382 25.2324 185.145 25.4313 184.964 25.571C184.758 25.5562 184.492 25.5277 184.277 25.5053C183.564 25.4305 182.677 25.3371 181.677 25.3804C178.822 25.5029 176.559 26.6402 174.74 27.5544C173.9 27.9761 173.107 28.3752 172.512 28.534C171.475 28.8124 169.925 28.6577 168.282 28.4932L167.618 28.4272C162.662 27.9521 157.635 27.935 152.672 28.378C151.367 28.4948 148.312 28.7676 146.064 31.2293C143.4 34.1452 143.856 37.8623 144.027 39.2622C144.19 40.5952 144.686 44.6493 148.344 46.734C149.253 47.2513 150.279 47.5874 151.394 47.731C152.145 47.8276 152.82 47.8246 153.389 47.8138L168.856 47.5431C168.943 48.2028 169.084 48.8511 169.277 49.4835C168.465 50.3208 167.895 51.3424 167.605 52.4639C166.68 52.5091 165.756 52.5648 164.832 52.6303C163.982 52.1284 163.051 51.8084 162.062 51.6811C159.095 51.299 156.07 52.7196 154.355 55.3047C152.869 57.5471 152.687 59.973 152.693 61.8341C152.7 63.7955 152.875 66.3658 154.172 68.8454C156.962 74.1757 162.848 75.5677 166.009 76.3158C167.805 76.7399 170.039 77.2681 172.317 77.5613C175.098 77.9194 177.575 77.8805 179.888 77.4418C186.506 76.1874 191.644 71.1876 192.384 65.2845C192.721 62.5878 191.869 60.0997 190.18 58.479L192.61 53.6858L190.838 53.4206C190.928 53.3083 191.018 53.1954 191.108 53.0811C191.359 52.757 191.602 52.4245 191.843 52.0913C192.167 51.6454 192.502 51.1827 192.726 50.9685C192.846 50.8549 192.975 50.7509 193.101 50.6427C193.601 50.2208 194.313 49.6177 194.977 48.7659C196.161 48.8388 197.333 48.8887 198.485 48.938C199.979 49.0013 201.41 49.0623 202.759 49.1637C204.511 51.1478 206.251 53.1421 207.991 55.1371C209.358 56.704 210.725 58.2709 212.098 59.832C212.252 60.1464 212.411 60.4635 212.571 60.7807C212.982 61.593 213.407 62.4336 213.584 63.0274C214.49 66.0746 214.829 69.7805 214.405 72.0391C213.648 76.0674 211.588 80.07 208.447 83.6135C207.54 84.636 206.645 85.6711 205.761 86.7025L200.141 92.8525C199.768 93.2139 199.448 93.5833 199.167 93.9779C194.508 100.523 188.889 110.189 190.966 121.347C190.835 121.47 190.709 121.597 190.587 121.729L185.396 127.227L185.616 127.33C185.557 127.411 185.502 127.484 185.455 127.549L185.433 127.59L183.232 130.124L184.399 133.219C185.143 135.19 186.887 136.535 189.065 136.815C189.905 136.923 190.916 136.906 192.923 136.747C192.945 136.749 192.967 136.751 192.99 136.754C193.084 136.766 193.183 136.786 193.285 136.813C193.316 136.958 193.352 137.107 193.395 137.259C193.438 137.409 193.483 137.555 193.53 137.697C192.223 137.567 190.909 137.476 189.606 137.426C184.374 137.227 179.224 137.666 174.212 138.74C174.222 137.668 173.896 136.776 173.632 136.229C172.788 134.494 171.118 133.308 169.166 133.057C165.588 132.596 159.3 136.316 159.033 136.476C154.589 139.127 151.841 143.624 151.325 148.877C146.998 151.979 143.045 155.663 139.631 159.746C134.613 155.63 128.697 152.538 122.446 150.805C120.817 150.354 119.442 150.064 118.119 149.894C117.123 149.765 116.173 149.72 115.262 149.74L102.837 150.556C102.837 150.556 100.627 149.833 100.132 149.666L99.9918 149.604C99.4982 149.383 98.6711 149.013 97.5709 148.871L97.2466 148.834L97.0258 148.823C96.4071 148.793 95.7894 148.863 95.1943 149.02L88.6334 144.905L88.521 145.317C86.2168 144.311 83.8588 143.647 81.5077 143.344C78.4911 142.956 75.4381 143.153 72.434 143.928C63.2872 146.29 54.875 151.349 47.4334 158.964C44.7625 161.697 44.3068 166.355 45.1993 169.659C44.4617 170.659 43.963 171.662 43.5484 172.498C43.3901 172.816 43.2356 173.135 43.0592 173.442C42.6858 174.094 42.3852 174.597 42.1582 174.947C41.7168 174.918 41.0891 174.853 40.2808 174.752L38.8658 174.564C38.2683 174.488 37.4752 174.395 36.6308 174.363C32.8131 174.217 30.84 176.117 30.0037 177.261C29.1578 178.42 27.9388 180.916 29.2811 184.625C31.2493 190.058 35.0724 191.866 37.7221 192.453C37.326 193.175 36.935 193.893 36.5469 194.604C35.766 196.037 34.9852 197.47 34.1903 198.895C27.1838 211.447 25.0443 224.875 23.1475 239.864C22.6842 243.528 23.2797 247.2 23.8749 250.352C25.8058 260.595 30.165 269.291 36.8298 276.199C41.9325 281.484 49.0901 284.852 57.5315 285.939C61.5258 286.454 65.7175 286.458 69.9911 285.953C76.1513 285.227 81.6538 283.692 86.3476 281.391C87.7609 280.697 89.0191 279.813 90.2352 278.959C91.2617 278.235 93.173 276.892 93.8089 276.889C94.4865 277.103 95.1701 277.301 95.8545 277.499C97.0541 277.846 98.1883 278.174 99.1739 278.573C102.772 280.03 106.352 281.541 109.931 283.048C116.86 285.97 124.026 288.991 131.291 291.613C137.195 293.743 143.216 295.062 149.038 296.338C154.544 297.546 159.745 298.685 164.746 300.442C166.735 301.141 168.246 301.884 169.364 302.712C170.918 303.865 172.433 305.144 174.039 306.497C176.359 308.453 178.757 310.476 181.44 312.243L182.177 312.731C186.88 315.844 192.733 319.717 198.875 320.575L199.211 320.619C207.402 321.674 212.453 318.869 215.249 316.331C215.694 315.926 216.074 315.526 216.403 315.131C217.4 323.364 218.916 331.42 222.349 339.703C227.284 351.606 234.081 360.829 242.553 367.115C248.517 371.541 255.58 374.384 262.98 375.337C262.98 375.337 262.98 375.337 262.981 375.337C267.683 375.942 272.499 375.802 277.294 374.921C282.323 373.997 287.087 372.402 291.458 370.178C302.145 364.738 311.387 355.568 318.182 343.661C323.569 334.223 327.534 322.93 330.305 309.136C331.358 303.88 332.167 298.629 332.708 293.531ZM213.674 111.986C211.433 113.116 210.175 115.47 209.737 116.962C209.373 118.2 209.057 119.428 208.753 120.727C208.17 120.489 207.499 120.294 206.726 120.159C205.905 119.913 205.062 119.733 204.214 119.624C204.1 119.61 203.986 119.596 203.872 119.584C202.934 114.65 203.981 110.294 207.12 105.981C207.893 104.918 208.649 103.831 209.369 102.746C210.119 101.852 210.853 100.943 211.588 100.033C213.397 97.7915 215.107 95.6737 217.006 93.8652C217.107 93.7699 217.206 93.6739 217.305 93.5758C216.598 97.7892 215.553 102.052 214.17 106.354C213.888 107.229 213.157 109.501 213.674 111.986ZM201.366 305.846C201.29 305.889 201.152 305.943 200.99 306.001C199.821 305.583 198.809 305.163 197.931 304.696C198.636 304.477 199.34 304.258 200.045 304.039C201.814 303.49 203.62 302.929 205.432 302.35C204.393 303.597 203.053 304.746 201.366 305.846ZM248.04 196.598C248.236 195.763 248.45 194.947 248.68 194.176C248.974 194.71 249.304 195.225 249.668 195.725C249.121 196.008 248.579 196.299 248.04 196.598Z" fill="white"/>
<path d="M262.716 377.386C254.967 376.388 247.569 373.41 241.321 368.773C232.546 362.263 225.522 352.748 220.441 340.496C217.304 332.926 215.795 325.679 214.867 319.278C211.559 321.616 206.423 323.631 198.946 322.668L198.603 322.623C191.982 321.697 185.913 317.682 181.037 314.455L180.3 313.965C177.523 312.137 175.08 310.077 172.717 308.084C171.098 306.721 169.621 305.474 168.134 304.371C167.184 303.669 165.852 303.02 164.061 302.39C159.186 300.679 154.053 299.553 148.618 298.361C142.686 297.06 136.611 295.727 130.591 293.557C123.275 290.917 116.084 287.884 109.131 284.952L108.883 284.849C105.395 283.379 101.906 281.908 98.3989 280.488C97.5143 280.129 96.4336 279.816 95.2892 279.486C94.8036 279.345 94.3215 279.206 93.8428 279.061C93.3693 279.317 92.5591 279.849 91.4238 280.648C90.1362 281.552 88.8133 282.481 87.2581 283.246C82.3509 285.65 76.6234 287.252 70.2322 288.004C65.7913 288.529 61.4295 288.524 57.2672 287.988C48.3564 286.84 40.7764 283.261 35.3436 277.633C28.3941 270.431 23.8523 261.382 21.8456 250.736C21.2214 247.428 20.5981 243.568 21.0984 239.606C23.0225 224.399 25.2005 210.764 32.3866 197.89C33.1762 196.476 33.9519 195.052 34.7271 193.628C32.1504 192.48 29.0792 190.132 27.3394 185.329C25.6712 180.72 27.2475 177.534 28.3354 176.045C29.4139 174.569 31.9355 172.12 36.7079 172.301C37.6308 172.337 38.4863 172.436 39.1281 172.519L40.5508 172.707C40.731 172.73 40.9023 172.75 41.0648 172.769C41.1294 172.658 41.1971 172.541 41.2671 172.418C41.4005 172.187 41.5173 171.948 41.6354 171.709L41.6997 171.579C42.0368 170.9 42.438 170.093 42.9862 169.236C42.2922 165.571 42.9086 160.642 45.9565 157.522C53.6653 149.634 62.3994 144.388 71.9176 141.931C76.9621 140.628 82.1184 140.839 87.1335 142.563L87.3749 141.68L95.5955 146.837C96.1042 146.763 96.6158 146.738 97.1237 146.762L97.8088 146.822C99.2398 147.007 100.278 147.472 100.836 147.723L100.876 147.739C101.325 147.89 102.493 148.272 103.1 148.471L115.126 147.681C117.786 147.618 119.991 147.984 122.997 148.817C128.842 150.438 134.459 153.218 139.356 156.906C142.385 153.499 145.748 150.422 149.386 147.736C150.197 142.213 153.29 137.499 157.976 134.704C159.166 133.995 165.31 130.48 169.43 131.011C172.074 131.351 174.339 132.965 175.488 135.327C175.62 135.6 175.761 135.931 175.886 136.309C178.301 135.878 180.751 135.588 183.22 135.436C182.92 134.977 182.668 134.479 182.468 133.948L180.866 129.701L182.301 128.051L181.941 127.882L188.76 120.659C187.056 109.089 192.885 99.2477 197.486 92.7827C197.843 92.2825 198.241 91.8221 198.705 91.3727L204.238 85.3118C205.086 84.3214 205.989 83.2776 206.904 82.2456C209.797 78.9818 211.689 75.322 212.377 71.6601C212.74 69.7223 212.416 66.3395 211.606 63.6183C211.481 63.1974 211.064 62.3753 210.73 61.7144L210.371 60.9963C209.057 59.4994 207.747 57.9978 206.437 56.4969C204.886 54.7172 203.333 52.9387 201.772 51.1676C200.693 51.1003 199.565 51.0522 198.399 51.003C197.568 50.9677 196.725 50.9316 195.876 50.8874C195.483 51.3047 195.104 51.6464 194.781 51.9262L195.745 52.0698L192.65 58.1767C194.131 60.195 194.776 62.8011 194.433 65.5426C193.583 72.3245 187.76 78.0522 180.273 79.471C177.744 79.951 175.056 79.996 172.054 79.6094C169.672 79.3027 167.382 78.7614 165.541 78.3263C162.3 77.5604 155.57 75.9684 152.343 69.8028C150.839 66.927 150.637 64.0384 150.63 61.8423C150.621 59.689 150.842 56.8704 152.634 54.1649C154.145 51.8885 156.477 50.3339 159.03 49.7807L153.425 49.8783C152.736 49.8912 151.979 49.8883 151.13 49.779C149.749 49.6011 148.467 49.18 147.323 48.5281C144.297 46.8037 142.499 43.7709 141.978 39.5141C141.794 38.0142 141.236 33.4535 144.54 29.8372C147.33 26.7837 151.078 26.449 152.488 26.3229C157.577 25.8688 162.733 25.8861 167.814 26.3735L168.486 26.4397C169.808 26.5722 171.304 26.7212 171.977 26.5412C172.364 26.4373 173.124 26.056 173.794 25.72C175.703 24.76 178.291 23.4598 181.589 23.3187C182.651 23.2724 183.594 23.3599 184.315 23.4344C184.945 22.9067 185.789 22.2086 186.856 21.5801C190.828 19.2413 194.974 19.4089 198.141 19.8167C198.672 19.885 199.2 19.964 199.72 20.0454C201.625 20.3422 205.872 21.003 208.829 24.3663C209.444 24.3191 210.084 24.2965 210.741 24.301L216.488 24.3396C217.615 24.3472 218.552 24.404 219.442 24.5186C223.05 24.9831 225.964 26.4625 228.105 28.9164C229.924 31.0017 230.847 33.2773 231.521 34.9394C236.041 46.0855 240.206 57.1408 241.513 69.8246C242.487 79.2861 242.542 87.1036 241.676 94.2041C245.153 94.81 248.32 96.4692 250.632 98.8781C252.215 98.3936 253.869 98.1731 255.574 98.2187C255.664 95.6382 255.786 92.9574 255.99 90.3075C257.24 74.1184 260.447 60.507 266.084 47.4712C268.048 42.9302 272.627 40.2999 277.476 40.9243C279.911 41.2378 282.189 42.338 284.062 44.1063C285.194 45.1744 286.175 46.311 286.963 47.2252C287.774 48.1659 288.541 49.0559 289.218 49.5967C290.871 50.9195 292.961 52.18 295.013 53.401C296.056 52.7668 297.256 52.4286 298.51 52.4291C300.338 52.4304 302.046 53.1477 303.324 54.4496L303.909 55.0451C304.271 55.4143 304.619 55.8091 304.963 56.2074C305.043 56.2991 305.131 56.4023 305.21 56.4927C305.471 56.639 305.739 56.7798 306.006 56.9198L306.166 57.0042C308.199 58.0729 311.872 60.0045 313.807 64.0197C315.871 64.9418 317.371 66.3048 318.405 67.2442C318.7 67.5123 318.96 67.7524 319.171 67.9216C319.39 68.0483 319.715 68.2323 320.111 68.4559L320.41 68.6255C328.742 73.3417 331.258 74.7652 331.944 78.8261L332.54 82.3672L330.163 85.1173C327.897 87.694 324.516 89.0504 320.876 88.8523C319.06 88.7442 317.472 88.2952 316.089 87.7652C314.049 89.2422 312.109 90.1298 310.346 90.6288C312.023 93.023 312.448 96.0056 311.578 99.269C311.085 101.115 310.377 102.907 309.474 104.593C307.642 108.021 305.12 110.187 301.98 111.027C300.577 111.403 299.135 111.488 297.569 111.286C296.79 111.186 296.105 111.029 295.538 110.889C293.464 110.38 291.386 109.756 289.366 109.033C286.731 108.091 283.585 106.682 281.201 103.956C281.225 109.933 281.586 115.719 282.282 121.381C282.32 121.689 282.372 122.108 282.4 122.611C283.699 123.174 284.88 123.737 285.982 124.317C294.137 128.607 293.894 137.757 293.763 142.672C293.73 143.912 293.695 145.193 293.78 145.95C294.168 149.416 295.003 152.918 295.887 156.626C296.567 159.479 297.27 162.428 297.793 165.49C299.385 174.796 300.567 184.319 301.407 194.606C301.423 194.797 301.433 194.99 301.44 195.186C301.792 196.439 301.924 197.65 301.833 198.805C304.332 200.075 306.583 201.401 308.679 202.836C314.332 206.704 319.242 211.252 323.99 215.649L325.848 217.367C327.761 219.122 328.658 221.721 328.305 224.495C328.033 226.632 327.035 228.483 325.502 229.761C329.746 240.111 334.061 252.587 335.214 267.4C335.87 275.836 335.718 284.702 334.762 293.749L334.762 293.751C334.213 298.913 333.394 304.228 332.327 309.544C329.511 323.562 325.47 335.057 319.973 344.687C312.978 356.945 303.44 366.398 292.393 372.02C287.848 374.333 282.893 375.994 277.667 376.954C272.661 377.874 267.631 378.019 262.716 377.386ZM217.876 310.137L218.451 314.883C219.3 321.889 220.653 330.223 224.255 338.914C229.045 350.467 235.615 359.4 243.782 365.459C253.084 372.363 265.14 375.061 276.92 372.892C281.754 372.004 286.33 370.471 290.519 368.338C300.848 363.083 309.792 354.196 316.388 342.639C321.663 333.398 325.552 322.306 328.28 308.73C329.321 303.537 330.12 298.351 330.655 293.312C331.586 284.516 331.735 275.905 331.097 267.719C329.93 252.718 325.354 240.11 321.032 229.756L320.274 227.941L322.252 226.995C323.326 226.423 324.039 225.322 324.209 223.973C324.391 222.546 323.968 221.245 323.051 220.404L321.196 218.688C316.546 214.382 311.75 209.939 306.347 206.242C304.038 204.661 301.516 203.218 298.635 201.828L297.06 201.068L297.552 199.389C297.831 198.436 297.783 197.334 297.408 196.114L297.323 195.834L297.318 195.542C297.315 195.34 297.308 195.139 297.292 194.942C296.462 184.778 295.294 175.371 293.723 166.185C293.222 163.256 292.535 160.372 291.87 157.584C290.956 153.749 290.093 150.127 289.677 146.409C289.56 145.369 289.596 144.006 289.636 142.563C289.757 137.984 289.942 131.065 284.059 127.971C282.721 127.267 281.246 126.586 279.55 125.891L278.175 125.327L278.275 123.844C278.328 123.05 278.241 122.351 278.184 121.888C276.598 108.99 276.705 95.4978 278.514 80.64C278.656 79.4792 278.857 78.4694 279.13 77.5517L280.177 74.0306L282.64 76.7554C282.944 77.0918 283.283 77.4086 283.65 77.6976C284.25 78.1711 284.94 78.5892 285.761 78.9757L287.005 79.5623L286.824 83.522C286.812 83.7688 286.811 84.0221 286.814 84.2806L286.831 85.6269L285.607 86.1855C284.821 86.5445 284.121 87.0945 283.585 87.7743C282.425 89.2413 282.201 90.9573 282.094 91.7817C281.825 93.8504 281.645 96.9179 283.193 99.6632C284.931 102.748 288.146 104.214 290.754 105.146C292.641 105.821 294.582 106.404 296.523 106.881C296.98 106.993 297.522 107.118 298.095 107.192C299.116 107.323 300.038 107.273 300.911 107.039C302.904 106.505 304.56 105.027 305.833 102.645C306.586 101.238 307.176 99.7439 307.588 98.2046C308.162 96.0552 307.936 94.3224 306.898 92.9061C306.056 91.7567 304.932 91.2392 304.161 90.9502L286.848 84.4591L305.166 86.9722C307.2 87.2724 310.583 86.9442 314.478 83.8003L315.446 83.0196L316.589 83.5096C317.92 84.0805 319.42 84.6381 321.105 84.7298C323.468 84.8575 325.638 84.01 327.052 82.4029L328.146 81.1366L327.872 79.5121C327.536 77.5201 326.366 76.7392 318.376 72.2176L318.078 72.0482C317.584 71.7688 317.194 71.5478 316.97 71.4167L316.776 71.2874C316.472 71.0593 316.075 70.7037 315.656 70.3239C314.59 69.3557 313.297 68.1802 311.563 67.5632L310.675 67.2475L310.332 66.3703C309.095 63.2076 306.058 61.6114 304.244 60.657L304.086 60.5741C303.668 60.3547 303.25 60.134 302.85 59.8955L302.443 59.5785C302.3 59.4349 302.047 59.1461 301.852 58.9203C301.553 58.5741 301.264 58.2436 300.962 57.9369L300.377 57.3415C299.881 56.837 299.216 56.5591 298.508 56.5579C297.799 56.5572 297.135 56.836 296.638 57.341L295.503 58.4959L293.273 57.1698C290.972 55.802 288.61 54.3977 286.639 52.8208C285.665 52.0415 284.776 51.012 283.836 49.9211C283.072 49.036 282.205 48.0308 281.228 47.1091C279.992 45.9424 278.512 45.22 276.947 45.0185C273.942 44.6315 271.098 46.2755 269.872 49.11C264.421 61.7136 261.318 74.9056 260.105 90.6248C259.849 93.9511 259.725 97.3551 259.629 100.539L259.558 102.895L257.233 102.514C254.943 102.135 252.775 102.373 250.798 103.202L249.338 103.814L248.368 102.563C246.534 100.196 243.626 98.5991 240.39 98.1825C240.009 98.1334 239.629 98.1001 239.253 98.0837L236.961 97.9821L237.304 95.7138C238.424 88.2993 238.455 80.4447 237.406 70.2467C236.155 58.1033 232.099 47.3494 227.695 36.4901C227.069 34.9449 226.359 33.1935 224.994 31.6307C223.537 29.9603 221.491 28.9447 218.915 28.613C218.195 28.5202 217.414 28.4739 216.46 28.4676L210.715 28.4286C209.819 28.4227 208.974 28.4756 208.205 28.5852L206.944 28.7649L206.218 27.7179C204.29 24.9355 200.774 24.3877 199.085 24.1246C198.601 24.0498 198.109 23.9754 197.615 23.9118C195.101 23.5881 191.843 23.4346 188.951 25.1375C188.139 25.6163 187.48 26.1688 186.899 26.6565C186.691 26.8311 186.428 27.0501 186.226 27.206L185.602 27.6881L184.815 27.6312C184.607 27.616 184.342 27.5892 184.117 27.5653C183.382 27.4883 182.614 27.4076 181.767 27.4446C179.353 27.5477 177.395 28.532 175.667 29.4C174.717 29.8772 173.84 30.317 173.046 30.5303C171.645 30.9065 169.913 30.7324 168.078 30.5502L167.414 30.4843C162.591 30.021 157.691 30.0054 152.856 30.4367C151.7 30.5402 149.296 30.7547 147.588 32.6236C145.565 34.838 145.922 37.7636 146.076 39.0132C146.222 40.2059 146.609 43.3713 149.366 44.9431C150.532 45.6055 152.114 45.776 153.35 45.752L170.664 45.4498L170.903 47.2769C170.974 47.8198 171.091 48.3609 171.251 48.8827L171.607 50.0476L170.759 50.922C170.203 51.4951 169.804 52.2076 169.603 52.9828L169.223 54.4531L167.706 54.5283C166.797 54.5729 165.887 54.6278 164.979 54.692L164.337 54.7378L163.783 54.4103C163.174 54.0503 162.506 53.8216 161.799 53.7305C159.606 53.4481 157.358 54.5151 156.075 56.448C154.904 58.2166 154.752 60.1602 154.758 61.8283C154.764 63.5563 154.911 65.805 156.002 67.8904C158.355 72.3855 163.445 73.5897 166.485 74.3091C168.238 74.7231 170.413 75.2365 172.582 75.5157C175.146 75.8459 177.41 75.8128 179.505 75.4158C185.253 74.3251 189.708 70.0553 190.337 65.0296C190.588 63.0218 190.011 61.1773 188.752 59.9698L187.649 58.9113L189.477 55.3051L186.978 54.9305L189.484 51.8099C189.716 51.5106 189.945 51.1966 190.172 50.8823C190.583 50.3174 190.947 49.8161 191.3 49.4789C191.428 49.3566 191.559 49.2444 191.692 49.1337C192.236 48.6739 192.816 48.1835 193.349 47.4987L194.019 46.6398L195.105 46.7073C196.276 46.7792 197.435 46.8294 198.574 46.877C200.09 46.9412 201.544 47.0039 202.914 47.1066L203.751 47.1701L204.305 47.7988C206.06 49.7865 207.803 51.7838 209.546 53.7817C210.912 55.3471 212.278 56.9119 213.648 58.4715L213.83 58.6781L214.414 59.8515C214.864 60.7418 215.331 61.6642 215.562 62.4395C216.568 65.8215 216.919 69.8327 216.434 72.4211C215.608 76.8166 213.381 81.1601 209.992 84.9837C209.091 85.9986 208.204 87.0244 207.328 88.0464L201.665 94.2462C201.294 94.6098 201.055 94.886 200.846 95.1784C196.542 101.225 191.042 110.482 192.995 120.97L193.202 122.081L192.377 122.854C192.281 122.944 192.189 123.037 192.098 123.135L188.382 127.071L186.991 128.943L185.598 130.548L186.33 132.491C186.806 133.754 187.899 134.583 189.328 134.767C190.005 134.855 190.935 134.834 192.759 134.689L193.124 134.692C193.427 134.729 193.615 134.766 193.807 134.816L195.039 135.138L195.304 136.384C195.326 136.486 195.351 136.591 195.382 136.699C195.416 136.821 195.453 136.939 195.491 137.053L196.481 140.066L193.325 139.751C192.065 139.626 190.787 139.537 189.527 139.489C184.486 139.296 179.479 139.723 174.643 140.758L172.122 141.298L172.147 138.718C172.153 138.056 171.948 137.488 171.773 137.128C171.236 136.024 170.162 135.266 168.902 135.104C166.78 134.83 162.371 136.887 160.09 138.248C156.222 140.556 153.838 144.403 153.378 149.079L153.286 150.009L152.526 150.554C148.351 153.547 144.545 157.085 141.215 161.069L139.903 162.638L138.321 161.342C133.509 157.395 127.829 154.439 121.893 152.794C119.294 152.073 117.346 151.759 115.306 151.803L102.572 152.641L102.193 152.517C102.193 152.517 99.9699 151.79 99.4714 151.622L99.1606 151.494C98.7318 151.302 98.1057 151.021 97.3056 150.918L96.9235 150.884C96.5289 150.865 96.1224 150.909 95.719 151.015L94.8547 151.243L89.8901 148.13L89.8812 148.164L87.6937 147.208C82.8545 145.095 77.8506 144.661 72.9491 145.927C64.1712 148.192 56.083 153.064 48.9086 160.406C46.8148 162.549 46.4602 166.412 47.1908 169.12L47.4503 170.082L46.8588 170.883C46.2265 171.74 45.7854 172.63 45.3963 173.414L45.3337 173.541C45.178 173.854 45.0218 174.166 44.8485 174.469C44.4518 175.161 44.1314 175.696 43.889 176.069L43.2293 177.088L42.0185 177.005C41.55 176.974 40.8828 176.906 40.0239 176.799L38.5929 176.609C38.0453 176.539 37.3095 176.453 36.5512 176.424C33.8324 176.32 32.3959 177.483 31.6696 178.478C30.9321 179.487 30.2545 181.252 31.221 183.921C32.8416 188.393 35.8931 189.933 38.167 190.436L40.854 191.03L38.3577 195.591C37.5749 197.028 36.79 198.467 35.9918 199.898C29.1658 212.127 27.0638 225.349 25.1937 240.121C24.7687 243.487 25.3365 246.969 25.9014 249.968C27.757 259.808 31.933 268.15 38.3137 274.763C43.0874 279.709 49.8233 282.864 57.7935 283.89C61.6205 284.383 65.6421 284.387 69.7477 283.901C75.6749 283.203 80.9532 281.734 85.4384 279.535C86.7027 278.914 87.8921 278.079 89.0415 277.271C91.7323 275.377 92.7981 274.828 93.7961 274.823L94.1209 274.821L94.431 274.919C95.0923 275.128 95.759 275.321 96.4269 275.515C97.6843 275.879 98.865 276.22 99.9473 276.658C103.473 278.086 106.979 279.564 110.485 281.042L110.731 281.145C117.637 284.058 124.777 287.068 131.99 289.669C137.755 291.751 143.697 293.054 149.444 294.314C155.062 295.545 160.315 296.697 165.427 298.494C167.614 299.262 169.302 300.1 170.59 301.053C172.182 302.233 173.707 303.519 175.322 304.88C177.648 306.841 179.997 308.82 182.573 310.519L183.313 311.01C187.842 314.006 193.479 317.737 199.158 318.529L199.479 318.573C206.88 319.526 211.384 317.049 213.858 314.802C214.211 314.481 214.524 314.155 214.813 313.807L217.876 310.137ZM282.517 81.9199C282.462 82.3854 282.409 82.8473 282.357 83.3099C282.474 83.2284 282.591 83.149 282.711 83.0719L282.757 82.0611C282.677 82.0142 282.596 81.9673 282.517 81.9199ZM162.834 49.7138C163.69 49.871 164.512 50.145 165.287 50.5304C165.569 50.5118 165.849 50.4945 166.131 50.4774C166.262 50.1931 166.408 49.9166 166.568 49.6479L162.834 49.7138ZM200.98 308.188L200.296 307.944C198.937 307.458 197.879 307.005 196.962 306.518L192.599 304.196L199.432 302.068C201.197 301.52 202.998 300.961 204.805 300.383L211.545 298.231L207.018 303.671C205.849 305.076 204.37 306.353 202.494 307.576L202.384 307.643C202.238 307.726 201.979 307.843 201.666 307.951L200.98 308.188ZM244.96 200.667L246.031 196.123C246.238 195.247 246.461 194.39 246.703 193.583L248.112 188.878L250.487 193.177C250.739 193.633 251.025 194.08 251.335 194.505L252.756 196.45L250.617 197.556C250.087 197.831 249.562 198.112 249.041 198.402L244.96 200.667ZM210.212 123.55L207.974 122.638C207.503 122.446 206.962 122.295 206.369 122.192L206.133 122.135C205.419 121.921 204.685 121.765 203.951 121.67L202.132 121.477L201.845 119.97C200.806 114.504 201.985 109.531 205.451 104.767C206.206 103.728 206.946 102.665 207.65 101.604L207.788 101.419C208.529 100.535 209.255 99.6355 209.982 98.7358C211.835 96.4402 213.586 94.2716 215.583 92.3701L215.853 92.1096L220.4 87.6027L219.342 93.9165C218.621 98.2128 217.543 102.61 216.136 106.984C215.883 107.772 215.291 109.613 215.696 111.565L216.018 113.116L214.604 113.828C212.94 114.667 212.007 116.557 211.719 117.542C211.386 118.673 211.084 119.834 210.764 121.196L210.212 123.55ZM207.203 118.147C207.223 118.151 207.242 118.155 207.262 118.158C207.423 117.546 207.587 116.959 207.757 116.379C208.271 114.624 209.489 112.429 211.455 110.948C211.294 108.554 211.935 106.56 212.204 105.723C212.735 104.071 213.218 102.415 213.65 100.766C213.498 100.953 213.346 101.141 213.194 101.33C212.476 102.22 211.758 103.109 211.025 103.984C210.308 105.062 209.557 106.14 208.791 107.194C206.302 110.615 205.301 114.011 205.691 117.776C206.199 117.878 206.704 118.001 207.203 118.147Z" fill="black"/>
<path d="M110.761 161.692C111.799 162.567 113.282 162.67 114.632 162.531C115.982 162.391 117.329 162.051 118.679 162.196C120.573 162.399 122.219 163.524 123.951 164.317C127.942 166.144 132.705 166.206 136.742 164.483C132.179 160.591 126.758 157.711 120.979 156.11C118.332 155.376 114.529 154.587 111.971 156.061C110.217 157.072 108.915 159.551 110.359 161.288C110.474 161.428 110.608 161.564 110.761 161.692Z" fill="black"/>
<path d="M256.685 149.68C258.94 150.422 261.547 150.74 261.956 153.781C262.065 154.593 261.529 155.573 261.814 156.258C262.096 156.938 263.097 157.851 263.681 157.784C266.521 157.453 267.566 155.201 268.706 152.11C268.146 151.554 267.52 150.388 266.659 150.175C263.448 149.381 259.922 150.207 256.88 148.263C256.577 148.069 255.739 148.712 255.149 148.967C255.659 149.208 256.152 149.504 256.685 149.68Z" fill="black"/>
<path d="M265.463 147.644C266.66 148.273 266.525 147.379 266.265 146.444C265.776 144.689 265.48 142.88 265.138 141.086C265.077 140.763 265.183 140.408 265.222 139.933C265.722 140.196 265.897 140.328 266.093 140.383C266.691 140.55 267.296 140.688 267.899 140.838C267.748 140.224 267.795 139.354 267.403 139.051C266.647 138.465 265.107 137.636 264.832 137.896C263.562 139.103 261.651 140.313 263.058 142.602C263.284 142.969 263.518 143.33 263.748 143.695C263.334 143.579 262.926 143.43 262.504 143.356C262.154 143.295 261.635 143.175 261.466 143.348C261.25 143.57 261.129 144.273 261.28 144.403C262.624 145.553 263.924 146.833 265.463 147.644Z" fill="black"/>
<path d="M112.562 229.969C112.709 230.032 112.857 230.101 113.007 230.175C112.896 230.038 112.738 229.949 112.562 229.969Z" fill="black"/>
<path d="M327.235 292.951C328.113 284.659 328.316 276.298 327.669 267.984C326.573 253.9 322.399 241.701 316.91 228.836C315.686 225.965 316.156 225.021 319.094 224.329C319.613 224.207 320.186 224.198 320.637 223.958C320.81 223.865 320.884 223.084 320.717 222.93C315.478 218.103 310.299 213.115 304.404 209.081C297.903 204.632 290.586 202.047 283.25 199.333C282.94 199.218 282.666 199.007 282.376 198.841C282.665 198.739 282.958 198.537 283.243 198.549C286.101 198.661 288.964 198.725 291.811 198.978C293.569 199.134 294.909 199.223 294.01 196.799C293.832 196.32 293.906 195.75 293.863 195.221C293.083 185.671 291.946 176.199 290.332 166.766C289.186 160.066 287.015 153.562 286.258 146.792C285.709 141.895 287.85 133.853 282.458 131.015C278.554 128.962 274.284 127.597 270.142 126.014C269.267 125.68 268.253 125.711 267.304 125.573C268.251 125.624 269.201 125.731 270.149 125.714C271.448 125.691 273.561 125.98 274.441 124.814C274.964 124.123 274.875 123.164 274.769 122.304C273.048 108.314 273.399 94.1934 275.099 80.2204C275.734 75.0059 277.744 70.9062 282.348 68.2296C282.688 68.0316 283.034 67.8429 283.377 67.6491C283.517 68.1032 283.778 68.5579 283.78 69.0123C283.785 71.2636 283.897 73.5084 285.78 74.9944C287.337 76.2242 289.542 76.5791 291.244 77.6652C290.806 78.9579 290.684 80.3956 290.937 81.7403C291.009 82.1171 291.444 84.1194 291.856 84.2976C291.336 84.0729 290.785 83.8943 290.259 83.6781C290.167 85.6659 290.918 88.3515 288.469 89.3299C287.763 88.904 286.792 89.2607 286.281 89.9072C285.769 90.5544 285.611 91.4055 285.505 92.2234C285.251 94.1716 285.225 96.2611 286.191 97.9731C287.353 100.034 289.684 101.108 291.912 101.905C293.694 102.543 295.509 103.089 297.347 103.54C298.224 103.755 299.148 103.949 300.021 103.715C301.305 103.371 302.175 102.191 302.801 101.02C303.429 99.8466 303.92 98.6005 304.264 97.3151C304.476 96.5212 304.61 95.6017 304.124 94.9389C303.65 94.2919 302.773 94.1353 302.027 93.8398C300.518 93.2421 299.382 91.9317 298.659 90.4791C297.543 88.2334 297.571 85.7322 296.725 83.4905C296.479 82.8391 295.603 82.4258 295.01 81.9062C294.974 82.1075 294.955 82.283 294.863 82.4648C294.528 82.2965 294.069 81.9421 293.946 81.5561C293.848 81.2456 293.883 80.9111 293.919 80.5886C294.073 79.211 294.177 77.8413 294.519 76.4971C294.607 76.1474 302.591 82.2872 303.133 82.6288C306.378 84.6741 309.725 83.2509 312.434 81.0276C313.138 80.4502 313.862 79.8227 314.755 79.6436C315.836 79.4263 316.919 79.908 317.932 80.3428C319.006 80.8037 320.119 81.2299 321.286 81.2935C322.453 81.357 323.694 81.0078 324.466 80.1302C324.866 79.6765 315.508 74.6014 314.956 74.2161C312.788 72.705 311.104 69.8863 308.068 70.7462C307.909 70.7909 307.429 70.4083 307.441 70.2515C307.814 65.4999 303.893 64.5713 300.908 62.742C299.97 62.1676 299.3 61.1558 298.505 60.3463C297.792 61.0724 296.813 62.5641 295.797 62.6178C294.937 62.6634 293.094 61.0672 292.359 60.6284C289.707 59.0453 286.907 57.4391 284.49 55.5063C282.355 53.7995 280.844 51.4755 278.865 49.6089C276.802 47.6617 274.034 48.1526 273.03 50.474C267.32 63.6772 264.638 76.5955 263.534 90.8884C263.118 96.2804 263.064 101.701 262.867 107.109C262.821 108.352 262.706 108.388 261.503 107.709C258.035 105.753 254.019 104.812 250.656 107.193C248.182 108.945 247.526 108.637 246.516 106.166C244.516 101.274 236.836 99.9056 233.093 103.68C232.868 103.907 232.65 104.143 232.429 104.375C232.341 104.078 232.129 103.755 232.184 103.487C232.594 101.52 233.121 99.576 233.493 97.6026C235.18 88.6323 234.909 79.6015 233.982 70.5977C232.777 58.8976 228.883 48.5791 224.505 37.7811C223.949 36.4079 223.374 35.0069 222.401 33.8908C220.887 32.1557 218.605 31.9205 216.435 31.9065C214.52 31.8932 212.605 31.8806 210.69 31.8674C208.675 31.8536 206.244 32.079 205.332 33.8758C204.145 33.0895 204.277 31.3187 203.618 30.0567C202.71 28.3161 200.493 27.8241 198.553 27.5215C195.903 27.108 193.008 26.7378 190.698 28.0985C189.24 28.9576 188.14 30.4505 186.514 30.9164C185.032 31.3415 183.453 30.8117 181.912 30.878C179.061 31.0003 176.695 33.1092 173.939 33.8487C171.721 34.4443 169.376 34.1248 167.09 33.9054C162.462 33.4613 157.793 33.4461 153.162 33.8594C152.066 33.9575 150.869 34.1287 150.127 34.9411C149.266 35.8841 149.335 37.3249 149.49 38.5924C149.647 39.8679 149.951 41.3137 151.068 41.9502C151.729 42.3267 152.532 42.3238 153.292 42.3103C159.492 42.2013 165.691 42.0928 171.891 41.9844C172.398 41.9755 172.933 41.9733 173.376 42.2207C174.543 42.8722 174.278 44.5699 174.259 45.9062C174.235 47.7071 175.007 49.5051 176.33 50.7268C176.551 50.9312 176.797 51.1356 176.886 51.4227C177.107 52.1362 176.236 52.717 175.493 52.7894C174.749 52.8625 173.911 52.7415 173.334 53.2167C172.518 53.8904 172.912 55.3314 173.804 55.8987C174.698 56.4661 175.836 56.419 176.892 56.3524C176.105 56.515 175.393 57.0099 174.966 57.6915C175.963 58.1281 177.139 57.7901 178.188 58.077C179.238 58.364 179.931 60.0396 178.917 60.4331C178.109 60.4569 177.302 60.4807 176.494 60.5045C176.79 59.6411 176.188 58.6765 175.379 58.2543C174.57 57.8321 173.617 57.8189 172.705 57.8253C168.635 57.8553 164.568 58.0974 160.524 58.5517C161.142 58.3393 161.688 57.9234 162.056 57.3835C161.032 56.7563 159.608 57.3446 158.944 58.345C158.28 59.346 158.193 60.6131 158.198 61.8137C158.205 63.3488 158.339 64.9329 159.05 66.2936C160.561 69.1793 164.107 70.2088 167.277 70.9584C171.081 71.8576 175.022 72.762 178.863 72.0332C182.704 71.3049 186.436 68.4797 186.923 64.6004C187.038 63.6767 186.836 62.5367 185.97 62.1939C185.415 61.9737 184.794 62.174 184.199 62.233C183.604 62.292 182.863 62.091 182.731 61.5083C182.656 61.1733 182.815 60.836 182.97 60.53C183.397 59.6863 183.825 58.8426 184.253 57.9988C182.447 57.7278 180.866 56.3081 180.404 54.5415C182.894 53.515 185.11 51.8292 186.763 49.7022C187.473 48.7886 188.086 47.7889 188.923 46.9887C189.549 46.3908 190.299 45.904 190.779 45.1843C191.258 44.4639 191.367 43.381 190.718 42.8086C195.338 43.5129 200.146 43.3322 204.81 43.8226C205.427 43.8878 206.058 44.5836 206.533 45.12C209.955 48.9902 213.33 52.9007 216.743 56.7777C217.43 58.2954 218.385 59.8635 218.859 61.4549C219.87 64.8478 220.472 69.5485 219.814 73.0531C218.825 78.3244 216.215 83.1478 212.566 87.2639C211.66 88.286 210.766 89.3187 209.885 90.3478L204.07 96.7113C203.914 96.8529 203.768 97.0048 203.651 97.169C198.11 104.952 193.882 113.906 197.222 123.509C197.345 123.862 197.44 124.334 197.13 124.541C196.968 124.649 196.757 124.631 196.563 124.631C195.835 124.63 195.111 124.945 194.615 125.478C195.083 125.698 197.231 126.928 195.759 127.657C194.106 128.515 192.351 129.174 190.681 130.002C190.22 130.23 189.932 130.807 189.565 131.224C189.267 131.562 192.645 131.237 192.778 131.236C194.419 131.225 196.14 131.854 197.478 132.776C197.856 133.037 198.223 133.339 198.436 133.746C198.785 134.415 198.506 135.101 198.693 135.762C198.992 136.821 199.629 137.622 200.143 138.578C201.608 141.303 201.396 144.52 197.83 143.861C195.046 143.348 192.225 143.035 189.395 142.927C181.922 142.64 174.418 143.82 167.415 146.456C165.153 146.529 163.202 147.477 160.881 146.744C161.442 145.728 162.347 144.289 163.731 142.804C166.334 140.01 168.845 138.973 168.682 138.637C168.31 137.869 162.522 140.804 161.855 141.202C158.033 143.482 156.445 147.504 156.783 151.817C147.99 157.497 142.848 164.294 140.702 167.407C135.699 171.206 129.378 170.179 123.578 171.012C122.232 171.205 121.609 170.029 122.567 169.276C125.084 167.297 122.488 167.724 121.819 167.621C121.045 167.502 120.267 167.397 119.488 167.297C121.082 167.214 122.428 167.184 123.76 167.053C124.411 166.989 125.042 166.724 125.682 166.549C124.997 166.325 124.327 165.996 123.623 165.894C120.713 165.472 117.772 165.236 114.882 164.71C110.596 163.93 109.311 162.273 109.433 158.222C109.448 157.749 109.206 157.267 109.084 156.79C108.674 157.189 108.072 157.516 107.887 158.001C106.977 160.388 108.031 163.243 110.633 164.369C113.488 165.605 116.545 166.369 119.345 167.277C115.992 166.847 112.62 166.519 109.338 165.783C107.348 165.336 105.206 164.125 103.866 162.611C102.373 160.924 103.939 159.063 105.029 157.453C105.588 156.629 105.97 155.685 106.432 154.796C105.449 155.419 104.449 156.02 103.488 156.677C103.082 156.955 102.738 157.335 102.399 157.698C99.3026 161.006 100.699 166.086 105.057 167.13C108.035 167.844 111.08 168.281 114.057 168.997C115.254 169.285 116.358 169.976 117.489 170.516C117.765 170.647 117.981 170.903 118.225 171.101C117.896 171.256 117.578 171.515 117.238 171.548C114.4 171.826 111.258 172.942 108.79 172.098C105.276 170.896 100.75 172.416 98.2192 167.775C96.2347 164.134 95.8998 160.504 98.9794 157.72C99.6567 157.107 100.225 156.372 100.843 155.693C99.9758 155.408 99.1069 155.13 98.2436 154.834C97.7455 154.663 97.2624 154.345 96.7617 154.321C96.4521 154.305 95.9375 154.658 95.8431 154.95C95.7007 155.394 95.8436 155.929 95.865 156.426C95.5122 156.043 95.2112 155.585 94.7954 155.292C93.8933 154.654 92.9328 154.101 91.9956 153.513C91.7648 154.359 91.534 155.205 91.3032 156.051C91.5524 156.828 91.5898 157.793 92.0856 158.352C94.5324 161.106 93.9569 164.431 94.0475 167.641C94.0523 167.811 94.0388 167.981 94.0338 168.152C93.8355 167.921 93.4217 167.616 93.4713 167.468C94.4214 164.661 91.9279 163.378 90.9391 161.41C90.0774 159.694 89.7543 157.708 89.1936 155.842C88.5451 153.979 89.2138 151.675 86.6376 150.504C82.4428 148.595 78.1573 148.135 73.8094 149.257C65.0132 151.528 57.6357 156.398 51.3696 162.81C50.2571 163.949 50.0286 166.837 50.5986 168.505C51.2883 170.524 53.5632 170.011 55.3404 169.269C55.8288 169.064 56.2968 168.735 56.802 168.664C57.7126 168.536 58.6451 168.533 59.5667 168.559C59.6764 168.562 59.7722 169.064 59.8748 169.335C59.1143 169.328 58.3332 169.209 57.5993 169.346C56.8875 169.478 56.2355 169.905 55.5364 170.141C54.5662 170.467 53.5424 170.658 52.6033 171.053C51.6461 171.455 50.5392 171.841 49.9016 172.582C49.0169 173.611 48.5254 174.973 47.836 176.177C45.3261 180.559 44.719 180.85 39.6011 180.213C38.5426 180.081 37.4837 179.903 36.4207 179.862C34.2894 179.78 33.7958 180.926 34.4561 182.748C35.438 185.458 37.1789 187.155 40.2678 187.235C41.8594 187.275 43.4413 187.635 45.0308 187.824C46.0804 187.948 46.5528 188.061 45.7989 189.34C43.4298 193.358 41.2703 197.5 38.9955 201.575C32.2354 213.688 30.3083 227.11 28.6075 240.552C28.2463 243.408 28.7404 246.455 29.282 249.33C30.9304 258.072 34.5613 265.919 40.7898 272.374C48.0649 279.912 59.3488 281.666 69.346 280.485C74.3019 279.9 79.4223 278.654 83.9222 276.447C87.4322 274.725 91.1848 270.284 95.4672 271.639C97.393 272.248 99.375 272.714 101.24 273.47C111.883 277.781 122.351 282.535 133.158 286.433C144.085 290.374 155.729 291.438 166.57 295.246C168.695 295.994 170.847 296.959 172.643 298.291C176.657 301.269 180.301 304.899 184.469 307.649C188.822 310.518 194.437 314.397 199.637 315.123C203.89 315.717 208.259 315.242 211.547 312.255C213.203 310.751 213.133 309.462 215.762 305.481C217.482 302.878 219.138 300.896 220.311 299.59C220.404 300.313 220.527 301.33 220.646 302.552C221.828 314.766 222.674 326.116 227.434 337.595C231.423 347.22 237.375 356.42 245.832 362.694C254.654 369.24 265.537 371.485 276.298 369.508C280.686 368.701 284.981 367.296 288.959 365.272C299.353 359.982 307.62 351.06 313.4 340.932C319.181 330.803 322.61 319.486 324.906 308.052C325.908 303.064 326.698 298.021 327.235 292.951ZM298.599 69.6352C299.269 70.7754 299.954 71.9077 300.549 73.0845C300.572 73.1286 299.73 73.61 298.751 74.2289C297.961 73.2935 296.914 72.5741 297.001 72.0378C297.141 71.174 298.028 70.4305 298.599 69.6352ZM41.7551 256.899C42.8231 257.316 43.8264 257.912 44.9113 258.269C45.404 258.43 46.1193 258.352 46.5641 258.092C46.9438 257.871 47.0818 257.235 47.3271 256.783C47.5274 257.338 47.9822 257.952 47.8683 258.432C47.6947 259.162 47.2776 260.098 46.6866 260.396C46.027 260.729 45.0569 260.448 43.857 260.428C42.9055 259.996 41.5987 259.566 40.5124 258.815C40.176 258.583 40.4396 257.482 40.4284 256.779C40.8732 256.813 41.358 256.743 41.7551 256.899ZM52.2077 260.842C48.1617 262.556 44.6261 264.406 40.0896 262.124C30.1277 257.113 30.3176 241.429 31.5006 232.221C32.8451 221.749 35.1492 212.779 39.6067 204.437C41.131 201.584 42.499 198.648 43.9659 195.765C44.0778 195.544 44.2793 195.391 44.5008 195.392C43.1301 199.138 40.7828 202.415 39.2134 206.059C37.4954 210.047 36.1002 214.176 34.9906 218.374C32.3717 228.286 30.715 239.239 33.4465 249.48C34.1902 252.27 35.4938 255.109 37.1362 257.479C38.4379 259.356 40.1873 260.995 42.3346 261.773C45.8052 263.029 49.6533 261.87 53.0733 260.482C52.7825 260.6 52.4938 260.72 52.2077 260.842ZM57.0573 204.388C56.5861 205.167 56.1279 206.089 55.6015 206.977C54.1166 209.474 49.9323 211.443 52.015 206.874C53.7089 203.159 59.2439 198.826 63.5172 200.469C61.2451 199.593 58.0826 202.692 57.0573 204.388ZM75.8871 167.472C74.4139 167.286 72.9414 167.094 71.4687 166.905C69.7866 166.681 68.1001 166.486 66.4228 166.23C66.0687 166.176 65.7477 165.9 65.4116 165.726C65.7655 165.625 66.145 165.386 66.4691 165.445C69.682 166.035 72.8863 166.672 76.0917 167.306C76.3465 167.356 76.5877 167.477 76.8353 167.564C76.5198 167.534 76.2019 167.512 75.8871 167.472ZM86.5082 163.263C84.6791 163.067 82.8282 163.071 80.9976 162.881C73.4116 162.096 65.8294 161.271 58.2478 160.442C57.9836 160.413 57.7422 160.177 57.4903 160.038C57.8543 159.985 58.2236 159.861 58.5817 159.889C64.4805 160.353 70.3782 160.836 76.2758 161.315C76.2687 161.395 76.2621 161.477 76.255 161.557C79.6262 161.991 83.0046 162.379 86.362 162.9C86.9972 162.998 87.5505 163.627 88.1411 164.011C87.5976 163.752 87.0727 163.323 86.5082 163.263ZM158.802 173.432C161.48 173.733 164.148 174.145 166.821 174.496C167.062 174.528 167.298 174.609 167.536 174.667C167.331 174.701 167.111 174.697 166.924 174.774C163.904 176.002 161.185 174.952 158.496 173.674C158.318 173.589 158.146 173.487 157.972 173.394C158.249 173.406 158.528 173.401 158.802 173.432ZM145.95 176.571C146.87 175.329 149.887 174.019 151.558 173.882C151.329 174.873 151.1 175.918 151.396 176.89C151.899 178.552 154.507 178.941 155.948 179.432C156.386 179.581 156.993 179.162 157.482 179.245C158.281 179.379 159.051 179.7 159.822 179.976C159.912 180.009 159.926 180.256 159.973 180.402C156.715 180.594 153.847 179.674 150.684 178.872C148.718 178.374 146.701 178.233 144.775 178.966C144.847 178.154 145.376 177.346 145.95 176.571ZM139.854 253.565C135.031 252.432 130.237 251.17 125.404 250.078C124.179 249.802 124.027 249.777 125.241 249.217C125.264 249.207 125.046 248.289 124.845 248.247C124.037 248.075 122.915 247.709 122.408 248.086C120.12 249.791 118.418 249.932 116.609 247.303C116.226 246.746 114.056 247.302 112.748 247.549C112.202 247.652 111.78 248.573 111.257 248.619C109.962 248.735 108.068 249.085 107.441 248.401C105.649 246.446 108.255 247.572 108.701 247.1C108.969 246.816 109.707 246.985 110.232 246.929C112.425 246.693 114.618 246.449 117.128 246.174C123.995 247.692 131.096 249.25 138.188 250.847C139.001 251.03 139.84 251.319 140.524 251.774C141.031 252.111 141.306 252.797 141.685 253.326C141.071 253.416 140.414 253.696 139.854 253.565ZM164.753 219.463C161.804 222.42 157.299 218.546 154.537 217.194C153.355 216.616 151.288 215.294 150.216 215.035C148.895 214.718 147.751 215.503 146.409 215.107C144.664 214.591 146.118 212.459 143.484 212.927C143.162 212.025 143.161 211.148 143.189 210.175C142.002 210.637 140.64 211.303 140.439 212.561C140.37 212.989 140.45 213.449 140.265 213.841C140.028 214.341 139.448 214.559 138.921 214.73C133.034 216.648 126.984 221.083 123.966 226.555C122.923 228.447 122.089 231.487 119.855 232.337C117.444 233.254 115.13 231.222 113.007 230.174C113.116 230.308 113.181 230.489 113.173 230.662C113.159 231.011 112.945 231.317 112.73 231.594C107.926 237.79 99.638 238.821 92.2926 238.541C90.4668 238.472 88.5114 238.31 86.9366 239.237C86.3646 239.574 85.8694 240.044 85.2582 240.306C84.6478 240.567 83.8365 240.55 83.4288 240.027C84.3403 238.348 86.6045 238.111 88.513 238.034C94.1637 237.808 100.024 237.021 105.051 234.261C108.254 232.501 118.031 225.361 112.811 221.534C112.239 222.056 111.667 222.577 111.096 223.099C112.554 214.605 118.436 206.996 126.289 203.445C124 205.829 121.955 208.446 120.193 211.243C120.712 211.309 121.231 211.373 121.749 211.441C120.564 214.314 118.759 218.42 119.312 221.43C126.859 216.808 133.565 211.577 142.4 209.588C147.513 208.437 149.254 210.994 152.422 214.156C155.788 217.516 160.242 219.575 165.08 219.096C164.975 219.229 164.865 219.351 164.753 219.463ZM174.714 206.074C173.11 210.066 169.685 212.364 166.511 214.894C166.354 215.019 166.152 215.087 165.971 215.183C166.165 214.87 166.318 214.521 166.56 214.252C169.157 211.373 171.768 208.506 174.376 205.636C174.667 205.515 174.958 205.394 175.25 205.272C175.071 205.54 174.893 205.808 174.714 206.074ZM281.802 176.897C282.399 177.809 283.004 178.351 283.13 178.988C283.846 182.603 284.477 186.235 285.075 189.872C285.365 191.637 285.546 193.422 285.722 195.204C285.763 195.626 285.584 196.07 285.506 196.503C285.083 196.169 284.354 195.888 284.285 195.492C283.615 191.655 283.065 187.797 282.463 183.949C282.169 182.072 281.819 180.204 281.542 178.325C281.491 177.977 281.667 177.595 281.802 176.897ZM272.796 186.674C274.082 188.607 274.153 191.32 274.918 193.635C275.526 195.474 274.578 195.87 273.102 196.014C271.244 196.196 269.387 196.386 267.529 196.572L267.818 195.99C268.338 195.652 268.901 194.991 268.815 194.781C267.348 191.199 265.751 187.669 264.129 184.153C263.871 183.592 263.206 183.215 262.962 182.653C262.549 181.702 262.323 180.67 262.017 179.673C263.303 179.462 265.148 178.607 265.775 179.152C268.356 181.402 270.915 183.845 272.796 186.674ZM244.667 189.182C245.845 186.634 247.375 184.96 249.401 185.268C250.538 185.441 252.302 186.785 252.383 187.718C252.652 190.81 254.058 192.841 255.971 194.425L259.191 197.669C252.687 199.742 247.046 203.457 241.462 207.281C241.126 207.511 240.78 207.727 240.44 207.949C240.47 207.48 240.427 206.993 240.542 206.546C241.269 203.719 242.196 194.527 244.667 189.182ZM249.157 140.168C250.035 138.315 250.935 136.472 251.928 134.682C252.071 134.423 252.747 134.399 253.18 134.386C253.371 134.381 253.569 134.675 253.736 134.81C253.184 135.497 252.61 136.012 252.287 136.655C251.716 137.793 251.384 139.056 250.773 140.168C250.531 140.608 249.81 140.784 249.307 141.08C249.25 140.773 249.049 140.397 249.157 140.168ZM256.296 186.748C261.563 184.031 262.221 184.119 264.676 189.544C265.48 191.322 267.974 193.223 265.569 195.609L265.36 196.79C263.849 196.942 262.339 197.092 260.829 197.243L257.883 194.291C257.017 193.303 256.159 192.309 255.326 191.294C253.361 188.902 253.552 188.164 256.296 186.748ZM241.892 302.712C242.22 303.13 242.687 303.501 242.856 303.976C244.464 308.517 246.076 313.06 247.519 317.654C247.699 318.227 246.902 319.107 246.558 319.844C245.959 319.405 245.182 319.085 244.788 318.507C241.888 314.244 241.633 309.256 240.782 303.987C241.104 303.617 241.498 303.164 241.892 302.712ZM247.303 321.198C249.014 323.106 250.666 325.066 252.9 327.702C251.935 327.457 251.777 327.454 251.661 327.382C249.456 326.009 247.173 324.7 246.155 322.121C246.098 321.979 247.28 321.173 247.303 321.198ZM268.616 91.922C268.658 93.1678 268.362 94.4254 268.2 95.6782C268.184 95.6761 268.167 95.6739 268.15 95.6717C267.984 96.9578 267.818 98.244 267.653 99.5301C267.573 98.0937 267.476 96.6584 267.416 95.2214C267.37 94.0819 267.365 92.9395 267.349 91.7987C267.343 91.3795 267.359 90.9598 267.365 90.5408C267.805 91.0009 268.599 91.448 268.616 91.922ZM267.246 75.5287C268.19 71.8993 268.62 68.2219 269.349 64.5504C269.879 61.8824 270.692 58.7471 272.479 56.6816C272.144 58.0431 272.196 59.4499 271.923 60.8193C271.459 63.1399 270.619 65.3683 269.914 67.6213C269.155 70.0453 268.567 72.524 268.64 75.0786C268.709 77.4905 269.266 79.8664 268.83 82.2823C268.642 83.3154 267.189 86.204 267.421 87.0558C266.405 83.3336 266.271 79.2753 267.246 75.5287ZM258.827 137.407C261.09 135.417 264.043 134.99 267.248 137.625C272.497 141.943 271.505 158.09 263.197 158.305C251.701 158.602 252.89 142.626 258.827 137.407ZM237.604 120.949C241.285 121.111 244.965 121.274 249.457 121.473C251.45 121.822 254.265 122.309 257.073 122.825C257.288 122.865 257.463 123.116 257.658 123.268C257.368 123.368 257.044 123.607 256.793 123.546C255.569 123.248 254.268 122.385 253.169 122.604C247.947 123.643 243.105 121.264 238.032 121.193C237.676 121.188 237.323 121.028 236.969 120.94C237.18 120.942 237.392 120.94 237.604 120.949ZM232.408 125.383C233.953 124.967 235.518 124.143 237.039 124.217C240.471 124.383 243.895 124.91 247.292 125.471C248.401 125.653 249.419 126.395 250.478 126.88C250.112 127.415 249.721 128.423 249.385 128.405C247.262 128.291 245.151 127.953 243.039 127.672C242.87 127.65 242.717 127.511 242.557 127.426C242.917 127.066 243.216 126.555 243.65 126.38C244.361 126.093 245.159 126.025 245.92 125.864C245.763 125.739 245.611 125.513 245.45 125.506C244.317 125.46 243.114 125.224 242.073 125.526C241.39 125.724 240.939 126.722 240.384 127.361C237.414 127.042 234.443 126.733 231.474 126.402C227.139 125.919 226.487 126.624 227.401 130.96C227.77 132.712 228.254 134.439 228.659 136.185C228.745 136.55 228.712 136.944 228.735 137.324C228.571 136.947 228.354 136.583 228.252 136.189C227.326 132.631 226.345 129.084 225.559 125.495C225.346 124.522 225.091 122.973 227.257 124.283C228.677 125.141 230.671 125.05 232.408 125.383ZM219.545 130.219C219.868 133.725 220.202 137.23 220.559 140.732C221.279 147.774 222.08 154.807 222.839 161.844C222.896 162.37 223.035 162.94 222.895 163.421C222.751 163.921 222.316 164.338 222.007 164.79C221.725 164.417 221.261 164.074 221.19 163.664C220.902 161.998 220.752 160.31 220.519 158.634C220.186 156.233 219.454 153.819 219.567 151.442C219.719 148.25 218.891 145.199 218.839 142.048C218.769 137.939 218.279 133.838 218.13 129.728C218.027 126.88 218.131 124.019 218.297 121.172C218.331 120.592 219.083 119.967 219.529 119.719C220.227 120.329 220.408 121.147 220.519 122.035C220.818 124.437 221.8 127.561 221.491 129.967C221.512 130.148 221.531 130.33 221.546 130.508C219.916 129.618 220.562 124.54 220.267 122.581C220.145 121.771 219.936 120.838 219.198 120.483C217.802 122.642 219.321 127.783 219.545 130.219ZM210.608 288.56C211.731 288.375 212.91 288.369 214.042 288.486C214.523 288.535 214.949 289.105 215.401 289.439C214.987 289.972 214.67 290.803 214.14 290.976C213.068 291.324 211.88 291.315 210.499 291.482C209.167 290.913 207.678 290.277 206.189 289.642C207.66 289.271 209.116 288.807 210.608 288.56ZM223.862 167.536C223.774 166.956 223.877 166.346 223.891 165.75C224.751 166.273 226.246 166.68 226.365 167.338C227.044 171.048 227.429 174.815 227.846 178.57C228.439 183.917 228.968 189.272 229.542 194.621C229.622 195.367 229.801 196.103 229.975 197.061C230.177 197.015 229.872 197.191 229.676 197.109C229.174 196.897 228.37 196.636 228.303 196.279C227.798 193.587 227.455 190.865 227.038 188.156C225.982 181.282 224.905 174.412 223.862 167.536ZM227.083 62.242C227.609 68.881 228.529 75.525 228.483 82.1622C228.447 87.5106 227.389 92.8766 226.5 98.187C225.925 101.625 224.876 104.987 223.945 108.358C223.8 108.885 223.195 109.322 222.727 109.712C222.436 109.954 222.005 110.027 221.636 110.177C221.678 109.76 221.637 109.315 221.773 108.932C222.936 105.66 224.246 102.434 225.28 99.1216C226.127 96.4078 226.656 93.5951 227.326 90.8259C228.922 81.2482 227.633 71.7564 226.698 62.2583C226.668 61.95 226.669 61.6386 226.656 61.3287C226.804 61.6318 227.058 61.9279 227.083 62.242ZM206.364 127.77C206.197 127.724 206.107 127.4 205.981 127.205C208.58 125.699 205.843 125.655 205.379 125.504C204.282 125.147 203.066 124.961 201.913 125.014C199.997 125.103 199.301 124.046 198.88 122.442C196.998 115.264 198.317 108.725 202.668 102.744C203.455 101.663 204.218 100.562 204.953 99.4452C207.671 96.2298 210.154 92.7901 213.211 89.8792C215.868 87.3508 217.689 84.2059 219.103 80.852C219.829 79.1271 220.454 77.361 221.113 75.6098C221.635 74.2229 222.84 72.3236 222.984 70.8711C223.017 70.5358 222.944 70.1998 222.871 69.8704C222.261 67.113 221.681 64.3471 220.968 61.6137C220.923 61.4397 220.829 61.2783 220.708 61.124L218.214 56.4182C218.229 56.2501 218.218 56.0981 218.147 55.9833C217.817 55.4521 217.476 54.9277 217.142 54.3979C214.787 50.6486 212.019 47.1905 209.615 43.5067C209.56 43.4213 213.245 42.9533 213.73 43.1286C214.949 43.5691 216.343 44.8741 216.715 46.0894C219.012 53.584 221.786 61.0431 222.994 68.7358C225.077 82.0129 223.528 95.2356 219.409 108.039C218.439 111.054 219.136 112.38 221.935 113.168C224.483 113.885 227.026 114.633 229.511 115.535C229.966 115.701 230.127 116.673 230.424 117.273C229.871 117.197 229.31 117.155 228.764 117.041C226.523 116.574 223.693 115.023 222.19 115.861C220.086 117.035 218.307 116.659 216.341 116.847C215.838 116.896 215.209 117.858 215.017 118.512C214.393 120.64 213.908 122.811 213.448 124.983C213.298 125.691 213.385 126.449 213.363 127.184C212.921 126.699 212.535 126.127 212.005 125.773C211.809 125.641 211.217 125.948 210.905 126.186C210.5 126.493 210.126 126.892 209.875 127.329C209.732 127.577 209.727 128.16 209.892 128.283C210.472 128.719 211.151 129.021 211.793 129.373C211.111 129.111 210.444 128.795 209.745 128.6C208.629 128.288 207.484 128.075 206.364 127.77ZM215.372 294.918C214.445 296.934 213.359 298.888 212.563 300.953C210.952 305.13 207.981 308.103 204.351 310.471C203.25 311.189 201.853 311.453 200.945 311.794C196.247 310.274 192.309 308.568 189.85 304.557C188.761 302.78 189.386 301.658 191.094 301.097C196.323 299.381 201.611 297.846 206.83 296.103C209.248 295.295 211.541 294.122 213.933 293.225C214.529 293.001 215.286 293.204 215.97 293.21C215.773 293.781 215.622 294.372 215.372 294.918ZM221.26 277.794C220.93 278.805 218.784 279.225 217.468 279.915C213.4 278.759 213.539 278.599 214.461 274.798C215.395 270.948 217.661 268.903 221.263 267.737C222.704 267.27 223.034 267.539 222.84 268.85C222.397 271.853 222.19 274.944 221.26 277.794ZM224.358 260.188C224.235 260.606 223.966 261.026 223.601 261.418C222.077 263.047 218.858 264.165 217.348 262.5C217.126 262.256 217.181 261.541 217.371 261.179C218.496 259.027 219.453 256.712 220.973 254.869C221.789 253.879 223.6 253.673 225.012 253.296C225.119 253.267 225.617 254.704 225.804 255.151C225.293 256.826 224.852 258.509 224.358 260.188ZM229.529 213.861C229.282 211.738 227.177 201.726 228.99 201.272C229.843 203.278 230.062 205.688 230.412 207.847C231.002 211.487 231.503 215.14 232.005 218.794C233.344 228.556 234.684 238.317 236.023 248.079C236.489 251.476 236.948 254.993 235.996 258.287C235.77 259.069 235.462 259.854 235.513 260.665C235.641 262.719 237.456 265.035 238.11 267.001C238.916 269.42 239.428 272.029 239.415 274.566C238.985 271.589 237.254 269.104 236.267 266.314C235.226 263.37 234.911 260.198 234.553 257.113C233.263 246.004 231.972 234.896 230.682 223.787C230.672 223.703 230.662 223.62 230.653 223.536C230.278 220.311 229.903 217.087 229.529 213.861ZM266.346 344.342C261.328 348.671 255.978 352.181 248.878 351.161C229.699 348.405 225.08 320.26 223.446 304.987C221.921 290.716 223.19 274.993 226.683 261.093C226.754 260.812 226.819 260.529 226.886 260.248C226.883 260.563 226.894 260.881 226.874 261.195C225.357 284.559 221.06 307.634 231.139 329.86C236.946 342.666 249.271 356.18 263.693 345.828C264.471 345.27 265.206 344.652 265.977 344.082C266.215 343.907 266.504 343.797 266.77 343.657C266.631 343.888 266.54 344.174 266.346 344.342ZM290.877 219.711C290.891 219.625 290.905 219.538 290.919 219.453C288.748 219.031 286.411 218.972 284.452 218.083C282.545 217.218 280.71 215.749 279.415 214.097C277.896 212.16 276.982 209.744 275.864 207.508C275.812 207.402 276.502 206.757 276.556 206.794C277.423 207.379 278.412 207.902 279.038 208.702C280.319 210.338 281.417 211.859 283.91 211.878C284.553 211.883 285.431 213.9 285.765 215.113C286.534 217.912 288.706 218.782 291.091 219.489C291.494 219.609 291.911 219.682 292.321 219.776C291.839 219.754 291.358 219.733 290.877 219.711Z" fill="black"/>
<path d="M306.327 191.349L205.955 178.425L205.952 178.45L89.5387 163.494L80.2551 264.259L281.524 290.134L281.627 289.452L293.499 290.98L306.327 191.349Z" fill="black"/>
</svg>
