<svg width="453" height="351" viewBox="0 0 453 351" fill="none" xmlns="http://www.w3.org/2000/svg">
<path d="M227.343 245.864L222.741 197.519L203.282 242.013L212.424 194.281L181.11 231.565L203.432 188.314L162.993 215.158L196.469 180.027L150.08 194.468L192.152 170.117L143.447 170.878L190.775 159.421L144.064 146.457L192.487 148.718L151.099 123.064L197.133 138.985L164.763 102.722L204.329 130.918L183.487 87.0939L213.529 125.218L205.819 77.1605L223.934 122.356L230.143 74.1527L234.745 122.498L254.204 78.0043L245.062 125.737L276.376 88.4519L254.054 131.703L294.493 104.858L261.016 139.99L307.405 125.55L265.335 149.899L314.039 149.139L266.711 160.595L313.423 173.558L264.999 171.298L306.387 196.952L260.353 181.031L292.723 217.294L253.157 189.098L273.998 232.922L243.957 194.798L251.666 242.855L233.552 197.66L227.343 245.864ZM220.829 176.608L216.406 199.702L225.846 178.115L228.079 201.568L231.083 178.249L239.797 199.991L236.083 176.842L250.677 195.361L240.546 174.057L259.711 187.715L244.058 170.179L266.177 177.829L246.268 165.49L269.883 166.591L247.104 160.27L269.867 154.76L246.467 155.125L266.81 143.35L244.339 150.345L260.614 133.266L240.97 146.307L251.722 125.473L236.658 143.411L241.08 120.317L231.64 141.904L229.407 118.45L226.403 141.769L217.689 120.027L221.402 143.176L206.809 124.657L216.941 145.961L197.776 132.303L213.428 149.839L191.31 142.189L211.217 154.528L187.603 153.425L210.382 159.748L187.619 165.258L211.019 164.892L190.676 176.666L213.146 169.672L196.871 186.751L216.516 173.711L205.765 194.543L220.829 176.608Z" fill="white"/>
<path d="M358.864 156.538L352.481 140.612L353.689 123.479C349.127 107.917 341.708 93.425 331.943 80.7116L317.424 71.5989L308.342 57.0073C295.853 47.3387 281.47 39.8453 265.671 35.1918L248.528 36.369L232.609 29.9011C216.147 29.3915 200.143 32.0231 185.262 37.3119L172.08 48.3408L155.442 52.4678C142.198 61.4984 130.625 72.9526 121.436 86.3137L117.237 102.968L106.203 116.107C103.543 123.556 101.52 131.351 100.225 139.444C98.9301 147.538 98.4198 155.575 98.6219 163.482L105.005 179.408L103.797 196.541C108.358 212.103 115.778 226.595 125.544 239.309L140.063 248.421L149.145 263.012C161.633 272.681 176.017 280.175 191.816 284.828L208.958 283.651L224.877 290.118C241.339 290.628 257.343 287.996 272.225 282.708L285.407 271.679L302.045 267.552C315.289 258.521 326.861 247.068 336.051 233.706L340.249 217.052L351.283 203.913C353.942 196.464 355.966 188.669 357.261 180.575C358.556 172.482 359.066 164.445 358.864 156.538ZM218.778 222.287C184.383 216.783 160.962 184.439 166.466 150.044C171.97 115.65 204.314 92.229 238.709 97.7329C273.104 103.237 296.524 135.581 291.02 169.975C285.517 204.37 253.173 227.791 218.778 222.287Z" fill="white"/>
<path d="M323.09 137.546C317.695 119.254 307.311 102.769 293.369 90.3341C279.451 77.8887 262.031 69.5777 243.675 66.6951C225.337 63.7122 206.195 66.1726 189.09 73.6536C171.967 81.1167 156.956 93.5358 146.118 109.226C155.202 92.4275 169.977 78.5635 187.481 70.1592C196.21 65.8897 205.652 63.0818 215.29 61.6307C224.943 60.2361 234.809 60.3452 244.454 61.8304C254.079 63.4365 263.49 66.4009 272.223 70.7476C280.928 75.1303 289.018 80.7494 295.979 87.5275C309.984 100.973 319.696 118.751 323.09 137.546Z" fill="#0F1412"/>
<path d="M135.371 186.227C141.328 203.661 151.81 219.231 165.521 230.965C179.214 242.704 196.078 250.538 213.81 253.325C231.526 256.205 249.991 254.024 266.662 247.144C283.349 240.274 298.166 228.756 309.271 214.055C299.874 229.933 285.264 242.876 268.201 250.67C259.691 254.633 250.536 257.208 241.212 258.521C231.874 259.776 222.349 259.624 213.032 258.19C203.734 256.638 194.635 253.82 186.158 249.704C177.709 245.55 169.818 240.243 162.969 233.825C149.193 221.094 139.351 204.242 135.371 186.227Z" fill="#0F1412"/>
<path d="M217.761 228.638C179.918 222.582 154.058 186.869 160.114 149.027C166.169 111.184 201.883 85.3238 239.725 91.3793C277.567 97.4349 303.428 133.149 297.372 170.991C291.317 208.833 255.603 234.694 217.761 228.638ZM239.465 93.0014C202.518 87.089 167.648 112.338 161.736 149.286C155.823 186.234 181.072 221.103 218.02 227.016C254.968 232.928 289.838 207.679 295.75 170.731C301.663 133.783 276.414 98.9139 239.465 93.0014Z" fill="#0F1412"/>
<path d="M244.715 182.07C256.899 173.248 259.624 156.219 250.802 144.035C241.979 131.851 224.95 129.126 212.766 137.948C200.582 146.771 197.857 163.8 206.68 175.984C215.502 188.168 232.531 190.893 244.715 182.07Z" fill="white"/>
<path d="M245.459 162.684C243.982 171.916 235.301 178.201 226.069 176.724C216.838 175.247 210.552 166.566 212.029 157.335C213.507 148.103 222.188 141.817 231.419 143.294C240.65 144.772 246.936 153.453 245.459 162.684Z" fill="#0F1412"/>
<path d="M336.804 154.769C334.734 130.227 324.281 106.88 307.892 89.1332C291.544 71.336 269.222 59.3225 245.447 55.6309C221.708 51.7249 196.753 56.1731 175.67 67.9806C154.564 79.7276 137.346 98.6417 127.716 121.31L129.284 116.967L131.038 112.687L133.017 108.5L135.179 104.399C138.181 98.9884 141.656 93.8234 145.554 88.9791C153.415 79.344 162.99 71.0467 173.745 64.6501C184.468 58.1907 196.394 53.729 208.715 51.3236C221.056 48.9689 233.81 48.8277 246.225 50.7668C258.624 52.8062 270.701 56.9102 281.685 63.0074C292.643 69.1337 302.577 77.0985 310.749 86.5793C318.972 96.0121 325.479 106.883 329.94 118.489C332.133 124.307 333.824 130.298 334.988 136.375L335.763 140.946L336.337 145.541L336.67 150.154L336.804 154.769Z" fill="#0F1412"/>
<path d="M239.583 92.2641C276.938 98.2416 302.465 133.495 296.487 170.85C290.51 208.205 255.256 233.732 217.902 227.755C180.547 221.777 155.019 186.523 160.997 149.168C166.975 111.814 202.229 86.2866 239.583 92.2641ZM240.881 84.1511C198.986 77.4469 159.589 105.975 152.885 147.87C146.18 189.765 174.709 229.163 216.604 235.867C258.499 242.571 297.896 214.043 304.6 172.148C311.305 130.252 282.776 90.8552 240.881 84.1511Z" fill="#0F1412"/>
<path d="M20.0234 286.117L21.0319 279.815C21.8187 274.899 17.9629 270.18 12.4381 269.296L5.82175 268.237L13.9261 217.592L20.5424 218.651C26.0673 219.535 31.2029 216.254 31.9897 211.338L32.9982 205.036L400.665 263.87L399.656 270.172C398.869 275.088 402.725 279.808 408.25 280.692L414.866 281.751L406.762 332.396L400.145 331.337C394.621 330.453 389.485 333.734 388.698 338.65L387.69 344.952L20.0234 286.117Z" fill="white"/>
<path d="M397.278 266.322L396.737 269.704C395.693 276.23 400.648 282.469 407.783 283.61L411.48 284.202L404.31 329.009L400.613 328.418C393.478 327.276 386.823 331.657 385.779 338.183L385.238 341.565L23.4092 283.665L23.9504 280.283C24.9947 273.756 20.0397 267.518 12.9052 266.376L9.20818 265.785L16.3783 220.977L20.0754 221.569C27.2098 222.711 33.864 218.331 34.9084 211.804L35.4496 208.422L397.278 266.322ZM404.051 261.418L398.213 260.483L36.3839 202.583L30.5453 201.649L29.611 207.488L29.0699 210.869C28.5406 214.177 24.9249 216.357 21.0097 215.73L17.3126 215.139L11.474 214.205L10.5397 220.043L3.3696 264.851L2.4353 270.689L8.27388 271.623L11.971 272.215C15.8862 272.842 18.641 276.041 18.1118 279.348L17.5706 282.73L16.6363 288.569L22.4749 289.503L384.303 347.403L390.142 348.338L391.076 342.499L391.618 339.117C392.147 335.81 395.762 333.63 399.678 334.256L403.375 334.848L409.213 335.782L410.148 329.944L417.318 285.136L418.252 279.298L412.413 278.363L408.716 277.772C404.801 277.145 402.046 273.945 402.576 270.638L403.117 267.256L404.051 261.418Z" fill="#0F1412"/>
<path d="M381.22 300.778C379.2 302.844 378.894 306.12 380.646 308.539C382.398 310.958 385.606 311.69 388.198 310.415L381.22 300.778Z" fill="#0F1412"/>
<path d="M382.882 299.576L389.86 309.213C391.88 307.147 392.186 303.871 390.434 301.452C388.682 299.033 385.475 298.301 382.882 299.576Z" fill="#0F1412"/>
<path d="M38.8988 242.564C36.8332 240.545 33.5571 240.239 31.1379 241.991C28.7188 243.743 27.9867 246.951 29.2616 249.543L38.8988 242.564Z" fill="#0F1412"/>
<path d="M40.1026 244.226L30.4655 251.204C32.5312 253.224 35.8072 253.53 38.2263 251.779C40.6449 250.026 41.377 246.818 40.1026 244.226Z" fill="#0F1412"/>
<path d="M61.0839 266.882L54.3213 265.782L59.2871 235.241L66.0497 236.341L64.0492 248.644L66.7106 249.077L76.0846 237.972L82.1927 238.966L81.8309 241.191L72.0076 252.581L78.2432 267.388L77.8814 269.613L71.3369 268.549L65.8767 255.032L63.0844 254.578L61.0839 266.882Z" fill="black"/>
<path d="M95.2084 262.085L96.8968 251.701C97.1096 250.392 96.8047 249.238 95.982 248.239C95.164 247.21 93.8824 246.554 92.1372 246.27C90.392 245.986 88.9686 246.203 87.8668 246.919C86.7698 247.607 86.1149 248.605 85.9021 249.914L84.2137 260.298C84.0009 261.606 84.3034 262.775 85.1214 263.804C85.9441 264.803 87.2281 265.445 88.9733 265.729C90.7185 266.013 92.1396 265.811 93.2366 265.123C94.3383 264.407 94.9956 263.394 95.2084 262.085ZM103.603 253.15L102.021 262.879C101.458 266.341 99.9128 268.866 97.3853 270.455C94.8579 272.045 91.7181 272.534 87.9659 271.924C84.2138 271.314 81.3908 269.855 79.4971 267.547C77.6034 265.239 76.9379 262.354 77.5007 258.893L79.0827 249.163C79.6455 245.702 81.1761 243.174 83.6744 241.58C86.2066 239.962 89.3633 239.46 93.1446 240.075C96.9258 240.689 99.7464 242.163 101.606 244.496C103.5 246.804 104.165 249.689 103.603 253.15Z" fill="black"/>
<path d="M98.4252 272.953L99.4325 266.758C101.556 267.103 103.097 266.622 104.056 265.315C105.015 264.008 105.825 261.319 106.487 257.246L108.757 243.285L128.871 246.555L123.905 277.096L117.142 275.997L121.15 251.346L113.995 250.182L112.491 259.432C111.631 264.726 110.051 268.469 107.754 270.663C105.491 272.833 102.381 273.596 98.4252 272.953Z" fill="black"/>
<path d="M146.044 280.696L125.843 277.411L130.809 246.87L150.923 250.141L149.965 256.031L136.614 253.86L135.55 260.404L146.894 262.249L145.979 267.877L134.635 266.033L133.564 272.621L147.002 274.806L146.044 280.696Z" fill="black"/>
<path d="M157.31 283.199C153.412 282.566 150.585 281.136 148.827 278.909C147.074 276.654 146.484 273.766 147.056 270.247L148.659 260.386C149.231 256.867 150.704 254.33 153.076 252.775C155.454 251.191 158.591 250.716 162.489 251.35C165.804 251.889 168.392 253.235 170.251 255.388C172.11 257.542 172.749 260.407 172.167 263.985L172.096 264.421L165.29 263.314L165.361 262.878C165.607 261.366 165.326 260.156 164.518 259.248C163.715 258.311 162.557 257.72 161.045 257.474C157.816 256.949 155.968 258.126 155.5 261.006L153.74 271.826C153.272 274.706 154.652 276.408 157.881 276.933C159.423 277.184 160.703 277.019 161.723 276.438C162.777 275.833 163.432 274.745 163.687 273.175L163.758 272.738L170.564 273.845L170.493 274.281C169.907 277.888 168.391 280.418 165.945 281.872C163.533 283.301 160.655 283.743 157.31 283.199Z" fill="black"/>
<path d="M175.616 285.504L169.42 284.497L174.386 253.956L181.149 255.055L178.155 273.467L192.231 256.857L198.426 257.865L193.46 288.406L186.698 287.306L189.691 268.894L175.616 285.504Z" fill="black"/>
<path d="M201.908 289.779L195.363 288.715L200.329 258.174L206.873 259.238L212.43 273.263L222.144 261.721L228.383 262.736L223.417 293.276L216.872 292.212L219.887 273.67L212.973 282.039L208.785 281.358L204.922 271.236L201.908 289.779Z" fill="black"/>
<path d="M243.916 296.61L229.737 294.304L234.703 263.763L247.617 265.863C250.555 266.341 252.705 267.437 254.069 269.151C255.461 270.87 255.933 273.111 255.483 275.875C255.015 278.754 253.588 280.642 251.204 281.538C252.598 282.511 253.581 283.626 254.153 284.884C254.729 286.112 254.869 287.642 254.571 289.475C254.112 292.296 252.947 294.316 251.077 295.535C249.241 296.729 246.854 297.087 243.916 296.61ZM238.493 283.144L237.457 289.514L244.612 290.677C245.369 290.8 246.039 290.625 246.623 290.153C247.237 289.685 247.626 288.943 247.792 287.925C247.957 286.907 247.823 286.079 247.389 285.441C246.985 284.808 246.404 284.43 245.648 284.307L238.493 283.144ZM240.508 270.753L239.408 277.515L245.123 278.445C245.938 278.577 246.654 278.395 247.272 277.898C247.92 277.406 248.331 276.622 248.506 275.546C248.681 274.47 248.539 273.596 248.081 272.925C247.657 272.229 247.037 271.814 246.223 271.682L240.508 270.753Z" fill="black"/>
<path d="M259.838 299.198L253.293 298.134L258.259 267.593L264.804 268.657L270.36 282.682L280.074 271.14L286.313 272.155L281.347 302.696L274.803 301.632L277.818 283.089L270.904 291.459L266.715 290.778L262.853 280.656L259.838 299.198Z" fill="black"/>
<path d="M303.484 306.295L283.284 303.01L288.25 272.47L308.363 275.74L307.405 281.63L294.055 279.459L292.99 286.004L304.334 287.848L303.419 293.476L292.075 291.632L291.004 298.22L304.442 300.405L303.484 306.295Z" fill="black"/>
<path d="M314.75 308.799C310.853 308.165 308.025 306.735 306.267 304.508C304.514 302.253 303.924 299.365 304.496 295.846L306.1 285.986C306.672 282.466 308.144 279.929 310.517 278.374C312.894 276.79 316.031 276.315 319.929 276.949C323.245 277.488 325.832 278.834 327.692 280.988C329.551 283.141 330.19 286.006 329.608 289.584L329.537 290.02L322.731 288.914L322.802 288.477C323.047 286.965 322.767 285.755 321.959 284.847C321.156 283.911 319.998 283.319 318.485 283.073C315.257 282.548 313.408 283.726 312.94 286.605L311.181 297.425C310.713 300.305 312.093 302.007 315.321 302.532C316.863 302.783 318.144 302.618 319.164 302.037C320.217 301.432 320.872 300.345 321.127 298.774L321.198 298.338L328.005 299.444L327.934 299.881C327.347 303.487 325.831 306.017 323.386 307.471C320.974 308.9 318.095 309.342 314.75 308.799Z" fill="black"/>
<path d="M338.99 312.068L332.227 310.968L336.235 286.318L327.815 284.949L328.772 279.059L352.333 282.889L351.375 288.779L342.998 287.417L338.99 312.068Z" fill="black"/>
<path d="M366.443 316.532L346.242 313.247L351.208 282.706L371.321 285.977L370.363 291.867L357.013 289.696L355.949 296.24L367.292 298.085L366.377 303.713L355.033 301.869L353.962 308.457L367.4 310.642L366.443 316.532Z" fill="black"/>
</svg>
